<?xml version="1.0" encoding="UTF-8"?>
<svg xmlns="http://www.w3.org/2000/svg" xmlns:xlink="http://www.w3.org/1999/xlink" width="850pt" height="300pt" viewBox="0 0 850 300" version="1.1">
<defs>
<clipPath id="clip1">
  <path d="M 54 169 L 831 169 L 831 224 L 54 224 Z M 54 169 "/>
</clipPath>
<clipPath id="clip2">
  <path d="M 54 19 L 831 19 L 831 76 L 54 76 Z M 54 19 "/>
</clipPath>
<clipPath id="clip3">
  <path d="M 54 132 L 831 132 L 831 199 L 54 199 Z M 54 132 "/>
</clipPath>
</defs>
<g id="surface6946">
<rect x="0" y="0" width="850" height="300" style="fill:rgb(100%,100%,100%);fill-opacity:1;stroke:none;"/>
<path style="fill:none;stroke-width:1;stroke-linecap:butt;stroke-linejoin:miter;stroke:rgb(0%,0%,0%);stroke-opacity:0.0980392;stroke-miterlimit:10;" d="M 55.5 20 L 55.5 223 "/>
<path style="fill:none;stroke-width:1;stroke-linecap:butt;stroke-linejoin:miter;stroke:rgb(0%,0%,0%);stroke-opacity:0.0980392;stroke-miterlimit:10;" d="M 55.5 224 L 55.5 231 "/>
<path style="fill:none;stroke-width:1;stroke-linecap:butt;stroke-linejoin:miter;stroke:rgb(0%,0%,0%);stroke-opacity:0.0980392;stroke-miterlimit:10;" d="M 830.5 20 L 830.5 223 "/>
<path style="fill:none;stroke-width:1;stroke-linecap:butt;stroke-linejoin:miter;stroke:rgb(0%,0%,0%);stroke-opacity:0.0980392;stroke-miterlimit:10;" d="M 830.5 224 L 830.5 231 "/>
<path style="fill:none;stroke-width:1;stroke-linecap:butt;stroke-linejoin:miter;stroke:rgb(0%,0%,0%);stroke-opacity:0.0980392;stroke-miterlimit:10;" d="M 56 223.5 L 830 223.5 "/>
<path style="fill:none;stroke-width:1;stroke-linecap:butt;stroke-linejoin:miter;stroke:rgb(0%,0%,0%);stroke-opacity:0.0980392;stroke-miterlimit:10;" d="M 47 223.5 L 55 223.5 "/>
<path style="fill:none;stroke-width:1;stroke-linecap:butt;stroke-linejoin:miter;stroke:rgb(0%,0%,0%);stroke-opacity:0.0980392;stroke-miterlimit:10;" d="M 56 189.5 L 830 189.5 "/>
<path style="fill:none;stroke-width:1;stroke-linecap:butt;stroke-linejoin:miter;stroke:rgb(0%,0%,0%);stroke-opacity:0.0980392;stroke-miterlimit:10;" d="M 47 189.5 L 55 189.5 "/>
<path style="fill:none;stroke-width:1;stroke-linecap:butt;stroke-linejoin:miter;stroke:rgb(0%,0%,0%);stroke-opacity:0.0980392;stroke-miterlimit:10;" d="M 56 155.5 L 830 155.5 "/>
<path style="fill:none;stroke-width:1;stroke-linecap:butt;stroke-linejoin:miter;stroke:rgb(0%,0%,0%);stroke-opacity:0.0980392;stroke-miterlimit:10;" d="M 47 155.5 L 55 155.5 "/>
<path style="fill:none;stroke-width:1;stroke-linecap:butt;stroke-linejoin:miter;stroke:rgb(0%,0%,0%);stroke-opacity:0.0980392;stroke-miterlimit:10;" d="M 56 121.5 L 830 121.5 "/>
<path style="fill:none;stroke-width:1;stroke-linecap:butt;stroke-linejoin:miter;stroke:rgb(0%,0%,0%);stroke-opacity:0.0980392;stroke-miterlimit:10;" d="M 47 121.5 L 55 121.5 "/>
<path style="fill:none;stroke-width:1;stroke-linecap:butt;stroke-linejoin:miter;stroke:rgb(0%,0%,0%);stroke-opacity:0.0980392;stroke-miterlimit:10;" d="M 56 87.5 L 830 87.5 "/>
<path style="fill:none;stroke-width:1;stroke-linecap:butt;stroke-linejoin:miter;stroke:rgb(0%,0%,0%);stroke-opacity:0.0980392;stroke-miterlimit:10;" d="M 47 87.5 L 55 87.5 "/>
<path style="fill:none;stroke-width:1;stroke-linecap:butt;stroke-linejoin:miter;stroke:rgb(0%,0%,0%);stroke-opacity:0.0980392;stroke-miterlimit:10;" d="M 56 53.5 L 830 53.5 "/>
<path style="fill:none;stroke-width:1;stroke-linecap:butt;stroke-linejoin:miter;stroke:rgb(0%,0%,0%);stroke-opacity:0.0980392;stroke-miterlimit:10;" d="M 47 53.5 L 55 53.5 "/>
<path style="fill:none;stroke-width:1;stroke-linecap:butt;stroke-linejoin:miter;stroke:rgb(0%,0%,0%);stroke-opacity:0.0980392;stroke-miterlimit:10;" d="M 56 20.5 L 830 20.5 "/>
<path style="fill:none;stroke-width:1;stroke-linecap:butt;stroke-linejoin:miter;stroke:rgb(0%,0%,0%);stroke-opacity:0.0980392;stroke-miterlimit:10;" d="M 47 20.5 L 55 20.5 "/>
<path style="fill-rule:nonzero;fill:rgb(77.647059%,15.686275%,15.686275%);fill-opacity:0.2;stroke-width:2;stroke-linecap:butt;stroke-linejoin:miter;stroke:rgb(89.803922%,22.352941%,20.784314%);stroke-opacity:1;stroke-miterlimit:10;" d="M 294.75 259 L 334.75 259 L 334.75 270 L 294.75 270 Z M 294.75 259 "/>
<path style=" stroke:none;fill-rule:nonzero;fill:rgb(40%,40%,40%);fill-opacity:1;" d="M 346.71875 265.550781 L 347.757812 265.816406 C 347.535156 266.671875 347.144531 267.324219 346.578125 267.773438 C 346.007812 268.21875 345.3125 268.441406 344.5 268.445312 C 343.648438 268.441406 342.957031 268.273438 342.425781 267.929688 C 341.890625 267.585938 341.488281 267.085938 341.210938 266.429688 C 340.933594 265.777344 340.792969 265.070312 340.796875 264.316406 C 340.792969 263.496094 340.949219 262.78125 341.265625 262.171875 C 341.578125 261.5625 342.027344 261.101562 342.605469 260.78125 C 343.183594 260.46875 343.820312 260.308594 344.515625 260.304688 C 345.300781 260.308594 345.960938 260.507812 346.5 260.90625 C 347.035156 261.308594 347.410156 261.875 347.625 262.597656 L 346.597656 262.839844 C 346.410156 262.269531 346.144531 261.855469 345.800781 261.589844 C 345.449219 261.332031 345.015625 261.199219 344.492188 261.195312 C 343.886719 261.199219 343.378906 261.34375 342.976562 261.632812 C 342.566406 261.921875 342.28125 262.3125 342.117188 262.800781 C 341.949219 263.289062 341.867188 263.792969 341.871094 264.3125 C 341.867188 264.984375 341.964844 265.570312 342.164062 266.066406 C 342.355469 266.566406 342.660156 266.9375 343.074219 267.183594 C 343.484375 267.433594 343.929688 267.558594 344.414062 267.554688 C 344.996094 267.558594 345.488281 267.390625 345.894531 267.050781 C 346.292969 266.71875 346.570312 266.21875 346.71875 265.550781 Z M 348.617188 265.460938 C 348.613281 264.40625 348.90625 263.625 349.496094 263.113281 C 349.984375 262.695312 350.582031 262.484375 351.289062 262.480469 C 352.070312 262.484375 352.710938 262.738281 353.210938 263.25 C 353.707031 263.765625 353.957031 264.476562 353.960938 265.378906 C 353.957031 266.117188 353.847656 266.695312 353.628906 267.113281 C 353.40625 267.535156 353.082031 267.863281 352.664062 268.09375 C 352.242188 268.328125 351.785156 268.441406 351.289062 268.441406 C 350.488281 268.441406 349.84375 268.1875 349.355469 267.675781 C 348.859375 267.164062 348.613281 266.425781 348.617188 265.460938 Z M 349.609375 265.460938 C 349.609375 266.191406 349.765625 266.738281 350.085938 267.101562 C 350.402344 267.46875 350.804688 267.652344 351.289062 267.648438 C 351.765625 267.652344 352.164062 267.46875 352.484375 267.101562 C 352.800781 266.738281 352.960938 266.179688 352.964844 265.429688 C 352.960938 264.726562 352.800781 264.195312 352.484375 263.828125 C 352.160156 263.46875 351.761719 263.285156 351.289062 263.28125 C 350.804688 263.285156 350.402344 263.464844 350.085938 263.824219 C 349.765625 264.183594 349.609375 264.730469 349.609375 265.460938 Z M 358.675781 268.3125 L 358.675781 267.59375 C 358.308594 268.160156 357.777344 268.441406 357.082031 268.441406 C 356.621094 268.441406 356.203125 268.316406 355.824219 268.066406 C 355.441406 267.816406 355.144531 267.46875 354.9375 267.015625 C 354.726562 266.570312 354.625 266.050781 354.625 265.464844 C 354.625 264.898438 354.71875 264.382812 354.910156 263.917969 C 355.097656 263.453125 355.382812 263.097656 355.765625 262.851562 C 356.144531 262.605469 356.570312 262.484375 357.039062 262.480469 C 357.382812 262.484375 357.6875 262.554688 357.957031 262.699219 C 358.222656 262.84375 358.441406 263.035156 358.609375 263.265625 L 358.609375 260.4375 L 359.574219 260.4375 L 359.574219 268.3125 Z M 355.621094 265.464844 C 355.621094 266.199219 355.773438 266.746094 356.082031 267.105469 C 356.386719 267.46875 356.75 267.652344 357.171875 267.648438 C 357.589844 267.652344 357.949219 267.476562 358.246094 267.128906 C 358.542969 266.785156 358.691406 266.257812 358.691406 265.546875 C 358.691406 264.765625 358.539062 264.195312 358.238281 263.828125 C 357.9375 263.46875 357.566406 263.285156 357.128906 263.28125 C 356.695312 263.285156 356.335938 263.460938 356.050781 263.808594 C 355.761719 264.160156 355.621094 264.710938 355.621094 265.464844 Z M 364.878906 266.476562 L 365.878906 266.597656 C 365.71875 267.1875 365.425781 267.640625 365 267.960938 C 364.574219 268.28125 364.03125 268.441406 363.371094 268.441406 C 362.53125 268.441406 361.867188 268.1875 361.382812 267.671875 C 360.890625 267.160156 360.648438 266.4375 360.652344 265.507812 C 360.648438 264.550781 360.894531 263.808594 361.394531 263.277344 C 361.886719 262.75 362.527344 262.484375 363.316406 262.480469 C 364.074219 262.484375 364.699219 262.742188 365.183594 263.261719 C 365.667969 263.78125 365.910156 264.511719 365.910156 265.449219 C 365.910156 265.507812 365.90625 265.59375 365.90625 265.707031 L 361.652344 265.707031 C 361.683594 266.335938 361.863281 266.816406 362.183594 267.148438 C 362.5 267.484375 362.894531 267.652344 363.375 267.648438 C 363.726562 267.652344 364.03125 267.558594 364.28125 267.367188 C 364.53125 267.183594 364.730469 266.886719 364.878906 266.476562 Z M 361.707031 264.914062 L 364.890625 264.914062 C 364.847656 264.433594 364.722656 264.074219 364.523438 263.832031 C 364.210938 263.460938 363.8125 263.273438 363.328125 263.273438 C 362.878906 263.273438 362.507812 263.421875 362.207031 263.71875 C 361.902344 264.015625 361.734375 264.414062 361.707031 264.914062 Z M 340.25 258.355469 "/>
<path style="fill-rule:nonzero;fill:rgb(0.784314%,46.666667%,74.117647%);fill-opacity:0.2;stroke-width:2;stroke-linecap:butt;stroke-linejoin:miter;stroke:rgb(1.176471%,60.784314%,89.803922%);stroke-opacity:1;stroke-miterlimit:10;" d="M 376.25 259 L 416.25 259 L 416.25 270 L 376.25 270 Z M 376.25 259 "/>
<path style=" stroke:none;fill-rule:nonzero;fill:rgb(40%,40%,40%);fill-opacity:1;" d="M 424.601562 268.3125 L 424.601562 261.367188 L 422.007812 261.367188 L 422.007812 260.4375 L 428.25 260.4375 L 428.25 261.367188 L 425.644531 261.367188 L 425.644531 268.3125 Z M 432.378906 266.476562 L 433.378906 266.597656 C 433.21875 267.1875 432.925781 267.640625 432.5 267.960938 C 432.074219 268.28125 431.53125 268.441406 430.871094 268.441406 C 430.03125 268.441406 429.367188 268.1875 428.882812 267.671875 C 428.390625 267.160156 428.148438 266.4375 428.152344 265.507812 C 428.148438 264.550781 428.394531 263.808594 428.894531 263.277344 C 429.386719 262.75 430.027344 262.484375 430.816406 262.480469 C 431.574219 262.484375 432.199219 262.742188 432.683594 263.261719 C 433.167969 263.78125 433.410156 264.511719 433.410156 265.449219 C 433.410156 265.507812 433.40625 265.59375 433.40625 265.707031 L 429.152344 265.707031 C 429.183594 266.335938 429.363281 266.816406 429.683594 267.148438 C 430 267.484375 430.394531 267.652344 430.875 267.648438 C 431.226562 267.652344 431.53125 267.558594 431.78125 267.367188 C 432.03125 267.183594 432.230469 266.886719 432.378906 266.476562 Z M 429.207031 264.914062 L 432.390625 264.914062 C 432.347656 264.433594 432.222656 264.074219 432.023438 263.832031 C 431.710938 263.460938 431.3125 263.273438 430.828125 263.273438 C 430.378906 263.273438 430.007812 263.421875 429.707031 263.71875 C 429.402344 264.015625 429.234375 264.414062 429.207031 264.914062 Z M 434.476562 268.3125 L 434.476562 262.609375 L 435.339844 262.609375 L 435.339844 263.410156 C 435.515625 263.132812 435.753906 262.90625 436.054688 262.734375 C 436.347656 262.566406 436.6875 262.484375 437.070312 262.480469 C 437.488281 262.484375 437.835938 262.570312 438.109375 262.746094 C 438.378906 262.921875 438.566406 263.167969 438.679688 263.476562 C 439.128906 262.816406 439.71875 262.484375 440.441406 262.480469 C 441.003906 262.484375 441.4375 262.640625 441.746094 262.949219 C 442.046875 263.265625 442.199219 263.746094 442.203125 264.398438 L 442.203125 268.3125 L 441.242188 268.3125 L 441.242188 264.71875 C 441.238281 264.335938 441.207031 264.058594 441.148438 263.886719 C 441.082031 263.71875 440.96875 263.578125 440.808594 263.472656 C 440.640625 263.371094 440.445312 263.320312 440.226562 263.316406 C 439.820312 263.320312 439.488281 263.453125 439.226562 263.71875 C 438.960938 263.984375 438.828125 264.414062 438.832031 265 L 438.832031 268.3125 L 437.863281 268.3125 L 437.863281 264.605469 C 437.863281 264.179688 437.78125 263.859375 437.625 263.640625 C 437.464844 263.429688 437.210938 263.320312 436.855469 263.316406 C 436.582031 263.320312 436.328125 263.390625 436.097656 263.53125 C 435.867188 263.675781 435.699219 263.886719 435.597656 264.160156 C 435.488281 264.4375 435.4375 264.835938 435.441406 265.351562 L 435.441406 268.3125 Z M 443.476562 270.5 L 443.476562 262.609375 L 444.355469 262.609375 L 444.355469 263.351562 C 444.5625 263.0625 444.796875 262.84375 445.058594 262.699219 C 445.320312 262.554688 445.636719 262.484375 446.011719 262.480469 C 446.496094 262.484375 446.925781 262.609375 447.300781 262.855469 C 447.671875 263.109375 447.953125 263.460938 448.140625 263.917969 C 448.328125 264.375 448.421875 264.875 448.425781 265.417969 C 448.421875 266.003906 448.316406 266.53125 448.109375 266.996094 C 447.898438 267.464844 447.59375 267.824219 447.199219 268.070312 C 446.796875 268.320312 446.378906 268.441406 445.941406 268.441406 C 445.617188 268.441406 445.328125 268.375 445.070312 268.238281 C 444.8125 268.101562 444.601562 267.929688 444.441406 267.722656 L 444.441406 270.5 Z M 444.351562 265.492188 C 444.347656 266.230469 444.496094 266.773438 444.796875 267.121094 C 445.089844 267.476562 445.449219 267.652344 445.875 267.648438 C 446.300781 267.652344 446.667969 267.46875 446.976562 267.101562 C 447.28125 266.738281 447.4375 266.175781 447.4375 265.414062 C 447.4375 264.6875 447.285156 264.144531 446.988281 263.78125 C 446.6875 263.421875 446.332031 263.238281 445.917969 263.238281 C 445.503906 263.238281 445.140625 263.433594 444.824219 263.816406 C 444.507812 264.203125 444.347656 264.761719 444.351562 265.492188 Z M 449.453125 268.3125 L 449.453125 260.4375 L 450.421875 260.4375 L 450.421875 268.3125 Z M 455.195312 267.609375 C 454.835938 267.914062 454.492188 268.128906 454.164062 268.253906 C 453.832031 268.378906 453.476562 268.441406 453.097656 268.441406 C 452.46875 268.441406 451.988281 268.289062 451.652344 267.984375 C 451.316406 267.679688 451.148438 267.289062 451.148438 266.808594 C 451.148438 266.53125 451.210938 266.277344 451.335938 266.042969 C 451.460938 265.816406 451.625 265.628906 451.835938 265.488281 C 452.039062 265.347656 452.273438 265.242188 452.53125 265.171875 C 452.71875 265.121094 453.003906 265.074219 453.390625 265.023438 C 454.167969 264.9375 454.742188 264.824219 455.117188 264.691406 C 455.117188 264.558594 455.121094 264.476562 455.121094 264.441406 C 455.121094 264.046875 455.027344 263.769531 454.847656 263.609375 C 454.597656 263.394531 454.230469 263.285156 453.746094 263.28125 C 453.289062 263.285156 452.953125 263.363281 452.738281 263.519531 C 452.519531 263.679688 452.359375 263.960938 452.257812 264.363281 L 451.3125 264.234375 C 451.398438 263.832031 451.539062 263.507812 451.738281 263.257812 C 451.933594 263.011719 452.21875 262.820312 452.59375 262.683594 C 452.964844 262.550781 453.394531 262.484375 453.886719 262.480469 C 454.371094 262.484375 454.769531 262.539062 455.074219 262.652344 C 455.378906 262.769531 455.601562 262.914062 455.746094 263.085938 C 455.886719 263.257812 455.988281 263.476562 456.046875 263.742188 C 456.078125 263.90625 456.09375 264.203125 456.09375 264.632812 L 456.09375 265.921875 C 456.09375 266.820312 456.113281 267.390625 456.15625 267.628906 C 456.195312 267.867188 456.277344 268.09375 456.398438 268.3125 L 455.390625 268.3125 C 455.289062 268.113281 455.222656 267.878906 455.195312 267.609375 Z M 455.117188 265.449219 C 454.761719 265.59375 454.238281 265.714844 453.539062 265.816406 C 453.140625 265.875 452.855469 265.941406 452.691406 266.011719 C 452.523438 266.085938 452.398438 266.191406 452.3125 266.324219 C 452.222656 266.464844 452.179688 266.617188 452.179688 266.78125 C 452.179688 267.042969 452.277344 267.257812 452.472656 267.425781 C 452.667969 267.601562 452.953125 267.6875 453.328125 267.683594 C 453.699219 267.6875 454.027344 267.605469 454.320312 267.441406 C 454.609375 267.28125 454.824219 267.058594 454.960938 266.769531 C 455.0625 266.558594 455.113281 266.234375 455.117188 265.804688 Z M 459.585938 267.449219 L 459.726562 268.300781 C 459.453125 268.355469 459.207031 268.382812 458.996094 268.386719 C 458.640625 268.382812 458.371094 268.332031 458.179688 268.222656 C 457.984375 268.113281 457.847656 267.964844 457.769531 267.785156 C 457.691406 267.605469 457.652344 267.226562 457.652344 266.640625 L 457.652344 263.359375 L 456.945312 263.359375 L 456.945312 262.609375 L 457.652344 262.609375 L 457.652344 261.195312 L 458.613281 260.617188 L 458.613281 262.609375 L 459.585938 262.609375 L 459.585938 263.359375 L 458.613281 263.359375 L 458.613281 266.695312 C 458.613281 266.972656 458.628906 267.152344 458.664062 267.226562 C 458.695312 267.308594 458.75 267.371094 458.828125 267.414062 C 458.902344 267.464844 459.011719 267.488281 459.160156 267.484375 C 459.265625 267.488281 459.410156 267.476562 459.585938 267.449219 Z M 464.378906 266.476562 L 465.378906 266.597656 C 465.21875 267.1875 464.925781 267.640625 464.5 267.960938 C 464.074219 268.28125 463.53125 268.441406 462.871094 268.441406 C 462.03125 268.441406 461.367188 268.1875 460.882812 267.671875 C 460.390625 267.160156 460.148438 266.4375 460.152344 265.507812 C 460.148438 264.550781 460.394531 263.808594 460.894531 263.277344 C 461.386719 262.75 462.027344 262.484375 462.816406 262.480469 C 463.574219 262.484375 464.199219 262.742188 464.683594 263.261719 C 465.167969 263.78125 465.410156 264.511719 465.410156 265.449219 C 465.410156 265.507812 465.40625 265.59375 465.40625 265.707031 L 461.152344 265.707031 C 461.183594 266.335938 461.363281 266.816406 461.683594 267.148438 C 462 267.484375 462.394531 267.652344 462.875 267.648438 C 463.226562 267.652344 463.53125 267.558594 463.78125 267.367188 C 464.03125 267.183594 464.230469 266.886719 464.378906 266.476562 Z M 461.207031 264.914062 L 464.390625 264.914062 C 464.347656 264.433594 464.222656 264.074219 464.023438 263.832031 C 463.710938 263.460938 463.3125 263.273438 462.828125 263.273438 C 462.378906 263.273438 462.007812 263.421875 461.707031 263.71875 C 461.402344 264.015625 461.234375 264.414062 461.207031 264.914062 Z M 466.089844 266.609375 L 467.042969 266.460938 C 467.09375 266.84375 467.242188 267.140625 467.492188 267.34375 C 467.734375 267.550781 468.078125 267.652344 468.523438 267.648438 C 468.960938 267.652344 469.289062 267.5625 469.507812 267.378906 C 469.71875 267.199219 469.828125 266.984375 469.832031 266.738281 C 469.828125 266.523438 469.734375 266.351562 469.546875 266.222656 C 469.414062 266.140625 469.082031 266.03125 468.558594 265.894531 C 467.847656 265.71875 467.355469 265.5625 467.082031 265.429688 C 466.804688 265.300781 466.597656 265.121094 466.460938 264.890625 C 466.316406 264.660156 466.246094 264.40625 466.25 264.125 C 466.246094 263.871094 466.304688 263.636719 466.421875 263.417969 C 466.535156 263.207031 466.695312 263.023438 466.898438 262.875 C 467.046875 262.765625 467.25 262.675781 467.511719 262.597656 C 467.769531 262.523438 468.050781 262.484375 468.351562 262.480469 C 468.796875 262.484375 469.1875 262.546875 469.527344 262.675781 C 469.863281 262.804688 470.113281 262.980469 470.277344 263.199219 C 470.4375 263.421875 470.546875 263.714844 470.609375 264.078125 L 469.664062 264.210938 C 469.621094 263.917969 469.496094 263.691406 469.292969 263.523438 C 469.085938 263.359375 468.792969 263.273438 468.417969 263.273438 C 467.972656 263.273438 467.65625 263.347656 467.46875 263.496094 C 467.273438 263.644531 467.179688 263.816406 467.183594 264.011719 C 467.179688 264.136719 467.21875 264.25 467.300781 264.347656 C 467.378906 264.453125 467.503906 264.539062 467.671875 264.605469 C 467.765625 264.644531 468.050781 264.726562 468.527344 264.851562 C 469.210938 265.039062 469.6875 265.191406 469.957031 265.304688 C 470.226562 265.421875 470.4375 265.589844 470.59375 265.808594 C 470.746094 266.035156 470.824219 266.308594 470.824219 266.636719 C 470.824219 266.960938 470.730469 267.265625 470.542969 267.546875 C 470.355469 267.832031 470.082031 268.050781 469.730469 268.207031 C 469.371094 268.363281 468.972656 268.441406 468.527344 268.441406 C 467.785156 268.441406 467.21875 268.289062 466.832031 267.980469 C 466.441406 267.671875 466.195312 267.214844 466.089844 266.609375 Z M 421.75 258.355469 "/>
<path style="fill-rule:nonzero;fill:rgb(33.333333%,54.509804%,18.431373%);fill-opacity:0.2;stroke-width:2;stroke-linecap:butt;stroke-linejoin:miter;stroke:rgb(48.627451%,70.196078%,25.882353%);stroke-opacity:1;stroke-miterlimit:10;" d="M 481.75 259 L 521.75 259 L 521.75 270 L 481.75 270 Z M 481.75 259 "/>
<path style=" stroke:none;fill-rule:nonzero;fill:rgb(40%,40%,40%);fill-opacity:1;" d="M 533.265625 260.4375 L 534.308594 260.4375 L 534.308594 264.988281 C 534.304688 265.785156 534.214844 266.414062 534.039062 266.875 C 533.855469 267.34375 533.53125 267.71875 533.066406 268.007812 C 532.597656 268.296875 531.984375 268.441406 531.230469 268.445312 C 530.488281 268.441406 529.886719 268.316406 529.417969 268.066406 C 528.949219 267.8125 528.613281 267.445312 528.414062 266.960938 C 528.210938 266.480469 528.109375 265.824219 528.113281 264.988281 L 528.113281 260.4375 L 529.15625 260.4375 L 529.15625 264.984375 C 529.152344 265.667969 529.21875 266.171875 529.347656 266.496094 C 529.472656 266.820312 529.691406 267.070312 530.003906 267.246094 C 530.3125 267.421875 530.691406 267.511719 531.140625 267.507812 C 531.90625 267.511719 532.449219 267.335938 532.777344 266.988281 C 533.097656 266.640625 533.261719 265.972656 533.265625 264.984375 Z M 536.113281 268.3125 L 536.113281 260.4375 L 539.605469 260.4375 C 540.304688 260.4375 540.839844 260.511719 541.207031 260.652344 C 541.570312 260.796875 541.863281 261.046875 542.082031 261.402344 C 542.300781 261.761719 542.410156 262.15625 542.410156 262.585938 C 542.410156 263.148438 542.226562 263.617188 541.867188 264 C 541.5 264.382812 540.941406 264.628906 540.191406 264.730469 C 540.464844 264.867188 540.675781 264.996094 540.820312 265.121094 C 541.121094 265.402344 541.410156 265.75 541.683594 266.167969 L 543.054688 268.3125 L 541.742188 268.3125 L 540.703125 266.675781 C 540.394531 266.207031 540.144531 265.84375 539.949219 265.589844 C 539.753906 265.34375 539.578125 265.167969 539.421875 265.066406 C 539.265625 264.964844 539.105469 264.894531 538.945312 264.851562 C 538.824219 264.832031 538.632812 264.820312 538.367188 264.816406 L 537.15625 264.816406 L 537.15625 268.3125 Z M 537.15625 263.914062 L 539.398438 263.914062 C 539.871094 263.917969 540.242188 263.867188 540.511719 263.765625 C 540.78125 263.667969 540.984375 263.511719 541.125 263.292969 C 541.261719 263.078125 541.332031 262.84375 541.335938 262.585938 C 541.332031 262.21875 541.195312 261.910156 540.929688 261.667969 C 540.65625 261.429688 540.230469 261.3125 539.648438 261.308594 L 537.15625 261.308594 Z M 544.054688 268.3125 L 544.054688 260.4375 L 545.097656 260.4375 L 545.097656 267.382812 L 548.976562 267.382812 L 548.976562 268.3125 Z M 549.589844 266.609375 L 550.542969 266.460938 C 550.59375 266.84375 550.742188 267.140625 550.992188 267.34375 C 551.234375 267.550781 551.578125 267.652344 552.023438 267.648438 C 552.460938 267.652344 552.789062 267.5625 553.007812 267.378906 C 553.21875 267.199219 553.328125 266.984375 553.332031 266.738281 C 553.328125 266.523438 553.234375 266.351562 553.046875 266.222656 C 552.914062 266.140625 552.582031 266.03125 552.058594 265.894531 C 551.347656 265.71875 550.855469 265.5625 550.582031 265.429688 C 550.304688 265.300781 550.097656 265.121094 549.960938 264.890625 C 549.816406 264.660156 549.746094 264.40625 549.75 264.125 C 549.746094 263.871094 549.804688 263.636719 549.921875 263.417969 C 550.035156 263.207031 550.195312 263.023438 550.398438 262.875 C 550.546875 262.765625 550.75 262.675781 551.011719 262.597656 C 551.269531 262.523438 551.550781 262.484375 551.851562 262.480469 C 552.296875 262.484375 552.6875 262.546875 553.027344 262.675781 C 553.363281 262.804688 553.613281 262.980469 553.777344 263.199219 C 553.9375 263.421875 554.046875 263.714844 554.109375 264.078125 L 553.164062 264.210938 C 553.121094 263.917969 552.996094 263.691406 552.792969 263.523438 C 552.585938 263.359375 552.292969 263.273438 551.917969 263.273438 C 551.472656 263.273438 551.15625 263.347656 550.96875 263.496094 C 550.773438 263.644531 550.679688 263.816406 550.683594 264.011719 C 550.679688 264.136719 550.71875 264.25 550.800781 264.347656 C 550.878906 264.453125 551.003906 264.539062 551.171875 264.605469 C 551.265625 264.644531 551.550781 264.726562 552.027344 264.851562 C 552.710938 265.039062 553.1875 265.191406 553.457031 265.304688 C 553.726562 265.421875 553.9375 265.589844 554.09375 265.808594 C 554.246094 266.035156 554.324219 266.308594 554.324219 266.636719 C 554.324219 266.960938 554.230469 267.265625 554.042969 267.546875 C 553.855469 267.832031 553.582031 268.050781 553.230469 268.207031 C 552.871094 268.363281 552.472656 268.441406 552.027344 268.441406 C 551.285156 268.441406 550.71875 268.289062 550.332031 267.980469 C 549.941406 267.671875 549.695312 267.214844 549.589844 266.609375 Z M 527.25 258.355469 "/>
<path style="fill:none;stroke-width:1;stroke-linecap:butt;stroke-linejoin:miter;stroke:rgb(0%,0%,0%);stroke-opacity:0.0980392;stroke-miterlimit:10;" d="M 55 223.5 L 831 223.5 "/>
<path style=" stroke:none;fill-rule:nonzero;fill:rgb(40%,40%,40%);fill-opacity:1;" d="M 41.414062 241.59375 L 42.335938 241.515625 C 42.40625 241.96875 42.5625 242.304688 42.8125 242.527344 C 43.058594 242.757812 43.359375 242.871094 43.714844 242.867188 C 44.136719 242.871094 44.496094 242.710938 44.789062 242.390625 C 45.078125 242.070312 45.222656 241.648438 45.226562 241.121094 C 45.222656 240.621094 45.082031 240.226562 44.804688 239.933594 C 44.519531 239.648438 44.152344 239.503906 43.699219 239.5 C 43.414062 239.503906 43.160156 239.566406 42.933594 239.691406 C 42.707031 239.820312 42.527344 239.988281 42.398438 240.191406 L 41.570312 240.085938 L 42.265625 236.40625 L 45.824219 236.40625 L 45.824219 237.25 L 42.96875 237.25 L 42.582031 239.171875 C 43.011719 238.875 43.460938 238.722656 43.933594 238.722656 C 44.554688 238.722656 45.082031 238.941406 45.515625 239.375 C 45.941406 239.808594 46.15625 240.363281 46.160156 241.042969 C 46.15625 241.691406 45.96875 242.253906 45.59375 242.722656 C 45.132812 243.300781 44.503906 243.585938 43.714844 243.589844 C 43.058594 243.585938 42.527344 243.40625 42.121094 243.042969 C 41.707031 242.679688 41.472656 242.195312 41.414062 241.59375 Z M 47.90625 243.46875 L 47.90625 242.46875 L 48.910156 242.46875 L 48.910156 243.46875 Z M 53.726562 243.46875 L 52.847656 243.46875 L 52.847656 237.867188 C 52.636719 238.070312 52.359375 238.273438 52.015625 238.476562 C 51.671875 238.679688 51.363281 238.832031 51.089844 238.929688 L 51.089844 238.078125 C 51.582031 237.847656 52.011719 237.570312 52.378906 237.238281 C 52.746094 236.914062 53.003906 236.59375 53.160156 236.28125 L 53.726562 236.28125 Z M 58.726562 243.46875 L 57.847656 243.46875 L 57.847656 237.867188 C 57.636719 238.070312 57.359375 238.273438 57.015625 238.476562 C 56.671875 238.679688 56.363281 238.832031 56.089844 238.929688 L 56.089844 238.078125 C 56.582031 237.847656 57.011719 237.570312 57.378906 237.238281 C 57.746094 236.914062 58.003906 236.59375 58.160156 236.28125 L 58.726562 236.28125 Z M 61.90625 243.46875 L 61.90625 242.46875 L 62.910156 242.46875 L 62.910156 243.46875 Z M 64.414062 239.9375 C 64.410156 239.09375 64.496094 238.414062 64.675781 237.894531 C 64.847656 237.382812 65.109375 236.984375 65.453125 236.703125 C 65.796875 236.425781 66.226562 236.285156 66.75 236.28125 C 67.128906 236.285156 67.464844 236.363281 67.757812 236.515625 C 68.046875 236.671875 68.289062 236.894531 68.476562 237.183594 C 68.664062 237.476562 68.8125 237.832031 68.921875 238.246094 C 69.027344 238.667969 69.078125 239.230469 69.082031 239.9375 C 69.078125 240.78125 68.992188 241.460938 68.824219 241.972656 C 68.648438 242.492188 68.390625 242.890625 68.050781 243.167969 C 67.703125 243.449219 67.269531 243.585938 66.75 243.589844 C 66.054688 243.585938 65.515625 243.339844 65.125 242.847656 C 64.648438 242.253906 64.410156 241.285156 64.414062 239.9375 Z M 65.320312 239.9375 C 65.316406 241.117188 65.453125 241.898438 65.730469 242.285156 C 66.003906 242.675781 66.34375 242.871094 66.75 242.867188 C 67.148438 242.871094 67.488281 242.675781 67.765625 242.28125 C 68.039062 241.894531 68.175781 241.113281 68.179688 239.9375 C 68.175781 238.761719 68.039062 237.980469 67.765625 237.589844 C 67.488281 237.207031 67.144531 237.011719 66.738281 237.007812 C 66.332031 237.011719 66.011719 237.183594 65.773438 237.523438 C 65.46875 237.960938 65.316406 238.765625 65.320312 239.9375 Z M 41 234.414062 "/>
<path style=" stroke:none;fill-rule:nonzero;fill:rgb(40%,40%,40%);fill-opacity:1;" d="M 815.414062 241.59375 L 816.335938 241.515625 C 816.40625 241.96875 816.5625 242.304688 816.8125 242.527344 C 817.058594 242.757812 817.359375 242.871094 817.714844 242.867188 C 818.136719 242.871094 818.496094 242.710938 818.789062 242.390625 C 819.078125 242.070312 819.222656 241.648438 819.226562 241.121094 C 819.222656 240.621094 819.082031 240.226562 818.804688 239.933594 C 818.519531 239.648438 818.152344 239.503906 817.699219 239.5 C 817.414062 239.503906 817.160156 239.566406 816.933594 239.691406 C 816.707031 239.820312 816.527344 239.988281 816.398438 240.191406 L 815.570312 240.085938 L 816.265625 236.40625 L 819.824219 236.40625 L 819.824219 237.25 L 816.96875 237.25 L 816.582031 239.171875 C 817.011719 238.875 817.460938 238.722656 817.933594 238.722656 C 818.554688 238.722656 819.082031 238.941406 819.515625 239.375 C 819.941406 239.808594 820.15625 240.363281 820.160156 241.042969 C 820.15625 241.691406 819.96875 242.253906 819.59375 242.722656 C 819.132812 243.300781 818.503906 243.585938 817.714844 243.589844 C 817.058594 243.585938 816.527344 243.40625 816.121094 243.042969 C 815.707031 242.679688 815.472656 242.195312 815.414062 241.59375 Z M 821.90625 243.46875 L 821.90625 242.46875 L 822.910156 242.46875 L 822.910156 243.46875 Z M 827.726562 243.46875 L 826.847656 243.46875 L 826.847656 237.867188 C 826.636719 238.070312 826.359375 238.273438 826.015625 238.476562 C 825.671875 238.679688 825.363281 238.832031 825.089844 238.929688 L 825.089844 238.078125 C 825.582031 237.847656 826.011719 237.570312 826.378906 237.238281 C 826.746094 236.914062 827.003906 236.59375 827.160156 236.28125 L 827.726562 236.28125 Z M 835.035156 242.625 L 835.035156 243.46875 L 830.304688 243.46875 C 830.296875 243.257812 830.328125 243.054688 830.40625 242.859375 C 830.523438 242.539062 830.71875 242.222656 830.984375 241.90625 C 831.25 241.597656 831.632812 241.234375 832.132812 240.820312 C 832.910156 240.1875 833.433594 239.683594 833.710938 239.308594 C 833.980469 238.933594 834.117188 238.582031 834.121094 238.25 C 834.117188 237.902344 833.992188 237.609375 833.746094 237.367188 C 833.496094 237.132812 833.171875 237.011719 832.773438 237.007812 C 832.347656 237.011719 832.011719 237.140625 831.757812 237.390625 C 831.5 237.648438 831.371094 238 831.371094 238.445312 L 830.46875 238.351562 C 830.53125 237.679688 830.761719 237.164062 831.167969 236.8125 C 831.566406 236.460938 832.109375 236.285156 832.792969 236.28125 C 833.476562 236.285156 834.019531 236.476562 834.421875 236.851562 C 834.820312 237.234375 835.019531 237.707031 835.023438 238.269531 C 835.019531 238.558594 834.960938 238.839844 834.847656 239.113281 C 834.726562 239.394531 834.535156 239.683594 834.265625 239.988281 C 833.992188 240.292969 833.539062 240.714844 832.910156 241.246094 C 832.378906 241.691406 832.039062 241.992188 831.894531 242.148438 C 831.742188 242.308594 831.621094 242.464844 831.523438 242.625 Z M 836.90625 243.46875 L 836.90625 242.46875 L 837.910156 242.46875 L 837.910156 243.46875 Z M 839.414062 239.9375 C 839.410156 239.09375 839.496094 238.414062 839.675781 237.894531 C 839.847656 237.382812 840.109375 236.984375 840.453125 236.703125 C 840.796875 236.425781 841.226562 236.285156 841.75 236.28125 C 842.128906 236.285156 842.464844 236.363281 842.757812 236.515625 C 843.046875 236.671875 843.289062 236.894531 843.476562 237.183594 C 843.664062 237.476562 843.8125 237.832031 843.921875 238.246094 C 844.027344 238.667969 844.078125 239.230469 844.082031 239.9375 C 844.078125 240.78125 843.992188 241.460938 843.824219 241.972656 C 843.648438 242.492188 843.390625 242.890625 843.050781 243.167969 C 842.703125 243.449219 842.269531 243.585938 841.75 243.589844 C 841.054688 243.585938 840.515625 243.339844 840.125 242.847656 C 839.648438 242.253906 839.410156 241.285156 839.414062 239.9375 Z M 840.320312 239.9375 C 840.316406 241.117188 840.453125 241.898438 840.730469 242.285156 C 841.003906 242.675781 841.34375 242.871094 841.75 242.867188 C 842.148438 242.871094 842.488281 242.675781 842.765625 242.28125 C 843.039062 241.894531 843.175781 241.113281 843.179688 239.9375 C 843.175781 238.761719 843.039062 237.980469 842.765625 237.589844 C 842.488281 237.207031 842.144531 237.011719 841.738281 237.007812 C 841.332031 237.011719 841.011719 237.183594 840.773438 237.523438 C 840.46875 237.960938 840.316406 238.765625 840.320312 239.9375 Z M 815 234.414062 "/>
<path style="fill:none;stroke-width:1;stroke-linecap:butt;stroke-linejoin:miter;stroke:rgb(0%,0%,0%);stroke-opacity:0.0980392;stroke-miterlimit:10;" d="M 55.5 20 L 55.5 224 "/>
<path style=" stroke:none;fill-rule:nonzero;fill:rgb(40%,40%,40%);fill-opacity:1;" d="M 23.414062 224.59375 L 24.335938 224.515625 C 24.40625 224.96875 24.5625 225.304688 24.8125 225.527344 C 25.058594 225.757812 25.359375 225.871094 25.714844 225.867188 C 26.136719 225.871094 26.496094 225.710938 26.789062 225.390625 C 27.078125 225.070312 27.222656 224.648438 27.226562 224.121094 C 27.222656 223.621094 27.082031 223.226562 26.804688 222.933594 C 26.519531 222.648438 26.152344 222.503906 25.699219 222.5 C 25.414062 222.503906 25.160156 222.566406 24.933594 222.691406 C 24.707031 222.820312 24.527344 222.988281 24.398438 223.191406 L 23.570312 223.085938 L 24.265625 219.40625 L 27.824219 219.40625 L 27.824219 220.25 L 24.96875 220.25 L 24.582031 222.171875 C 25.011719 221.875 25.460938 221.722656 25.933594 221.722656 C 26.554688 221.722656 27.082031 221.941406 27.515625 222.375 C 27.941406 222.808594 28.15625 223.363281 28.160156 224.042969 C 28.15625 224.691406 27.96875 225.253906 27.59375 225.722656 C 27.132812 226.300781 26.503906 226.585938 25.714844 226.589844 C 25.058594 226.585938 24.527344 226.40625 24.121094 226.042969 C 23.707031 225.679688 23.472656 225.195312 23.414062 224.59375 Z M 29.414062 222.9375 C 29.410156 222.09375 29.496094 221.414062 29.675781 220.894531 C 29.847656 220.382812 30.109375 219.984375 30.453125 219.703125 C 30.796875 219.425781 31.226562 219.285156 31.75 219.28125 C 32.128906 219.285156 32.464844 219.363281 32.757812 219.515625 C 33.046875 219.671875 33.289062 219.894531 33.476562 220.183594 C 33.664062 220.476562 33.8125 220.832031 33.921875 221.246094 C 34.027344 221.667969 34.078125 222.230469 34.082031 222.9375 C 34.078125 223.78125 33.992188 224.460938 33.824219 224.972656 C 33.648438 225.492188 33.390625 225.890625 33.050781 226.167969 C 32.703125 226.449219 32.269531 226.585938 31.75 226.589844 C 31.054688 226.585938 30.515625 226.339844 30.125 225.847656 C 29.648438 225.253906 29.410156 224.285156 29.414062 222.9375 Z M 30.320312 222.9375 C 30.316406 224.117188 30.453125 224.898438 30.730469 225.285156 C 31.003906 225.675781 31.34375 225.871094 31.75 225.867188 C 32.148438 225.871094 32.488281 225.675781 32.765625 225.28125 C 33.039062 224.894531 33.175781 224.113281 33.179688 222.9375 C 33.175781 221.761719 33.039062 220.980469 32.765625 220.589844 C 32.488281 220.207031 32.144531 220.011719 31.738281 220.007812 C 31.332031 220.011719 31.011719 220.183594 30.773438 220.523438 C 30.46875 220.960938 30.316406 221.765625 30.320312 222.9375 Z M 35.582031 221.03125 C 35.578125 220.519531 35.707031 220.085938 35.964844 219.726562 C 36.21875 219.371094 36.59375 219.191406 37.085938 219.1875 C 37.53125 219.191406 37.902344 219.351562 38.199219 219.667969 C 38.492188 219.992188 38.636719 220.464844 38.640625 221.082031 C 38.636719 221.691406 38.488281 222.15625 38.195312 222.484375 C 37.894531 222.8125 37.527344 222.976562 37.09375 222.972656 C 36.65625 222.976562 36.296875 222.816406 36.011719 222.492188 C 35.722656 222.171875 35.578125 221.683594 35.582031 221.03125 Z M 37.109375 219.792969 C 36.890625 219.796875 36.707031 219.890625 36.5625 220.078125 C 36.417969 220.269531 36.347656 220.617188 36.347656 221.117188 C 36.347656 221.578125 36.417969 221.898438 36.566406 222.085938 C 36.710938 222.273438 36.894531 222.367188 37.109375 222.367188 C 37.328125 222.367188 37.507812 222.273438 37.65625 222.085938 C 37.796875 221.898438 37.871094 221.554688 37.875 221.046875 C 37.871094 220.589844 37.796875 220.265625 37.65625 220.074219 C 37.507812 219.890625 37.328125 219.796875 37.109375 219.792969 Z M 37.113281 226.734375 L 41.03125 219.1875 L 41.742188 219.1875 L 37.84375 226.734375 Z M 40.210938 224.789062 C 40.207031 224.277344 40.335938 223.84375 40.59375 223.484375 C 40.847656 223.132812 41.222656 222.953125 41.71875 222.949219 C 42.164062 222.953125 42.535156 223.113281 42.832031 223.429688 C 43.125 223.753906 43.273438 224.226562 43.277344 224.84375 C 43.273438 225.453125 43.125 225.917969 42.828125 226.242188 C 42.53125 226.570312 42.160156 226.730469 41.722656 226.734375 C 41.285156 226.730469 40.925781 226.574219 40.640625 226.25 C 40.351562 225.929688 40.207031 225.441406 40.210938 224.789062 Z M 41.742188 223.554688 C 41.519531 223.558594 41.335938 223.652344 41.191406 223.839844 C 41.046875 224.03125 40.976562 224.375 40.976562 224.875 C 40.976562 225.335938 41.046875 225.660156 41.195312 225.84375 C 41.335938 226.035156 41.519531 226.128906 41.738281 226.125 C 41.960938 226.128906 42.144531 226.035156 42.289062 225.84375 C 42.433594 225.660156 42.503906 225.316406 42.507812 224.808594 C 42.503906 224.351562 42.433594 224.027344 42.289062 223.835938 C 42.140625 223.652344 41.957031 223.558594 41.742188 223.554688 Z M 23 217.414062 "/>
<path style=" stroke:none;fill-rule:nonzero;fill:rgb(40%,40%,40%);fill-opacity:1;" d="M 23.414062 190.757812 L 24.335938 190.679688 C 24.40625 191.132812 24.5625 191.46875 24.8125 191.691406 C 25.058594 191.921875 25.359375 192.035156 25.714844 192.03125 C 26.136719 192.035156 26.496094 191.875 26.789062 191.554688 C 27.078125 191.234375 27.222656 190.8125 27.226562 190.285156 C 27.222656 189.785156 27.082031 189.390625 26.804688 189.097656 C 26.519531 188.8125 26.152344 188.667969 25.699219 188.664062 C 25.414062 188.667969 25.160156 188.730469 24.933594 188.855469 C 24.707031 188.984375 24.527344 189.152344 24.398438 189.355469 L 23.570312 189.25 L 24.265625 185.570312 L 27.824219 185.570312 L 27.824219 186.414062 L 24.96875 186.414062 L 24.582031 188.335938 C 25.011719 188.039062 25.460938 187.886719 25.933594 187.886719 C 26.554688 187.886719 27.082031 188.105469 27.515625 188.539062 C 27.941406 188.972656 28.15625 189.527344 28.160156 190.207031 C 28.15625 190.855469 27.96875 191.417969 27.59375 191.886719 C 27.132812 192.464844 26.503906 192.75 25.714844 192.753906 C 25.058594 192.75 24.527344 192.570312 24.121094 192.207031 C 23.707031 191.84375 23.472656 191.359375 23.414062 190.757812 Z M 29.414062 190.757812 L 30.335938 190.679688 C 30.40625 191.132812 30.5625 191.46875 30.8125 191.691406 C 31.058594 191.921875 31.359375 192.035156 31.714844 192.03125 C 32.136719 192.035156 32.496094 191.875 32.789062 191.554688 C 33.078125 191.234375 33.222656 190.8125 33.226562 190.285156 C 33.222656 189.785156 33.082031 189.390625 32.804688 189.097656 C 32.519531 188.8125 32.152344 188.667969 31.699219 188.664062 C 31.414062 188.667969 31.160156 188.730469 30.933594 188.855469 C 30.707031 188.984375 30.527344 189.152344 30.398438 189.355469 L 29.570312 189.25 L 30.265625 185.570312 L 33.824219 185.570312 L 33.824219 186.414062 L 30.96875 186.414062 L 30.582031 188.335938 C 31.011719 188.039062 31.460938 187.886719 31.933594 187.886719 C 32.554688 187.886719 33.082031 188.105469 33.515625 188.539062 C 33.941406 188.972656 34.15625 189.527344 34.160156 190.207031 C 34.15625 190.855469 33.96875 191.417969 33.59375 191.886719 C 33.132812 192.464844 32.503906 192.75 31.714844 192.753906 C 31.058594 192.75 30.527344 192.570312 30.121094 192.207031 C 29.707031 191.84375 29.472656 191.359375 29.414062 190.757812 Z M 35.582031 187.195312 C 35.578125 186.683594 35.707031 186.25 35.964844 185.890625 C 36.21875 185.535156 36.59375 185.355469 37.085938 185.351562 C 37.53125 185.355469 37.902344 185.515625 38.199219 185.832031 C 38.492188 186.15625 38.636719 186.628906 38.640625 187.246094 C 38.636719 187.855469 38.488281 188.320312 38.195312 188.648438 C 37.894531 188.976562 37.527344 189.140625 37.09375 189.136719 C 36.65625 189.140625 36.296875 188.980469 36.011719 188.65625 C 35.722656 188.335938 35.578125 187.847656 35.582031 187.195312 Z M 37.109375 185.957031 C 36.890625 185.960938 36.707031 186.054688 36.5625 186.242188 C 36.417969 186.433594 36.347656 186.78125 36.347656 187.28125 C 36.347656 187.742188 36.417969 188.0625 36.566406 188.25 C 36.710938 188.4375 36.894531 188.53125 37.109375 188.53125 C 37.328125 188.53125 37.507812 188.4375 37.65625 188.25 C 37.796875 188.0625 37.871094 187.71875 37.875 187.210938 C 37.871094 186.753906 37.796875 186.429688 37.65625 186.238281 C 37.507812 186.054688 37.328125 185.960938 37.109375 185.957031 Z M 37.113281 192.898438 L 41.03125 185.351562 L 41.742188 185.351562 L 37.84375 192.898438 Z M 40.210938 190.953125 C 40.207031 190.441406 40.335938 190.007812 40.59375 189.648438 C 40.847656 189.296875 41.222656 189.117188 41.71875 189.113281 C 42.164062 189.117188 42.535156 189.277344 42.832031 189.59375 C 43.125 189.917969 43.273438 190.390625 43.277344 191.007812 C 43.273438 191.617188 43.125 192.082031 42.828125 192.40625 C 42.53125 192.734375 42.160156 192.894531 41.722656 192.898438 C 41.285156 192.894531 40.925781 192.738281 40.640625 192.414062 C 40.351562 192.09375 40.207031 191.605469 40.210938 190.953125 Z M 41.742188 189.71875 C 41.519531 189.722656 41.335938 189.816406 41.191406 190.003906 C 41.046875 190.195312 40.976562 190.539062 40.976562 191.039062 C 40.976562 191.5 41.046875 191.824219 41.195312 192.007812 C 41.335938 192.199219 41.519531 192.292969 41.738281 192.289062 C 41.960938 192.292969 42.144531 192.199219 42.289062 192.007812 C 42.433594 191.824219 42.503906 191.480469 42.507812 190.972656 C 42.503906 190.515625 42.433594 190.191406 42.289062 190 C 42.140625 189.816406 41.957031 189.722656 41.742188 189.71875 Z M 23 183.582031 "/>
<path style=" stroke:none;fill-rule:nonzero;fill:rgb(40%,40%,40%);fill-opacity:1;" d="M 27.976562 153.390625 L 27.101562 153.460938 C 27.023438 153.117188 26.910156 152.867188 26.769531 152.707031 C 26.527344 152.460938 26.234375 152.335938 25.890625 152.332031 C 25.605469 152.335938 25.359375 152.414062 25.152344 152.566406 C 24.871094 152.769531 24.652344 153.0625 24.496094 153.449219 C 24.332031 153.839844 24.25 154.390625 24.25 155.105469 C 24.457031 154.785156 24.714844 154.546875 25.023438 154.386719 C 25.328125 154.234375 25.652344 154.15625 25.988281 154.152344 C 26.574219 154.15625 27.070312 154.371094 27.484375 154.800781 C 27.890625 155.230469 28.097656 155.789062 28.101562 156.472656 C 28.097656 156.925781 28 157.34375 27.8125 157.726562 C 27.617188 158.113281 27.351562 158.410156 27.015625 158.613281 C 26.671875 158.816406 26.289062 158.914062 25.859375 158.917969 C 25.125 158.914062 24.527344 158.648438 24.066406 158.113281 C 23.605469 157.578125 23.375 156.6875 23.375 155.445312 C 23.375 154.0625 23.628906 153.058594 24.140625 152.429688 C 24.585938 151.886719 25.1875 151.613281 25.945312 151.609375 C 26.503906 151.613281 26.964844 151.769531 27.328125 152.082031 C 27.683594 152.398438 27.898438 152.835938 27.976562 153.390625 Z M 24.386719 156.476562 C 24.382812 156.78125 24.445312 157.074219 24.578125 157.347656 C 24.703125 157.628906 24.882812 157.839844 25.117188 157.980469 C 25.34375 158.128906 25.589844 158.199219 25.847656 158.195312 C 26.214844 158.199219 26.53125 158.050781 26.800781 157.746094 C 27.066406 157.449219 27.199219 157.042969 27.203125 156.527344 C 27.199219 156.035156 27.070312 155.644531 26.808594 155.359375 C 26.542969 155.074219 26.210938 154.929688 25.8125 154.929688 C 25.414062 154.929688 25.074219 155.074219 24.800781 155.359375 C 24.519531 155.644531 24.382812 156.015625 24.386719 156.476562 Z M 29.414062 155.265625 C 29.410156 154.421875 29.496094 153.742188 29.675781 153.222656 C 29.847656 152.710938 30.109375 152.3125 30.453125 152.03125 C 30.796875 151.753906 31.226562 151.613281 31.75 151.609375 C 32.128906 151.613281 32.464844 151.691406 32.757812 151.84375 C 33.046875 152 33.289062 152.222656 33.476562 152.511719 C 33.664062 152.804688 33.8125 153.160156 33.921875 153.574219 C 34.027344 153.996094 34.078125 154.558594 34.082031 155.265625 C 34.078125 156.109375 33.992188 156.789062 33.824219 157.300781 C 33.648438 157.820312 33.390625 158.21875 33.050781 158.496094 C 32.703125 158.777344 32.269531 158.914062 31.75 158.917969 C 31.054688 158.914062 30.515625 158.667969 30.125 158.175781 C 29.648438 157.582031 29.410156 156.613281 29.414062 155.265625 Z M 30.320312 155.265625 C 30.316406 156.445312 30.453125 157.226562 30.730469 157.613281 C 31.003906 158.003906 31.34375 158.199219 31.75 158.195312 C 32.148438 158.199219 32.488281 158.003906 32.765625 157.609375 C 33.039062 157.222656 33.175781 156.441406 33.179688 155.265625 C 33.175781 154.089844 33.039062 153.308594 32.765625 152.917969 C 32.488281 152.535156 32.144531 152.339844 31.738281 152.335938 C 31.332031 152.339844 31.011719 152.511719 30.773438 152.851562 C 30.46875 153.289062 30.316406 154.09375 30.320312 155.265625 Z M 35.582031 153.359375 C 35.578125 152.847656 35.707031 152.414062 35.964844 152.054688 C 36.21875 151.699219 36.59375 151.519531 37.085938 151.515625 C 37.53125 151.519531 37.902344 151.679688 38.199219 151.996094 C 38.492188 152.320312 38.636719 152.792969 38.640625 153.410156 C 38.636719 154.019531 38.488281 154.484375 38.195312 154.8125 C 37.894531 155.140625 37.527344 155.304688 37.09375 155.300781 C 36.65625 155.304688 36.296875 155.144531 36.011719 154.820312 C 35.722656 154.5 35.578125 154.011719 35.582031 153.359375 Z M 37.109375 152.121094 C 36.890625 152.125 36.707031 152.21875 36.5625 152.40625 C 36.417969 152.597656 36.347656 152.945312 36.347656 153.445312 C 36.347656 153.90625 36.417969 154.226562 36.566406 154.414062 C 36.710938 154.601562 36.894531 154.695312 37.109375 154.695312 C 37.328125 154.695312 37.507812 154.601562 37.65625 154.414062 C 37.796875 154.226562 37.871094 153.882812 37.875 153.375 C 37.871094 152.917969 37.796875 152.59375 37.65625 152.402344 C 37.507812 152.21875 37.328125 152.125 37.109375 152.121094 Z M 37.113281 159.0625 L 41.03125 151.515625 L 41.742188 151.515625 L 37.84375 159.0625 Z M 40.210938 157.117188 C 40.207031 156.605469 40.335938 156.171875 40.59375 155.8125 C 40.847656 155.460938 41.222656 155.28125 41.71875 155.277344 C 42.164062 155.28125 42.535156 155.441406 42.832031 155.757812 C 43.125 156.082031 43.273438 156.554688 43.277344 157.171875 C 43.273438 157.78125 43.125 158.246094 42.828125 158.570312 C 42.53125 158.898438 42.160156 159.058594 41.722656 159.0625 C 41.285156 159.058594 40.925781 158.902344 40.640625 158.578125 C 40.351562 158.257812 40.207031 157.769531 40.210938 157.117188 Z M 41.742188 155.882812 C 41.519531 155.886719 41.335938 155.980469 41.191406 156.167969 C 41.046875 156.359375 40.976562 156.703125 40.976562 157.203125 C 40.976562 157.664062 41.046875 157.988281 41.195312 158.171875 C 41.335938 158.363281 41.519531 158.457031 41.738281 158.453125 C 41.960938 158.457031 42.144531 158.363281 42.289062 158.171875 C 42.433594 157.988281 42.503906 157.644531 42.507812 157.136719 C 42.503906 156.679688 42.433594 156.355469 42.289062 156.164062 C 42.140625 155.980469 41.957031 155.886719 41.742188 155.882812 Z M 23 149.746094 "/>
<path style=" stroke:none;fill-rule:nonzero;fill:rgb(40%,40%,40%);fill-opacity:1;" d="M 27.976562 119.5625 L 27.101562 119.632812 C 27.023438 119.289062 26.910156 119.039062 26.769531 118.878906 C 26.527344 118.632812 26.234375 118.507812 25.890625 118.503906 C 25.605469 118.507812 25.359375 118.585938 25.152344 118.738281 C 24.871094 118.941406 24.652344 119.234375 24.496094 119.621094 C 24.332031 120.011719 24.25 120.5625 24.25 121.277344 C 24.457031 120.957031 24.714844 120.71875 25.023438 120.558594 C 25.328125 120.40625 25.652344 120.328125 25.988281 120.324219 C 26.574219 120.328125 27.070312 120.542969 27.484375 120.972656 C 27.890625 121.402344 28.097656 121.960938 28.101562 122.644531 C 28.097656 123.097656 28 123.515625 27.8125 123.898438 C 27.617188 124.285156 27.351562 124.582031 27.015625 124.785156 C 26.671875 124.988281 26.289062 125.085938 25.859375 125.089844 C 25.125 125.085938 24.527344 124.820312 24.066406 124.285156 C 23.605469 123.75 23.375 122.859375 23.375 121.617188 C 23.375 120.234375 23.628906 119.230469 24.140625 118.601562 C 24.585938 118.058594 25.1875 117.785156 25.945312 117.78125 C 26.503906 117.785156 26.964844 117.941406 27.328125 118.253906 C 27.683594 118.570312 27.898438 119.007812 27.976562 119.5625 Z M 24.386719 122.648438 C 24.382812 122.953125 24.445312 123.246094 24.578125 123.519531 C 24.703125 123.800781 24.882812 124.011719 25.117188 124.152344 C 25.34375 124.300781 25.589844 124.371094 25.847656 124.367188 C 26.214844 124.371094 26.53125 124.222656 26.800781 123.917969 C 27.066406 123.621094 27.199219 123.214844 27.203125 122.699219 C 27.199219 122.207031 27.070312 121.816406 26.808594 121.53125 C 26.542969 121.246094 26.210938 121.101562 25.8125 121.101562 C 25.414062 121.101562 25.074219 121.246094 24.800781 121.53125 C 24.519531 121.816406 24.382812 122.1875 24.386719 122.648438 Z M 29.414062 123.09375 L 30.335938 123.015625 C 30.40625 123.46875 30.5625 123.804688 30.8125 124.027344 C 31.058594 124.257812 31.359375 124.371094 31.714844 124.367188 C 32.136719 124.371094 32.496094 124.210938 32.789062 123.890625 C 33.078125 123.570312 33.222656 123.148438 33.226562 122.621094 C 33.222656 122.121094 33.082031 121.726562 32.804688 121.433594 C 32.519531 121.148438 32.152344 121.003906 31.699219 121 C 31.414062 121.003906 31.160156 121.066406 30.933594 121.191406 C 30.707031 121.320312 30.527344 121.488281 30.398438 121.691406 L 29.570312 121.585938 L 30.265625 117.90625 L 33.824219 117.90625 L 33.824219 118.75 L 30.96875 118.75 L 30.582031 120.671875 C 31.011719 120.375 31.460938 120.222656 31.933594 120.222656 C 32.554688 120.222656 33.082031 120.441406 33.515625 120.875 C 33.941406 121.308594 34.15625 121.863281 34.160156 122.542969 C 34.15625 123.191406 33.96875 123.753906 33.59375 124.222656 C 33.132812 124.800781 32.503906 125.085938 31.714844 125.089844 C 31.058594 125.085938 30.527344 124.90625 30.121094 124.542969 C 29.707031 124.179688 29.472656 123.695312 29.414062 123.09375 Z M 35.582031 119.53125 C 35.578125 119.019531 35.707031 118.585938 35.964844 118.226562 C 36.21875 117.871094 36.59375 117.691406 37.085938 117.6875 C 37.53125 117.691406 37.902344 117.851562 38.199219 118.167969 C 38.492188 118.492188 38.636719 118.964844 38.640625 119.582031 C 38.636719 120.191406 38.488281 120.65625 38.195312 120.984375 C 37.894531 121.3125 37.527344 121.476562 37.09375 121.472656 C 36.65625 121.476562 36.296875 121.316406 36.011719 120.992188 C 35.722656 120.671875 35.578125 120.183594 35.582031 119.53125 Z M 37.109375 118.292969 C 36.890625 118.296875 36.707031 118.390625 36.5625 118.578125 C 36.417969 118.769531 36.347656 119.117188 36.347656 119.617188 C 36.347656 120.078125 36.417969 120.398438 36.566406 120.585938 C 36.710938 120.773438 36.894531 120.867188 37.109375 120.867188 C 37.328125 120.867188 37.507812 120.773438 37.65625 120.585938 C 37.796875 120.398438 37.871094 120.054688 37.875 119.546875 C 37.871094 119.089844 37.796875 118.765625 37.65625 118.574219 C 37.507812 118.390625 37.328125 118.296875 37.109375 118.292969 Z M 37.113281 125.234375 L 41.03125 117.6875 L 41.742188 117.6875 L 37.84375 125.234375 Z M 40.210938 123.289062 C 40.207031 122.777344 40.335938 122.34375 40.59375 121.984375 C 40.847656 121.632812 41.222656 121.453125 41.71875 121.449219 C 42.164062 121.453125 42.535156 121.613281 42.832031 121.929688 C 43.125 122.253906 43.273438 122.726562 43.277344 123.34375 C 43.273438 123.953125 43.125 124.417969 42.828125 124.742188 C 42.53125 125.070312 42.160156 125.230469 41.722656 125.234375 C 41.285156 125.230469 40.925781 125.074219 40.640625 124.75 C 40.351562 124.429688 40.207031 123.941406 40.210938 123.289062 Z M 41.742188 122.054688 C 41.519531 122.058594 41.335938 122.152344 41.191406 122.339844 C 41.046875 122.53125 40.976562 122.875 40.976562 123.375 C 40.976562 123.835938 41.046875 124.160156 41.195312 124.34375 C 41.335938 124.535156 41.519531 124.628906 41.738281 124.625 C 41.960938 124.628906 42.144531 124.535156 42.289062 124.34375 C 42.433594 124.160156 42.503906 123.816406 42.507812 123.308594 C 42.503906 122.851562 42.433594 122.527344 42.289062 122.335938 C 42.140625 122.152344 41.957031 122.058594 41.742188 122.054688 Z M 23 115.914062 "/>
<path style=" stroke:none;fill-rule:nonzero;fill:rgb(40%,40%,40%);fill-opacity:1;" d="M 23.472656 84.914062 L 23.472656 84.066406 L 28.109375 84.066406 L 28.109375 84.75 C 27.648438 85.238281 27.195312 85.882812 26.75 86.683594 C 26.304688 87.492188 25.957031 88.316406 25.714844 89.164062 C 25.535156 89.765625 25.425781 90.421875 25.378906 91.132812 L 24.476562 91.132812 C 24.484375 90.570312 24.59375 89.890625 24.804688 89.09375 C 25.015625 88.296875 25.320312 87.527344 25.71875 86.785156 C 26.113281 86.042969 26.53125 85.421875 26.980469 84.914062 Z M 29.414062 87.601562 C 29.410156 86.757812 29.496094 86.078125 29.675781 85.558594 C 29.847656 85.046875 30.109375 84.648438 30.453125 84.367188 C 30.796875 84.089844 31.226562 83.949219 31.75 83.945312 C 32.128906 83.949219 32.464844 84.027344 32.757812 84.179688 C 33.046875 84.335938 33.289062 84.558594 33.476562 84.847656 C 33.664062 85.140625 33.8125 85.496094 33.921875 85.910156 C 34.027344 86.332031 34.078125 86.894531 34.082031 87.601562 C 34.078125 88.445312 33.992188 89.125 33.824219 89.636719 C 33.648438 90.15625 33.390625 90.554688 33.050781 90.832031 C 32.703125 91.113281 32.269531 91.25 31.75 91.253906 C 31.054688 91.25 30.515625 91.003906 30.125 90.511719 C 29.648438 89.917969 29.410156 88.949219 29.414062 87.601562 Z M 30.320312 87.601562 C 30.316406 88.78125 30.453125 89.5625 30.730469 89.949219 C 31.003906 90.339844 31.34375 90.535156 31.75 90.53125 C 32.148438 90.535156 32.488281 90.339844 32.765625 89.945312 C 33.039062 89.558594 33.175781 88.777344 33.179688 87.601562 C 33.175781 86.425781 33.039062 85.644531 32.765625 85.253906 C 32.488281 84.871094 32.144531 84.675781 31.738281 84.671875 C 31.332031 84.675781 31.011719 84.847656 30.773438 85.1875 C 30.46875 85.625 30.316406 86.429688 30.320312 87.601562 Z M 35.582031 85.695312 C 35.578125 85.183594 35.707031 84.75 35.964844 84.390625 C 36.21875 84.035156 36.59375 83.855469 37.085938 83.851562 C 37.53125 83.855469 37.902344 84.015625 38.199219 84.332031 C 38.492188 84.65625 38.636719 85.128906 38.640625 85.746094 C 38.636719 86.355469 38.488281 86.820312 38.195312 87.148438 C 37.894531 87.476562 37.527344 87.640625 37.09375 87.636719 C 36.65625 87.640625 36.296875 87.480469 36.011719 87.15625 C 35.722656 86.835938 35.578125 86.347656 35.582031 85.695312 Z M 37.109375 84.457031 C 36.890625 84.460938 36.707031 84.554688 36.5625 84.742188 C 36.417969 84.933594 36.347656 85.28125 36.347656 85.78125 C 36.347656 86.242188 36.417969 86.5625 36.566406 86.75 C 36.710938 86.9375 36.894531 87.03125 37.109375 87.03125 C 37.328125 87.03125 37.507812 86.9375 37.65625 86.75 C 37.796875 86.5625 37.871094 86.21875 37.875 85.710938 C 37.871094 85.253906 37.796875 84.929688 37.65625 84.738281 C 37.507812 84.554688 37.328125 84.460938 37.109375 84.457031 Z M 37.113281 91.398438 L 41.03125 83.851562 L 41.742188 83.851562 L 37.84375 91.398438 Z M 40.210938 89.453125 C 40.207031 88.941406 40.335938 88.507812 40.59375 88.148438 C 40.847656 87.796875 41.222656 87.617188 41.71875 87.613281 C 42.164062 87.617188 42.535156 87.777344 42.832031 88.09375 C 43.125 88.417969 43.273438 88.890625 43.277344 89.507812 C 43.273438 90.117188 43.125 90.582031 42.828125 90.90625 C 42.53125 91.234375 42.160156 91.394531 41.722656 91.398438 C 41.285156 91.394531 40.925781 91.238281 40.640625 90.914062 C 40.351562 90.59375 40.207031 90.105469 40.210938 89.453125 Z M 41.742188 88.21875 C 41.519531 88.222656 41.335938 88.316406 41.191406 88.503906 C 41.046875 88.695312 40.976562 89.039062 40.976562 89.539062 C 40.976562 90 41.046875 90.324219 41.195312 90.507812 C 41.335938 90.699219 41.519531 90.792969 41.738281 90.789062 C 41.960938 90.792969 42.144531 90.699219 42.289062 90.507812 C 42.433594 90.324219 42.503906 89.980469 42.507812 89.472656 C 42.503906 89.015625 42.433594 88.691406 42.289062 88.5 C 42.140625 88.316406 41.957031 88.222656 41.742188 88.21875 Z M 23 82.082031 "/>
<path style=" stroke:none;fill-rule:nonzero;fill:rgb(40%,40%,40%);fill-opacity:1;" d="M 23.472656 51.078125 L 23.472656 50.230469 L 28.109375 50.230469 L 28.109375 50.914062 C 27.648438 51.402344 27.195312 52.046875 26.75 52.847656 C 26.304688 53.65625 25.957031 54.480469 25.714844 55.328125 C 25.535156 55.929688 25.425781 56.585938 25.378906 57.296875 L 24.476562 57.296875 C 24.484375 56.734375 24.59375 56.054688 24.804688 55.257812 C 25.015625 54.460938 25.320312 53.691406 25.71875 52.949219 C 26.113281 52.207031 26.53125 51.585938 26.980469 51.078125 Z M 29.414062 55.421875 L 30.335938 55.34375 C 30.40625 55.796875 30.5625 56.132812 30.8125 56.355469 C 31.058594 56.585938 31.359375 56.699219 31.714844 56.695312 C 32.136719 56.699219 32.496094 56.539062 32.789062 56.21875 C 33.078125 55.898438 33.222656 55.476562 33.226562 54.949219 C 33.222656 54.449219 33.082031 54.054688 32.804688 53.761719 C 32.519531 53.476562 32.152344 53.332031 31.699219 53.328125 C 31.414062 53.332031 31.160156 53.394531 30.933594 53.519531 C 30.707031 53.648438 30.527344 53.816406 30.398438 54.019531 L 29.570312 53.914062 L 30.265625 50.234375 L 33.824219 50.234375 L 33.824219 51.078125 L 30.96875 51.078125 L 30.582031 53 C 31.011719 52.703125 31.460938 52.550781 31.933594 52.550781 C 32.554688 52.550781 33.082031 52.769531 33.515625 53.203125 C 33.941406 53.636719 34.15625 54.191406 34.160156 54.871094 C 34.15625 55.519531 33.96875 56.082031 33.59375 56.550781 C 33.132812 57.128906 32.503906 57.414062 31.714844 57.417969 C 31.058594 57.414062 30.527344 57.234375 30.121094 56.871094 C 29.707031 56.507812 29.472656 56.023438 29.414062 55.421875 Z M 35.582031 51.859375 C 35.578125 51.347656 35.707031 50.914062 35.964844 50.554688 C 36.21875 50.199219 36.59375 50.019531 37.085938 50.015625 C 37.53125 50.019531 37.902344 50.179688 38.199219 50.496094 C 38.492188 50.820312 38.636719 51.292969 38.640625 51.910156 C 38.636719 52.519531 38.488281 52.984375 38.195312 53.3125 C 37.894531 53.640625 37.527344 53.804688 37.09375 53.800781 C 36.65625 53.804688 36.296875 53.644531 36.011719 53.320312 C 35.722656 53 35.578125 52.511719 35.582031 51.859375 Z M 37.109375 50.621094 C 36.890625 50.625 36.707031 50.71875 36.5625 50.90625 C 36.417969 51.097656 36.347656 51.445312 36.347656 51.945312 C 36.347656 52.40625 36.417969 52.726562 36.566406 52.914062 C 36.710938 53.101562 36.894531 53.195312 37.109375 53.195312 C 37.328125 53.195312 37.507812 53.101562 37.65625 52.914062 C 37.796875 52.726562 37.871094 52.382812 37.875 51.875 C 37.871094 51.417969 37.796875 51.09375 37.65625 50.902344 C 37.507812 50.71875 37.328125 50.625 37.109375 50.621094 Z M 37.113281 57.5625 L 41.03125 50.015625 L 41.742188 50.015625 L 37.84375 57.5625 Z M 40.210938 55.617188 C 40.207031 55.105469 40.335938 54.671875 40.59375 54.3125 C 40.847656 53.960938 41.222656 53.78125 41.71875 53.777344 C 42.164062 53.78125 42.535156 53.941406 42.832031 54.257812 C 43.125 54.582031 43.273438 55.054688 43.277344 55.671875 C 43.273438 56.28125 43.125 56.746094 42.828125 57.070312 C 42.53125 57.398438 42.160156 57.558594 41.722656 57.5625 C 41.285156 57.558594 40.925781 57.402344 40.640625 57.078125 C 40.351562 56.757812 40.207031 56.269531 40.210938 55.617188 Z M 41.742188 54.382812 C 41.519531 54.386719 41.335938 54.480469 41.191406 54.667969 C 41.046875 54.859375 40.976562 55.203125 40.976562 55.703125 C 40.976562 56.164062 41.046875 56.488281 41.195312 56.671875 C 41.335938 56.863281 41.519531 56.957031 41.738281 56.953125 C 41.960938 56.957031 42.144531 56.863281 42.289062 56.671875 C 42.433594 56.488281 42.503906 56.144531 42.507812 55.636719 C 42.503906 55.179688 42.433594 54.855469 42.289062 54.664062 C 42.140625 54.480469 41.957031 54.386719 41.742188 54.382812 Z M 23 48.246094 "/>
<path style=" stroke:none;fill-rule:nonzero;fill:rgb(40%,40%,40%);fill-opacity:1;" d="M 24.765625 19.585938 C 24.398438 19.457031 24.128906 19.265625 23.957031 19.015625 C 23.777344 18.769531 23.691406 18.472656 23.695312 18.125 C 23.691406 17.605469 23.878906 17.167969 24.253906 16.8125 C 24.628906 16.460938 25.125 16.285156 25.75 16.28125 C 26.371094 16.285156 26.875 16.46875 27.257812 16.828125 C 27.636719 17.195312 27.828125 17.636719 27.828125 18.152344 C 27.828125 18.488281 27.738281 18.777344 27.566406 19.019531 C 27.386719 19.269531 27.125 19.457031 26.773438 19.585938 C 27.210938 19.730469 27.542969 19.960938 27.777344 20.28125 C 28.003906 20.601562 28.121094 20.984375 28.121094 21.421875 C 28.121094 22.039062 27.902344 22.550781 27.472656 22.964844 C 27.035156 23.378906 26.46875 23.585938 25.765625 23.589844 C 25.054688 23.585938 24.484375 23.378906 24.054688 22.964844 C 23.621094 22.546875 23.402344 22.027344 23.40625 21.398438 C 23.402344 20.9375 23.519531 20.546875 23.757812 20.230469 C 23.992188 19.917969 24.328125 19.703125 24.765625 19.585938 Z M 24.59375 18.097656 C 24.59375 18.4375 24.699219 18.714844 24.917969 18.929688 C 25.132812 19.144531 25.417969 19.25 25.769531 19.25 C 26.105469 19.25 26.382812 19.144531 26.601562 18.929688 C 26.816406 18.71875 26.925781 18.457031 26.925781 18.148438 C 26.925781 17.828125 26.8125 17.558594 26.589844 17.335938 C 26.367188 17.117188 26.089844 17.007812 25.757812 17.003906 C 25.421875 17.007812 25.144531 17.113281 24.925781 17.328125 C 24.703125 17.542969 24.59375 17.800781 24.59375 18.097656 Z M 24.308594 21.402344 C 24.304688 21.65625 24.363281 21.898438 24.484375 22.132812 C 24.601562 22.367188 24.78125 22.550781 25.015625 22.675781 C 25.25 22.808594 25.5 22.871094 25.773438 22.867188 C 26.1875 22.871094 26.535156 22.738281 26.8125 22.464844 C 27.082031 22.199219 27.21875 21.855469 27.222656 21.433594 C 27.21875 21.011719 27.078125 20.660156 26.800781 20.382812 C 26.515625 20.109375 26.164062 19.972656 25.742188 19.96875 C 25.328125 19.972656 24.984375 20.109375 24.714844 20.378906 C 24.441406 20.65625 24.304688 20.996094 24.308594 21.402344 Z M 29.414062 19.9375 C 29.410156 19.09375 29.496094 18.414062 29.675781 17.894531 C 29.847656 17.382812 30.109375 16.984375 30.453125 16.703125 C 30.796875 16.425781 31.226562 16.285156 31.75 16.28125 C 32.128906 16.285156 32.464844 16.363281 32.757812 16.515625 C 33.046875 16.671875 33.289062 16.894531 33.476562 17.183594 C 33.664062 17.476562 33.8125 17.832031 33.921875 18.246094 C 34.027344 18.667969 34.078125 19.230469 34.082031 19.9375 C 34.078125 20.78125 33.992188 21.460938 33.824219 21.972656 C 33.648438 22.492188 33.390625 22.890625 33.050781 23.167969 C 32.703125 23.449219 32.269531 23.585938 31.75 23.589844 C 31.054688 23.585938 30.515625 23.339844 30.125 22.847656 C 29.648438 22.253906 29.410156 21.285156 29.414062 19.9375 Z M 30.320312 19.9375 C 30.316406 21.117188 30.453125 21.898438 30.730469 22.285156 C 31.003906 22.675781 31.34375 22.871094 31.75 22.867188 C 32.148438 22.871094 32.488281 22.675781 32.765625 22.28125 C 33.039062 21.894531 33.175781 21.113281 33.179688 19.9375 C 33.175781 18.761719 33.039062 17.980469 32.765625 17.589844 C 32.488281 17.207031 32.144531 17.011719 31.738281 17.007812 C 31.332031 17.011719 31.011719 17.183594 30.773438 17.523438 C 30.46875 17.960938 30.316406 18.765625 30.320312 19.9375 Z M 35.582031 18.03125 C 35.578125 17.519531 35.707031 17.085938 35.964844 16.726562 C 36.21875 16.371094 36.59375 16.191406 37.085938 16.1875 C 37.53125 16.191406 37.902344 16.351562 38.199219 16.667969 C 38.492188 16.992188 38.636719 17.464844 38.640625 18.082031 C 38.636719 18.691406 38.488281 19.15625 38.195312 19.484375 C 37.894531 19.8125 37.527344 19.976562 37.09375 19.972656 C 36.65625 19.976562 36.296875 19.816406 36.011719 19.492188 C 35.722656 19.171875 35.578125 18.683594 35.582031 18.03125 Z M 37.109375 16.792969 C 36.890625 16.796875 36.707031 16.890625 36.5625 17.078125 C 36.417969 17.269531 36.347656 17.617188 36.347656 18.117188 C 36.347656 18.578125 36.417969 18.898438 36.566406 19.085938 C 36.710938 19.273438 36.894531 19.367188 37.109375 19.367188 C 37.328125 19.367188 37.507812 19.273438 37.65625 19.085938 C 37.796875 18.898438 37.871094 18.554688 37.875 18.046875 C 37.871094 17.589844 37.796875 17.265625 37.65625 17.074219 C 37.507812 16.890625 37.328125 16.796875 37.109375 16.792969 Z M 37.113281 23.734375 L 41.03125 16.1875 L 41.742188 16.1875 L 37.84375 23.734375 Z M 40.210938 21.789062 C 40.207031 21.277344 40.335938 20.84375 40.59375 20.484375 C 40.847656 20.132812 41.222656 19.953125 41.71875 19.949219 C 42.164062 19.953125 42.535156 20.113281 42.832031 20.429688 C 43.125 20.753906 43.273438 21.226562 43.277344 21.84375 C 43.273438 22.453125 43.125 22.917969 42.828125 23.242188 C 42.53125 23.570312 42.160156 23.730469 41.722656 23.734375 C 41.285156 23.730469 40.925781 23.574219 40.640625 23.25 C 40.351562 22.929688 40.207031 22.441406 40.210938 21.789062 Z M 41.742188 20.554688 C 41.519531 20.558594 41.335938 20.652344 41.191406 20.839844 C 41.046875 21.03125 40.976562 21.375 40.976562 21.875 C 40.976562 22.335938 41.046875 22.660156 41.195312 22.84375 C 41.335938 23.035156 41.519531 23.128906 41.738281 23.125 C 41.960938 23.128906 42.144531 23.035156 42.289062 22.84375 C 42.433594 22.660156 42.503906 22.316406 42.507812 21.808594 C 42.503906 21.351562 42.433594 21.027344 42.289062 20.835938 C 42.140625 20.652344 41.957031 20.558594 41.742188 20.554688 Z M 23 14.414062 "/>
<g clip-path="url(#clip1)" clip-rule="nonzero">
<path style="fill:none;stroke-width:2;stroke-linecap:butt;stroke-linejoin:miter;stroke:rgb(48.627451%,70.196078%,25.882353%);stroke-opacity:1;stroke-miterlimit:10;" d="M 55 201.683594 C 313.332031 200.332031 571.667969 198.976562 830 197.625 "/>
</g>
<g clip-path="url(#clip2)" clip-rule="nonzero">
<path style="fill:none;stroke-width:2;stroke-linecap:butt;stroke-linejoin:miter;stroke:rgb(1.176471%,60.784314%,89.803922%);stroke-opacity:1;stroke-miterlimit:10;" d="M 55 44.902344 C 313.332031 45.53125 571.667969 46.164062 830 46.796875 "/>
</g>
<g clip-path="url(#clip3)" clip-rule="nonzero">
<path style="fill:none;stroke-width:2;stroke-linecap:butt;stroke-linejoin:miter;stroke:rgb(89.803922%,22.352941%,20.784314%);stroke-opacity:1;stroke-miterlimit:10;" d="M 55 170.695312 C 313.332031 167.355469 571.667969 164.015625 830 160.679688 "/>
</g>
</g>
</svg>
