<?xml version="1.0" encoding="UTF-8" standalone="no"?>
<!DOCTYPE svg PUBLIC "-//W3C//DTD SVG 1.1//EN" "http://www.w3.org/Graphics/SVG/1.1/DTD/svg11.dtd">
<svg width="100%" height="100%" viewBox="0 0 1718.3828125 330" version="1.1" xmlns="http://www.w3.org/2000/svg" xmlns:xlink="http://www.w3.org/1999/xlink" xml:space="preserve" xmlns:serif="http://www.serif.com/" style="fill-rule:evenodd;clip-rule:evenodd;stroke-linejoin:round;stroke-miterlimit:2;">
    <path d="M82.912,22.056l-69.362,69.362l69.362,69.363l69.363,-69.363l-69.363,-69.362Z" style="fill:rgb(176,176,176);"/>
    <path d="M82.912,160.781l-69.362,69.363l69.362,69.363l69.363,-69.363l-69.363,-69.363Z" style="fill:rgb(176,176,176);"/>
    <path d="M199.583,0l-94.615,0l-22.056,22.056l69.363,69.362l69.363,-69.362l-22.055,-22.056Z" style="fill:rgb(176,176,176);fill-opacity:0.5;"/>
    <path d="M113.02,329.614l78.511,0l30.107,-30.107l-69.363,-69.363l-69.363,69.363l30.108,30.107Z" style="fill:rgb(176,176,176);fill-opacity:0.5;"/>
    <path d="M0,0l0,77.869l13.55,13.549l69.362,-69.362l-22.055,-22.056l-60.857,-0Z" style="fill:rgb(176,176,176);fill-opacity:0.5;"/>
    <path d="M13.55,368.87l-1.598,-1.597l3.195,-0l-1.597,1.597Zm-13.55,-125.176l0,85.92l52.805,0l30.107,-30.107l-69.362,-69.363l-13.55,13.55Z" style="fill:rgb(176,176,176);fill-opacity:0.5;"/>
    <path d="M0,104.968l0,111.627l13.55,13.549l69.362,-69.363l-69.362,-69.363l-13.55,13.55Z" style="fill:rgb(176,176,176);fill-opacity:0.5;"/>
    <path d="M152.275,91.418l-69.363,69.363l69.363,69.363l69.363,-69.363l-69.363,-69.363Z" style="fill:#7002B9;"/>
    <path d="M221.638,22.056l-69.363,69.362l69.363,69.363l69.363,-69.363l-69.363,-69.362Z" style="fill:#A04DD8;"/>
    <path d="M221.638,160.781l-69.363,69.363l69.363,69.363l69.363,-69.363l-69.363,-69.363Z" style="fill:#A04DD8;"/>
    <path d="M291.001,91.418l-69.363,69.363l69.363,69.363l69.363,-69.363l-69.363,-69.363Z" style="fill:#8202D7;"/>
    <path d="M152.291,110.184l-152.291,152.291l0,-18.781l152.275,-152.276l0.016,0.016l0.016,-0.016l69.543,69.544l69.544,-69.544l9.391,9.391l-78.723,78.722l-0.212,-0.212l-0.212,0.212l-69.347,-69.347Z" style="fill:rgb(255,209,62);"/>
    <path d="M557.84 236L531.18 236L522.97 199.96L485.77 199.96L477.56 236L451 236L486.35 92.64L522.39 92.64L557.84 236ZM491.04 176.43L517.99 176.43L510.38 143.23Q509.69 140.20 507.30 128.04Q504.91 115.88 504.42 111.78L504.42 111.78Q503.15 120.18 501.20 130.29Q499.24 140.39 491.04 176.43L491.04 176.43Z" fill="#FFFFFF"/><path d="M631.86 93.23L658.23 93.23L658.23 185.61Q658.23 211.10 646.70 224.53Q635.18 237.95 613.40 237.95L613.40 237.95Q592.11 237.95 580.98 224.62Q569.85 211.29 569.85 185.22L569.85 185.22L569.85 93.23L596.21 93.23L596.21 187.17Q596.21 214.42 614.28 214.42L614.28 214.42Q622.68 214.42 627.27 207.48Q631.86 200.55 631.86 187.76L631.86 187.76L631.86 93.23Z" fill="#FFFFFF"/><path d="M726.68 116.57L726.68 236L700.22 236L700.22 116.57L672.88 116.57L672.88 93.23L754.03 93.23L754.03 116.57L726.68 116.57Z" fill="#FFFFFF"/><path d="M857.45 93.23L857.45 236L830.88 236L830.88 173.40L795.82 173.40L795.82 236L769.26 236L769.26 93.23L795.82 93.23L795.82 149.96L830.88 149.96L830.88 93.23L857.45 93.23Z" fill="#FFFFFF"/><path d="M980.88 164.42L980.88 164.42Q980.88 199.87 967.60 218.91Q954.32 237.95 929.61 237.95L929.61 237.95Q904.81 237.95 891.53 218.96Q878.25 199.96 878.25 164.22L878.25 164.22Q878.25 128.77 891.53 109.88Q904.81 90.98 929.81 90.98L929.81 90.98Q954.52 90.98 967.70 109.97Q980.88 128.97 980.88 164.42ZM905.39 164.42L905.39 164.42Q905.39 188.83 911.55 201.63Q917.70 214.42 929.61 214.42L929.61 214.42Q953.64 214.42 953.64 164.42L953.64 164.42Q953.64 114.42 929.81 114.42L929.81 114.42Q917.70 114.42 911.55 127.16Q905.39 139.91 905.39 164.42Z" fill="#FFFFFF"/><path d="M1037.72 180.43L1028.25 180.43L1028.25 236L1001.68 236L1001.68 93.23L1036.45 93.23Q1058.52 93.23 1069.02 103.68Q1079.52 114.13 1079.52 135.61L1079.52 135.61Q1079.52 162.66 1061.25 173.40L1061.25 173.40L1088.70 236L1060.28 236L1037.72 180.43ZM1028.25 116.18L1028.25 157.58L1035.08 157.58Q1044.46 157.58 1048.56 152.26Q1052.66 146.94 1052.66 136.39L1052.66 136.39Q1052.66 125.45 1048.31 120.81Q1043.97 116.18 1034.89 116.18L1034.89 116.18L1028.25 116.18Z" fill="#FFFFFF"/><path d="" fill="#FFFFFF"/><path d="M1194.95 116.57L1194.95 236L1168.48 236L1168.48 116.57L1141.14 116.57L1141.14 93.23L1222.29 93.23L1222.29 116.57L1194.95 116.57Z" fill="#FFFFFF"/><path d="M1333.13 164.42L1333.13 164.42Q1333.13 199.87 1319.85 218.91Q1306.57 237.95 1281.86 237.95L1281.86 237.95Q1257.05 237.95 1243.77 218.96Q1230.49 199.96 1230.49 164.22L1230.49 164.22Q1230.49 128.77 1243.77 109.88Q1257.05 90.98 1282.05 90.98L1282.05 90.98Q1306.76 90.98 1319.95 109.97Q1333.13 128.97 1333.13 164.42ZM1257.64 164.42L1257.64 164.42Q1257.64 188.83 1263.79 201.63Q1269.95 214.42 1281.86 214.42L1281.86 214.42Q1305.88 214.42 1305.88 164.42L1305.88 164.42Q1305.88 114.42 1282.05 114.42L1282.05 114.42Q1269.95 114.42 1263.79 127.16Q1257.64 139.91 1257.64 164.42Z" fill="#FFFFFF"/><path d="M1452.17 164.42L1452.17 164.42Q1452.17 199.87 1438.89 218.91Q1425.61 237.95 1400.90 237.95L1400.90 237.95Q1376.10 237.95 1362.82 218.96Q1349.54 199.96 1349.54 164.22L1349.54 164.22Q1349.54 128.77 1362.82 109.88Q1376.10 90.98 1401.10 90.98L1401.10 90.98Q1425.80 90.98 1438.99 109.97Q1452.17 128.97 1452.17 164.42ZM1376.68 164.42L1376.68 164.42Q1376.68 188.83 1382.84 201.63Q1388.99 214.42 1400.90 214.42L1400.90 214.42Q1424.93 214.42 1424.93 164.42L1424.93 164.42Q1424.93 114.42 1401.10 114.42L1401.10 114.42Q1388.99 114.42 1382.84 127.16Q1376.68 139.91 1376.68 164.42Z" fill="#FFFFFF"/><path d="M1536.35 236L1472.97 236L1472.97 93.23L1499.54 93.23L1499.54 212.76L1536.35 212.76L1536.35 236Z" fill="#FFFFFF"/><path d="M1618.38 196.64L1618.38 196.64Q1618.38 216.66 1608.28 227.31Q1598.17 237.95 1579.13 237.95L1579.13 237.95Q1560.47 237.95 1547.39 230.63L1547.39 230.63L1547.39 204.36Q1563.40 214.81 1576.78 214.81L1576.78 214.81Q1584.40 214.81 1588.26 210.61Q1592.11 206.41 1592.11 199.18L1592.11 199.18Q1592.11 192.05 1587.52 186.15Q1582.93 180.24 1572.39 173.01L1572.39 173.01Q1563.21 166.66 1558.47 160.85Q1553.73 155.04 1551.15 147.82Q1548.56 140.59 1548.56 131.02L1548.56 131.02Q1548.56 112.66 1558.76 101.92Q1568.97 91.18 1586.16 91.18L1586.16 91.18Q1602.56 91.18 1617.70 100.36L1617.70 100.36L1608.91 121.64Q1604.22 118.91 1599.10 116.76Q1593.97 114.61 1588.11 114.61L1588.11 114.61Q1581.66 114.61 1578.20 118.86Q1574.73 123.11 1574.73 130.43L1574.73 130.43Q1574.73 137.66 1578.88 143.03Q1583.03 148.40 1593.38 155.24L1593.38 155.24Q1607.35 164.61 1612.87 174.38Q1618.38 184.14 1618.38 196.64Z" fill="#FFFFFF"/><path d="M556.84 235L530.18 235L521.97 198.96L484.77 198.96L476.56 235L450 235L485.35 91.64L521.39 91.64L556.84 235ZM490.04 175.43L516.99 175.43L509.38 142.23Q508.69 139.20 506.30 127.04Q503.91 114.88 503.42 110.78L503.42 110.78Q502.15 119.18 500.20 129.29Q498.24 139.39 490.04 175.43L490.04 175.43Z" fill="url(#TextGradient)"/><path d="M630.86 92.23L657.23 92.23L657.23 184.61Q657.23 210.10 645.70 223.53Q634.18 236.95 612.40 236.95L612.40 236.95Q591.11 236.95 579.98 223.62Q568.85 210.29 568.85 184.22L568.85 184.22L568.85 92.23L595.21 92.23L595.21 186.17Q595.21 213.42 613.28 213.42L613.28 213.42Q621.68 213.42 626.27 206.48Q630.86 199.55 630.86 186.76L630.86 186.76L630.86 92.23Z" fill="url(#TextGradient)"/><path d="M725.68 115.57L725.68 235L699.22 235L699.22 115.57L671.88 115.57L671.88 92.23L753.03 92.23L753.03 115.57L725.68 115.57Z" fill="url(#TextGradient)"/><path d="M856.45 92.23L856.45 235L829.88 235L829.88 172.40L794.82 172.40L794.82 235L768.26 235L768.26 92.23L794.82 92.23L794.82 148.96L829.88 148.96L829.88 92.23L856.45 92.23Z" fill="url(#TextGradient)"/><path d="M979.88 163.42L979.88 163.42Q979.88 198.87 966.60 217.91Q953.32 236.95 928.61 236.95L928.61 236.95Q903.81 236.95 890.53 217.96Q877.25 198.96 877.25 163.22L877.25 163.22Q877.25 127.77 890.53 108.88Q903.81 89.98 928.81 89.98L928.81 89.98Q953.52 89.98 966.70 108.97Q979.88 127.97 979.88 163.42ZM904.39 163.42L904.39 163.42Q904.39 187.83 910.55 200.63Q916.70 213.42 928.61 213.42L928.61 213.42Q952.64 213.42 952.64 163.42L952.64 163.42Q952.64 113.42 928.81 113.42L928.81 113.42Q916.70 113.42 910.55 126.16Q904.39 138.91 904.39 163.42Z" fill="url(#TextGradient)"/><path d="M1036.72 179.43L1027.25 179.43L1027.25 235L1000.68 235L1000.68 92.23L1035.45 92.23Q1057.52 92.23 1068.02 102.68Q1078.52 113.13 1078.52 134.61L1078.52 134.61Q1078.52 161.66 1060.25 172.40L1060.25 172.40L1087.70 235L1059.28 235L1036.72 179.43ZM1027.25 115.18L1027.25 156.58L1034.08 156.58Q1043.46 156.58 1047.56 151.26Q1051.66 145.94 1051.66 135.39L1051.66 135.39Q1051.66 124.45 1047.31 119.81Q1042.97 115.18 1033.89 115.18L1033.89 115.18L1027.25 115.18Z" fill="url(#TextGradient)"/><path d="" fill="url(#TextGradient)"/><path d="M1193.95 115.57L1193.95 235L1167.48 235L1167.48 115.57L1140.14 115.57L1140.14 92.23L1221.29 92.23L1221.29 115.57L1193.95 115.57Z" fill="url(#TextGradient)"/><path d="M1332.13 163.42L1332.13 163.42Q1332.13 198.87 1318.85 217.91Q1305.57 236.95 1280.86 236.95L1280.86 236.95Q1256.05 236.95 1242.77 217.96Q1229.49 198.96 1229.49 163.22L1229.49 163.22Q1229.49 127.77 1242.77 108.88Q1256.05 89.98 1281.05 89.98L1281.05 89.98Q1305.76 89.98 1318.95 108.97Q1332.13 127.97 1332.13 163.42ZM1256.64 163.42L1256.64 163.42Q1256.64 187.83 1262.79 200.63Q1268.95 213.42 1280.86 213.42L1280.86 213.42Q1304.88 213.42 1304.88 163.42L1304.88 163.42Q1304.88 113.42 1281.05 113.42L1281.05 113.42Q1268.95 113.42 1262.79 126.16Q1256.64 138.91 1256.64 163.42Z" fill="url(#TextGradient)"/><path d="M1451.17 163.42L1451.17 163.42Q1451.17 198.87 1437.89 217.91Q1424.61 236.95 1399.90 236.95L1399.90 236.95Q1375.10 236.95 1361.82 217.96Q1348.54 198.96 1348.54 163.22L1348.54 163.22Q1348.54 127.77 1361.82 108.88Q1375.10 89.98 1400.10 89.98L1400.10 89.98Q1424.80 89.98 1437.99 108.97Q1451.17 127.97 1451.17 163.42ZM1375.68 163.42L1375.68 163.42Q1375.68 187.83 1381.84 200.63Q1387.99 213.42 1399.90 213.42L1399.90 213.42Q1423.93 213.42 1423.93 163.42L1423.93 163.42Q1423.93 113.42 1400.10 113.42L1400.10 113.42Q1387.99 113.42 1381.84 126.16Q1375.68 138.91 1375.68 163.42Z" fill="url(#TextGradient)"/><path d="M1535.35 235L1471.97 235L1471.97 92.23L1498.54 92.23L1498.54 211.76L1535.35 211.76L1535.35 235Z" fill="url(#TextGradient)"/><path d="M1617.38 195.64L1617.38 195.64Q1617.38 215.66 1607.28 226.31Q1597.17 236.95 1578.13 236.95L1578.13 236.95Q1559.47 236.95 1546.39 229.63L1546.39 229.63L1546.39 203.36Q1562.40 213.81 1575.78 213.81L1575.78 213.81Q1583.40 213.81 1587.26 209.61Q1591.11 205.41 1591.11 198.18L1591.11 198.18Q1591.11 191.05 1586.52 185.15Q1581.93 179.24 1571.39 172.01L1571.39 172.01Q1562.21 165.66 1557.47 159.85Q1552.73 154.04 1550.15 146.82Q1547.56 139.59 1547.56 130.02L1547.56 130.02Q1547.56 111.66 1557.76 100.92Q1567.97 90.18 1585.16 90.18L1585.16 90.18Q1601.56 90.18 1616.70 99.36L1616.70 99.36L1607.91 120.64Q1603.22 117.91 1598.10 115.76Q1592.97 113.61 1587.11 113.61L1587.11 113.61Q1580.66 113.61 1577.20 117.86Q1573.73 122.11 1573.73 129.43L1573.73 129.43Q1573.73 136.66 1577.88 142.03Q1582.03 147.40 1592.38 154.24L1592.38 154.24Q1606.35 163.61 1611.87 173.38Q1617.38 183.14 1617.38 195.64Z" fill="url(#TextGradient)"/>
    <defs>
        <linearGradient id="TextGradient" x1="0" y1="0" x2="0" y2="1">
            <stop offset="0" style="stop-color:#580291;stop-opacity:1"/>
            <stop offset="1" style="stop-color:#8202D7;stop-opacity:1"/>
        </linearGradient>
    </defs>
</svg>
