<?xml version="1.0" encoding="UTF-8" standalone="no"?>
<!DOCTYPE svg PUBLIC "-//W3C//DTD SVG 1.1//EN" "http://www.w3.org/Graphics/SVG/1.1/DTD/svg11.dtd">
<svg width="100%" height="100%" viewBox="0 0 2156.078125 330" version="1.1" xmlns="http://www.w3.org/2000/svg" xmlns:xlink="http://www.w3.org/1999/xlink" xml:space="preserve" xmlns:serif="http://www.serif.com/" style="fill-rule:evenodd;clip-rule:evenodd;stroke-linejoin:round;stroke-miterlimit:2;">
    <path d="M82.912,22.056l-69.362,69.362l69.362,69.363l69.363,-69.363l-69.363,-69.362Z" style="fill:rgb(176,176,176);"/>
    <path d="M82.912,160.781l-69.362,69.363l69.362,69.363l69.363,-69.363l-69.363,-69.363Z" style="fill:rgb(176,176,176);"/>
    <path d="M199.583,0l-94.615,0l-22.056,22.056l69.363,69.362l69.363,-69.362l-22.055,-22.056Z" style="fill:rgb(176,176,176);fill-opacity:0.5;"/>
    <path d="M113.02,329.614l78.511,0l30.107,-30.107l-69.363,-69.363l-69.363,69.363l30.108,30.107Z" style="fill:rgb(176,176,176);fill-opacity:0.5;"/>
    <path d="M0,0l0,77.869l13.55,13.549l69.362,-69.362l-22.055,-22.056l-60.857,-0Z" style="fill:rgb(176,176,176);fill-opacity:0.5;"/>
    <path d="M13.55,368.87l-1.598,-1.597l3.195,-0l-1.597,1.597Zm-13.55,-125.176l0,85.92l52.805,0l30.107,-30.107l-69.362,-69.363l-13.55,13.55Z" style="fill:rgb(176,176,176);fill-opacity:0.5;"/>
    <path d="M0,104.968l0,111.627l13.55,13.549l69.362,-69.363l-69.362,-69.363l-13.55,13.55Z" style="fill:rgb(176,176,176);fill-opacity:0.5;"/>
    <path d="M152.275,91.418l-69.363,69.363l69.363,69.363l69.363,-69.363l-69.363,-69.363Z" style="fill:#941849;"/>
    <path d="M221.638,22.056l-69.363,69.362l69.363,69.363l69.363,-69.363l-69.363,-69.362Z" style="fill:#CA5C88;"/>
    <path d="M221.638,160.781l-69.363,69.363l69.363,69.363l69.363,-69.363l-69.363,-69.363Z" style="fill:#CA5C88;"/>
    <path d="M291.001,91.418l-69.363,69.363l69.363,69.363l69.363,-69.363l-69.363,-69.363Z" style="fill:#C2185B;"/>
    <path d="M152.291,110.184l-152.291,152.291l0,-18.781l152.275,-152.276l0.016,0.016l0.016,-0.016l69.543,69.544l69.544,-69.544l9.391,9.391l-78.723,78.722l-0.212,-0.212l-0.212,0.212l-69.347,-69.347Z" style="fill:rgb(255,209,62);"/>
    <path d="M463.60 236L463.60 93.23L500.02 93.23Q522.29 93.23 532.45 101.87Q542.60 110.51 542.60 129.36L542.60 129.36Q542.60 141.76 537.23 150.11Q531.86 158.46 522.58 160.22L522.58 160.22L522.58 161.20Q534.69 164.22 540.06 172.52Q545.43 180.82 545.43 194.59L545.43 194.59Q545.43 214.03 535.03 225.01Q524.63 236 506.57 236L506.57 236L463.60 236ZM488.60 116.18L488.60 150.65L500.80 150.65Q509.20 150.65 512.62 146.16Q516.04 141.66 516.04 132.78L516.04 132.78Q516.04 123.89 512.13 120.03Q508.23 116.18 499.83 116.18L499.83 116.18L488.60 116.18ZM501.59 172.82L488.60 172.82L488.60 212.76L501.98 212.76Q510.28 212.76 514.33 207.68Q518.38 202.60 518.38 191.96L518.38 191.96Q518.38 172.82 501.59 172.82L501.59 172.82Z" fill="#FFFFFF"/><path d="M663.21 164.42L663.21 164.42Q663.21 199.87 649.93 218.91Q636.64 237.95 611.94 237.95L611.94 237.95Q587.13 237.95 573.85 218.96Q560.57 199.96 560.57 164.22L560.57 164.22Q560.57 128.77 573.85 109.88Q587.13 90.98 612.13 90.98L612.13 90.98Q636.84 90.98 650.02 109.97Q663.21 128.97 663.21 164.42ZM587.72 164.42L587.72 164.42Q587.72 188.83 593.87 201.63Q600.02 214.42 611.94 214.42L611.94 214.42Q635.96 214.42 635.96 164.42L635.96 164.42Q635.96 114.42 612.13 114.42L612.13 114.42Q600.02 114.42 593.87 127.16Q587.72 139.91 587.72 164.42Z" fill="#FFFFFF"/><path d="M782.25 164.42L782.25 164.42Q782.25 199.87 768.97 218.91Q755.69 237.95 730.98 237.95L730.98 237.95Q706.18 237.95 692.89 218.96Q679.61 199.96 679.61 164.22L679.61 164.22Q679.61 128.77 692.89 109.88Q706.18 90.98 731.18 90.98L731.18 90.98Q755.88 90.98 769.07 109.97Q782.25 128.97 782.25 164.42ZM706.76 164.42L706.76 164.42Q706.76 188.83 712.91 201.63Q719.07 214.42 730.98 214.42L730.98 214.42Q755.00 214.42 755.00 164.42L755.00 164.42Q755.00 114.42 731.18 114.42L731.18 114.42Q719.07 114.42 712.91 127.16Q706.76 139.91 706.76 164.42Z" fill="#FFFFFF"/><path d="M844.26 116.57L844.26 236L817.80 236L817.80 116.57L790.45 116.57L790.45 93.23L871.61 93.23L871.61 116.57L844.26 116.57Z" fill="#FFFFFF"/><path d="M951.88 196.64L951.88 196.64Q951.88 216.66 941.77 227.31Q931.66 237.95 912.62 237.95L912.62 237.95Q893.97 237.95 880.88 230.63L880.88 230.63L880.88 204.36Q896.90 214.81 910.28 214.81L910.28 214.81Q917.89 214.81 921.75 210.61Q925.61 206.41 925.61 199.18L925.61 199.18Q925.61 192.05 921.02 186.15Q916.43 180.24 905.88 173.01L905.88 173.01Q896.70 166.66 891.97 160.85Q887.23 155.04 884.64 147.82Q882.05 140.59 882.05 131.02L882.05 131.02Q882.05 112.66 892.26 101.92Q902.46 91.18 919.65 91.18L919.65 91.18Q936.06 91.18 951.20 100.36L951.20 100.36L942.41 121.64Q937.72 118.91 932.59 116.76Q927.46 114.61 921.61 114.61L921.61 114.61Q915.16 114.61 911.69 118.86Q908.23 123.11 908.23 130.43L908.23 130.43Q908.23 137.66 912.38 143.03Q916.53 148.40 926.88 155.24L926.88 155.24Q940.84 164.61 946.36 174.38Q951.88 184.14 951.88 196.64Z" fill="#FFFFFF"/><path d="M1013.30 116.57L1013.30 236L986.84 236L986.84 116.57L959.50 116.57L959.50 93.23L1040.65 93.23L1040.65 116.57L1013.30 116.57Z" fill="#FFFFFF"/><path d="M1091.92 180.43L1082.45 180.43L1082.45 236L1055.88 236L1055.88 93.23L1090.65 93.23Q1112.72 93.23 1123.22 103.68Q1133.71 114.13 1133.71 135.61L1133.71 135.61Q1133.71 162.66 1115.45 173.40L1115.45 173.40L1142.89 236L1114.48 236L1091.92 180.43ZM1082.45 116.18L1082.45 157.58L1089.28 157.58Q1098.66 157.58 1102.76 152.26Q1106.86 146.94 1106.86 136.39L1106.86 136.39Q1106.86 125.45 1102.51 120.81Q1098.17 116.18 1089.09 116.18L1089.09 116.18L1082.45 116.18Z" fill="#FFFFFF"/><path d="M1250.12 236L1223.46 236L1215.26 199.96L1178.05 199.96L1169.85 236L1143.29 236L1178.64 92.64L1214.67 92.64L1250.12 236ZM1183.32 176.43L1210.28 176.43L1202.66 143.23Q1201.98 140.20 1199.58 128.04Q1197.19 115.88 1196.70 111.78L1196.70 111.78Q1195.43 120.18 1193.48 130.29Q1191.53 140.39 1183.32 176.43L1183.32 176.43Z" fill="#FFFFFF"/><path d="M1340.55 137.17L1340.55 137.17Q1340.55 159.93 1329.08 172.08Q1317.60 184.24 1295.92 184.24L1295.92 184.24L1289.28 184.24L1289.28 236L1262.72 236L1262.72 93.23L1298.95 93.23Q1340.55 93.23 1340.55 137.17ZM1289.28 116.18L1289.28 161.20L1294.36 161.20Q1304.13 161.20 1308.91 155.82Q1313.70 150.45 1313.70 138.25L1313.70 138.25Q1313.70 127.02 1309.30 121.60Q1304.91 116.18 1295.73 116.18L1295.73 116.18L1289.28 116.18Z" fill="#FFFFFF"/><path d="" fill="#FFFFFF"/><path d="M1444.16 146.64L1444.16 146.64Q1460.28 146.64 1469.80 157.88Q1479.32 169.11 1479.32 188.64L1479.32 188.64Q1479.32 211.98 1467.46 224.96Q1455.59 237.95 1434.50 237.95L1434.50 237.95Q1415.75 237.95 1404.13 230.82L1404.13 230.82L1404.13 206.02Q1409.11 209.63 1416.97 212.42Q1424.83 215.20 1431.57 215.20L1431.57 215.20Q1452.56 215.20 1452.56 190.79L1452.56 190.79Q1452.56 168.03 1432.15 168.03L1432.15 168.03Q1424.05 168.03 1414.96 171.16L1414.96 171.16L1406.37 164.81L1410.77 93.23L1471.70 93.23L1471.70 116.96L1433.52 116.96L1431.57 147.82Q1437.04 146.64 1444.16 146.64Z" fill="#FFFFFF"/><path d="" fill="#FFFFFF"/><path d="M1593.77 116.57L1593.77 236L1567.31 236L1567.31 116.57L1539.96 116.57L1539.96 93.23L1621.12 93.23L1621.12 116.57L1593.77 116.57Z" fill="#FFFFFF"/><path d="M1724.54 93.23L1724.54 236L1697.97 236L1697.97 173.40L1662.91 173.40L1662.91 236L1636.35 236L1636.35 93.23L1662.91 93.23L1662.91 149.96L1697.97 149.96L1697.97 93.23L1724.54 93.23Z" fill="#FFFFFF"/><path d="M1814.09 212.76L1814.09 236L1749.73 236L1749.73 93.23L1814.09 93.23L1814.09 116.18L1776.29 116.18L1776.29 150.16L1811.35 150.16L1811.35 173.21L1776.29 173.21L1776.29 212.76L1814.09 212.76Z" fill="#FFFFFF"/><path d="M1914.87 236L1885.86 236L1858.71 114.42L1857.64 114.42Q1859.50 128.48 1859.50 140.20L1859.50 140.20L1859.50 236L1834.89 236L1834.89 93.23L1875.71 93.23L1900.12 205.43L1900.90 205.43L1925.12 93.23L1966.53 93.23L1966.53 236L1941.33 236L1941.33 139.22Q1941.33 127.21 1942.70 114.61L1942.70 114.61L1941.92 114.61L1914.87 236Z" fill="#FFFFFF"/><path d="M2056.08 212.76L2056.08 236L1991.72 236L1991.72 93.23L2056.08 93.23L2056.08 116.18L2018.29 116.18L2018.29 150.16L2053.34 150.16L2053.34 173.21L2018.29 173.21L2018.29 212.76L2056.08 212.76Z" fill="#FFFFFF"/><path d="M462.60 235L462.60 92.23L499.02 92.23Q521.29 92.23 531.45 100.87Q541.60 109.51 541.60 128.36L541.60 128.36Q541.60 140.76 536.23 149.11Q530.86 157.46 521.58 159.22L521.58 159.22L521.58 160.20Q533.69 163.22 539.06 171.52Q544.43 179.82 544.43 193.59L544.43 193.59Q544.43 213.03 534.03 224.01Q523.63 235 505.57 235L505.57 235L462.60 235ZM487.60 115.18L487.60 149.65L499.80 149.65Q508.20 149.65 511.62 145.16Q515.04 140.66 515.04 131.78L515.04 131.78Q515.04 122.89 511.13 119.03Q507.23 115.18 498.83 115.18L498.83 115.18L487.60 115.18ZM500.59 171.82L487.60 171.82L487.60 211.76L500.98 211.76Q509.28 211.76 513.33 206.68Q517.38 201.60 517.38 190.96L517.38 190.96Q517.38 171.82 500.59 171.82L500.59 171.82Z" fill="url(#TextGradient)"/><path d="M662.21 163.42L662.21 163.42Q662.21 198.87 648.93 217.91Q635.64 236.95 610.94 236.95L610.94 236.95Q586.13 236.95 572.85 217.96Q559.57 198.96 559.57 163.22L559.57 163.22Q559.57 127.77 572.85 108.88Q586.13 89.98 611.13 89.98L611.13 89.98Q635.84 89.98 649.02 108.97Q662.21 127.97 662.21 163.42ZM586.72 163.42L586.72 163.42Q586.72 187.83 592.87 200.63Q599.02 213.42 610.94 213.42L610.94 213.42Q634.96 213.42 634.96 163.42L634.96 163.42Q634.96 113.42 611.13 113.42L611.13 113.42Q599.02 113.42 592.87 126.16Q586.72 138.91 586.72 163.42Z" fill="url(#TextGradient)"/><path d="M781.25 163.42L781.25 163.42Q781.25 198.87 767.97 217.91Q754.69 236.95 729.98 236.95L729.98 236.95Q705.18 236.95 691.89 217.96Q678.61 198.96 678.61 163.22L678.61 163.22Q678.61 127.77 691.89 108.88Q705.18 89.98 730.18 89.98L730.18 89.98Q754.88 89.98 768.07 108.97Q781.25 127.97 781.25 163.42ZM705.76 163.42L705.76 163.42Q705.76 187.83 711.91 200.63Q718.07 213.42 729.98 213.42L729.98 213.42Q754.00 213.42 754.00 163.42L754.00 163.42Q754.00 113.42 730.18 113.42L730.18 113.42Q718.07 113.42 711.91 126.16Q705.76 138.91 705.76 163.42Z" fill="url(#TextGradient)"/><path d="M843.26 115.57L843.26 235L816.80 235L816.80 115.57L789.45 115.57L789.45 92.23L870.61 92.23L870.61 115.57L843.26 115.57Z" fill="url(#TextGradient)"/><path d="M950.88 195.64L950.88 195.64Q950.88 215.66 940.77 226.31Q930.66 236.95 911.62 236.95L911.62 236.95Q892.97 236.95 879.88 229.63L879.88 229.63L879.88 203.36Q895.90 213.81 909.28 213.81L909.28 213.81Q916.89 213.81 920.75 209.61Q924.61 205.41 924.61 198.18L924.61 198.18Q924.61 191.05 920.02 185.15Q915.43 179.24 904.88 172.01L904.88 172.01Q895.70 165.66 890.97 159.85Q886.23 154.04 883.64 146.82Q881.05 139.59 881.05 130.02L881.05 130.02Q881.05 111.66 891.26 100.92Q901.46 90.18 918.65 90.18L918.65 90.18Q935.06 90.18 950.20 99.36L950.20 99.36L941.41 120.64Q936.72 117.91 931.59 115.76Q926.46 113.61 920.61 113.61L920.61 113.61Q914.16 113.61 910.69 117.86Q907.23 122.11 907.23 129.43L907.23 129.43Q907.23 136.66 911.38 142.03Q915.53 147.40 925.88 154.24L925.88 154.24Q939.84 163.61 945.36 173.38Q950.88 183.14 950.88 195.64Z" fill="url(#TextGradient)"/><path d="M1012.30 115.57L1012.30 235L985.84 235L985.84 115.57L958.50 115.57L958.50 92.23L1039.65 92.23L1039.65 115.57L1012.30 115.57Z" fill="url(#TextGradient)"/><path d="M1090.92 179.43L1081.45 179.43L1081.45 235L1054.88 235L1054.88 92.23L1089.65 92.23Q1111.72 92.23 1122.22 102.68Q1132.71 113.13 1132.71 134.61L1132.71 134.61Q1132.71 161.66 1114.45 172.40L1114.45 172.40L1141.89 235L1113.48 235L1090.92 179.43ZM1081.45 115.18L1081.45 156.58L1088.28 156.58Q1097.66 156.58 1101.76 151.26Q1105.86 145.94 1105.86 135.39L1105.86 135.39Q1105.86 124.45 1101.51 119.81Q1097.17 115.18 1088.09 115.18L1088.09 115.18L1081.45 115.18Z" fill="url(#TextGradient)"/><path d="M1249.12 235L1222.46 235L1214.26 198.96L1177.05 198.96L1168.85 235L1142.29 235L1177.64 91.64L1213.67 91.64L1249.12 235ZM1182.32 175.43L1209.28 175.43L1201.66 142.23Q1200.98 139.20 1198.58 127.04Q1196.19 114.88 1195.70 110.78L1195.70 110.78Q1194.43 119.18 1192.48 129.29Q1190.53 139.39 1182.32 175.43L1182.32 175.43Z" fill="url(#TextGradient)"/><path d="M1339.55 136.17L1339.55 136.17Q1339.55 158.93 1328.08 171.08Q1316.60 183.24 1294.92 183.24L1294.92 183.24L1288.28 183.24L1288.28 235L1261.72 235L1261.72 92.23L1297.95 92.23Q1339.55 92.23 1339.55 136.17ZM1288.28 115.18L1288.28 160.20L1293.36 160.20Q1303.13 160.20 1307.91 154.82Q1312.70 149.45 1312.70 137.25L1312.70 137.25Q1312.70 126.02 1308.30 120.60Q1303.91 115.18 1294.73 115.18L1294.73 115.18L1288.28 115.18Z" fill="url(#TextGradient)"/><path d="" fill="url(#TextGradient)"/><path d="M1443.16 145.64L1443.16 145.64Q1459.28 145.64 1468.80 156.88Q1478.32 168.11 1478.32 187.64L1478.32 187.64Q1478.32 210.98 1466.46 223.96Q1454.59 236.95 1433.50 236.95L1433.50 236.95Q1414.75 236.95 1403.13 229.82L1403.13 229.82L1403.13 205.02Q1408.11 208.63 1415.97 211.42Q1423.83 214.20 1430.57 214.20L1430.57 214.20Q1451.56 214.20 1451.56 189.79L1451.56 189.79Q1451.56 167.03 1431.15 167.03L1431.15 167.03Q1423.05 167.03 1413.96 170.16L1413.96 170.16L1405.37 163.81L1409.77 92.23L1470.70 92.23L1470.70 115.96L1432.52 115.96L1430.57 146.82Q1436.04 145.64 1443.16 145.64Z" fill="url(#TextGradient)"/><path d="" fill="url(#TextGradient)"/><path d="M1592.77 115.57L1592.77 235L1566.31 235L1566.31 115.57L1538.96 115.57L1538.96 92.23L1620.12 92.23L1620.12 115.57L1592.77 115.57Z" fill="url(#TextGradient)"/><path d="M1723.54 92.23L1723.54 235L1696.97 235L1696.97 172.40L1661.91 172.40L1661.91 235L1635.35 235L1635.35 92.23L1661.91 92.23L1661.91 148.96L1696.97 148.96L1696.97 92.23L1723.54 92.23Z" fill="url(#TextGradient)"/><path d="M1813.09 211.76L1813.09 235L1748.73 235L1748.73 92.23L1813.09 92.23L1813.09 115.18L1775.29 115.18L1775.29 149.16L1810.35 149.16L1810.35 172.21L1775.29 172.21L1775.29 211.76L1813.09 211.76Z" fill="url(#TextGradient)"/><path d="M1913.87 235L1884.86 235L1857.71 113.42L1856.64 113.42Q1858.50 127.48 1858.50 139.20L1858.50 139.20L1858.50 235L1833.89 235L1833.89 92.23L1874.71 92.23L1899.12 204.43L1899.90 204.43L1924.12 92.23L1965.53 92.23L1965.53 235L1940.33 235L1940.33 138.22Q1940.33 126.21 1941.70 113.61L1941.70 113.61L1940.92 113.61L1913.87 235Z" fill="url(#TextGradient)"/><path d="M2055.08 211.76L2055.08 235L1990.72 235L1990.72 92.23L2055.08 92.23L2055.08 115.18L2017.29 115.18L2017.29 149.16L2052.34 149.16L2052.34 172.21L2017.29 172.21L2017.29 211.76L2055.08 211.76Z" fill="url(#TextGradient)"/>
    <defs>
        <linearGradient id="TextGradient" x1="0" y1="0" x2="0" y2="1">
            <stop offset="0" style="stop-color:#571831;stop-opacity:1"/>
            <stop offset="1" style="stop-color:#C2185B;stop-opacity:1"/>
        </linearGradient>
    </defs>
</svg>
