<?xml version="1.0" encoding="UTF-8" standalone="no"?>
<!DOCTYPE svg PUBLIC "-//W3C//DTD SVG 1.1//EN" "http://www.w3.org/Graphics/SVG/1.1/DTD/svg11.dtd">
<svg width="100%" height="100%" viewBox="0 0 1614.37890625 330" version="1.1" xmlns="http://www.w3.org/2000/svg" xmlns:xlink="http://www.w3.org/1999/xlink" xml:space="preserve" xmlns:serif="http://www.serif.com/" style="fill-rule:evenodd;clip-rule:evenodd;stroke-linejoin:round;stroke-miterlimit:2;">
    <path d="M82.912,22.056l-69.362,69.362l69.362,69.363l69.363,-69.363l-69.363,-69.362Z" style="fill:rgb(176,176,176);"/>
    <path d="M82.912,160.781l-69.362,69.363l69.362,69.363l69.363,-69.363l-69.363,-69.363Z" style="fill:rgb(176,176,176);"/>
    <path d="M199.583,0l-94.615,0l-22.056,22.056l69.363,69.362l69.363,-69.362l-22.055,-22.056Z" style="fill:rgb(176,176,176);fill-opacity:0.5;"/>
    <path d="M113.02,329.614l78.511,0l30.107,-30.107l-69.363,-69.363l-69.363,69.363l30.108,30.107Z" style="fill:rgb(176,176,176);fill-opacity:0.5;"/>
    <path d="M0,0l0,77.869l13.55,13.549l69.362,-69.362l-22.055,-22.056l-60.857,-0Z" style="fill:rgb(176,176,176);fill-opacity:0.5;"/>
    <path d="M13.55,368.87l-1.598,-1.597l3.195,-0l-1.597,1.597Zm-13.55,-125.176l0,85.92l52.805,0l30.107,-30.107l-69.362,-69.363l-13.55,13.55Z" style="fill:rgb(176,176,176);fill-opacity:0.5;"/>
    <path d="M0,104.968l0,111.627l13.55,13.549l69.362,-69.363l-69.362,-69.363l-13.55,13.55Z" style="fill:rgb(176,176,176);fill-opacity:0.5;"/>
    <path d="M152.275,91.418l-69.363,69.363l69.363,69.363l69.363,-69.363l-69.363,-69.363Z" style="fill:#7002B9;"/>
    <path d="M221.638,22.056l-69.363,69.362l69.363,69.363l69.363,-69.363l-69.363,-69.362Z" style="fill:#A04DD8;"/>
    <path d="M221.638,160.781l-69.363,69.363l69.363,69.363l69.363,-69.363l-69.363,-69.363Z" style="fill:#A04DD8;"/>
    <path d="M291.001,91.418l-69.363,69.363l69.363,69.363l69.363,-69.363l-69.363,-69.363Z" style="fill:#8202D7;"/>
    <path d="M152.291,110.184l-152.291,152.291l0,-18.781l152.275,-152.276l0.016,0.016l0.016,-0.016l69.543,69.544l69.544,-69.544l9.391,9.391l-78.723,78.722l-0.212,-0.212l-0.212,0.212l-69.347,-69.347Z" style="fill:rgb(255,209,62);"/>
    <path d="M554.42 163.25L554.42 163.25Q554.42 198.60 540.01 217.30Q525.61 236 498.56 236L498.56 236L463.60 236L463.60 93.23L501.78 93.23Q526.68 93.23 540.55 111.63Q554.42 130.04 554.42 163.25ZM527.17 164.03L527.17 164.03Q527.17 116.18 500.80 116.18L500.80 116.18L490.16 116.18L490.16 212.76L498.75 212.76Q513.30 212.76 520.24 200.60Q527.17 188.44 527.17 164.03Z" fill="#FFFFFF"/><path d="M669.46 236L642.80 236L634.59 199.96L597.39 199.96L589.18 236L562.62 236L597.97 92.64L634.01 92.64L669.46 236ZM602.66 176.43L629.61 176.43L622.00 143.23Q621.31 140.20 618.92 128.04Q616.53 115.88 616.04 111.78L616.04 111.78Q614.77 120.18 612.82 130.29Q610.86 140.39 602.66 176.43L602.66 176.43Z" fill="#FFFFFF"/><path d="M719.07 116.57L719.07 236L692.60 236L692.60 116.57L665.26 116.57L665.26 93.23L746.41 93.23L746.41 116.57L719.07 116.57Z" fill="#FFFFFF"/><path d="M849.05 236L822.39 236L814.18 199.96L776.98 199.96L768.77 236L742.21 236L777.56 92.64L813.60 92.64L849.05 236ZM782.25 176.43L809.20 176.43L801.59 143.23Q800.90 140.20 798.51 128.04Q796.12 115.88 795.63 111.78L795.63 111.78Q794.36 120.18 792.41 130.29Q790.45 140.39 782.25 176.43L782.25 176.43Z" fill="#FFFFFF"/><path d="M898.66 116.57L898.66 236L872.19 236L872.19 116.57L844.85 116.57L844.85 93.23L926 93.23L926 116.57L898.66 116.57Z" fill="#FFFFFF"/><path d="M977.27 180.43L967.80 180.43L967.80 236L941.23 236L941.23 93.23L976 93.23Q998.07 93.23 1008.57 103.68Q1019.07 114.13 1019.07 135.61L1019.07 135.61Q1019.07 162.66 1000.80 173.40L1000.80 173.40L1028.25 236L999.83 236L977.27 180.43ZM967.80 116.18L967.80 157.58L974.63 157.58Q984.01 157.58 988.11 152.26Q992.21 146.94 992.21 136.39L992.21 136.39Q992.21 125.45 987.87 120.81Q983.52 116.18 974.44 116.18L974.44 116.18L967.80 116.18Z" fill="#FFFFFF"/><path d="M1135.47 236L1108.81 236L1100.61 199.96L1063.40 199.96L1055.20 236L1028.64 236L1063.99 92.64L1100.02 92.64L1135.47 236ZM1068.68 176.43L1095.63 176.43L1088.01 143.23Q1087.33 140.20 1084.94 128.04Q1082.54 115.88 1082.05 111.78L1082.05 111.78Q1080.79 120.18 1078.83 130.29Q1076.88 140.39 1068.68 176.43L1068.68 176.43Z" fill="#FFFFFF"/><path d="M1195.43 114.42L1195.43 114.42Q1184.01 114.42 1177.42 127.80Q1170.82 141.18 1170.82 165.00L1170.82 165.00Q1170.82 214.61 1196.70 214.61L1196.70 214.61Q1208.03 214.61 1220.43 207.39L1220.43 207.39L1220.43 231.02Q1209.98 237.95 1193.68 237.95L1193.68 237.95Q1169.55 237.95 1156.62 218.76Q1143.68 199.57 1143.68 164.81L1143.68 164.81Q1143.68 130.04 1157.01 110.61Q1170.34 91.18 1194.07 91.18L1194.07 91.18Q1201.88 91.18 1209.06 93.32Q1216.23 95.47 1224.44 100.84L1224.44 100.84L1215.65 122.43Q1211.25 119.40 1206.27 116.91Q1201.29 114.42 1195.43 114.42Z" fill="#FFFFFF"/><path d="M1296.21 155.04L1329.61 236L1301.29 236L1277.86 174.96L1267.21 185.61L1267.21 236L1240.65 236L1240.65 93.23L1267.21 93.23L1267.21 164.03L1276.49 142.64L1300.80 93.23L1329.22 93.23L1296.21 155.04Z" fill="#FFFFFF"/><path d="M1406.57 212.76L1406.57 236L1342.21 236L1342.21 93.23L1406.57 93.23L1406.57 116.18L1368.77 116.18L1368.77 150.16L1403.83 150.16L1403.83 173.21L1368.77 173.21L1368.77 212.76L1406.57 212.76Z" fill="#FFFFFF"/><path d="M1463.40 180.43L1453.93 180.43L1453.93 236L1427.37 236L1427.37 93.23L1462.13 93.23Q1484.20 93.23 1494.70 103.68Q1505.20 114.13 1505.20 135.61L1505.20 135.61Q1505.20 162.66 1486.94 173.40L1486.94 173.40L1514.38 236L1485.96 236L1463.40 180.43ZM1453.93 116.18L1453.93 157.58L1460.77 157.58Q1470.14 157.58 1474.24 152.26Q1478.34 146.94 1478.34 136.39L1478.34 136.39Q1478.34 125.45 1474.00 120.81Q1469.65 116.18 1460.57 116.18L1460.57 116.18L1453.93 116.18Z" fill="#FFFFFF"/><path d="M553.42 162.25L553.42 162.25Q553.42 197.60 539.01 216.30Q524.61 235 497.56 235L497.56 235L462.60 235L462.60 92.23L500.78 92.23Q525.68 92.23 539.55 110.63Q553.42 129.04 553.42 162.25ZM526.17 163.03L526.17 163.03Q526.17 115.18 499.80 115.18L499.80 115.18L489.16 115.18L489.16 211.76L497.75 211.76Q512.30 211.76 519.24 199.60Q526.17 187.44 526.17 163.03Z" fill="url(#TextGradient)"/><path d="M668.46 235L641.80 235L633.59 198.96L596.39 198.96L588.18 235L561.62 235L596.97 91.64L633.01 91.64L668.46 235ZM601.66 175.43L628.61 175.43L621.00 142.23Q620.31 139.20 617.92 127.04Q615.53 114.88 615.04 110.78L615.04 110.78Q613.77 119.18 611.82 129.29Q609.86 139.39 601.66 175.43L601.66 175.43Z" fill="url(#TextGradient)"/><path d="M718.07 115.57L718.07 235L691.60 235L691.60 115.57L664.26 115.57L664.26 92.23L745.41 92.23L745.41 115.57L718.07 115.57Z" fill="url(#TextGradient)"/><path d="M848.05 235L821.39 235L813.18 198.96L775.98 198.96L767.77 235L741.21 235L776.56 91.64L812.60 91.64L848.05 235ZM781.25 175.43L808.20 175.43L800.59 142.23Q799.90 139.20 797.51 127.04Q795.12 114.88 794.63 110.78L794.63 110.78Q793.36 119.18 791.41 129.29Q789.45 139.39 781.25 175.43L781.25 175.43Z" fill="url(#TextGradient)"/><path d="M897.66 115.57L897.66 235L871.19 235L871.19 115.57L843.85 115.57L843.85 92.23L925 92.23L925 115.57L897.66 115.57Z" fill="url(#TextGradient)"/><path d="M976.27 179.43L966.80 179.43L966.80 235L940.23 235L940.23 92.23L975 92.23Q997.07 92.23 1007.57 102.68Q1018.07 113.13 1018.07 134.61L1018.07 134.61Q1018.07 161.66 999.80 172.40L999.80 172.40L1027.25 235L998.83 235L976.27 179.43ZM966.80 115.18L966.80 156.58L973.63 156.58Q983.01 156.58 987.11 151.26Q991.21 145.94 991.21 135.39L991.21 135.39Q991.21 124.45 986.87 119.81Q982.52 115.18 973.44 115.18L973.44 115.18L966.80 115.18Z" fill="url(#TextGradient)"/><path d="M1134.47 235L1107.81 235L1099.61 198.96L1062.40 198.96L1054.20 235L1027.64 235L1062.99 91.64L1099.02 91.64L1134.47 235ZM1067.68 175.43L1094.63 175.43L1087.01 142.23Q1086.33 139.20 1083.94 127.04Q1081.54 114.88 1081.05 110.78L1081.05 110.78Q1079.79 119.18 1077.83 129.29Q1075.88 139.39 1067.68 175.43L1067.68 175.43Z" fill="url(#TextGradient)"/><path d="M1194.43 113.42L1194.43 113.42Q1183.01 113.42 1176.42 126.80Q1169.82 140.18 1169.82 164.00L1169.82 164.00Q1169.82 213.61 1195.70 213.61L1195.70 213.61Q1207.03 213.61 1219.43 206.39L1219.43 206.39L1219.43 230.02Q1208.98 236.95 1192.68 236.95L1192.68 236.95Q1168.55 236.95 1155.62 217.76Q1142.68 198.57 1142.68 163.81L1142.68 163.81Q1142.68 129.04 1156.01 109.61Q1169.34 90.18 1193.07 90.18L1193.07 90.18Q1200.88 90.18 1208.06 92.32Q1215.23 94.47 1223.44 99.84L1223.44 99.84L1214.65 121.43Q1210.25 118.40 1205.27 115.91Q1200.29 113.42 1194.43 113.42Z" fill="url(#TextGradient)"/><path d="M1295.21 154.04L1328.61 235L1300.29 235L1276.86 173.96L1266.21 184.61L1266.21 235L1239.65 235L1239.65 92.23L1266.21 92.23L1266.21 163.03L1275.49 141.64L1299.80 92.23L1328.22 92.23L1295.21 154.04Z" fill="url(#TextGradient)"/><path d="M1405.57 211.76L1405.57 235L1341.21 235L1341.21 92.23L1405.57 92.23L1405.57 115.18L1367.77 115.18L1367.77 149.16L1402.83 149.16L1402.83 172.21L1367.77 172.21L1367.77 211.76L1405.57 211.76Z" fill="url(#TextGradient)"/><path d="M1462.40 179.43L1452.93 179.43L1452.93 235L1426.37 235L1426.37 92.23L1461.13 92.23Q1483.20 92.23 1493.70 102.68Q1504.20 113.13 1504.20 134.61L1504.20 134.61Q1504.20 161.66 1485.94 172.40L1485.94 172.40L1513.38 235L1484.96 235L1462.40 179.43ZM1452.93 115.18L1452.93 156.58L1459.77 156.58Q1469.14 156.58 1473.24 151.26Q1477.34 145.94 1477.34 135.39L1477.34 135.39Q1477.34 124.45 1473.00 119.81Q1468.65 115.18 1459.57 115.18L1459.57 115.18L1452.93 115.18Z" fill="url(#TextGradient)"/>
    <defs>
        <linearGradient id="TextGradient" x1="0" y1="0" x2="0" y2="1">
            <stop offset="0" style="stop-color:#580291;stop-opacity:1"/>
            <stop offset="1" style="stop-color:#8202D7;stop-opacity:1"/>
        </linearGradient>
    </defs>
</svg>
