<?xml version="1.0" encoding="UTF-8" standalone="no"?>
<!DOCTYPE svg PUBLIC "-//W3C//DTD SVG 1.1//EN" "http://www.w3.org/Graphics/SVG/1.1/DTD/svg11.dtd">
<svg width="100%" height="100%" viewBox="0 0 2758.51953125 330" version="1.1" xmlns="http://www.w3.org/2000/svg" xmlns:xlink="http://www.w3.org/1999/xlink" xml:space="preserve" xmlns:serif="http://www.serif.com/" style="fill-rule:evenodd;clip-rule:evenodd;stroke-linejoin:round;stroke-miterlimit:2;">
    <path d="M82.912,22.056l-69.362,69.362l69.362,69.363l69.363,-69.363l-69.363,-69.362Z" style="fill:rgb(176,176,176);"/>
    <path d="M82.912,160.781l-69.362,69.363l69.362,69.363l69.363,-69.363l-69.363,-69.363Z" style="fill:rgb(176,176,176);"/>
    <path d="M199.583,0l-94.615,0l-22.056,22.056l69.363,69.362l69.363,-69.362l-22.055,-22.056Z" style="fill:rgb(176,176,176);fill-opacity:0.5;"/>
    <path d="M113.02,329.614l78.511,0l30.107,-30.107l-69.363,-69.363l-69.363,69.363l30.108,30.107Z" style="fill:rgb(176,176,176);fill-opacity:0.5;"/>
    <path d="M0,0l0,77.869l13.55,13.549l69.362,-69.362l-22.055,-22.056l-60.857,-0Z" style="fill:rgb(176,176,176);fill-opacity:0.5;"/>
    <path d="M13.55,368.87l-1.598,-1.597l3.195,-0l-1.597,1.597Zm-13.55,-125.176l0,85.92l52.805,0l30.107,-30.107l-69.362,-69.363l-13.55,13.55Z" style="fill:rgb(176,176,176);fill-opacity:0.5;"/>
    <path d="M0,104.968l0,111.627l13.55,13.549l69.362,-69.363l-69.362,-69.363l-13.55,13.55Z" style="fill:rgb(176,176,176);fill-opacity:0.5;"/>
    <path d="M152.275,91.418l-69.363,69.363l69.363,69.363l69.363,-69.363l-69.363,-69.363Z" style="fill:#941849;"/>
    <path d="M221.638,22.056l-69.363,69.362l69.363,69.363l69.363,-69.363l-69.363,-69.362Z" style="fill:#CA5C88;"/>
    <path d="M221.638,160.781l-69.363,69.363l69.363,69.363l69.363,-69.363l-69.363,-69.363Z" style="fill:#CA5C88;"/>
    <path d="M291.001,91.418l-69.363,69.363l69.363,69.363l69.363,-69.363l-69.363,-69.363Z" style="fill:#C2185B;"/>
    <path d="M152.291,110.184l-152.291,152.291l0,-18.781l152.275,-152.276l0.016,0.016l0.016,-0.016l69.543,69.544l69.544,-69.544l9.391,9.391l-78.723,78.722l-0.212,-0.212l-0.212,0.212l-69.347,-69.347Z" style="fill:rgb(255,209,62);"/>
    <path d="M506.76 180.24L506.76 156.80L550.41 156.80L550.41 230.04Q531.86 237.95 510.96 237.95L510.96 237.95Q486.06 237.95 472.63 219.01Q459.20 200.06 459.20 164.42L459.20 164.42Q459.20 130.04 474.58 110.61Q489.96 91.18 517.60 91.18L517.60 91.18Q534.69 91.18 550.22 99.96L550.22 99.96L541.82 121.64Q529.71 114.61 519.16 114.61L519.16 114.61Q504.03 114.61 495.19 128.14Q486.35 141.66 486.35 165.00L486.35 165.00Q486.35 189.03 492.75 201.82Q499.14 214.61 511.35 214.61L511.35 214.61Q517.80 214.61 524.44 212.95L524.44 212.95L524.44 180.24L506.76 180.24Z" fill="#FFFFFF"/><path d="M608.23 180.43L598.75 180.43L598.75 236L572.19 236L572.19 93.23L606.96 93.23Q629.03 93.23 639.53 103.68Q650.02 114.13 650.02 135.61L650.02 135.61Q650.02 162.66 631.76 173.40L631.76 173.40L659.20 236L630.79 236L608.23 180.43ZM598.75 116.18L598.75 157.58L605.59 157.58Q614.96 157.58 619.07 152.26Q623.17 146.94 623.17 136.39L623.17 136.39Q623.17 125.45 618.82 120.81Q614.48 116.18 605.39 116.18L605.39 116.18L598.75 116.18Z" fill="#FFFFFF"/><path d="M770.43 164.42L770.43 164.42Q770.43 199.87 757.15 218.91Q743.87 237.95 719.16 237.95L719.16 237.95Q694.36 237.95 681.08 218.96Q667.80 199.96 667.80 164.22L667.80 164.22Q667.80 128.77 681.08 109.88Q694.36 90.98 719.36 90.98L719.36 90.98Q744.07 90.98 757.25 109.97Q770.43 128.97 770.43 164.42ZM694.95 164.42L694.95 164.42Q694.95 188.83 701.10 201.63Q707.25 214.42 719.16 214.42L719.16 214.42Q743.19 214.42 743.19 164.42L743.19 164.42Q743.19 114.42 719.36 114.42L719.36 114.42Q707.25 114.42 701.10 127.16Q694.95 139.91 694.95 164.42Z" fill="#FFFFFF"/><path d="M852.66 93.23L879.03 93.23L879.03 185.61Q879.03 211.10 867.50 224.53Q855.98 237.95 834.20 237.95L834.20 237.95Q812.91 237.95 801.78 224.62Q790.65 211.29 790.65 185.22L790.65 185.22L790.65 93.23L817.02 93.23L817.02 187.17Q817.02 214.42 835.08 214.42L835.08 214.42Q843.48 214.42 848.07 207.48Q852.66 200.55 852.66 187.76L852.66 187.76L852.66 93.23Z" fill="#FFFFFF"/><path d="M981.47 137.17L981.47 137.17Q981.47 159.93 969.99 172.08Q958.52 184.24 936.84 184.24L936.84 184.24L930.20 184.24L930.20 236L903.64 236L903.64 93.23L939.87 93.23Q981.47 93.23 981.47 137.17ZM930.20 116.18L930.20 161.20L935.28 161.20Q945.04 161.20 949.83 155.82Q954.61 150.45 954.61 138.25L954.61 138.25Q954.61 127.02 950.22 121.60Q945.82 116.18 936.64 116.18L936.64 116.18L930.20 116.18Z" fill="#FFFFFF"/><path d="M1041.63 93.23L1066.63 93.23L1013.40 236L988.40 236L1041.63 93.23Z" fill="#FFFFFF"/><path d="M1171.21 163.25L1171.21 163.25Q1171.21 198.60 1156.81 217.30Q1142.41 236 1115.36 236L1115.36 236L1080.39 236L1080.39 93.23L1118.58 93.23Q1143.48 93.23 1157.35 111.63Q1171.21 130.04 1171.21 163.25ZM1143.97 164.03L1143.97 164.03Q1143.97 116.18 1117.60 116.18L1117.60 116.18L1106.96 116.18L1106.96 212.76L1115.55 212.76Q1130.10 212.76 1137.04 200.60Q1143.97 188.44 1143.97 164.03Z" fill="#FFFFFF"/><path d="M1228.05 180.43L1218.58 180.43L1218.58 236L1192.02 236L1192.02 93.23L1226.78 93.23Q1248.85 93.23 1259.35 103.68Q1269.85 114.13 1269.85 135.61L1269.85 135.61Q1269.85 162.66 1251.59 173.40L1251.59 173.40L1279.03 236L1250.61 236L1228.05 180.43ZM1218.58 116.18L1218.58 157.58L1225.41 157.58Q1234.79 157.58 1238.89 152.26Q1242.99 146.94 1242.99 136.39L1242.99 136.39Q1242.99 125.45 1238.65 120.81Q1234.30 116.18 1225.22 116.18L1225.22 116.18L1218.58 116.18Z" fill="#FFFFFF"/><path d="M1386.25 236L1359.59 236L1351.39 199.96L1314.18 199.96L1305.98 236L1279.42 236L1314.77 92.64L1350.80 92.64L1386.25 236ZM1319.46 176.43L1346.41 176.43L1338.79 143.23Q1338.11 140.20 1335.72 128.04Q1333.32 115.88 1332.84 111.78L1332.84 111.78Q1331.57 120.18 1329.61 130.29Q1327.66 140.39 1319.46 176.43L1319.46 176.43Z" fill="#FFFFFF"/><path d="M1425.22 178.77L1425.22 236L1398.85 236L1398.85 93.23L1462.82 93.23L1462.82 116.18L1425.22 116.18L1425.22 155.82L1460.28 155.82L1460.28 178.77L1425.22 178.77Z" fill="#FFFFFF"/><path d="M1524.54 116.57L1524.54 236L1498.07 236L1498.07 116.57L1470.73 116.57L1470.73 93.23L1551.88 93.23L1551.88 116.57L1524.54 116.57Z" fill="#FFFFFF"/><path d="" fill="#FFFFFF"/><path d="M1652.56 180.43L1643.09 180.43L1643.09 236L1616.53 236L1616.53 93.23L1651.29 93.23Q1673.36 93.23 1683.86 103.68Q1694.36 114.13 1694.36 135.61L1694.36 135.61Q1694.36 162.66 1676.10 173.40L1676.10 173.40L1703.54 236L1675.12 236L1652.56 180.43ZM1643.09 116.18L1643.09 157.58L1649.93 157.58Q1659.30 157.58 1663.40 152.26Q1667.50 146.94 1667.50 136.39L1667.50 136.39Q1667.50 125.45 1663.16 120.81Q1658.81 116.18 1649.73 116.18L1649.73 116.18L1643.09 116.18Z" fill="#FFFFFF"/><path d="M1780.88 212.76L1780.88 236L1716.53 236L1716.53 93.23L1780.88 93.23L1780.88 116.18L1743.09 116.18L1743.09 150.16L1778.15 150.16L1778.15 173.21L1743.09 173.21L1743.09 212.76L1780.88 212.76Z" fill="#FFFFFF"/><path d="M1879.52 137.17L1879.52 137.17Q1879.52 159.93 1868.04 172.08Q1856.57 184.24 1834.89 184.24L1834.89 184.24L1828.25 184.24L1828.25 236L1801.68 236L1801.68 93.23L1837.91 93.23Q1879.52 93.23 1879.52 137.17ZM1828.25 116.18L1828.25 161.20L1833.32 161.20Q1843.09 161.20 1847.88 155.82Q1852.66 150.45 1852.66 138.25L1852.66 138.25Q1852.66 127.02 1848.27 121.60Q1843.87 116.18 1834.69 116.18L1834.69 116.18L1828.25 116.18Z" fill="#FFFFFF"/><path d="M1995.73 164.42L1995.73 164.42Q1995.73 199.87 1982.45 218.91Q1969.16 237.95 1944.46 237.95L1944.46 237.95Q1919.65 237.95 1906.37 218.96Q1893.09 199.96 1893.09 164.22L1893.09 164.22Q1893.09 128.77 1906.37 109.88Q1919.65 90.98 1944.65 90.98L1944.65 90.98Q1969.36 90.98 1982.54 109.97Q1995.73 128.97 1995.73 164.42ZM1920.24 164.42L1920.24 164.42Q1920.24 188.83 1926.39 201.63Q1932.54 214.42 1944.46 214.42L1944.46 214.42Q1968.48 214.42 1968.48 164.42L1968.48 164.42Q1968.48 114.42 1944.65 114.42L1944.65 114.42Q1932.54 114.42 1926.39 127.16Q1920.24 139.91 1920.24 164.42Z" fill="#FFFFFF"/><path d="" fill="#FFFFFF"/><path d="M2065.94 236L2065.94 93.23L2102.37 93.23Q2124.63 93.23 2134.79 101.87Q2144.95 110.51 2144.95 129.36L2144.95 129.36Q2144.95 141.76 2139.57 150.11Q2134.20 158.46 2124.93 160.22L2124.93 160.22L2124.93 161.20Q2137.04 164.22 2142.41 172.52Q2147.78 180.82 2147.78 194.59L2147.78 194.59Q2147.78 214.03 2137.38 225.01Q2126.98 236 2108.91 236L2108.91 236L2065.94 236ZM2090.94 116.18L2090.94 150.65L2103.15 150.65Q2111.55 150.65 2114.96 146.16Q2118.38 141.66 2118.38 132.78L2118.38 132.78Q2118.38 123.89 2114.48 120.03Q2110.57 116.18 2102.17 116.18L2102.17 116.18L2090.94 116.18ZM2103.93 172.82L2090.94 172.82L2090.94 212.76L2104.32 212.76Q2112.62 212.76 2116.67 207.68Q2120.73 202.60 2120.73 191.96L2120.73 191.96Q2120.73 172.82 2103.93 172.82L2103.93 172.82Z" fill="#FFFFFF"/><path d="M2261.55 236L2234.89 236L2226.68 199.96L2189.48 199.96L2181.27 236L2154.71 236L2190.06 92.64L2226.10 92.64L2261.55 236ZM2194.75 176.43L2221.70 176.43L2214.09 143.23Q2213.40 140.20 2211.01 128.04Q2208.62 115.88 2208.13 111.78L2208.13 111.78Q2206.86 120.18 2204.91 130.29Q2202.95 140.39 2194.75 176.43L2194.75 176.43Z" fill="#FFFFFF"/><path d="M2321.51 114.42L2321.51 114.42Q2310.08 114.42 2303.49 127.80Q2296.90 141.18 2296.90 165.00L2296.90 165.00Q2296.90 214.61 2322.78 214.61L2322.78 214.61Q2334.11 214.61 2346.51 207.39L2346.51 207.39L2346.51 231.02Q2336.06 237.95 2319.75 237.95L2319.75 237.95Q2295.63 237.95 2282.69 218.76Q2269.75 199.57 2269.75 164.81L2269.75 164.81Q2269.75 130.04 2283.08 110.61Q2296.41 91.18 2320.14 91.18L2320.14 91.18Q2327.95 91.18 2335.13 93.32Q2342.31 95.47 2350.51 100.84L2350.51 100.84L2341.72 122.43Q2337.33 119.40 2332.35 116.91Q2327.37 114.42 2321.51 114.42Z" fill="#FFFFFF"/><path d="M2422.29 155.04L2455.69 236L2427.37 236L2403.93 174.96L2393.29 185.61L2393.29 236L2366.72 236L2366.72 93.23L2393.29 93.23L2393.29 164.03L2402.56 142.64L2426.88 93.23L2455.30 93.23L2422.29 155.04Z" fill="#FFFFFF"/><path d="M2529.71 93.23L2556.08 93.23L2556.08 185.61Q2556.08 211.10 2544.55 224.53Q2533.03 237.95 2511.25 237.95L2511.25 237.95Q2489.96 237.95 2478.83 224.62Q2467.70 211.29 2467.70 185.22L2467.70 185.22L2467.70 93.23L2494.07 93.23L2494.07 187.17Q2494.07 214.42 2512.13 214.42L2512.13 214.42Q2520.53 214.42 2525.12 207.48Q2529.71 200.55 2529.71 187.76L2529.71 187.76L2529.71 93.23Z" fill="#FFFFFF"/><path d="M2658.52 137.17L2658.52 137.17Q2658.52 159.93 2647.04 172.08Q2635.57 184.24 2613.89 184.24L2613.89 184.24L2607.25 184.24L2607.25 236L2580.69 236L2580.69 93.23L2616.92 93.23Q2658.52 93.23 2658.52 137.17ZM2607.25 116.18L2607.25 161.20L2612.33 161.20Q2622.09 161.20 2626.88 155.82Q2631.66 150.45 2631.66 138.25L2631.66 138.25Q2631.66 127.02 2627.27 121.60Q2622.88 116.18 2613.70 116.18L2613.70 116.18L2607.25 116.18Z" fill="#FFFFFF"/><path d="M505.76 179.24L505.76 155.80L549.41 155.80L549.41 229.04Q530.86 236.95 509.96 236.95L509.96 236.95Q485.06 236.95 471.63 218.01Q458.20 199.06 458.20 163.42L458.20 163.42Q458.20 129.04 473.58 109.61Q488.96 90.18 516.60 90.18L516.60 90.18Q533.69 90.18 549.22 98.96L549.22 98.96L540.82 120.64Q528.71 113.61 518.16 113.61L518.16 113.61Q503.03 113.61 494.19 127.14Q485.35 140.66 485.35 164.00L485.35 164.00Q485.35 188.03 491.75 200.82Q498.14 213.61 510.35 213.61L510.35 213.61Q516.80 213.61 523.44 211.95L523.44 211.95L523.44 179.24L505.76 179.24Z" fill="url(#TextGradient)"/><path d="M607.23 179.43L597.75 179.43L597.75 235L571.19 235L571.19 92.23L605.96 92.23Q628.03 92.23 638.53 102.68Q649.02 113.13 649.02 134.61L649.02 134.61Q649.02 161.66 630.76 172.40L630.76 172.40L658.20 235L629.79 235L607.23 179.43ZM597.75 115.18L597.75 156.58L604.59 156.58Q613.96 156.58 618.07 151.26Q622.17 145.94 622.17 135.39L622.17 135.39Q622.17 124.45 617.82 119.81Q613.48 115.18 604.39 115.18L604.39 115.18L597.75 115.18Z" fill="url(#TextGradient)"/><path d="M769.43 163.42L769.43 163.42Q769.43 198.87 756.15 217.91Q742.87 236.95 718.16 236.95L718.16 236.95Q693.36 236.95 680.08 217.96Q666.80 198.96 666.80 163.22L666.80 163.22Q666.80 127.77 680.08 108.88Q693.36 89.98 718.36 89.98L718.36 89.98Q743.07 89.98 756.25 108.97Q769.43 127.97 769.43 163.42ZM693.95 163.42L693.95 163.42Q693.95 187.83 700.10 200.63Q706.25 213.42 718.16 213.42L718.16 213.42Q742.19 213.42 742.19 163.42L742.19 163.42Q742.19 113.42 718.36 113.42L718.36 113.42Q706.25 113.42 700.10 126.16Q693.95 138.91 693.95 163.42Z" fill="url(#TextGradient)"/><path d="M851.66 92.23L878.03 92.23L878.03 184.61Q878.03 210.10 866.50 223.53Q854.98 236.95 833.20 236.95L833.20 236.95Q811.91 236.95 800.78 223.62Q789.65 210.29 789.65 184.22L789.65 184.22L789.65 92.23L816.02 92.23L816.02 186.17Q816.02 213.42 834.08 213.42L834.08 213.42Q842.48 213.42 847.07 206.48Q851.66 199.55 851.66 186.76L851.66 186.76L851.66 92.23Z" fill="url(#TextGradient)"/><path d="M980.47 136.17L980.47 136.17Q980.47 158.93 968.99 171.08Q957.52 183.24 935.84 183.24L935.84 183.24L929.20 183.24L929.20 235L902.64 235L902.64 92.23L938.87 92.23Q980.47 92.23 980.47 136.17ZM929.20 115.18L929.20 160.20L934.28 160.20Q944.04 160.20 948.83 154.82Q953.61 149.45 953.61 137.25L953.61 137.25Q953.61 126.02 949.22 120.60Q944.82 115.18 935.64 115.18L935.64 115.18L929.20 115.18Z" fill="url(#TextGradient)"/><path d="M1040.63 92.23L1065.63 92.23L1012.40 235L987.40 235L1040.63 92.23Z" fill="url(#TextGradient)"/><path d="M1170.21 162.25L1170.21 162.25Q1170.21 197.60 1155.81 216.30Q1141.41 235 1114.36 235L1114.36 235L1079.39 235L1079.39 92.23L1117.58 92.23Q1142.48 92.23 1156.35 110.63Q1170.21 129.04 1170.21 162.25ZM1142.97 163.03L1142.97 163.03Q1142.97 115.18 1116.60 115.18L1116.60 115.18L1105.96 115.18L1105.96 211.76L1114.55 211.76Q1129.10 211.76 1136.04 199.60Q1142.97 187.44 1142.97 163.03Z" fill="url(#TextGradient)"/><path d="M1227.05 179.43L1217.58 179.43L1217.58 235L1191.02 235L1191.02 92.23L1225.78 92.23Q1247.85 92.23 1258.35 102.68Q1268.85 113.13 1268.85 134.61L1268.85 134.61Q1268.85 161.66 1250.59 172.40L1250.59 172.40L1278.03 235L1249.61 235L1227.05 179.43ZM1217.58 115.18L1217.58 156.58L1224.41 156.58Q1233.79 156.58 1237.89 151.26Q1241.99 145.94 1241.99 135.39L1241.99 135.39Q1241.99 124.45 1237.65 119.81Q1233.30 115.18 1224.22 115.18L1224.22 115.18L1217.58 115.18Z" fill="url(#TextGradient)"/><path d="M1385.25 235L1358.59 235L1350.39 198.96L1313.18 198.96L1304.98 235L1278.42 235L1313.77 91.64L1349.80 91.64L1385.25 235ZM1318.46 175.43L1345.41 175.43L1337.79 142.23Q1337.11 139.20 1334.72 127.04Q1332.32 114.88 1331.84 110.78L1331.84 110.78Q1330.57 119.18 1328.61 129.29Q1326.66 139.39 1318.46 175.43L1318.46 175.43Z" fill="url(#TextGradient)"/><path d="M1424.22 177.77L1424.22 235L1397.85 235L1397.85 92.23L1461.82 92.23L1461.82 115.18L1424.22 115.18L1424.22 154.82L1459.28 154.82L1459.28 177.77L1424.22 177.77Z" fill="url(#TextGradient)"/><path d="M1523.54 115.57L1523.54 235L1497.07 235L1497.07 115.57L1469.73 115.57L1469.73 92.23L1550.88 92.23L1550.88 115.57L1523.54 115.57Z" fill="url(#TextGradient)"/><path d="" fill="url(#TextGradient)"/><path d="M1651.56 179.43L1642.09 179.43L1642.09 235L1615.53 235L1615.53 92.23L1650.29 92.23Q1672.36 92.23 1682.86 102.68Q1693.36 113.13 1693.36 134.61L1693.36 134.61Q1693.36 161.66 1675.10 172.40L1675.10 172.40L1702.54 235L1674.12 235L1651.56 179.43ZM1642.09 115.18L1642.09 156.58L1648.93 156.58Q1658.30 156.58 1662.40 151.26Q1666.50 145.94 1666.50 135.39L1666.50 135.39Q1666.50 124.45 1662.16 119.81Q1657.81 115.18 1648.73 115.18L1648.73 115.18L1642.09 115.18Z" fill="url(#TextGradient)"/><path d="M1779.88 211.76L1779.88 235L1715.53 235L1715.53 92.23L1779.88 92.23L1779.88 115.18L1742.09 115.18L1742.09 149.16L1777.15 149.16L1777.15 172.21L1742.09 172.21L1742.09 211.76L1779.88 211.76Z" fill="url(#TextGradient)"/><path d="M1878.52 136.17L1878.52 136.17Q1878.52 158.93 1867.04 171.08Q1855.57 183.24 1833.89 183.24L1833.89 183.24L1827.25 183.24L1827.25 235L1800.68 235L1800.68 92.23L1836.91 92.23Q1878.52 92.23 1878.52 136.17ZM1827.25 115.18L1827.25 160.20L1832.32 160.20Q1842.09 160.20 1846.88 154.82Q1851.66 149.45 1851.66 137.25L1851.66 137.25Q1851.66 126.02 1847.27 120.60Q1842.87 115.18 1833.69 115.18L1833.69 115.18L1827.25 115.18Z" fill="url(#TextGradient)"/><path d="M1994.73 163.42L1994.73 163.42Q1994.73 198.87 1981.45 217.91Q1968.16 236.95 1943.46 236.95L1943.46 236.95Q1918.65 236.95 1905.37 217.96Q1892.09 198.96 1892.09 163.22L1892.09 163.22Q1892.09 127.77 1905.37 108.88Q1918.65 89.98 1943.65 89.98L1943.65 89.98Q1968.36 89.98 1981.54 108.97Q1994.73 127.97 1994.73 163.42ZM1919.24 163.42L1919.24 163.42Q1919.24 187.83 1925.39 200.63Q1931.54 213.42 1943.46 213.42L1943.46 213.42Q1967.48 213.42 1967.48 163.42L1967.48 163.42Q1967.48 113.42 1943.65 113.42L1943.65 113.42Q1931.54 113.42 1925.39 126.16Q1919.24 138.91 1919.24 163.42Z" fill="url(#TextGradient)"/><path d="" fill="url(#TextGradient)"/><path d="M2064.94 235L2064.94 92.23L2101.37 92.23Q2123.63 92.23 2133.79 100.87Q2143.95 109.51 2143.95 128.36L2143.95 128.36Q2143.95 140.76 2138.57 149.11Q2133.20 157.46 2123.93 159.22L2123.93 159.22L2123.93 160.20Q2136.04 163.22 2141.41 171.52Q2146.78 179.82 2146.78 193.59L2146.78 193.59Q2146.78 213.03 2136.38 224.01Q2125.98 235 2107.91 235L2107.91 235L2064.94 235ZM2089.94 115.18L2089.94 149.65L2102.15 149.65Q2110.55 149.65 2113.96 145.16Q2117.38 140.66 2117.38 131.78L2117.38 131.78Q2117.38 122.89 2113.48 119.03Q2109.57 115.18 2101.17 115.18L2101.17 115.18L2089.94 115.18ZM2102.93 171.82L2089.94 171.82L2089.94 211.76L2103.32 211.76Q2111.62 211.76 2115.67 206.68Q2119.73 201.60 2119.73 190.96L2119.73 190.96Q2119.73 171.82 2102.93 171.82L2102.93 171.82Z" fill="url(#TextGradient)"/><path d="M2260.55 235L2233.89 235L2225.68 198.96L2188.48 198.96L2180.27 235L2153.71 235L2189.06 91.64L2225.10 91.64L2260.55 235ZM2193.75 175.43L2220.70 175.43L2213.09 142.23Q2212.40 139.20 2210.01 127.04Q2207.62 114.88 2207.13 110.78L2207.13 110.78Q2205.86 119.18 2203.91 129.29Q2201.95 139.39 2193.75 175.43L2193.75 175.43Z" fill="url(#TextGradient)"/><path d="M2320.51 113.42L2320.51 113.42Q2309.08 113.42 2302.49 126.80Q2295.90 140.18 2295.90 164.00L2295.90 164.00Q2295.90 213.61 2321.78 213.61L2321.78 213.61Q2333.11 213.61 2345.51 206.39L2345.51 206.39L2345.51 230.02Q2335.06 236.95 2318.75 236.95L2318.75 236.95Q2294.63 236.95 2281.69 217.76Q2268.75 198.57 2268.75 163.81L2268.75 163.81Q2268.75 129.04 2282.08 109.61Q2295.41 90.18 2319.14 90.18L2319.14 90.18Q2326.95 90.18 2334.13 92.32Q2341.31 94.47 2349.51 99.84L2349.51 99.84L2340.72 121.43Q2336.33 118.40 2331.35 115.91Q2326.37 113.42 2320.51 113.42Z" fill="url(#TextGradient)"/><path d="M2421.29 154.04L2454.69 235L2426.37 235L2402.93 173.96L2392.29 184.61L2392.29 235L2365.72 235L2365.72 92.23L2392.29 92.23L2392.29 163.03L2401.56 141.64L2425.88 92.23L2454.30 92.23L2421.29 154.04Z" fill="url(#TextGradient)"/><path d="M2528.71 92.23L2555.08 92.23L2555.08 184.61Q2555.08 210.10 2543.55 223.53Q2532.03 236.95 2510.25 236.95L2510.25 236.95Q2488.96 236.95 2477.83 223.62Q2466.70 210.29 2466.70 184.22L2466.70 184.22L2466.70 92.23L2493.07 92.23L2493.07 186.17Q2493.07 213.42 2511.13 213.42L2511.13 213.42Q2519.53 213.42 2524.12 206.48Q2528.71 199.55 2528.71 186.76L2528.71 186.76L2528.71 92.23Z" fill="url(#TextGradient)"/><path d="M2657.52 136.17L2657.52 136.17Q2657.52 158.93 2646.04 171.08Q2634.57 183.24 2612.89 183.24L2612.89 183.24L2606.25 183.24L2606.25 235L2579.69 235L2579.69 92.23L2615.92 92.23Q2657.52 92.23 2657.52 136.17ZM2606.25 115.18L2606.25 160.20L2611.33 160.20Q2621.09 160.20 2625.88 154.82Q2630.66 149.45 2630.66 137.25L2630.66 137.25Q2630.66 126.02 2626.27 120.60Q2621.88 115.18 2612.70 115.18L2612.70 115.18L2606.25 115.18Z" fill="url(#TextGradient)"/>
    <defs>
        <linearGradient id="TextGradient" x1="0" y1="0" x2="0" y2="1">
            <stop offset="0" style="stop-color:#571831;stop-opacity:1"/>
            <stop offset="1" style="stop-color:#C2185B;stop-opacity:1"/>
        </linearGradient>
    </defs>
</svg>
