<?xml version="1.0" encoding="UTF-8" standalone="no"?>
<!DOCTYPE svg PUBLIC "-//W3C//DTD SVG 1.1//EN" "http://www.w3.org/Graphics/SVG/1.1/DTD/svg11.dtd">
<svg width="100%" height="100%" viewBox="0 0 1746.703125 330" version="1.1" xmlns="http://www.w3.org/2000/svg" xmlns:xlink="http://www.w3.org/1999/xlink" xml:space="preserve" xmlns:serif="http://www.serif.com/" style="fill-rule:evenodd;clip-rule:evenodd;stroke-linejoin:round;stroke-miterlimit:2;">
    <path d="M82.912,22.056l-69.362,69.362l69.362,69.363l69.363,-69.363l-69.363,-69.362Z" style="fill:rgb(176,176,176);"/>
    <path d="M82.912,160.781l-69.362,69.363l69.362,69.363l69.363,-69.363l-69.363,-69.363Z" style="fill:rgb(176,176,176);"/>
    <path d="M199.583,0l-94.615,0l-22.056,22.056l69.363,69.362l69.363,-69.362l-22.055,-22.056Z" style="fill:rgb(176,176,176);fill-opacity:0.5;"/>
    <path d="M113.02,329.614l78.511,0l30.107,-30.107l-69.363,-69.363l-69.363,69.363l30.108,30.107Z" style="fill:rgb(176,176,176);fill-opacity:0.5;"/>
    <path d="M0,0l0,77.869l13.55,13.549l69.362,-69.362l-22.055,-22.056l-60.857,-0Z" style="fill:rgb(176,176,176);fill-opacity:0.5;"/>
    <path d="M13.55,368.87l-1.598,-1.597l3.195,-0l-1.597,1.597Zm-13.55,-125.176l0,85.92l52.805,0l30.107,-30.107l-69.362,-69.363l-13.55,13.55Z" style="fill:rgb(176,176,176);fill-opacity:0.5;"/>
    <path d="M0,104.968l0,111.627l13.55,13.549l69.362,-69.363l-69.362,-69.363l-13.55,13.55Z" style="fill:rgb(176,176,176);fill-opacity:0.5;"/>
    <path d="M152.275,91.418l-69.363,69.363l69.363,69.363l69.363,-69.363l-69.363,-69.363Z" style="fill:#7002B9;"/>
    <path d="M221.638,22.056l-69.363,69.362l69.363,69.363l69.363,-69.363l-69.363,-69.362Z" style="fill:#A04DD8;"/>
    <path d="M221.638,160.781l-69.363,69.363l69.363,69.363l69.363,-69.363l-69.363,-69.363Z" style="fill:#A04DD8;"/>
    <path d="M291.001,91.418l-69.363,69.363l69.363,69.363l69.363,-69.363l-69.363,-69.363Z" style="fill:#8202D7;"/>
    <path d="M152.291,110.184l-152.291,152.291l0,-18.781l152.275,-152.276l0.016,0.016l0.016,-0.016l69.543,69.544l69.544,-69.544l9.391,9.391l-78.723,78.722l-0.212,-0.212l-0.212,0.212l-69.347,-69.347Z" style="fill:rgb(255,209,62);"/>
    <path d="M493.38 236L468.38 236L468.38 93.23L493.38 93.23L493.38 236Z" fill="#FFFFFF"/><path d="M614.38 163.25L614.38 163.25Q614.38 198.60 599.97 217.30Q585.57 236 558.52 236L558.52 236L523.56 236L523.56 93.23L561.74 93.23Q586.64 93.23 600.51 111.63Q614.38 130.04 614.38 163.25ZM587.13 164.03L587.13 164.03Q587.13 116.18 560.77 116.18L560.77 116.18L550.12 116.18L550.12 212.76L558.71 212.76Q573.27 212.76 580.20 200.60Q587.13 188.44 587.13 164.03Z" fill="#FFFFFF"/><path d="M735.18 93.23L735.18 236L702.76 236L658.62 132.58L657.35 132.58Q659.79 144.40 659.79 157.97L659.79 157.97L659.79 236L635.18 236L635.18 93.23L667.80 93.23L711.55 195.57L712.62 195.57Q710.77 185.32 710.77 171.16L710.77 171.16L710.77 93.23L735.18 93.23Z" fill="#FFFFFF"/><path d="M790.16 236L765.16 236L765.16 93.23L790.16 93.23L790.16 236Z" fill="#FFFFFF"/><path d="M864.18 116.57L864.18 236L837.72 236L837.72 116.57L810.38 116.57L810.38 93.23L891.53 93.23L891.53 116.57L864.18 116.57Z" fill="#FFFFFF"/><path d="M971.80 196.64L971.80 196.64Q971.80 216.66 961.69 227.31Q951.59 237.95 932.54 237.95L932.54 237.95Q913.89 237.95 900.80 230.63L900.80 230.63L900.80 204.36Q916.82 214.81 930.20 214.81L930.20 214.81Q937.82 214.81 941.67 210.61Q945.53 206.41 945.53 199.18L945.53 199.18Q945.53 192.05 940.94 186.15Q936.35 180.24 925.80 173.01L925.80 173.01Q916.63 166.66 911.89 160.85Q907.15 155.04 904.56 147.82Q901.98 140.59 901.98 131.02L901.98 131.02Q901.98 112.66 912.18 101.92Q922.39 91.18 939.57 91.18L939.57 91.18Q955.98 91.18 971.12 100.36L971.12 100.36L962.33 121.64Q957.64 118.91 952.51 116.76Q947.39 114.61 941.53 114.61L941.53 114.61Q935.08 114.61 931.62 118.86Q928.15 123.11 928.15 130.43L928.15 130.43Q928.15 137.66 932.30 143.03Q936.45 148.40 946.80 155.24L946.80 155.24Q960.77 164.61 966.28 174.38Q971.80 184.14 971.80 196.64Z" fill="#FFFFFF"/><path d="" fill="#FFFFFF"/><path d="M1182.84 93.23L1157.15 236L1123.95 236L1109.98 161.20Q1106.76 145.86 1105.39 124.96L1105.39 124.96L1104.61 132.19L1100.61 161.59L1087.04 236L1053.83 236L1027.95 93.23L1054.03 93.23L1066.82 173.79Q1068.68 185.90 1071.80 211.78L1071.80 211.78Q1074.24 185.61 1076.39 174.38L1076.39 174.38L1091.63 93.23L1119.16 93.23L1134.40 174.38Q1137.43 192.45 1139.18 211.98L1139.18 211.98Q1142.60 183.07 1144.16 173.79L1144.16 173.79L1156.57 93.23L1182.84 93.23Z" fill="#FFFFFF"/><path d="M1232.74 237.95L1232.74 237.95Q1212.33 237.95 1200.56 223.45Q1188.79 208.95 1188.79 182.39L1188.79 182.39Q1188.79 155.43 1199.44 140.30Q1210.08 125.16 1229.13 125.16L1229.13 125.16Q1246.90 125.16 1257.15 138.10Q1267.41 151.04 1267.41 174.38L1267.41 174.38L1267.41 188.25L1215.16 188.25Q1215.45 202.80 1221.12 209.88Q1226.78 216.96 1236.74 216.96L1236.74 216.96Q1249.44 216.96 1262.72 209.05L1262.72 209.05L1262.72 230.43Q1250.22 237.95 1232.74 237.95ZM1228.93 145.18L1228.93 145.18Q1223.36 145.18 1219.75 151.09Q1216.14 157.00 1215.55 169.40L1215.55 169.40L1241.92 169.40Q1241.72 157.48 1238.30 151.33Q1234.89 145.18 1228.93 145.18Z" fill="#FFFFFF"/><path d="M1333.71 125.16L1333.71 125.16Q1348.56 125.16 1357.05 139.91Q1365.55 154.65 1365.55 181.41L1365.55 181.41Q1365.55 208.46 1357.01 223.21Q1348.46 237.95 1333.32 237.95L1333.32 237.95Q1326 237.95 1320.38 234.78Q1314.77 231.61 1309.79 223.60L1309.79 223.60L1308.13 223.60L1303.73 236L1284.59 236L1284.59 84.05L1310.57 84.05L1310.57 119.59Q1310.57 121.84 1310.47 124.28Q1310.38 126.72 1309.20 141.37L1309.20 141.37L1310.57 141.37Q1315.36 132.39 1320.92 128.77Q1326.49 125.16 1333.71 125.16ZM1324.73 147.23L1324.73 147.23Q1317.31 147.23 1314.04 154.16Q1310.77 161.10 1310.57 178.58L1310.57 178.58L1310.57 181.21Q1310.57 200.16 1313.94 207.88Q1317.31 215.59 1324.93 215.59L1324.93 215.59Q1338.99 215.59 1338.99 181.02L1338.99 181.02Q1338.99 147.23 1324.73 147.23Z" fill="#FFFFFF"/><path d="M1442.21 204.16L1442.21 204.16Q1442.21 220.08 1432.88 229.02Q1423.56 237.95 1405.39 237.95L1405.39 237.95Q1389.28 237.95 1378.73 231.61L1378.73 231.61L1378.73 209.05Q1384.11 212.76 1391.28 215.20Q1398.46 217.64 1403.93 217.64L1403.93 217.64Q1409.98 217.64 1413.16 214.66Q1416.33 211.68 1416.33 206.80L1416.33 206.80Q1416.33 201.82 1413.01 198.11Q1409.69 194.40 1400.80 189.03L1400.80 189.03Q1388.99 182.00 1383.86 174.04Q1378.73 166.08 1378.73 155.24L1378.73 155.24Q1378.73 141.37 1388.26 133.27Q1397.78 125.16 1414.38 125.16L1414.38 125.16Q1428.83 125.16 1441.63 132.78L1441.63 132.78L1433.13 151.43Q1422.68 145.77 1414.77 145.77L1414.77 145.77Q1409.79 145.77 1407.30 148.40Q1404.81 151.04 1404.81 154.85L1404.81 154.85Q1404.81 159.24 1407.88 162.66Q1410.96 166.08 1419.36 171.16L1419.36 171.16Q1429.52 177.31 1433.62 181.61Q1437.72 185.90 1439.96 191.37Q1442.21 196.84 1442.21 204.16Z" fill="#FFFFFF"/><path d="M1484.79 127.21L1484.79 236L1458.81 236L1458.81 127.21L1484.79 127.21ZM1457.74 98.79L1457.74 98.79Q1457.74 92.35 1461.50 88.59Q1465.26 84.83 1472.00 84.83L1472.00 84.83Q1478.34 84.83 1482.15 88.59Q1485.96 92.35 1485.96 98.79L1485.96 98.79Q1485.96 105.43 1482.05 109.10Q1478.15 112.76 1472.00 112.76L1472.00 112.76Q1465.55 112.76 1461.64 109.10Q1457.74 105.43 1457.74 98.79Z" fill="#FFFFFF"/><path d="M1544.85 215.98L1544.85 215.98Q1550.32 215.98 1556.66 213.25L1556.66 213.25L1556.66 233.56Q1550.32 237.95 1537.62 237.95L1537.62 237.95Q1523.46 237.95 1516.63 229.51Q1509.79 221.06 1509.79 204.16L1509.79 204.16L1509.79 147.82L1499.24 147.82L1499.24 136.20L1512.82 126.82L1519.46 103.77L1536.06 103.77L1536.06 127.21L1555.79 127.21L1555.79 147.82L1536.06 147.82L1536.06 205.04Q1536.06 215.98 1544.85 215.98Z" fill="#FFFFFF"/><path d="M1612.04 237.95L1612.04 237.95Q1591.63 237.95 1579.86 223.45Q1568.09 208.95 1568.09 182.39L1568.09 182.39Q1568.09 155.43 1578.73 140.30Q1589.38 125.16 1608.42 125.16L1608.42 125.16Q1626.20 125.16 1636.45 138.10Q1646.70 151.04 1646.70 174.38L1646.70 174.38L1646.70 188.25L1594.46 188.25Q1594.75 202.80 1600.41 209.88Q1606.08 216.96 1616.04 216.96L1616.04 216.96Q1628.73 216.96 1642.02 209.05L1642.02 209.05L1642.02 230.43Q1629.52 237.95 1612.04 237.95ZM1608.23 145.18L1608.23 145.18Q1602.66 145.18 1599.05 151.09Q1595.43 157.00 1594.85 169.40L1594.85 169.40L1621.21 169.40Q1621.02 157.48 1617.60 151.33Q1614.18 145.18 1608.23 145.18Z" fill="#FFFFFF"/><path d="M492.38 235L467.38 235L467.38 92.23L492.38 92.23L492.38 235Z" fill="url(#TextGradient)"/><path d="M613.38 162.25L613.38 162.25Q613.38 197.60 598.97 216.30Q584.57 235 557.52 235L557.52 235L522.56 235L522.56 92.23L560.74 92.23Q585.64 92.23 599.51 110.63Q613.38 129.04 613.38 162.25ZM586.13 163.03L586.13 163.03Q586.13 115.18 559.77 115.18L559.77 115.18L549.12 115.18L549.12 211.76L557.71 211.76Q572.27 211.76 579.20 199.60Q586.13 187.44 586.13 163.03Z" fill="url(#TextGradient)"/><path d="M734.18 92.23L734.18 235L701.76 235L657.62 131.58L656.35 131.58Q658.79 143.40 658.79 156.97L658.79 156.97L658.79 235L634.18 235L634.18 92.23L666.80 92.23L710.55 194.57L711.62 194.57Q709.77 184.32 709.77 170.16L709.77 170.16L709.77 92.23L734.18 92.23Z" fill="url(#TextGradient)"/><path d="M789.16 235L764.16 235L764.16 92.23L789.16 92.23L789.16 235Z" fill="url(#TextGradient)"/><path d="M863.18 115.57L863.18 235L836.72 235L836.72 115.57L809.38 115.57L809.38 92.23L890.53 92.23L890.53 115.57L863.18 115.57Z" fill="url(#TextGradient)"/><path d="M970.80 195.64L970.80 195.64Q970.80 215.66 960.69 226.31Q950.59 236.95 931.54 236.95L931.54 236.95Q912.89 236.95 899.80 229.63L899.80 229.63L899.80 203.36Q915.82 213.81 929.20 213.81L929.20 213.81Q936.82 213.81 940.67 209.61Q944.53 205.41 944.53 198.18L944.53 198.18Q944.53 191.05 939.94 185.15Q935.35 179.24 924.80 172.01L924.80 172.01Q915.63 165.66 910.89 159.85Q906.15 154.04 903.56 146.82Q900.98 139.59 900.98 130.02L900.98 130.02Q900.98 111.66 911.18 100.92Q921.39 90.18 938.57 90.18L938.57 90.18Q954.98 90.18 970.12 99.36L970.12 99.36L961.33 120.64Q956.64 117.91 951.51 115.76Q946.39 113.61 940.53 113.61L940.53 113.61Q934.08 113.61 930.62 117.86Q927.15 122.11 927.15 129.43L927.15 129.43Q927.15 136.66 931.30 142.03Q935.45 147.40 945.80 154.24L945.80 154.24Q959.77 163.61 965.28 173.38Q970.80 183.14 970.80 195.64Z" fill="url(#TextGradient)"/><path d="" fill="url(#TextGradient)"/><path d="M1181.84 92.23L1156.15 235L1122.95 235L1108.98 160.20Q1105.76 144.86 1104.39 123.96L1104.39 123.96L1103.61 131.19L1099.61 160.59L1086.04 235L1052.83 235L1026.95 92.23L1053.03 92.23L1065.82 172.79Q1067.68 184.90 1070.80 210.78L1070.80 210.78Q1073.24 184.61 1075.39 173.38L1075.39 173.38L1090.63 92.23L1118.16 92.23L1133.40 173.38Q1136.43 191.45 1138.18 210.98L1138.18 210.98Q1141.60 182.07 1143.16 172.79L1143.16 172.79L1155.57 92.23L1181.84 92.23Z" fill="url(#TextGradient)"/><path d="M1231.74 236.95L1231.74 236.95Q1211.33 236.95 1199.56 222.45Q1187.79 207.95 1187.79 181.39L1187.79 181.39Q1187.79 154.43 1198.44 139.30Q1209.08 124.16 1228.13 124.16L1228.13 124.16Q1245.90 124.16 1256.15 137.10Q1266.41 150.04 1266.41 173.38L1266.41 173.38L1266.41 187.25L1214.16 187.25Q1214.45 201.80 1220.12 208.88Q1225.78 215.96 1235.74 215.96L1235.74 215.96Q1248.44 215.96 1261.72 208.05L1261.72 208.05L1261.72 229.43Q1249.22 236.95 1231.74 236.95ZM1227.93 144.18L1227.93 144.18Q1222.36 144.18 1218.75 150.09Q1215.14 156.00 1214.55 168.40L1214.55 168.40L1240.92 168.40Q1240.72 156.48 1237.30 150.33Q1233.89 144.18 1227.93 144.18Z" fill="url(#TextGradient)"/><path d="M1332.71 124.16L1332.71 124.16Q1347.56 124.16 1356.05 138.91Q1364.55 153.65 1364.55 180.41L1364.55 180.41Q1364.55 207.46 1356.01 222.21Q1347.46 236.95 1332.32 236.95L1332.32 236.95Q1325 236.95 1319.38 233.78Q1313.77 230.61 1308.79 222.60L1308.79 222.60L1307.13 222.60L1302.73 235L1283.59 235L1283.59 83.05L1309.57 83.05L1309.57 118.59Q1309.57 120.84 1309.47 123.28Q1309.38 125.72 1308.20 140.37L1308.20 140.37L1309.57 140.37Q1314.36 131.39 1319.92 127.77Q1325.49 124.16 1332.71 124.16ZM1323.73 146.23L1323.73 146.23Q1316.31 146.23 1313.04 153.16Q1309.77 160.10 1309.57 177.58L1309.57 177.58L1309.57 180.21Q1309.57 199.16 1312.94 206.88Q1316.31 214.59 1323.93 214.59L1323.93 214.59Q1337.99 214.59 1337.99 180.02L1337.99 180.02Q1337.99 146.23 1323.73 146.23Z" fill="url(#TextGradient)"/><path d="M1441.21 203.16L1441.21 203.16Q1441.21 219.08 1431.88 228.02Q1422.56 236.95 1404.39 236.95L1404.39 236.95Q1388.28 236.95 1377.73 230.61L1377.73 230.61L1377.73 208.05Q1383.11 211.76 1390.28 214.20Q1397.46 216.64 1402.93 216.64L1402.93 216.64Q1408.98 216.64 1412.16 213.66Q1415.33 210.68 1415.33 205.80L1415.33 205.80Q1415.33 200.82 1412.01 197.11Q1408.69 193.40 1399.80 188.03L1399.80 188.03Q1387.99 181.00 1382.86 173.04Q1377.73 165.08 1377.73 154.24L1377.73 154.24Q1377.73 140.37 1387.26 132.27Q1396.78 124.16 1413.38 124.16L1413.38 124.16Q1427.83 124.16 1440.63 131.78L1440.63 131.78L1432.13 150.43Q1421.68 144.77 1413.77 144.77L1413.77 144.77Q1408.79 144.77 1406.30 147.40Q1403.81 150.04 1403.81 153.85L1403.81 153.85Q1403.81 158.24 1406.88 161.66Q1409.96 165.08 1418.36 170.16L1418.36 170.16Q1428.52 176.31 1432.62 180.61Q1436.72 184.90 1438.96 190.37Q1441.21 195.84 1441.21 203.16Z" fill="url(#TextGradient)"/><path d="M1483.79 126.21L1483.79 235L1457.81 235L1457.81 126.21L1483.79 126.21ZM1456.74 97.79L1456.74 97.79Q1456.74 91.35 1460.50 87.59Q1464.26 83.83 1471.00 83.83L1471.00 83.83Q1477.34 83.83 1481.15 87.59Q1484.96 91.35 1484.96 97.79L1484.96 97.79Q1484.96 104.43 1481.05 108.10Q1477.15 111.76 1471.00 111.76L1471.00 111.76Q1464.55 111.76 1460.64 108.10Q1456.74 104.43 1456.74 97.79Z" fill="url(#TextGradient)"/><path d="M1543.85 214.98L1543.85 214.98Q1549.32 214.98 1555.66 212.25L1555.66 212.25L1555.66 232.56Q1549.32 236.95 1536.62 236.95L1536.62 236.95Q1522.46 236.95 1515.63 228.51Q1508.79 220.06 1508.79 203.16L1508.79 203.16L1508.79 146.82L1498.24 146.82L1498.24 135.20L1511.82 125.82L1518.46 102.77L1535.06 102.77L1535.06 126.21L1554.79 126.21L1554.79 146.82L1535.06 146.82L1535.06 204.04Q1535.06 214.98 1543.85 214.98Z" fill="url(#TextGradient)"/><path d="M1611.04 236.95L1611.04 236.95Q1590.63 236.95 1578.86 222.45Q1567.09 207.95 1567.09 181.39L1567.09 181.39Q1567.09 154.43 1577.73 139.30Q1588.38 124.16 1607.42 124.16L1607.42 124.16Q1625.20 124.16 1635.45 137.10Q1645.70 150.04 1645.70 173.38L1645.70 173.38L1645.70 187.25L1593.46 187.25Q1593.75 201.80 1599.41 208.88Q1605.08 215.96 1615.04 215.96L1615.04 215.96Q1627.73 215.96 1641.02 208.05L1641.02 208.05L1641.02 229.43Q1628.52 236.95 1611.04 236.95ZM1607.23 144.18L1607.23 144.18Q1601.66 144.18 1598.05 150.09Q1594.43 156.00 1593.85 168.40L1593.85 168.40L1620.21 168.40Q1620.02 156.48 1616.60 150.33Q1613.18 144.18 1607.23 144.18Z" fill="url(#TextGradient)"/>
    <defs>
        <linearGradient id="TextGradient" x1="0" y1="0" x2="0" y2="1">
            <stop offset="0" style="stop-color:#580291;stop-opacity:1"/>
            <stop offset="1" style="stop-color:#8202D7;stop-opacity:1"/>
        </linearGradient>
    </defs>
</svg>
