<?xml version="1.0" encoding="UTF-8" standalone="no"?>
<!DOCTYPE svg PUBLIC "-//W3C//DTD SVG 1.1//EN" "http://www.w3.org/Graphics/SVG/1.1/DTD/svg11.dtd">
<svg width="100%" height="100%" viewBox="0 0 1071.80078125 330" version="1.1" xmlns="http://www.w3.org/2000/svg" xmlns:xlink="http://www.w3.org/1999/xlink" xml:space="preserve" xmlns:serif="http://www.serif.com/" style="fill-rule:evenodd;clip-rule:evenodd;stroke-linejoin:round;stroke-miterlimit:2;">
    <path d="M82.912,22.056l-69.362,69.362l69.362,69.363l69.363,-69.363l-69.363,-69.362Z" style="fill:rgb(176,176,176);"/>
    <path d="M82.912,160.781l-69.362,69.363l69.362,69.363l69.363,-69.363l-69.363,-69.363Z" style="fill:rgb(176,176,176);"/>
    <path d="M199.583,0l-94.615,0l-22.056,22.056l69.363,69.362l69.363,-69.362l-22.055,-22.056Z" style="fill:rgb(176,176,176);fill-opacity:0.5;"/>
    <path d="M113.02,329.614l78.511,0l30.107,-30.107l-69.363,-69.363l-69.363,69.363l30.108,30.107Z" style="fill:rgb(176,176,176);fill-opacity:0.5;"/>
    <path d="M0,0l0,77.869l13.55,13.549l69.362,-69.362l-22.055,-22.056l-60.857,-0Z" style="fill:rgb(176,176,176);fill-opacity:0.5;"/>
    <path d="M13.55,368.87l-1.598,-1.597l3.195,-0l-1.597,1.597Zm-13.55,-125.176l0,85.92l52.805,0l30.107,-30.107l-69.362,-69.363l-13.55,13.55Z" style="fill:rgb(176,176,176);fill-opacity:0.5;"/>
    <path d="M0,104.968l0,111.627l13.55,13.549l69.362,-69.363l-69.362,-69.363l-13.55,13.55Z" style="fill:rgb(176,176,176);fill-opacity:0.5;"/>
    <path d="M152.275,91.418l-69.363,69.363l69.363,69.363l69.363,-69.363l-69.363,-69.363Z" style="fill:#028BB9;"/>
    <path d="M221.638,22.056l-69.363,69.362l69.363,69.363l69.363,-69.363l-69.363,-69.362Z" style="fill:#4DB5D8;"/>
    <path d="M221.638,160.781l-69.363,69.363l69.363,69.363l69.363,-69.363l-69.363,-69.363Z" style="fill:#4DB5D8;"/>
    <path d="M291.001,91.418l-69.363,69.363l69.363,69.363l69.363,-69.363l-69.363,-69.363Z" style="fill:#02A1D7;"/>
    <path d="M152.291,110.184l-152.291,152.291l0,-18.781l152.275,-152.276l0.016,0.016l0.016,-0.016l69.543,69.544l69.544,-69.544l9.391,9.391l-78.723,78.722l-0.212,-0.212l-0.212,0.212l-69.347,-69.347Z" style="fill:rgb(255,209,62);"/>
    <path d="M493.38 236L468.38 236L468.38 93.23L493.38 93.23L493.38 236Z" fill="#FFFFFF"/><path d="M614.38 163.25L614.38 163.25Q614.38 198.60 599.97 217.30Q585.57 236 558.52 236L558.52 236L523.56 236L523.56 93.23L561.74 93.23Q586.64 93.23 600.51 111.63Q614.38 130.04 614.38 163.25ZM587.13 164.03L587.13 164.03Q587.13 116.18 560.77 116.18L560.77 116.18L550.12 116.18L550.12 212.76L558.71 212.76Q573.27 212.76 580.20 200.60Q587.13 188.44 587.13 164.03Z" fill="#FFFFFF"/><path d="M735.18 93.23L735.18 236L702.76 236L658.62 132.58L657.35 132.58Q659.79 144.40 659.79 157.97L659.79 157.97L659.79 236L635.18 236L635.18 93.23L667.80 93.23L711.55 195.57L712.62 195.57Q710.77 185.32 710.77 171.16L710.77 171.16L710.77 93.23L735.18 93.23Z" fill="#FFFFFF"/><path d="M790.16 236L765.16 236L765.16 93.23L790.16 93.23L790.16 236Z" fill="#FFFFFF"/><path d="M864.18 116.57L864.18 236L837.72 236L837.72 116.57L810.38 116.57L810.38 93.23L891.53 93.23L891.53 116.57L864.18 116.57Z" fill="#FFFFFF"/><path d="M971.80 196.64L971.80 196.64Q971.80 216.66 961.69 227.31Q951.59 237.95 932.54 237.95L932.54 237.95Q913.89 237.95 900.80 230.63L900.80 230.63L900.80 204.36Q916.82 214.81 930.20 214.81L930.20 214.81Q937.82 214.81 941.67 210.61Q945.53 206.41 945.53 199.18L945.53 199.18Q945.53 192.05 940.94 186.15Q936.35 180.24 925.80 173.01L925.80 173.01Q916.63 166.66 911.89 160.85Q907.15 155.04 904.56 147.82Q901.98 140.59 901.98 131.02L901.98 131.02Q901.98 112.66 912.18 101.92Q922.39 91.18 939.57 91.18L939.57 91.18Q955.98 91.18 971.12 100.36L971.12 100.36L962.33 121.64Q957.64 118.91 952.51 116.76Q947.39 114.61 941.53 114.61L941.53 114.61Q935.08 114.61 931.62 118.86Q928.15 123.11 928.15 130.43L928.15 130.43Q928.15 137.66 932.30 143.03Q936.45 148.40 946.80 155.24L946.80 155.24Q960.77 164.61 966.28 174.38Q971.80 184.14 971.80 196.64Z" fill="#FFFFFF"/><path d="M492.38 235L467.38 235L467.38 92.23L492.38 92.23L492.38 235Z" fill="url(#TextGradient)"/><path d="M613.38 162.25L613.38 162.25Q613.38 197.60 598.97 216.30Q584.57 235 557.52 235L557.52 235L522.56 235L522.56 92.23L560.74 92.23Q585.64 92.23 599.51 110.63Q613.38 129.04 613.38 162.25ZM586.13 163.03L586.13 163.03Q586.13 115.18 559.77 115.18L559.77 115.18L549.12 115.18L549.12 211.76L557.71 211.76Q572.27 211.76 579.20 199.60Q586.13 187.44 586.13 163.03Z" fill="url(#TextGradient)"/><path d="M734.18 92.23L734.18 235L701.76 235L657.62 131.58L656.35 131.58Q658.79 143.40 658.79 156.97L658.79 156.97L658.79 235L634.18 235L634.18 92.23L666.80 92.23L710.55 194.57L711.62 194.57Q709.77 184.32 709.77 170.16L709.77 170.16L709.77 92.23L734.18 92.23Z" fill="url(#TextGradient)"/><path d="M789.16 235L764.16 235L764.16 92.23L789.16 92.23L789.16 235Z" fill="url(#TextGradient)"/><path d="M863.18 115.57L863.18 235L836.72 235L836.72 115.57L809.38 115.57L809.38 92.23L890.53 92.23L890.53 115.57L863.18 115.57Z" fill="url(#TextGradient)"/><path d="M970.80 195.64L970.80 195.64Q970.80 215.66 960.69 226.31Q950.59 236.95 931.54 236.95L931.54 236.95Q912.89 236.95 899.80 229.63L899.80 229.63L899.80 203.36Q915.82 213.81 929.20 213.81L929.20 213.81Q936.82 213.81 940.67 209.61Q944.53 205.41 944.53 198.18L944.53 198.18Q944.53 191.05 939.94 185.15Q935.35 179.24 924.80 172.01L924.80 172.01Q915.63 165.66 910.89 159.85Q906.15 154.04 903.56 146.82Q900.98 139.59 900.98 130.02L900.98 130.02Q900.98 111.66 911.18 100.92Q921.39 90.18 938.57 90.18L938.57 90.18Q954.98 90.18 970.12 99.36L970.12 99.36L961.33 120.64Q956.64 117.91 951.51 115.76Q946.39 113.61 940.53 113.61L940.53 113.61Q934.08 113.61 930.62 117.86Q927.15 122.11 927.15 129.43L927.15 129.43Q927.15 136.66 931.30 142.03Q935.45 147.40 945.80 154.24L945.80 154.24Q959.77 163.61 965.28 173.38Q970.80 183.14 970.80 195.64Z" fill="url(#TextGradient)"/>
    <defs>
        <linearGradient id="TextGradient" x1="0" y1="0" x2="0" y2="1">
            <stop offset="0" style="stop-color:#026D91;stop-opacity:1"/>
            <stop offset="1" style="stop-color:#02A1D7;stop-opacity:1"/>
        </linearGradient>
    </defs>
</svg>
