<?xml version="1.0" encoding="UTF-8" standalone="no"?>
<!DOCTYPE svg PUBLIC "-//W3C//DTD SVG 1.1//EN" "http://www.w3.org/Graphics/SVG/1.1/DTD/svg11.dtd">
<svg width="100%" height="100%" viewBox="0 0 1024 250" version="1.1" xmlns="http://www.w3.org/2000/svg" xmlns:xlink="http://www.w3.org/1999/xlink" xml:space="preserve" xmlns:serif="http://www.serif.com/" style="fill-rule:evenodd;clip-rule:evenodd;">
    <g transform="matrix(1.39872,0,0,1.39872,-433.548,-258.273)">
        <path d="M602.472,241.888C610.408,241.888 614.376,246.112 614.376,254.56L614.376,291.328C614.376,299.776 610.408,304 602.472,304L577.8,304L577.8,241.888L602.472,241.888ZM600.936,292.864L600.936,252.928C600.936,252.416 600.76,251.968 600.408,251.584C600.056,251.2 599.624,251.008 599.112,251.008L591.24,251.008L591.24,294.784L599.112,294.784C599.624,294.784 600.056,294.592 600.408,294.208C600.76,293.824 600.936,293.376 600.936,292.864Z" style="fill:url(#_Linear1);fill-rule:nonzero;"/>
        <path d="M649.032,240.928C656.968,240.928 660.936,245.152 660.936,253.6L660.936,304L647.496,304L647.496,283.168L637.8,283.168L637.8,304L624.36,304L624.36,253.6C624.36,245.152 628.328,240.928 636.264,240.928L649.032,240.928ZM637.8,272.8L647.496,272.8L647.496,251.968C647.496,251.456 647.32,251.008 646.968,250.624C646.616,250.24 646.184,250.048 645.672,250.048L639.624,250.048C639.112,250.048 638.68,250.24 638.328,250.624C637.976,251.008 637.8,251.456 637.8,251.968L637.8,272.8Z" style="fill:url(#_Linear2);fill-rule:nonzero;"/>
        <path d="M667.368,253.312L667.368,241.888L700.968,241.888L700.968,253.312L690.888,253.312L690.888,304L677.448,304L677.448,253.312L667.368,253.312Z" style="fill:url(#_Linear3);fill-rule:nonzero;"/>
        <path d="M731.784,240.928C739.72,240.928 743.688,245.152 743.688,253.6L743.688,304L730.248,304L730.248,283.168L720.552,283.168L720.552,304L707.112,304L707.112,253.6C707.112,245.152 711.08,240.928 719.016,240.928L731.784,240.928ZM720.552,272.8L730.248,272.8L730.248,251.968C730.248,251.456 730.072,251.008 729.72,250.624C729.368,250.24 728.936,250.048 728.424,250.048L722.376,250.048C721.864,250.048 721.432,250.24 721.08,250.624C720.728,251.008 720.552,251.456 720.552,251.968L720.552,272.8Z" style="fill:url(#_Linear4);fill-rule:nonzero;"/>
        <path d="M750.12,253.312L750.12,241.888L783.72,241.888L783.72,253.312L773.64,253.312L773.64,304L760.2,304L760.2,253.312L750.12,253.312Z" style="fill:url(#_Linear5);fill-rule:nonzero;"/>
        <path d="M803.304,278.56L803.304,304L789.864,304L789.864,241.888L813.768,241.888C821.704,241.888 825.672,246.112 825.672,254.56L825.672,261.76C825.672,266.88 823.848,270.144 820.2,271.552C823.4,272.704 825,275.328 825,279.424L825,304L811.56,304L811.56,280.48C811.56,279.2 810.952,278.56 809.736,278.56L803.304,278.56ZM803.304,251.008L803.304,269.152L810.408,269.152C810.92,269.152 811.352,268.96 811.704,268.576C812.056,268.192 812.232,267.744 812.232,267.232L812.232,252.928C812.232,252.416 812.056,251.968 811.704,251.584C811.352,251.2 810.92,251.008 810.408,251.008L803.304,251.008Z" style="fill:url(#_Linear6);fill-rule:nonzero;"/>
        <path d="M858.984,240.928C866.92,240.928 870.888,245.152 870.888,253.6L870.888,304L857.448,304L857.448,283.168L847.752,283.168L847.752,304L834.312,304L834.312,253.6C834.312,245.152 838.28,240.928 846.216,240.928L858.984,240.928ZM847.752,272.8L857.448,272.8L857.448,251.968C857.448,251.456 857.272,251.008 856.92,250.624C856.568,250.24 856.136,250.048 855.624,250.048L849.576,250.048C849.064,250.048 848.632,250.24 848.28,250.624C847.928,251.008 847.752,251.456 847.752,251.968L847.752,272.8Z" style="fill:url(#_Linear7);fill-rule:nonzero;"/>
        <path d="M904.008,293.824L904.008,284.224L916.776,284.224L916.776,292.288C916.776,300.736 912.808,304.96 904.872,304.96L892.776,304.96C884.84,304.96 880.872,300.736 880.872,292.288L880.872,253.6C880.872,245.152 884.84,240.928 892.776,240.928L904.872,240.928C912.808,240.928 916.776,245.152 916.776,253.6L916.776,259.456L904.008,259.456L904.008,251.968C904.008,251.456 903.832,251.008 903.48,250.624C903.128,250.24 902.696,250.048 902.184,250.048L896.136,250.048C895.624,250.048 895.192,250.24 894.84,250.624C894.488,251.008 894.312,251.456 894.312,251.968L894.312,293.824C894.312,294.336 894.488,294.784 894.84,295.168C895.192,295.552 895.624,295.744 896.136,295.744L902.184,295.744C902.696,295.744 903.128,295.552 903.48,295.168C903.832,294.784 904.008,294.336 904.008,293.824Z" style="fill:url(#_Linear8);fill-rule:nonzero;"/>
        <path d="M963.528,241.888L952.968,270.4L965.544,304L951.816,304L942.6,279.424L938.28,279.424L938.28,304L924.84,304L924.84,241.888L938.28,241.888L938.28,267.904L941.544,267.904L951.24,241.888L963.528,241.888Z" style="fill:url(#_Linear9);fill-rule:nonzero;"/>
        <path d="M983.592,292.864L998.472,292.864L998.472,304L970.152,304L970.152,241.888L998.472,241.888L998.472,252.832L983.592,252.832L983.592,267.424L997.512,267.424L997.512,277.984L983.592,277.984L983.592,292.864Z" style="fill:url(#_Linear10);fill-rule:nonzero;"/>
        <path d="M1019.69,278.56L1019.69,304L1006.25,304L1006.25,241.888L1030.15,241.888C1038.09,241.888 1042.06,246.112 1042.06,254.56L1042.06,261.76C1042.06,266.88 1040.23,270.144 1036.58,271.552C1039.78,272.704 1041.38,275.328 1041.38,279.424L1041.38,304L1027.94,304L1027.94,280.48C1027.94,279.2 1027.34,278.56 1026.12,278.56L1019.69,278.56ZM1019.69,251.008L1019.69,269.152L1026.79,269.152C1027.3,269.152 1027.74,268.96 1028.09,268.576C1028.44,268.192 1028.62,267.744 1028.62,267.232L1028.62,252.928C1028.62,252.416 1028.44,251.968 1028.09,251.584C1027.74,251.2 1027.3,251.008 1026.79,251.008L1019.69,251.008Z" style="fill:url(#_Linear11);fill-rule:nonzero;"/>
    </g>
    <g transform="matrix(1,0,0,1,0,-90)">
        <g transform="matrix(0.0384615,0,0,1,323.077,0)">
            <rect x="336" y="90" width="26" height="247" style="fill:url(#_Linear12);"/>
        </g>
        <g transform="matrix(0.0384615,0,0,1,324.077,0)">
            <rect x="336" y="90" width="26" height="247" style="fill:url(#_Linear13);"/>
        </g>
    </g>
    <g transform="matrix(0.60874,0,0,0.60874,-179.578,38.2694)">
        <g id="squares" transform="matrix(1,0,0,1,295,5)">
            <g transform="matrix(0.707107,-0.707107,0.707107,0.707107,-270.59,-94.37)">
                <rect x="77.53" y="317.2" width="48.94" height="48.94" style="fill:rgb(188,190,192);"/>
            </g>
            <g transform="matrix(0.707107,-0.707107,0.707107,0.707107,-151.08,194.17)">
                <rect x="485.59" y="317.2" width="48.94" height="48.94" style="fill:rgb(188,190,192);"/>
            </g>
            <g transform="matrix(0.707107,-0.707107,0.707107,0.707107,-246.72,-36.73)">
                <rect x="159.04" y="317.2" width="48.94" height="48.94" style="fill:rgb(188,190,192);"/>
            </g>
            <g transform="matrix(0.707107,-0.707107,0.707107,0.707107,-222.85,20.9)">
                <rect x="240.54" y="317.2" width="48.94" height="48.94" style="fill:rgb(188,190,192);"/>
            </g>
            <g transform="matrix(0.707107,-0.707107,0.707107,0.707107,-198.98,78.53)">
                <rect x="322.05" y="317.2" width="48.94" height="48.94" style="fill:rgb(188,190,192);"/>
            </g>
            <g transform="matrix(0.707107,-0.707107,0.707107,0.707107,-175.11,136.16)">
                <rect x="403.55" y="317.2" width="48.94" height="48.94" style="fill:rgb(188,190,192);"/>
            </g>
            <g transform="matrix(0.707107,-0.707107,0.707107,0.707107,-263.62,4.28)">
                <rect x="200.09" y="358.11" width="48.94" height="48.94" style="fill:rgb(188,190,192);"/>
            </g>
            <g transform="matrix(0.707107,-0.707107,0.707107,0.707107,-239.75,61.9)">
                <rect x="281.59" y="358.11" width="48.94" height="48.94" style="fill:rgb(188,190,192);"/>
            </g>
            <g transform="matrix(0.707107,-0.707107,0.707107,0.707107,-215.88,119.53)">
                <rect x="363.09" y="358.11" width="48.94" height="48.94" style="fill:rgb(188,190,192);"/>
            </g>
            <g transform="matrix(0.707107,-0.707107,0.707107,0.707107,-206.06,-19.57)">
                <rect x="200.09" y="276.7" width="48.94" height="48.94" style="fill:rgb(188,190,192);"/>
            </g>
            <g transform="matrix(0.707107,-0.707107,0.707107,0.707107,-182.19,38.06)">
                <rect x="281.59" y="276.7" width="48.94" height="48.94" style="fill:rgb(188,190,192);"/>
            </g>
            <g transform="matrix(0.707107,-0.707107,0.707107,0.707107,-158.32,95.69)">
                <rect x="363.09" y="276.7" width="48.94" height="48.94" style="fill:rgb(188,190,192);"/>
            </g>
        </g>
        <g id="line" transform="matrix(1,0,0,1,295,5)">
            <path d="M14.49,71.07L85.72,71.07L124.93,110.28L165.43,69.79L206.14,110.51L287.98,28.67L328.9,69.59L369.39,29.1L411.79,71.5L481.33,71.5L481.33,79.55L408.4,79.55L369.18,40.33L328.47,81.04L287.77,40.33L206.36,121.74L165.65,81.04L125.16,121.53L82.54,78.92L14.06,78.92L14.49,71.07Z" style="fill:rgb(255,210,79);fill-rule:nonzero;stroke:black;stroke-width:1.5px;"/>
            <rect x="0" y="67.79" width="16.54" height="15.26" style="fill:rgb(35,31,32);"/>
            <rect x="476.49" y="67.79" width="16.54" height="15.26" style="fill:rgb(35,31,32);"/>
        </g>
        <g id="text" transform="matrix(1,0,0,1,295,5)">
            <g transform="matrix(1,0,0,1,-58.87,-266.56)">
                <rect x="73.39" y="479" width="20.21" height="57.67" style="fill:rgb(35,31,32);fill-rule:nonzero;"/>
            </g>
            <g transform="matrix(1,0,0,1,-58.87,-266.56)">
                <path d="M198.8,479L242,479L242,491.18L219,491.18L219,501.33L240.05,501.33L240.05,513.5L219,513.5L219,524.5L242.34,524.5L242.34,536.67L198.8,536.67L198.8,479Z" style="fill:rgb(35,31,32);fill-rule:nonzero;"/>
            </g>
            <g transform="matrix(1,0,0,1,-58.87,-266.56)">
                <path d="M341.62,493.44L341.62,479L397.86,479L397.86,493.46L379.86,493.46L379.86,536.67L359.64,536.67L359.64,493.44L341.62,493.44Z" style="fill:rgb(35,31,32);fill-rule:nonzero;"/>
            </g>
            <g transform="matrix(1,0,0,1,-58.87,-266.56)">
                <path d="M499.08,479L541.19,479L541.19,491.18L519.29,491.18L519.29,501.66L539.84,501.66L539.84,513.84L519.29,513.84L519.29,536.67L499.08,536.67L499.08,479Z" style="fill:rgb(35,31,32);fill-rule:nonzero;"/>
            </g>
            <g transform="matrix(1,0,0,1,-58.87,-266.56)">
                <path d="M558.87,478.4C563.995,478.405 568.21,482.625 568.21,487.75C568.21,492.879 563.989,497.1 558.86,497.1C553.735,497.1 549.515,492.885 549.51,487.76C549.51,482.625 553.735,478.4 558.87,478.4ZM558.87,495.29C562.999,495.279 566.39,491.879 566.39,487.75C566.39,483.614 562.986,480.21 558.85,480.21C554.714,480.21 551.31,483.614 551.31,487.75C551.31,487.753 551.31,487.757 551.31,487.76C551.321,491.898 554.732,495.295 558.87,495.29ZM560.8,492.73L559.97,491.12C559.07,489.37 558.36,488.64 557.34,488.64L556.66,488.64L556.66,492.73L554.66,492.73L554.66,482.73L559.66,482.73C559.723,482.726 559.787,482.724 559.85,482.724C561.381,482.724 562.641,483.984 562.641,485.515C562.641,486.975 561.496,488.201 560.04,488.3L560.04,488.35C560.89,488.65 561.09,488.9 562.15,490.68L563.32,492.68L560.8,492.73ZM558.62,487.06C559.92,487.06 560.62,486.53 560.62,485.68C560.62,484.83 559.94,484.32 558.54,484.32L556.71,484.32L556.71,487.06L558.62,487.06Z" style="fill:rgb(35,31,32);fill-rule:nonzero;"/>
            </g>
        </g>
    </g>
    <defs>
        <linearGradient id="_Linear1" x1="0" y1="0" x2="1" y2="0" gradientUnits="userSpaceOnUse" gradientTransform="matrix(4.92112e-15,80.368,-7.5457,4.62041e-16,939.048,235.264)"><stop offset="0" style="stop-color:rgb(61,0,121);stop-opacity:1"/><stop offset="1" style="stop-color:black;stop-opacity:1"/></linearGradient>
        <linearGradient id="_Linear2" x1="0" y1="0" x2="1" y2="0" gradientUnits="userSpaceOnUse" gradientTransform="matrix(4.92112e-15,80.368,-7.5457,4.62041e-16,939.048,235.264)"><stop offset="0" style="stop-color:rgb(61,0,121);stop-opacity:1"/><stop offset="1" style="stop-color:black;stop-opacity:1"/></linearGradient>
        <linearGradient id="_Linear3" x1="0" y1="0" x2="1" y2="0" gradientUnits="userSpaceOnUse" gradientTransform="matrix(4.92112e-15,80.368,-7.5457,4.62041e-16,939.048,235.264)"><stop offset="0" style="stop-color:rgb(61,0,121);stop-opacity:1"/><stop offset="1" style="stop-color:black;stop-opacity:1"/></linearGradient>
        <linearGradient id="_Linear4" x1="0" y1="0" x2="1" y2="0" gradientUnits="userSpaceOnUse" gradientTransform="matrix(4.92112e-15,80.368,-7.5457,4.62041e-16,939.048,235.264)"><stop offset="0" style="stop-color:rgb(61,0,121);stop-opacity:1"/><stop offset="1" style="stop-color:black;stop-opacity:1"/></linearGradient>
        <linearGradient id="_Linear5" x1="0" y1="0" x2="1" y2="0" gradientUnits="userSpaceOnUse" gradientTransform="matrix(4.92112e-15,80.368,-7.5457,4.62041e-16,939.048,235.264)"><stop offset="0" style="stop-color:rgb(61,0,121);stop-opacity:1"/><stop offset="1" style="stop-color:black;stop-opacity:1"/></linearGradient>
        <linearGradient id="_Linear6" x1="0" y1="0" x2="1" y2="0" gradientUnits="userSpaceOnUse" gradientTransform="matrix(4.92112e-15,80.368,-7.5457,4.62041e-16,939.048,235.264)"><stop offset="0" style="stop-color:rgb(61,0,121);stop-opacity:1"/><stop offset="1" style="stop-color:black;stop-opacity:1"/></linearGradient>
        <linearGradient id="_Linear7" x1="0" y1="0" x2="1" y2="0" gradientUnits="userSpaceOnUse" gradientTransform="matrix(4.92112e-15,80.368,-7.5457,4.62041e-16,939.048,235.264)"><stop offset="0" style="stop-color:rgb(61,0,121);stop-opacity:1"/><stop offset="1" style="stop-color:black;stop-opacity:1"/></linearGradient>
        <linearGradient id="_Linear8" x1="0" y1="0" x2="1" y2="0" gradientUnits="userSpaceOnUse" gradientTransform="matrix(4.92112e-15,80.368,-7.5457,4.62041e-16,939.048,235.264)"><stop offset="0" style="stop-color:rgb(61,0,121);stop-opacity:1"/><stop offset="1" style="stop-color:black;stop-opacity:1"/></linearGradient>
        <linearGradient id="_Linear9" x1="0" y1="0" x2="1" y2="0" gradientUnits="userSpaceOnUse" gradientTransform="matrix(4.92112e-15,80.368,-7.5457,4.62041e-16,939.048,235.264)"><stop offset="0" style="stop-color:rgb(61,0,121);stop-opacity:1"/><stop offset="1" style="stop-color:black;stop-opacity:1"/></linearGradient>
        <linearGradient id="_Linear10" x1="0" y1="0" x2="1" y2="0" gradientUnits="userSpaceOnUse" gradientTransform="matrix(4.92112e-15,80.368,-7.5457,4.62041e-16,939.048,235.264)"><stop offset="0" style="stop-color:rgb(61,0,121);stop-opacity:1"/><stop offset="1" style="stop-color:black;stop-opacity:1"/></linearGradient>
        <linearGradient id="_Linear11" x1="0" y1="0" x2="1" y2="0" gradientUnits="userSpaceOnUse" gradientTransform="matrix(4.92112e-15,80.368,-7.5457,4.62041e-16,939.048,235.264)"><stop offset="0" style="stop-color:rgb(61,0,121);stop-opacity:1"/><stop offset="1" style="stop-color:black;stop-opacity:1"/></linearGradient>
        <linearGradient id="_Linear12" x1="0" y1="0" x2="1" y2="0" gradientUnits="userSpaceOnUse" gradientTransform="matrix(1.51244e-14,247,-247,1.51244e-14,349,90)"><stop offset="0" style="stop-color:white;stop-opacity:1"/><stop offset="0.5" style="stop-color:rgb(199,199,199);stop-opacity:1"/><stop offset="1" style="stop-color:white;stop-opacity:1"/></linearGradient>
        <linearGradient id="_Linear13" x1="0" y1="0" x2="1" y2="0" gradientUnits="userSpaceOnUse" gradientTransform="matrix(1.51244e-14,247,-247,1.51244e-14,349,90)"><stop offset="0" style="stop-color:white;stop-opacity:1"/><stop offset="0.5" style="stop-color:rgb(146,146,146);stop-opacity:1"/><stop offset="1" style="stop-color:white;stop-opacity:1"/></linearGradient>
    </defs>
</svg>
