<?xml version="1.0" encoding="UTF-8" standalone="no"?>
<!DOCTYPE svg PUBLIC "-//W3C//DTD SVG 1.1//EN" "http://www.w3.org/Graphics/SVG/1.1/DTD/svg11.dtd">
<svg width="100%" height="100%" viewBox="0 0 1004 250" version="1.1" xmlns="http://www.w3.org/2000/svg" xmlns:xlink="http://www.w3.org/1999/xlink" xml:space="preserve" xmlns:serif="http://www.serif.com/" style="fill-rule:evenodd;clip-rule:evenodd;">
    <g transform="matrix(1.39872,0,0,1.39872,-433.548,-258.273)">
        <path d="M600.744,241.888L612.648,241.888L619.848,288.64L625.224,241.888L638.28,241.888L628.2,304L612.936,304L606.696,265.888L600.456,304L585.192,304L575.112,241.888L588.168,241.888L593.544,288.64L600.744,241.888Z" style="fill:url(#_Linear1);fill-rule:nonzero;"/>
        <path d="M670.344,240.928C678.28,240.928 682.248,245.152 682.248,253.6L682.248,304L668.808,304L668.808,283.168L659.112,283.168L659.112,304L645.672,304L645.672,253.6C645.672,245.152 649.64,240.928 657.576,240.928L670.344,240.928ZM659.112,272.8L668.808,272.8L668.808,251.968C668.808,251.456 668.632,251.008 668.28,250.624C667.928,250.24 667.496,250.048 666.984,250.048L660.936,250.048C660.424,250.048 659.992,250.24 659.64,250.624C659.288,251.008 659.112,251.456 659.112,251.968L659.112,272.8Z" style="fill:url(#_Linear2);fill-rule:nonzero;"/>
        <path d="M710.376,279.328L710.376,269.44L728.136,269.44L728.136,292.288C728.136,300.736 724.168,304.96 716.232,304.96L704.136,304.96C696.2,304.96 692.232,300.736 692.232,292.288L692.232,253.6C692.232,245.152 696.2,240.928 704.136,240.928L716.232,240.928C724.168,240.928 728.136,245.152 728.136,253.6L728.136,259.456L715.368,259.456L715.368,251.968C715.368,251.456 715.192,251.008 714.84,250.624C714.488,250.24 714.056,250.048 713.544,250.048L707.496,250.048C706.984,250.048 706.552,250.24 706.2,250.624C705.848,251.008 705.672,251.456 705.672,251.968L705.672,293.824C705.672,294.336 705.848,294.784 706.2,295.168C706.552,295.552 706.984,295.744 707.496,295.744L713.544,295.744C714.056,295.744 714.488,295.552 714.84,295.168C715.192,294.784 715.368,294.336 715.368,293.824L715.368,279.328L710.376,279.328Z" style="fill:url(#_Linear3);fill-rule:nonzero;"/>
        <path d="M731.976,253.312L731.976,241.888L765.576,241.888L765.576,253.312L755.496,253.312L755.496,304L742.056,304L742.056,253.312L731.976,253.312Z" style="fill:url(#_Linear4);fill-rule:nonzero;"/>
        <path d="M796.392,240.928C804.328,240.928 808.296,245.152 808.296,253.6L808.296,304L794.856,304L794.856,283.168L785.16,283.168L785.16,304L771.72,304L771.72,253.6C771.72,245.152 775.688,240.928 783.624,240.928L796.392,240.928ZM785.16,272.8L794.856,272.8L794.856,251.968C794.856,251.456 794.68,251.008 794.328,250.624C793.976,250.24 793.544,250.048 793.032,250.048L786.984,250.048C786.472,250.048 786.04,250.24 785.688,250.624C785.336,251.008 785.16,251.456 785.16,251.968L785.16,272.8Z" style="fill:url(#_Linear5);fill-rule:nonzero;"/>
        <rect x="818.28" y="241.888" width="13.44" height="62.112" style="fill:url(#_Linear6);fill-rule:nonzero;"/>
        <path d="M855.144,292.672L869.832,292.672L869.832,304L841.704,304L841.704,241.888L855.144,241.888L855.144,292.672Z" style="fill:url(#_Linear7);fill-rule:nonzero;"/>
        <path d="M930.024,258.208L917.256,258.208L917.256,253.312C917.256,252.8 917.08,252.352 916.728,251.968C916.376,251.584 915.944,251.392 915.432,251.392L910.152,251.392C909.64,251.392 909.208,251.584 908.856,251.968C908.504,252.352 908.328,252.8 908.328,253.312L908.328,264.352C908.328,264.864 908.504,265.312 908.856,265.696C909.208,266.08 909.64,266.272 910.152,266.272L918.792,266.272C926.728,266.4 930.696,270.624 930.696,278.944L930.696,292.288C930.696,300.736 926.728,304.96 918.792,304.96L907.464,304.96C899.528,304.96 895.56,300.736 895.56,292.288L895.56,285.856L908.328,285.856L908.328,292.768C908.328,293.28 908.504,293.728 908.856,294.112C909.208,294.496 909.64,294.688 910.152,294.688L916.104,294.688C916.616,294.688 917.048,294.496 917.4,294.112C917.752,293.728 917.928,293.28 917.928,292.768L917.928,280.576C917.928,280.064 917.752,279.616 917.4,279.232C917.048,278.848 916.616,278.656 916.104,278.656L907.464,278.656C899.528,278.656 895.56,274.432 895.56,265.984L895.56,253.6C895.56,245.152 899.528,240.928 907.464,240.928L918.12,240.928C926.056,240.928 930.024,245.152 930.024,253.6L930.024,258.208Z" style="fill:url(#_Linear8);fill-rule:nonzero;"/>
        <rect x="939.528" y="241.888" width="13.44" height="62.112" style="fill:url(#_Linear9);fill-rule:nonzero;"/>
        <path d="M959.4,253.312L959.4,241.888L993,241.888L993,253.312L982.92,253.312L982.92,304L969.48,304L969.48,253.312L959.4,253.312Z" style="fill:url(#_Linear10);fill-rule:nonzero;"/>
        <path d="M1012.58,292.864L1027.46,292.864L1027.46,304L999.144,304L999.144,241.888L1027.46,241.888L1027.46,252.832L1012.58,252.832L1012.58,267.424L1026.5,267.424L1026.5,277.984L1012.58,277.984L1012.58,292.864Z" style="fill:url(#_Linear11);fill-rule:nonzero;"/>
    </g>
    <g transform="matrix(1,0,0,1,0,-90)">
        <g transform="matrix(0.0384615,0,0,1,323.077,0)">
            <rect x="336" y="90" width="26" height="247" style="fill:url(#_Linear12);"/>
        </g>
        <g transform="matrix(0.0384615,0,0,1,324.077,0)">
            <rect x="336" y="90" width="26" height="247" style="fill:url(#_Linear13);"/>
        </g>
    </g>
    <g transform="matrix(0.60874,0,0,0.60874,-179.578,38.2694)">
        <g id="squares" transform="matrix(1,0,0,1,295,5)">
            <g transform="matrix(0.707107,-0.707107,0.707107,0.707107,-270.59,-94.37)">
                <rect x="77.53" y="317.2" width="48.94" height="48.94" style="fill:rgb(188,190,192);"/>
            </g>
            <g transform="matrix(0.707107,-0.707107,0.707107,0.707107,-151.08,194.17)">
                <rect x="485.59" y="317.2" width="48.94" height="48.94" style="fill:rgb(188,190,192);"/>
            </g>
            <g transform="matrix(0.707107,-0.707107,0.707107,0.707107,-246.72,-36.73)">
                <rect x="159.04" y="317.2" width="48.94" height="48.94" style="fill:rgb(188,190,192);"/>
            </g>
            <g transform="matrix(0.707107,-0.707107,0.707107,0.707107,-222.85,20.9)">
                <rect x="240.54" y="317.2" width="48.94" height="48.94" style="fill:rgb(188,190,192);"/>
            </g>
            <g transform="matrix(0.707107,-0.707107,0.707107,0.707107,-198.98,78.53)">
                <rect x="322.05" y="317.2" width="48.94" height="48.94" style="fill:rgb(188,190,192);"/>
            </g>
            <g transform="matrix(0.707107,-0.707107,0.707107,0.707107,-175.11,136.16)">
                <rect x="403.55" y="317.2" width="48.94" height="48.94" style="fill:rgb(188,190,192);"/>
            </g>
            <g transform="matrix(0.707107,-0.707107,0.707107,0.707107,-263.62,4.28)">
                <rect x="200.09" y="358.11" width="48.94" height="48.94" style="fill:rgb(188,190,192);"/>
            </g>
            <g transform="matrix(0.707107,-0.707107,0.707107,0.707107,-239.75,61.9)">
                <rect x="281.59" y="358.11" width="48.94" height="48.94" style="fill:rgb(188,190,192);"/>
            </g>
            <g transform="matrix(0.707107,-0.707107,0.707107,0.707107,-215.88,119.53)">
                <rect x="363.09" y="358.11" width="48.94" height="48.94" style="fill:rgb(188,190,192);"/>
            </g>
            <g transform="matrix(0.707107,-0.707107,0.707107,0.707107,-206.06,-19.57)">
                <rect x="200.09" y="276.7" width="48.94" height="48.94" style="fill:rgb(188,190,192);"/>
            </g>
            <g transform="matrix(0.707107,-0.707107,0.707107,0.707107,-182.19,38.06)">
                <rect x="281.59" y="276.7" width="48.94" height="48.94" style="fill:rgb(188,190,192);"/>
            </g>
            <g transform="matrix(0.707107,-0.707107,0.707107,0.707107,-158.32,95.69)">
                <rect x="363.09" y="276.7" width="48.94" height="48.94" style="fill:rgb(188,190,192);"/>
            </g>
        </g>
        <g id="line" transform="matrix(1,0,0,1,295,5)">
            <path d="M14.49,71.07L85.72,71.07L124.93,110.28L165.43,69.79L206.14,110.51L287.98,28.67L328.9,69.59L369.39,29.1L411.79,71.5L481.33,71.5L481.33,79.55L408.4,79.55L369.18,40.33L328.47,81.04L287.77,40.33L206.36,121.74L165.65,81.04L125.16,121.53L82.54,78.92L14.06,78.92L14.49,71.07Z" style="fill:rgb(255,210,79);fill-rule:nonzero;stroke:black;stroke-width:1.5px;"/>
            <rect x="0" y="67.79" width="16.54" height="15.26" style="fill:rgb(35,31,32);"/>
            <rect x="476.49" y="67.79" width="16.54" height="15.26" style="fill:rgb(35,31,32);"/>
        </g>
        <g id="text" transform="matrix(1,0,0,1,295,5)">
            <g transform="matrix(1,0,0,1,-58.87,-266.56)">
                <rect x="73.39" y="479" width="20.21" height="57.67" style="fill:rgb(35,31,32);fill-rule:nonzero;"/>
            </g>
            <g transform="matrix(1,0,0,1,-58.87,-266.56)">
                <path d="M198.8,479L242,479L242,491.18L219,491.18L219,501.33L240.05,501.33L240.05,513.5L219,513.5L219,524.5L242.34,524.5L242.34,536.67L198.8,536.67L198.8,479Z" style="fill:rgb(35,31,32);fill-rule:nonzero;"/>
            </g>
            <g transform="matrix(1,0,0,1,-58.87,-266.56)">
                <path d="M341.62,493.44L341.62,479L397.86,479L397.86,493.46L379.86,493.46L379.86,536.67L359.64,536.67L359.64,493.44L341.62,493.44Z" style="fill:rgb(35,31,32);fill-rule:nonzero;"/>
            </g>
            <g transform="matrix(1,0,0,1,-58.87,-266.56)">
                <path d="M499.08,479L541.19,479L541.19,491.18L519.29,491.18L519.29,501.66L539.84,501.66L539.84,513.84L519.29,513.84L519.29,536.67L499.08,536.67L499.08,479Z" style="fill:rgb(35,31,32);fill-rule:nonzero;"/>
            </g>
            <g transform="matrix(1,0,0,1,-58.87,-266.56)">
                <path d="M558.87,478.4C563.995,478.405 568.21,482.625 568.21,487.75C568.21,492.879 563.989,497.1 558.86,497.1C553.735,497.1 549.515,492.885 549.51,487.76C549.51,482.625 553.735,478.4 558.87,478.4ZM558.87,495.29C562.999,495.279 566.39,491.879 566.39,487.75C566.39,483.614 562.986,480.21 558.85,480.21C554.714,480.21 551.31,483.614 551.31,487.75C551.31,487.753 551.31,487.757 551.31,487.76C551.321,491.898 554.732,495.295 558.87,495.29ZM560.8,492.73L559.97,491.12C559.07,489.37 558.36,488.64 557.34,488.64L556.66,488.64L556.66,492.73L554.66,492.73L554.66,482.73L559.66,482.73C559.723,482.726 559.787,482.724 559.85,482.724C561.381,482.724 562.641,483.984 562.641,485.515C562.641,486.975 561.496,488.201 560.04,488.3L560.04,488.35C560.89,488.65 561.09,488.9 562.15,490.68L563.32,492.68L560.8,492.73ZM558.62,487.06C559.92,487.06 560.62,486.53 560.62,485.68C560.62,484.83 559.94,484.32 558.54,484.32L556.71,484.32L556.71,487.06L558.62,487.06Z" style="fill:rgb(35,31,32);fill-rule:nonzero;"/>
            </g>
        </g>
    </g>
    <defs>
        <linearGradient id="_Linear1" x1="0" y1="0" x2="1" y2="0" gradientUnits="userSpaceOnUse" gradientTransform="matrix(4.92112e-15,80.368,-7.5457,4.62041e-16,939.048,235.264)"><stop offset="0" style="stop-color:rgb(61,0,121);stop-opacity:1"/><stop offset="1" style="stop-color:black;stop-opacity:1"/></linearGradient>
        <linearGradient id="_Linear2" x1="0" y1="0" x2="1" y2="0" gradientUnits="userSpaceOnUse" gradientTransform="matrix(4.92112e-15,80.368,-7.5457,4.62041e-16,939.048,235.264)"><stop offset="0" style="stop-color:rgb(61,0,121);stop-opacity:1"/><stop offset="1" style="stop-color:black;stop-opacity:1"/></linearGradient>
        <linearGradient id="_Linear3" x1="0" y1="0" x2="1" y2="0" gradientUnits="userSpaceOnUse" gradientTransform="matrix(4.92112e-15,80.368,-7.5457,4.62041e-16,939.048,235.264)"><stop offset="0" style="stop-color:rgb(61,0,121);stop-opacity:1"/><stop offset="1" style="stop-color:black;stop-opacity:1"/></linearGradient>
        <linearGradient id="_Linear4" x1="0" y1="0" x2="1" y2="0" gradientUnits="userSpaceOnUse" gradientTransform="matrix(4.92112e-15,80.368,-7.5457,4.62041e-16,939.048,235.264)"><stop offset="0" style="stop-color:rgb(61,0,121);stop-opacity:1"/><stop offset="1" style="stop-color:black;stop-opacity:1"/></linearGradient>
        <linearGradient id="_Linear5" x1="0" y1="0" x2="1" y2="0" gradientUnits="userSpaceOnUse" gradientTransform="matrix(4.92112e-15,80.368,-7.5457,4.62041e-16,939.048,235.264)"><stop offset="0" style="stop-color:rgb(61,0,121);stop-opacity:1"/><stop offset="1" style="stop-color:black;stop-opacity:1"/></linearGradient>
        <linearGradient id="_Linear6" x1="0" y1="0" x2="1" y2="0" gradientUnits="userSpaceOnUse" gradientTransform="matrix(4.92112e-15,80.368,-7.5457,4.62041e-16,939.048,235.264)"><stop offset="0" style="stop-color:rgb(61,0,121);stop-opacity:1"/><stop offset="1" style="stop-color:black;stop-opacity:1"/></linearGradient>
        <linearGradient id="_Linear7" x1="0" y1="0" x2="1" y2="0" gradientUnits="userSpaceOnUse" gradientTransform="matrix(4.92112e-15,80.368,-7.5457,4.62041e-16,939.048,235.264)"><stop offset="0" style="stop-color:rgb(61,0,121);stop-opacity:1"/><stop offset="1" style="stop-color:black;stop-opacity:1"/></linearGradient>
        <linearGradient id="_Linear8" x1="0" y1="0" x2="1" y2="0" gradientUnits="userSpaceOnUse" gradientTransform="matrix(4.92112e-15,80.368,-7.5457,4.62041e-16,939.048,235.264)"><stop offset="0" style="stop-color:rgb(61,0,121);stop-opacity:1"/><stop offset="1" style="stop-color:black;stop-opacity:1"/></linearGradient>
        <linearGradient id="_Linear9" x1="0" y1="0" x2="1" y2="0" gradientUnits="userSpaceOnUse" gradientTransform="matrix(4.92112e-15,80.368,-7.5457,4.62041e-16,939.048,235.264)"><stop offset="0" style="stop-color:rgb(61,0,121);stop-opacity:1"/><stop offset="1" style="stop-color:black;stop-opacity:1"/></linearGradient>
        <linearGradient id="_Linear10" x1="0" y1="0" x2="1" y2="0" gradientUnits="userSpaceOnUse" gradientTransform="matrix(4.92112e-15,80.368,-7.5457,4.62041e-16,939.048,235.264)"><stop offset="0" style="stop-color:rgb(61,0,121);stop-opacity:1"/><stop offset="1" style="stop-color:black;stop-opacity:1"/></linearGradient>
        <linearGradient id="_Linear11" x1="0" y1="0" x2="1" y2="0" gradientUnits="userSpaceOnUse" gradientTransform="matrix(4.92112e-15,80.368,-7.5457,4.62041e-16,939.048,235.264)"><stop offset="0" style="stop-color:rgb(61,0,121);stop-opacity:1"/><stop offset="1" style="stop-color:black;stop-opacity:1"/></linearGradient>
        <linearGradient id="_Linear12" x1="0" y1="0" x2="1" y2="0" gradientUnits="userSpaceOnUse" gradientTransform="matrix(1.51244e-14,247,-247,1.51244e-14,349,90)"><stop offset="0" style="stop-color:white;stop-opacity:1"/><stop offset="0.5" style="stop-color:rgb(199,199,199);stop-opacity:1"/><stop offset="1" style="stop-color:white;stop-opacity:1"/></linearGradient>
        <linearGradient id="_Linear13" x1="0" y1="0" x2="1" y2="0" gradientUnits="userSpaceOnUse" gradientTransform="matrix(1.51244e-14,247,-247,1.51244e-14,349,90)"><stop offset="0" style="stop-color:white;stop-opacity:1"/><stop offset="0.5" style="stop-color:rgb(146,146,146);stop-opacity:1"/><stop offset="1" style="stop-color:white;stop-opacity:1"/></linearGradient>
    </defs>
</svg>
