<?xml version="1.0" encoding="UTF-8" standalone="no"?>
<!DOCTYPE svg PUBLIC "-//W3C//DTD SVG 1.1//EN" "http://www.w3.org/Graphics/SVG/1.1/DTD/svg11.dtd">
<svg width="100%" height="100%" viewBox="0 0 1469.1640625 330" version="1.1" xmlns="http://www.w3.org/2000/svg" xmlns:xlink="http://www.w3.org/1999/xlink" xml:space="preserve" xmlns:serif="http://www.serif.com/" style="fill-rule:evenodd;clip-rule:evenodd;stroke-linejoin:round;stroke-miterlimit:2;">
    <path d="M82.912,22.056l-69.362,69.362l69.362,69.363l69.363,-69.363l-69.363,-69.362Z" style="fill:rgb(176,176,176);"/>
    <path d="M82.912,160.781l-69.362,69.363l69.362,69.363l69.363,-69.363l-69.363,-69.363Z" style="fill:rgb(176,176,176);"/>
    <path d="M199.583,0l-94.615,0l-22.056,22.056l69.363,69.362l69.363,-69.362l-22.055,-22.056Z" style="fill:rgb(176,176,176);fill-opacity:0.5;"/>
    <path d="M113.02,329.614l78.511,0l30.107,-30.107l-69.363,-69.363l-69.363,69.363l30.108,30.107Z" style="fill:rgb(176,176,176);fill-opacity:0.5;"/>
    <path d="M0,0l0,77.869l13.55,13.549l69.362,-69.362l-22.055,-22.056l-60.857,-0Z" style="fill:rgb(176,176,176);fill-opacity:0.5;"/>
    <path d="M13.55,368.87l-1.598,-1.597l3.195,-0l-1.597,1.597Zm-13.55,-125.176l0,85.92l52.805,0l30.107,-30.107l-69.362,-69.363l-13.55,13.55Z" style="fill:rgb(176,176,176);fill-opacity:0.5;"/>
    <path d="M0,104.968l0,111.627l13.55,13.549l69.362,-69.363l-69.362,-69.363l-13.55,13.55Z" style="fill:rgb(176,176,176);fill-opacity:0.5;"/>
    <path d="M152.275,91.418l-69.363,69.363l69.363,69.363l69.363,-69.363l-69.363,-69.363Z" style="fill:#7002B9;"/>
    <path d="M221.638,22.056l-69.363,69.362l69.363,69.363l69.363,-69.363l-69.363,-69.362Z" style="fill:#A04DD8;"/>
    <path d="M221.638,160.781l-69.363,69.363l69.363,69.363l69.363,-69.363l-69.363,-69.363Z" style="fill:#A04DD8;"/>
    <path d="M291.001,91.418l-69.363,69.363l69.363,69.363l69.363,-69.363l-69.363,-69.363Z" style="fill:#8202D7;"/>
    <path d="M152.291,110.184l-152.291,152.291l0,-18.781l152.275,-152.276l0.016,0.016l0.016,-0.016l69.543,69.544l69.544,-69.544l9.391,9.391l-78.723,78.722l-0.212,-0.212l-0.212,0.212l-69.347,-69.347Z" style="fill:rgb(255,209,62);"/>
    <path d="M493.38 236L468.38 236L468.38 93.23L493.38 93.23L493.38 236Z" fill="#FFFFFF"/><path d="M587.91 212.76L587.91 236L523.56 236L523.56 93.23L587.91 93.23L587.91 116.18L550.12 116.18L550.12 150.16L585.18 150.16L585.18 173.21L550.12 173.21L550.12 212.76L587.91 212.76Z" fill="#FFFFFF"/><path d="M652.56 116.57L652.56 236L626.10 236L626.10 116.57L598.75 116.57L598.75 93.23L679.91 93.23L679.91 116.57L652.56 116.57Z" fill="#FFFFFF"/><path d="M721.51 178.77L721.51 236L695.14 236L695.14 93.23L759.11 93.23L759.11 116.18L721.51 116.18L721.51 155.82L756.57 155.82L756.57 178.77L721.51 178.77Z" fill="#FFFFFF"/><path d="" fill="#FFFFFF"/><path d="M869.55 180.24L869.55 156.80L913.21 156.80L913.21 230.04Q894.65 237.95 873.75 237.95L873.75 237.95Q848.85 237.95 835.42 219.01Q822.00 200.06 822.00 164.42L822.00 164.42Q822.00 130.04 837.38 110.61Q852.76 91.18 880.39 91.18L880.39 91.18Q897.48 91.18 913.01 99.96L913.01 99.96L904.61 121.64Q892.50 114.61 881.96 114.61L881.96 114.61Q866.82 114.61 857.98 128.14Q849.14 141.66 849.14 165.00L849.14 165.00Q849.14 189.03 855.54 201.82Q861.94 214.61 874.14 214.61L874.14 214.61Q880.59 214.61 887.23 212.95L887.23 212.95L887.23 180.24L869.55 180.24Z" fill="#FFFFFF"/><path d="M996.41 93.23L1022.78 93.23L1022.78 185.61Q1022.78 211.10 1011.25 224.53Q999.73 237.95 977.95 237.95L977.95 237.95Q956.66 237.95 945.53 224.62Q934.40 211.29 934.40 185.22L934.40 185.22L934.40 93.23L960.77 93.23L960.77 187.17Q960.77 214.42 978.83 214.42L978.83 214.42Q987.23 214.42 991.82 207.48Q996.41 200.55 996.41 187.76L996.41 187.76L996.41 93.23Z" fill="#FFFFFF"/><path d="M1077.17 236L1052.17 236L1052.17 93.23L1077.17 93.23L1077.17 236Z" fill="#FFFFFF"/><path d="M1198.17 163.25L1198.17 163.25Q1198.17 198.60 1183.76 217.30Q1169.36 236 1142.31 236L1142.31 236L1107.35 236L1107.35 93.23L1145.53 93.23Q1170.43 93.23 1184.30 111.63Q1198.17 130.04 1198.17 163.25ZM1170.92 164.03L1170.92 164.03Q1170.92 116.18 1144.55 116.18L1144.55 116.18L1133.91 116.18L1133.91 212.76L1142.50 212.76Q1157.05 212.76 1163.99 200.60Q1170.92 188.44 1170.92 164.03Z" fill="#FFFFFF"/><path d="M1283.32 212.76L1283.32 236L1218.97 236L1218.97 93.23L1283.32 93.23L1283.32 116.18L1245.53 116.18L1245.53 150.16L1280.59 150.16L1280.59 173.21L1245.53 173.21L1245.53 212.76L1283.32 212.76Z" fill="#FFFFFF"/><path d="M1369.16 196.64L1369.16 196.64Q1369.16 216.66 1359.06 227.31Q1348.95 237.95 1329.91 237.95L1329.91 237.95Q1311.25 237.95 1298.17 230.63L1298.17 230.63L1298.17 204.36Q1314.18 214.81 1327.56 214.81L1327.56 214.81Q1335.18 214.81 1339.04 210.61Q1342.89 206.41 1342.89 199.18L1342.89 199.18Q1342.89 192.05 1338.30 186.15Q1333.71 180.24 1323.17 173.01L1323.17 173.01Q1313.99 166.66 1309.25 160.85Q1304.52 155.04 1301.93 147.82Q1299.34 140.59 1299.34 131.02L1299.34 131.02Q1299.34 112.66 1309.54 101.92Q1319.75 91.18 1336.94 91.18L1336.94 91.18Q1353.34 91.18 1368.48 100.36L1368.48 100.36L1359.69 121.64Q1355.00 118.91 1349.88 116.76Q1344.75 114.61 1338.89 114.61L1338.89 114.61Q1332.45 114.61 1328.98 118.86Q1325.51 123.11 1325.51 130.43L1325.51 130.43Q1325.51 137.66 1329.66 143.03Q1333.81 148.40 1344.16 155.24L1344.16 155.24Q1358.13 164.61 1363.65 174.38Q1369.16 184.14 1369.16 196.64Z" fill="#FFFFFF"/><path d="M492.38 235L467.38 235L467.38 92.23L492.38 92.23L492.38 235Z" fill="url(#TextGradient)"/><path d="M586.91 211.76L586.91 235L522.56 235L522.56 92.23L586.91 92.23L586.91 115.18L549.12 115.18L549.12 149.16L584.18 149.16L584.18 172.21L549.12 172.21L549.12 211.76L586.91 211.76Z" fill="url(#TextGradient)"/><path d="M651.56 115.57L651.56 235L625.10 235L625.10 115.57L597.75 115.57L597.75 92.23L678.91 92.23L678.91 115.57L651.56 115.57Z" fill="url(#TextGradient)"/><path d="M720.51 177.77L720.51 235L694.14 235L694.14 92.23L758.11 92.23L758.11 115.18L720.51 115.18L720.51 154.82L755.57 154.82L755.57 177.77L720.51 177.77Z" fill="url(#TextGradient)"/><path d="" fill="url(#TextGradient)"/><path d="M868.55 179.24L868.55 155.80L912.21 155.80L912.21 229.04Q893.65 236.95 872.75 236.95L872.75 236.95Q847.85 236.95 834.42 218.01Q821.00 199.06 821.00 163.42L821.00 163.42Q821.00 129.04 836.38 109.61Q851.76 90.18 879.39 90.18L879.39 90.18Q896.48 90.18 912.01 98.96L912.01 98.96L903.61 120.64Q891.50 113.61 880.96 113.61L880.96 113.61Q865.82 113.61 856.98 127.14Q848.14 140.66 848.14 164.00L848.14 164.00Q848.14 188.03 854.54 200.82Q860.94 213.61 873.14 213.61L873.14 213.61Q879.59 213.61 886.23 211.95L886.23 211.95L886.23 179.24L868.55 179.24Z" fill="url(#TextGradient)"/><path d="M995.41 92.23L1021.78 92.23L1021.78 184.61Q1021.78 210.10 1010.25 223.53Q998.73 236.95 976.95 236.95L976.95 236.95Q955.66 236.95 944.53 223.62Q933.40 210.29 933.40 184.22L933.40 184.22L933.40 92.23L959.77 92.23L959.77 186.17Q959.77 213.42 977.83 213.42L977.83 213.42Q986.23 213.42 990.82 206.48Q995.41 199.55 995.41 186.76L995.41 186.76L995.41 92.23Z" fill="url(#TextGradient)"/><path d="M1076.17 235L1051.17 235L1051.17 92.23L1076.17 92.23L1076.17 235Z" fill="url(#TextGradient)"/><path d="M1197.17 162.25L1197.17 162.25Q1197.17 197.60 1182.76 216.30Q1168.36 235 1141.31 235L1141.31 235L1106.35 235L1106.35 92.23L1144.53 92.23Q1169.43 92.23 1183.30 110.63Q1197.17 129.04 1197.17 162.25ZM1169.92 163.03L1169.92 163.03Q1169.92 115.18 1143.55 115.18L1143.55 115.18L1132.91 115.18L1132.91 211.76L1141.50 211.76Q1156.05 211.76 1162.99 199.60Q1169.92 187.44 1169.92 163.03Z" fill="url(#TextGradient)"/><path d="M1282.32 211.76L1282.32 235L1217.97 235L1217.97 92.23L1282.32 92.23L1282.32 115.18L1244.53 115.18L1244.53 149.16L1279.59 149.16L1279.59 172.21L1244.53 172.21L1244.53 211.76L1282.32 211.76Z" fill="url(#TextGradient)"/><path d="M1368.16 195.64L1368.16 195.64Q1368.16 215.66 1358.06 226.31Q1347.95 236.95 1328.91 236.95L1328.91 236.95Q1310.25 236.95 1297.17 229.63L1297.17 229.63L1297.17 203.36Q1313.18 213.81 1326.56 213.81L1326.56 213.81Q1334.18 213.81 1338.04 209.61Q1341.89 205.41 1341.89 198.18L1341.89 198.18Q1341.89 191.05 1337.30 185.15Q1332.71 179.24 1322.17 172.01L1322.17 172.01Q1312.99 165.66 1308.25 159.85Q1303.52 154.04 1300.93 146.82Q1298.34 139.59 1298.34 130.02L1298.34 130.02Q1298.34 111.66 1308.54 100.92Q1318.75 90.18 1335.94 90.18L1335.94 90.18Q1352.34 90.18 1367.48 99.36L1367.48 99.36L1358.69 120.64Q1354.00 117.91 1348.88 115.76Q1343.75 113.61 1337.89 113.61L1337.89 113.61Q1331.45 113.61 1327.98 117.86Q1324.51 122.11 1324.51 129.43L1324.51 129.43Q1324.51 136.66 1328.66 142.03Q1332.81 147.40 1343.16 154.24L1343.16 154.24Q1357.13 163.61 1362.65 173.38Q1368.16 183.14 1368.16 195.64Z" fill="url(#TextGradient)"/>
    <defs>
        <linearGradient id="TextGradient" x1="0" y1="0" x2="0" y2="1">
            <stop offset="0" style="stop-color:#580291;stop-opacity:1"/>
            <stop offset="1" style="stop-color:#8202D7;stop-opacity:1"/>
        </linearGradient>
    </defs>
</svg>
