<?xml version="1.0" encoding="UTF-8" standalone="no"?>
<!DOCTYPE svg PUBLIC "-//W3C//DTD SVG 1.1//EN" "http://www.w3.org/Graphics/SVG/1.1/DTD/svg11.dtd">
<svg width="100%" height="100%" viewBox="0 0 1575 407" version="1.1" xmlns="http://www.w3.org/2000/svg" xmlns:xlink="http://www.w3.org/1999/xlink" xml:space="preserve" xmlns:serif="http://www.serif.com/" style="fill-rule:evenodd;clip-rule:evenodd;">
    <g transform="matrix(1.86389,0,0,1.85954,-454.789,-383.405)">
        <rect x="244" y="206.183" width="406" height="218.817" style="fill:white;"/>
    </g>
    <g transform="matrix(2.01542,0,0,1.85954,264.977,-383.405)">
        <rect x="244" y="206.183" width="406" height="218.817" style="fill:url(#_Linear1);"/>
    </g>
    <g transform="matrix(1.17158,0,0,0.991807,-182.372,0.815036)">
        <rect x="860.907" y="99.481" width="639.093" height="209.692" style="fill:url(#_Linear2);"/>
    </g>
    <g transform="matrix(1,0,0,1,668.838,-96.6333)">
        <g transform="matrix(85.3333,0,0,85.3333,260.127,330)">
            <path d="M0.236,-0L0.236,-0.59L0.004,-0.59L0.004,-0.7L0.598,-0.7L0.598,-0.59L0.366,-0.59L0.366,-0L0.236,-0Z" style="fill:white;fill-rule:nonzero;"/>
        </g>
        <g transform="matrix(85.3333,0,0,85.3333,310.644,330)">
            <path d="M0.422,0.01C0.367,0.01 0.317,0.001 0.271,-0.017C0.225,-0.035 0.185,-0.06 0.151,-0.093C0.117,-0.125 0.091,-0.163 0.072,-0.206C0.053,-0.25 0.044,-0.298 0.044,-0.35C0.044,-0.402 0.053,-0.45 0.072,-0.494C0.091,-0.537 0.117,-0.575 0.151,-0.608C0.185,-0.64 0.225,-0.665 0.271,-0.683C0.317,-0.701 0.367,-0.71 0.421,-0.71C0.476,-0.71 0.526,-0.701 0.572,-0.683C0.617,-0.665 0.657,-0.64 0.691,-0.608C0.725,-0.575 0.751,-0.537 0.77,-0.494C0.789,-0.45 0.798,-0.402 0.798,-0.35C0.798,-0.298 0.789,-0.25 0.77,-0.206C0.751,-0.162 0.725,-0.124 0.691,-0.092C0.657,-0.06 0.617,-0.035 0.572,-0.017C0.526,0.001 0.476,0.01 0.422,0.01ZM0.421,-0.104C0.456,-0.104 0.489,-0.11 0.519,-0.122C0.549,-0.134 0.575,-0.151 0.597,-0.173C0.619,-0.196 0.636,-0.222 0.649,-0.252C0.661,-0.281 0.667,-0.314 0.667,-0.35C0.667,-0.386 0.661,-0.419 0.649,-0.449C0.636,-0.478 0.619,-0.504 0.597,-0.527C0.575,-0.549 0.549,-0.566 0.519,-0.578C0.489,-0.59 0.456,-0.596 0.421,-0.596C0.386,-0.596 0.353,-0.59 0.324,-0.578C0.294,-0.566 0.268,-0.549 0.246,-0.527C0.223,-0.504 0.206,-0.478 0.194,-0.449C0.181,-0.419 0.175,-0.386 0.175,-0.35C0.175,-0.315 0.181,-0.282 0.194,-0.252C0.206,-0.222 0.223,-0.196 0.245,-0.173C0.267,-0.151 0.293,-0.134 0.323,-0.122C0.353,-0.11 0.386,-0.104 0.421,-0.104Z" style="fill:white;fill-rule:nonzero;"/>
        </g>
        <g transform="matrix(85.3333,0,0,85.3333,382.495,330)">
            <path d="M0.422,0.01C0.367,0.01 0.317,0.001 0.271,-0.017C0.225,-0.035 0.185,-0.06 0.151,-0.093C0.117,-0.125 0.091,-0.163 0.072,-0.206C0.053,-0.25 0.044,-0.298 0.044,-0.35C0.044,-0.402 0.053,-0.45 0.072,-0.494C0.091,-0.537 0.117,-0.575 0.151,-0.608C0.185,-0.64 0.225,-0.665 0.271,-0.683C0.317,-0.701 0.367,-0.71 0.421,-0.71C0.476,-0.71 0.526,-0.701 0.572,-0.683C0.617,-0.665 0.657,-0.64 0.691,-0.608C0.725,-0.575 0.751,-0.537 0.77,-0.494C0.789,-0.45 0.798,-0.402 0.798,-0.35C0.798,-0.298 0.789,-0.25 0.77,-0.206C0.751,-0.162 0.725,-0.124 0.691,-0.092C0.657,-0.06 0.617,-0.035 0.572,-0.017C0.526,0.001 0.476,0.01 0.422,0.01ZM0.421,-0.104C0.456,-0.104 0.489,-0.11 0.519,-0.122C0.549,-0.134 0.575,-0.151 0.597,-0.173C0.619,-0.196 0.636,-0.222 0.649,-0.252C0.661,-0.281 0.667,-0.314 0.667,-0.35C0.667,-0.386 0.661,-0.419 0.649,-0.449C0.636,-0.478 0.619,-0.504 0.597,-0.527C0.575,-0.549 0.549,-0.566 0.519,-0.578C0.489,-0.59 0.456,-0.596 0.421,-0.596C0.386,-0.596 0.353,-0.59 0.324,-0.578C0.294,-0.566 0.268,-0.549 0.246,-0.527C0.223,-0.504 0.206,-0.478 0.194,-0.449C0.181,-0.419 0.175,-0.386 0.175,-0.35C0.175,-0.315 0.181,-0.282 0.194,-0.252C0.206,-0.222 0.223,-0.196 0.245,-0.173C0.267,-0.151 0.293,-0.134 0.323,-0.122C0.353,-0.11 0.386,-0.104 0.421,-0.104Z" style="fill:white;fill-rule:nonzero;"/>
        </g>
        <g transform="matrix(85.3333,0,0,85.3333,454.346,330)">
            <path d="M0.094,-0L0.094,-0.7L0.224,-0.7L0.224,-0.11L0.59,-0.11L0.59,-0L0.094,-0Z" style="fill:white;fill-rule:nonzero;"/>
        </g>
        <g transform="matrix(85.3333,0,0,85.3333,505.034,330)">
            <path d="M0.311,0.01C0.256,0.01 0.204,0.002 0.154,-0.014C0.104,-0.029 0.064,-0.049 0.035,-0.074L0.08,-0.175C0.108,-0.153 0.143,-0.135 0.184,-0.12C0.225,-0.105 0.268,-0.098 0.311,-0.098C0.348,-0.098 0.377,-0.102 0.4,-0.11C0.423,-0.118 0.439,-0.129 0.45,-0.142C0.461,-0.156 0.466,-0.172 0.466,-0.189C0.466,-0.21 0.458,-0.228 0.443,-0.241C0.428,-0.254 0.408,-0.264 0.384,-0.272C0.359,-0.279 0.332,-0.286 0.303,-0.293C0.273,-0.3 0.243,-0.308 0.214,-0.317C0.184,-0.326 0.157,-0.337 0.133,-0.352C0.108,-0.366 0.088,-0.385 0.073,-0.409C0.058,-0.433 0.05,-0.464 0.05,-0.501C0.05,-0.539 0.06,-0.574 0.081,-0.606C0.101,-0.637 0.132,-0.663 0.173,-0.682C0.215,-0.701 0.268,-0.71 0.332,-0.71C0.374,-0.71 0.416,-0.705 0.457,-0.694C0.498,-0.683 0.534,-0.668 0.565,-0.648L0.524,-0.547C0.493,-0.566 0.46,-0.58 0.427,-0.589C0.394,-0.598 0.362,-0.602 0.331,-0.602C0.295,-0.602 0.266,-0.598 0.244,-0.589C0.221,-0.58 0.205,-0.569 0.195,-0.555C0.184,-0.541 0.179,-0.525 0.179,-0.507C0.179,-0.486 0.187,-0.469 0.202,-0.456C0.217,-0.443 0.236,-0.432 0.261,-0.425C0.285,-0.418 0.312,-0.41 0.342,-0.404C0.372,-0.397 0.402,-0.389 0.432,-0.38C0.461,-0.371 0.488,-0.36 0.513,-0.346C0.537,-0.332 0.557,-0.313 0.572,-0.289C0.587,-0.265 0.594,-0.235 0.594,-0.198C0.594,-0.161 0.584,-0.126 0.564,-0.095C0.543,-0.063 0.512,-0.038 0.47,-0.019C0.428,0 0.375,0.01 0.311,0.01Z" style="fill:white;fill-rule:nonzero;"/>
        </g>
        <g transform="matrix(85.3333,0,0,85.3333,582.26,330)">
            <path d="M0.236,-0L0.236,-0.59L0.004,-0.59L0.004,-0.7L0.598,-0.7L0.598,-0.59L0.366,-0.59L0.366,-0L0.236,-0Z" style="fill:white;fill-rule:nonzero;"/>
        </g>
        <g transform="matrix(85.3333,0,0,85.3333,633.631,330)">
            <path d="M0.214,-0.409L0.562,-0.409L0.562,-0.302L0.214,-0.302L0.214,-0.409ZM0.224,-0.109L0.619,-0.109L0.619,-0L0.094,-0L0.094,-0.7L0.605,-0.7L0.605,-0.591L0.224,-0.591L0.224,-0.109Z" style="fill:white;fill-rule:nonzero;"/>
        </g>
        <g transform="matrix(85.3333,0,0,85.3333,690.804,330)">
            <path d="M-0.005,-0L0.31,-0.7L0.438,-0.7L0.754,-0L0.618,-0L0.347,-0.631L0.399,-0.631L0.129,-0L-0.005,-0ZM0.14,-0.162L0.175,-0.264L0.553,-0.264L0.588,-0.162L0.14,-0.162Z" style="fill:white;fill-rule:nonzero;"/>
        </g>
        <g transform="matrix(85.3333,0,0,85.3333,754.719,330)">
            <path d="M0.094,-0L0.094,-0.7L0.201,-0.7L0.507,-0.189L0.451,-0.189L0.752,-0.7L0.859,-0.7L0.86,-0L0.737,-0L0.736,-0.507L0.762,-0.507L0.506,-0.08L0.448,-0.08L0.188,-0.507L0.218,-0.507L0.218,-0L0.094,-0Z" style="fill:white;fill-rule:nonzero;"/>
        </g>
    </g>
    <g id="ietf-logo.svg" transform="matrix(1.33333,0,0,1.33333,279.545,203.5)">
        <g transform="matrix(1,0,0,1,-155.5,-82.5)">
            <g transform="matrix(0.60874,0,0,0.60874,-179.578,-3.04105)">
                <g id="squares" transform="matrix(1,0,0,1,295,5)">
                    <g transform="matrix(0.707107,-0.707107,0.707107,0.707107,-270.59,-94.37)">
                        <rect x="77.53" y="317.2" width="48.94" height="48.94" style="fill:rgb(188,190,192);"/>
                    </g>
                    <g transform="matrix(0.707107,-0.707107,0.707107,0.707107,-151.08,194.17)">
                        <rect x="485.59" y="317.2" width="48.94" height="48.94" style="fill:rgb(188,190,192);"/>
                    </g>
                    <g transform="matrix(0.707107,-0.707107,0.707107,0.707107,-246.72,-36.73)">
                        <rect x="159.04" y="317.2" width="48.94" height="48.94" style="fill:rgb(188,190,192);"/>
                    </g>
                    <g transform="matrix(0.707107,-0.707107,0.707107,0.707107,-222.85,20.9)">
                        <rect x="240.54" y="317.2" width="48.94" height="48.94" style="fill:rgb(188,190,192);"/>
                    </g>
                    <g transform="matrix(0.707107,-0.707107,0.707107,0.707107,-198.98,78.53)">
                        <rect x="322.05" y="317.2" width="48.94" height="48.94" style="fill:rgb(188,190,192);"/>
                    </g>
                    <g transform="matrix(0.707107,-0.707107,0.707107,0.707107,-175.11,136.16)">
                        <rect x="403.55" y="317.2" width="48.94" height="48.94" style="fill:rgb(188,190,192);"/>
                    </g>
                    <g transform="matrix(0.707107,-0.707107,0.707107,0.707107,-263.62,4.28)">
                        <rect x="200.09" y="358.11" width="48.94" height="48.94" style="fill:rgb(188,190,192);"/>
                    </g>
                    <g transform="matrix(0.707107,-0.707107,0.707107,0.707107,-239.75,61.9)">
                        <rect x="281.59" y="358.11" width="48.94" height="48.94" style="fill:rgb(188,190,192);"/>
                    </g>
                    <g transform="matrix(0.707107,-0.707107,0.707107,0.707107,-215.88,119.53)">
                        <rect x="363.09" y="358.11" width="48.94" height="48.94" style="fill:rgb(188,190,192);"/>
                    </g>
                    <g transform="matrix(0.707107,-0.707107,0.707107,0.707107,-206.06,-19.57)">
                        <rect x="200.09" y="276.7" width="48.94" height="48.94" style="fill:rgb(188,190,192);"/>
                    </g>
                    <g transform="matrix(0.707107,-0.707107,0.707107,0.707107,-182.19,38.06)">
                        <rect x="281.59" y="276.7" width="48.94" height="48.94" style="fill:rgb(188,190,192);"/>
                    </g>
                    <g transform="matrix(0.707107,-0.707107,0.707107,0.707107,-158.32,95.69)">
                        <rect x="363.09" y="276.7" width="48.94" height="48.94" style="fill:rgb(188,190,192);"/>
                    </g>
                </g>
                <g id="line" transform="matrix(1,0,0,1,295,5)">
                    <path d="M14.49,71.07L85.72,71.07L124.93,110.28L165.43,69.79L206.14,110.51L287.98,28.67L328.9,69.59L369.39,29.1L411.79,71.5L481.33,71.5L481.33,79.55L408.4,79.55L369.18,40.33L328.47,81.04L287.77,40.33L206.36,121.74L165.65,81.04L125.16,121.53L82.54,78.92L14.06,78.92L14.49,71.07Z" style="fill:rgb(255,210,79);fill-rule:nonzero;stroke:black;stroke-width:1.5px;"/>
                    <rect x="0" y="67.79" width="16.54" height="15.26" style="fill:rgb(35,31,32);"/>
                    <rect x="476.49" y="67.79" width="16.54" height="15.26" style="fill:rgb(35,31,32);"/>
                </g>
                <g id="text" transform="matrix(1,0,0,1,295,5)">
                    <g transform="matrix(1,0,0,1,-58.87,-266.56)">
                        <rect x="73.39" y="479" width="20.21" height="57.67" style="fill:rgb(35,31,32);"/>
                    </g>
                    <g transform="matrix(1,0,0,1,-58.87,-266.56)">
                        <path d="M198.8,479L242,479L242,491.18L219,491.18L219,501.33L240.05,501.33L240.05,513.5L219,513.5L219,524.5L242.34,524.5L242.34,536.67L198.8,536.67L198.8,479Z" style="fill:rgb(35,31,32);fill-rule:nonzero;"/>
                    </g>
                    <g transform="matrix(1,0,0,1,-58.87,-266.56)">
                        <path d="M341.62,493.44L341.62,479L397.86,479L397.86,493.46L379.86,493.46L379.86,536.67L359.64,536.67L359.64,493.44L341.62,493.44Z" style="fill:rgb(35,31,32);fill-rule:nonzero;"/>
                    </g>
                    <g transform="matrix(1,0,0,1,-58.87,-266.56)">
                        <path d="M499.08,479L541.19,479L541.19,491.18L519.29,491.18L519.29,501.66L539.84,501.66L539.84,513.84L519.29,513.84L519.29,536.67L499.08,536.67L499.08,479Z" style="fill:rgb(35,31,32);fill-rule:nonzero;"/>
                    </g>
                    <g transform="matrix(1,0,0,1,-58.87,-266.56)">
                        <path d="M558.87,478.4C563.995,478.405 568.21,482.625 568.21,487.75C568.21,492.879 563.989,497.1 558.86,497.1C553.735,497.1 549.515,492.885 549.51,487.76C549.51,482.625 553.735,478.4 558.87,478.4ZM558.87,495.29C562.999,495.279 566.39,491.879 566.39,487.75C566.39,483.614 562.986,480.21 558.85,480.21C554.714,480.21 551.31,483.614 551.31,487.75L551.31,487.76C551.321,491.898 554.732,495.295 558.87,495.29ZM560.8,492.73L559.97,491.12C559.07,489.37 558.36,488.64 557.34,488.64L556.66,488.64L556.66,492.73L554.66,492.73L554.66,482.73L559.66,482.73C559.723,482.726 559.787,482.724 559.85,482.724C561.381,482.724 562.641,483.984 562.641,485.515C562.641,486.975 561.496,488.201 560.04,488.3L560.04,488.35C560.89,488.65 561.09,488.9 562.15,490.68L563.32,492.68L560.8,492.73ZM558.62,487.06C559.92,487.06 560.62,486.53 560.62,485.68C560.62,484.83 559.94,484.32 558.54,484.32L556.71,484.32L556.71,487.06L558.62,487.06Z" style="fill:rgb(35,31,32);fill-rule:nonzero;"/>
                    </g>
                </g>
            </g>
        </g>
    </g>
    <g transform="matrix(0.707107,-0.707107,0.707107,0.707107,391.944,168.227)">
        <rect x="184.1" y="233.984" width="98.094" height="98.094" style="fill:rgb(176,176,176);"/>
    </g>
    <g transform="matrix(0.353044,-0.353044,0.353553,0.353553,609.216,255.057)">
        <rect x="184.1" y="233.984" width="98.094" height="98.094" style="fill:rgb(11,140,197);"/>
    </g>
    <g transform="matrix(0.353044,-0.353044,0.353553,0.353553,643.873,289.739)">
        <rect x="184.1" y="233.984" width="98.094" height="98.094" style="fill:rgb(3,160,213);"/>
    </g>
    <g transform="matrix(0.353044,-0.353044,0.353553,0.353553,643.873,220.401)">
        <rect x="184.1" y="233.984" width="98.094" height="98.094" style="fill:rgb(3,160,213);"/>
    </g>
    <g transform="matrix(0.353044,-0.353044,0.353553,0.353553,609.216,116.382)">
        <rect x="184.1" y="233.984" width="98.094" height="98.094" style="fill:rgb(11,140,197);"/>
    </g>
    <g transform="matrix(0.353044,-0.353044,0.353553,0.353553,643.873,151.038)">
        <rect x="184.1" y="233.984" width="98.094" height="98.094" style="fill:rgb(3,160,213);"/>
    </g>
    <g transform="matrix(0.353044,-0.353044,0.353553,0.353553,643.873,81.6503)">
        <rect x="184.1" y="233.984" width="98.094" height="98.094" style="fill:rgb(3,160,213);"/>
    </g>
    <path d="M752.349,407L761.526,407L826.3,342.226L756.937,272.863L687.575,342.226L752.349,407Z" style="fill:rgb(176,176,176);"/>
    <g transform="matrix(0.707107,-0.707107,0.707107,0.707107,322.581,98.864)">
        <rect x="184.1" y="233.984" width="98.094" height="98.094" style="fill:rgb(176,176,176);fill-opacity:0.5;"/>
    </g>
    <g transform="matrix(0.707107,-0.707107,0.707107,0.707107,322.581,-39.8618)">
        <path d="M275.705,332.078L184.1,240.473L184.1,332.078L275.705,332.078Z" style="fill:rgb(176,176,176);fill-opacity:0.25;"/>
    </g>
    <g transform="matrix(0.707107,-0.707107,0.707107,0.707107,253.218,168.227)">
        <rect x="184.1" y="233.984" width="98.094" height="98.094" style="fill:rgb(176,176,176);fill-opacity:0.25;"/>
    </g>
    <g transform="matrix(0.707107,-0.707107,0.707107,0.707107,322.581,376.315)">
        <path d="M282.194,233.984L190.59,233.984L282.194,325.589L282.194,233.984Z" style="fill:rgb(176,176,176);fill-opacity:0.25;"/>
    </g>
    <g transform="matrix(0.707107,-0.707107,0.707107,0.707107,322.581,237.59)">
        <rect x="184.1" y="233.984" width="98.094" height="98.094" style="fill:rgb(176,176,176);fill-opacity:0.5;"/>
    </g>
    <path d="M761.526,0L752.349,0L687.575,64.774L756.937,134.137L826.3,64.774L761.526,0Z" style="fill:rgb(176,176,176);"/>
    <defs>
        <linearGradient id="_Linear1" x1="0" y1="0" x2="1" y2="0" gradientUnits="userSpaceOnUse" gradientTransform="matrix(405.892,0,0,399.594,244.108,315.591)"><stop offset="0" style="stop-color:rgb(229,230,230);stop-opacity:1"/><stop offset="1" style="stop-color:rgb(216,216,216);stop-opacity:1"/></linearGradient>
        <linearGradient id="_Linear2" x1="0" y1="0" x2="1" y2="0" gradientUnits="userSpaceOnUse" gradientTransform="matrix(639.093,0,0,679.315,860.907,204.309)"><stop offset="0" style="stop-color:rgb(80,178,223);stop-opacity:1"/><stop offset="1" style="stop-color:rgb(6,129,186);stop-opacity:1"/></linearGradient>
    </defs>
</svg>
