<?xml version="1.0" encoding="UTF-8" standalone="no"?>
<!DOCTYPE svg PUBLIC "-//W3C//DTD SVG 1.1//EN" "http://www.w3.org/Graphics/SVG/1.1/DTD/svg11.dtd">
<svg width="100%" height="100%" viewBox="0 0 855 250" version="1.1" xmlns="http://www.w3.org/2000/svg" xmlns:xlink="http://www.w3.org/1999/xlink" xml:space="preserve" xmlns:serif="http://www.serif.com/" style="fill-rule:evenodd;clip-rule:evenodd;">
    <g transform="matrix(1.39872,0,0,1.39872,-433.55,-256.931)">
        <path d="M612.264,258.208L599.496,258.208L599.496,253.312C599.496,252.8 599.32,252.352 598.968,251.968C598.616,251.584 598.184,251.392 597.672,251.392L592.392,251.392C591.88,251.392 591.448,251.584 591.096,251.968C590.744,252.352 590.568,252.8 590.568,253.312L590.568,264.352C590.568,264.864 590.744,265.312 591.096,265.696C591.448,266.08 591.88,266.272 592.392,266.272L601.032,266.272C608.968,266.4 612.936,270.624 612.936,278.944L612.936,292.288C612.936,300.736 608.968,304.96 601.032,304.96L589.704,304.96C581.768,304.96 577.8,300.736 577.8,292.288L577.8,285.856L590.568,285.856L590.568,292.768C590.568,293.28 590.744,293.728 591.096,294.112C591.448,294.496 591.88,294.688 592.392,294.688L598.344,294.688C598.856,294.688 599.288,294.496 599.64,294.112C599.992,293.728 600.168,293.28 600.168,292.768L600.168,280.576C600.168,280.064 599.992,279.616 599.64,279.232C599.288,278.848 598.856,278.656 598.344,278.656L589.704,278.656C581.768,278.656 577.8,274.432 577.8,265.984L577.8,253.6C577.8,245.152 581.768,240.928 589.704,240.928L600.36,240.928C608.296,240.928 612.264,245.152 612.264,253.6L612.264,258.208Z" style="fill:url(#_Linear1);fill-rule:nonzero;"/>
        <path d="M646.824,241.888L659.784,241.888L646.92,304L631.464,304L618.6,241.888L631.656,241.888L639.24,287.2L646.824,241.888Z" style="fill:url(#_Linear2);fill-rule:nonzero;"/>
        <path d="M684.552,279.328L684.552,269.44L702.312,269.44L702.312,292.288C702.312,300.736 698.344,304.96 690.408,304.96L678.312,304.96C670.376,304.96 666.408,300.736 666.408,292.288L666.408,253.6C666.408,245.152 670.376,240.928 678.312,240.928L690.408,240.928C698.344,240.928 702.312,245.152 702.312,253.6L702.312,259.456L689.544,259.456L689.544,251.968C689.544,251.456 689.368,251.008 689.016,250.624C688.664,250.24 688.232,250.048 687.72,250.048L681.672,250.048C681.16,250.048 680.728,250.24 680.376,250.624C680.024,251.008 679.848,251.456 679.848,251.968L679.848,293.824C679.848,294.336 680.024,294.784 680.376,295.168C680.728,295.552 681.16,295.744 681.672,295.744L687.72,295.744C688.232,295.744 688.664,295.552 689.016,295.168C689.368,294.784 689.544,294.336 689.544,293.824L689.544,279.328L684.552,279.328Z" style="fill:url(#_Linear3);fill-rule:nonzero;"/>
        <path d="M732.84,293.824L732.84,284.224L745.608,284.224L745.608,292.288C745.608,300.736 741.64,304.96 733.704,304.96L721.608,304.96C713.672,304.96 709.704,300.736 709.704,292.288L709.704,253.6C709.704,245.152 713.672,240.928 721.608,240.928L733.704,240.928C741.64,240.928 745.608,245.152 745.608,253.6L745.608,259.456L732.84,259.456L732.84,251.968C732.84,251.456 732.664,251.008 732.312,250.624C731.96,250.24 731.528,250.048 731.016,250.048L724.968,250.048C724.456,250.048 724.024,250.24 723.672,250.624C723.32,251.008 723.144,251.456 723.144,251.968L723.144,293.824C723.144,294.336 723.32,294.784 723.672,295.168C724.024,295.552 724.456,295.744 724.968,295.744L731.016,295.744C731.528,295.744 731.96,295.552 732.312,295.168C732.664,294.784 732.84,294.336 732.84,293.824Z" style="fill:url(#_Linear4);fill-rule:nonzero;"/>
        <path d="M767.112,279.616L767.112,304L753.672,304L753.672,241.888L767.112,241.888L767.112,267.904L777.768,267.904L777.768,241.888L791.208,241.888L791.208,304L777.768,304L777.768,279.616L767.112,279.616Z" style="fill:url(#_Linear5);fill-rule:nonzero;"/>
        <path d="M814.248,292.864L829.128,292.864L829.128,304L800.808,304L800.808,241.888L829.128,241.888L829.128,252.832L814.248,252.832L814.248,267.424L828.168,267.424L828.168,277.984L814.248,277.984L814.248,292.864Z" style="fill:url(#_Linear6);fill-rule:nonzero;"/>
        <path d="M860.04,293.824L860.04,284.224L872.808,284.224L872.808,292.288C872.808,300.736 868.84,304.96 860.904,304.96L848.808,304.96C840.872,304.96 836.904,300.736 836.904,292.288L836.904,253.6C836.904,245.152 840.872,240.928 848.808,240.928L860.904,240.928C868.84,240.928 872.808,245.152 872.808,253.6L872.808,259.456L860.04,259.456L860.04,251.968C860.04,251.456 859.864,251.008 859.512,250.624C859.16,250.24 858.728,250.048 858.216,250.048L852.168,250.048C851.656,250.048 851.224,250.24 850.872,250.624C850.52,251.008 850.344,251.456 850.344,251.968L850.344,293.824C850.344,294.336 850.52,294.784 850.872,295.168C851.224,295.552 851.656,295.744 852.168,295.744L858.216,295.744C858.728,295.744 859.16,295.552 859.512,295.168C859.864,294.784 860.04,294.336 860.04,293.824Z" style="fill:url(#_Linear7);fill-rule:nonzero;"/>
        <path d="M919.56,241.888L909,270.4L921.576,304L907.848,304L898.632,279.424L894.312,279.424L894.312,304L880.872,304L880.872,241.888L894.312,241.888L894.312,267.904L897.576,267.904L907.272,241.888L919.56,241.888Z" style="fill:url(#_Linear8);fill-rule:nonzero;"/>
    </g>
    <g transform="matrix(1,0,0,1,0,-90)">
        <g transform="matrix(0.0384615,0,0,1,323.077,0)">
            <rect x="336" y="90" width="26" height="247" style="fill:url(#_Linear9);"/>
        </g>
        <g transform="matrix(0.0384615,0,0,1,324.077,0)">
            <rect x="336" y="90" width="26" height="247" style="fill:url(#_Linear10);"/>
        </g>
    </g>
    <g transform="matrix(0.60874,0,0,0.60874,-179.578,38.2694)">
        <g id="squares" transform="matrix(1,0,0,1,295,5)">
            <g transform="matrix(0.707107,-0.707107,0.707107,0.707107,-270.59,-94.37)">
                <rect x="77.53" y="317.2" width="48.94" height="48.94" style="fill:rgb(188,190,192);"/>
            </g>
            <g transform="matrix(0.707107,-0.707107,0.707107,0.707107,-151.08,194.17)">
                <rect x="485.59" y="317.2" width="48.94" height="48.94" style="fill:rgb(188,190,192);"/>
            </g>
            <g transform="matrix(0.707107,-0.707107,0.707107,0.707107,-246.72,-36.73)">
                <rect x="159.04" y="317.2" width="48.94" height="48.94" style="fill:rgb(188,190,192);"/>
            </g>
            <g transform="matrix(0.707107,-0.707107,0.707107,0.707107,-222.85,20.9)">
                <rect x="240.54" y="317.2" width="48.94" height="48.94" style="fill:rgb(188,190,192);"/>
            </g>
            <g transform="matrix(0.707107,-0.707107,0.707107,0.707107,-198.98,78.53)">
                <rect x="322.05" y="317.2" width="48.94" height="48.94" style="fill:rgb(188,190,192);"/>
            </g>
            <g transform="matrix(0.707107,-0.707107,0.707107,0.707107,-175.11,136.16)">
                <rect x="403.55" y="317.2" width="48.94" height="48.94" style="fill:rgb(188,190,192);"/>
            </g>
            <g transform="matrix(0.707107,-0.707107,0.707107,0.707107,-263.62,4.28)">
                <rect x="200.09" y="358.11" width="48.94" height="48.94" style="fill:rgb(188,190,192);"/>
            </g>
            <g transform="matrix(0.707107,-0.707107,0.707107,0.707107,-239.75,61.9)">
                <rect x="281.59" y="358.11" width="48.94" height="48.94" style="fill:rgb(188,190,192);"/>
            </g>
            <g transform="matrix(0.707107,-0.707107,0.707107,0.707107,-215.88,119.53)">
                <rect x="363.09" y="358.11" width="48.94" height="48.94" style="fill:rgb(188,190,192);"/>
            </g>
            <g transform="matrix(0.707107,-0.707107,0.707107,0.707107,-206.06,-19.57)">
                <rect x="200.09" y="276.7" width="48.94" height="48.94" style="fill:rgb(188,190,192);"/>
            </g>
            <g transform="matrix(0.707107,-0.707107,0.707107,0.707107,-182.19,38.06)">
                <rect x="281.59" y="276.7" width="48.94" height="48.94" style="fill:rgb(188,190,192);"/>
            </g>
            <g transform="matrix(0.707107,-0.707107,0.707107,0.707107,-158.32,95.69)">
                <rect x="363.09" y="276.7" width="48.94" height="48.94" style="fill:rgb(188,190,192);"/>
            </g>
        </g>
        <g id="line" transform="matrix(1,0,0,1,295,5)">
            <path d="M14.49,71.07L85.72,71.07L124.93,110.28L165.43,69.79L206.14,110.51L287.98,28.67L328.9,69.59L369.39,29.1L411.79,71.5L481.33,71.5L481.33,79.55L408.4,79.55L369.18,40.33L328.47,81.04L287.77,40.33L206.36,121.74L165.65,81.04L125.16,121.53L82.54,78.92L14.06,78.92L14.49,71.07Z" style="fill:rgb(255,210,79);fill-rule:nonzero;stroke:black;stroke-width:1.5px;"/>
            <rect x="0" y="67.79" width="16.54" height="15.26" style="fill:rgb(35,31,32);"/>
            <rect x="476.49" y="67.79" width="16.54" height="15.26" style="fill:rgb(35,31,32);"/>
        </g>
        <g id="text" transform="matrix(1,0,0,1,295,5)">
            <g transform="matrix(1,0,0,1,-58.87,-266.56)">
                <rect x="73.39" y="479" width="20.21" height="57.67" style="fill:rgb(35,31,32);"/>
            </g>
            <g transform="matrix(1,0,0,1,-58.87,-266.56)">
                <path d="M198.8,479L242,479L242,491.18L219,491.18L219,501.33L240.05,501.33L240.05,513.5L219,513.5L219,524.5L242.34,524.5L242.34,536.67L198.8,536.67L198.8,479Z" style="fill:rgb(35,31,32);fill-rule:nonzero;"/>
            </g>
            <g transform="matrix(1,0,0,1,-58.87,-266.56)">
                <path d="M341.62,493.44L341.62,479L397.86,479L397.86,493.46L379.86,493.46L379.86,536.67L359.64,536.67L359.64,493.44L341.62,493.44Z" style="fill:rgb(35,31,32);fill-rule:nonzero;"/>
            </g>
            <g transform="matrix(1,0,0,1,-58.87,-266.56)">
                <path d="M499.08,479L541.19,479L541.19,491.18L519.29,491.18L519.29,501.66L539.84,501.66L539.84,513.84L519.29,513.84L519.29,536.67L499.08,536.67L499.08,479Z" style="fill:rgb(35,31,32);fill-rule:nonzero;"/>
            </g>
            <g transform="matrix(1,0,0,1,-58.87,-266.56)">
                <path d="M558.87,478.4C563.995,478.405 568.21,482.625 568.21,487.75C568.21,492.879 563.989,497.1 558.86,497.1C553.735,497.1 549.515,492.885 549.51,487.76C549.51,482.625 553.735,478.4 558.87,478.4ZM558.87,495.29C562.999,495.279 566.39,491.879 566.39,487.75C566.39,483.614 562.986,480.21 558.85,480.21C554.714,480.21 551.31,483.614 551.31,487.75L551.31,487.76C551.321,491.898 554.732,495.295 558.87,495.29ZM560.8,492.73L559.97,491.12C559.07,489.37 558.36,488.64 557.34,488.64L556.66,488.64L556.66,492.73L554.66,492.73L554.66,482.73L559.66,482.73C559.723,482.726 559.787,482.724 559.85,482.724C561.381,482.724 562.641,483.984 562.641,485.515C562.641,486.975 561.496,488.201 560.04,488.3L560.04,488.35C560.89,488.65 561.09,488.9 562.15,490.68L563.32,492.68L560.8,492.73ZM558.62,487.06C559.92,487.06 560.62,486.53 560.62,485.68C560.62,484.83 559.94,484.32 558.54,484.32L556.71,484.32L556.71,487.06L558.62,487.06Z" style="fill:rgb(35,31,32);fill-rule:nonzero;"/>
            </g>
        </g>
    </g>
    <defs>
        <linearGradient id="_Linear1" x1="0" y1="0" x2="1" y2="0" gradientUnits="userSpaceOnUse" gradientTransform="matrix(4.92112e-15,80.368,-7.5457,4.62041e-16,939.048,235.264)"><stop offset="0" style="stop-color:rgb(0,39,121);stop-opacity:1"/><stop offset="1" style="stop-color:black;stop-opacity:1"/></linearGradient>
        <linearGradient id="_Linear2" x1="0" y1="0" x2="1" y2="0" gradientUnits="userSpaceOnUse" gradientTransform="matrix(4.92112e-15,80.368,-7.5457,4.62041e-16,939.048,235.264)"><stop offset="0" style="stop-color:rgb(0,39,121);stop-opacity:1"/><stop offset="1" style="stop-color:black;stop-opacity:1"/></linearGradient>
        <linearGradient id="_Linear3" x1="0" y1="0" x2="1" y2="0" gradientUnits="userSpaceOnUse" gradientTransform="matrix(4.92112e-15,80.368,-7.5457,4.62041e-16,939.048,235.264)"><stop offset="0" style="stop-color:rgb(0,39,121);stop-opacity:1"/><stop offset="1" style="stop-color:black;stop-opacity:1"/></linearGradient>
        <linearGradient id="_Linear4" x1="0" y1="0" x2="1" y2="0" gradientUnits="userSpaceOnUse" gradientTransform="matrix(4.92112e-15,80.368,-7.5457,4.62041e-16,939.048,235.264)"><stop offset="0" style="stop-color:rgb(0,39,121);stop-opacity:1"/><stop offset="1" style="stop-color:black;stop-opacity:1"/></linearGradient>
        <linearGradient id="_Linear5" x1="0" y1="0" x2="1" y2="0" gradientUnits="userSpaceOnUse" gradientTransform="matrix(4.92112e-15,80.368,-7.5457,4.62041e-16,939.048,235.264)"><stop offset="0" style="stop-color:rgb(0,39,121);stop-opacity:1"/><stop offset="1" style="stop-color:black;stop-opacity:1"/></linearGradient>
        <linearGradient id="_Linear6" x1="0" y1="0" x2="1" y2="0" gradientUnits="userSpaceOnUse" gradientTransform="matrix(4.92112e-15,80.368,-7.5457,4.62041e-16,939.048,235.264)"><stop offset="0" style="stop-color:rgb(0,39,121);stop-opacity:1"/><stop offset="1" style="stop-color:black;stop-opacity:1"/></linearGradient>
        <linearGradient id="_Linear7" x1="0" y1="0" x2="1" y2="0" gradientUnits="userSpaceOnUse" gradientTransform="matrix(4.92112e-15,80.368,-7.5457,4.62041e-16,939.048,235.264)"><stop offset="0" style="stop-color:rgb(0,39,121);stop-opacity:1"/><stop offset="1" style="stop-color:black;stop-opacity:1"/></linearGradient>
        <linearGradient id="_Linear8" x1="0" y1="0" x2="1" y2="0" gradientUnits="userSpaceOnUse" gradientTransform="matrix(4.92112e-15,80.368,-7.5457,4.62041e-16,939.048,235.264)"><stop offset="0" style="stop-color:rgb(0,39,121);stop-opacity:1"/><stop offset="1" style="stop-color:black;stop-opacity:1"/></linearGradient>
        <linearGradient id="_Linear9" x1="0" y1="0" x2="1" y2="0" gradientUnits="userSpaceOnUse" gradientTransform="matrix(1.51244e-14,247,-247,1.51244e-14,349,90)"><stop offset="0" style="stop-color:white;stop-opacity:1"/><stop offset="0.5" style="stop-color:rgb(199,199,199);stop-opacity:1"/><stop offset="1" style="stop-color:white;stop-opacity:1"/></linearGradient>
        <linearGradient id="_Linear10" x1="0" y1="0" x2="1" y2="0" gradientUnits="userSpaceOnUse" gradientTransform="matrix(1.51244e-14,247,-247,1.51244e-14,349,90)"><stop offset="0" style="stop-color:white;stop-opacity:1"/><stop offset="0.5" style="stop-color:rgb(146,146,146);stop-opacity:1"/><stop offset="1" style="stop-color:white;stop-opacity:1"/></linearGradient>
    </defs>
</svg>
