<?xml version="1.0" encoding="UTF-8" standalone="no"?>
<!DOCTYPE svg PUBLIC "-//W3C//DTD SVG 1.1//EN" "http://www.w3.org/Graphics/SVG/1.1/DTD/svg11.dtd">
<svg width="100%" height="100%" viewBox="0 0 823 270" version="1.1" xmlns="http://www.w3.org/2000/svg" xmlns:xlink="http://www.w3.org/1999/xlink" xml:space="preserve" xmlns:serif="http://www.serif.com/" style="fill-rule:evenodd;clip-rule:evenodd;">
    <rect x="0" y="0" width="823" height="270" style="fill:white;"/>
    <g transform="matrix(1.39872,0,0,1.39872,-423.548,-248.273)">
        <path d="M613.8,241.888L603.912,272.896L615.048,304L601.032,304L594.504,282.304L587.976,304L573.864,304L585,272.896L575.304,241.888L588.36,241.888L594.504,261.952L600.648,241.888L613.8,241.888Z" style="fill:url(#_Linear1);fill-rule:nonzero;"/>
        <path d="M634.44,304L621,304L621,253.6C621,245.152 624.968,240.928 632.904,240.928L640.008,240.928C644.68,240.928 648.008,242.464 649.992,245.536C651.848,242.464 655.176,240.928 659.976,240.928L667.08,240.928C675.016,240.928 678.984,245.152 678.984,253.6L678.984,304L665.544,304L665.544,252.448C665.544,251.936 665.368,251.488 665.016,251.104C664.664,250.72 664.232,250.528 663.72,250.528L658.536,250.528C658.024,250.528 657.592,250.72 657.24,251.104C656.888,251.488 656.712,251.936 656.712,252.448L656.712,304L643.272,304L643.272,252.448C643.272,251.936 643.096,251.488 642.744,251.104C642.392,250.72 641.96,250.528 641.448,250.528L636.264,250.528C635.752,250.528 635.32,250.72 634.968,251.104C634.616,251.488 634.44,251.936 634.44,252.448L634.44,304Z" style="fill:url(#_Linear2);fill-rule:nonzero;"/>
        <path d="M701.64,292.672L716.328,292.672L716.328,304L688.2,304L688.2,241.888L701.64,241.888L701.64,292.672Z" style="fill:url(#_Linear3);fill-rule:nonzero;"/>
        <path d="M735.816,282.688L735.816,292.96L756.552,292.96L756.552,304L723.528,304L723.528,281.632C723.528,273.184 727.496,268.96 735.432,268.96L743.112,268.96C743.624,268.96 744.056,268.768 744.408,268.384C744.76,268 744.936,267.552 744.936,267.04L744.936,253.312C744.936,252.8 744.76,252.352 744.408,251.968C744.056,251.584 743.624,251.392 743.112,251.392L737.448,251.392C736.936,251.392 736.504,251.584 736.152,251.968C735.8,252.352 735.624,252.8 735.624,253.312L735.624,258.208L722.856,258.208L722.856,253.6C722.856,245.152 726.824,240.928 734.76,240.928L745.416,240.928C753.352,240.928 757.32,245.152 757.32,253.6L757.32,268.096C757.32,276.544 753.352,280.768 745.416,280.768L737.64,280.768C737.128,280.768 736.696,280.96 736.344,281.344C735.992,281.728 735.816,282.176 735.816,282.688Z" style="fill:url(#_Linear4);fill-rule:nonzero;"/>
        <path d="M780.648,278.56L780.648,304L767.208,304L767.208,241.888L791.112,241.888C799.048,241.888 803.016,246.112 803.016,254.56L803.016,261.76C803.016,266.88 801.192,270.144 797.544,271.552C800.744,272.704 802.344,275.328 802.344,279.424L802.344,304L788.904,304L788.904,280.48C788.904,279.2 788.296,278.56 787.08,278.56L780.648,278.56ZM780.648,251.008L780.648,269.152L787.752,269.152C788.264,269.152 788.696,268.96 789.048,268.576C789.4,268.192 789.576,267.744 789.576,267.232L789.576,252.928C789.576,252.416 789.4,251.968 789.048,251.584C788.696,251.2 788.264,251.008 787.752,251.008L780.648,251.008Z" style="fill:url(#_Linear5);fill-rule:nonzero;"/>
        <path d="M825.096,279.616L825.096,304L811.656,304L811.656,241.888L839.688,241.888L839.688,253.504L825.096,253.504L825.096,268.384L838.728,268.384L838.728,279.616L825.096,279.616Z" style="fill:url(#_Linear6);fill-rule:nonzero;"/>
        <path d="M870.696,293.824L870.696,284.224L883.464,284.224L883.464,292.288C883.464,300.736 879.496,304.96 871.56,304.96L859.464,304.96C851.528,304.96 847.56,300.736 847.56,292.288L847.56,253.6C847.56,245.152 851.528,240.928 859.464,240.928L871.56,240.928C879.496,240.928 883.464,245.152 883.464,253.6L883.464,259.456L870.696,259.456L870.696,251.968C870.696,251.456 870.52,251.008 870.168,250.624C869.816,250.24 869.384,250.048 868.872,250.048L862.824,250.048C862.312,250.048 861.88,250.24 861.528,250.624C861.176,251.008 861,251.456 861,251.968L861,293.824C861,294.336 861.176,294.784 861.528,295.168C861.88,295.552 862.312,295.744 862.824,295.744L868.872,295.744C869.384,295.744 869.816,295.552 870.168,295.168C870.52,294.784 870.696,294.336 870.696,293.824Z" style="fill:url(#_Linear7);fill-rule:nonzero;"/>
    </g>
    <g transform="matrix(1,0,0,1,10,-80)">
        <g transform="matrix(0.0384615,0,0,1,323.077,0)">
            <rect x="336" y="90" width="26" height="247" style="fill:url(#_Linear8);"/>
        </g>
        <g transform="matrix(0.0384615,0,0,1,324.077,0)">
            <rect x="336" y="90" width="26" height="247" style="fill:url(#_Linear9);"/>
        </g>
    </g>
    <g transform="matrix(0.60874,0,0,0.60874,-169.578,48.2694)">
        <g id="squares" transform="matrix(1,0,0,1,295,5)">
            <g transform="matrix(0.707107,-0.707107,0.707107,0.707107,-270.59,-94.37)">
                <rect x="77.53" y="317.2" width="48.94" height="48.94" style="fill:rgb(188,190,192);"/>
            </g>
            <g transform="matrix(0.707107,-0.707107,0.707107,0.707107,-151.08,194.17)">
                <rect x="485.59" y="317.2" width="48.94" height="48.94" style="fill:rgb(188,190,192);"/>
            </g>
            <g transform="matrix(0.707107,-0.707107,0.707107,0.707107,-246.72,-36.73)">
                <rect x="159.04" y="317.2" width="48.94" height="48.94" style="fill:rgb(188,190,192);"/>
            </g>
            <g transform="matrix(0.707107,-0.707107,0.707107,0.707107,-222.85,20.9)">
                <rect x="240.54" y="317.2" width="48.94" height="48.94" style="fill:rgb(188,190,192);"/>
            </g>
            <g transform="matrix(0.707107,-0.707107,0.707107,0.707107,-198.98,78.53)">
                <rect x="322.05" y="317.2" width="48.94" height="48.94" style="fill:rgb(188,190,192);"/>
            </g>
            <g transform="matrix(0.707107,-0.707107,0.707107,0.707107,-175.11,136.16)">
                <rect x="403.55" y="317.2" width="48.94" height="48.94" style="fill:rgb(188,190,192);"/>
            </g>
            <g transform="matrix(0.707107,-0.707107,0.707107,0.707107,-263.62,4.28)">
                <rect x="200.09" y="358.11" width="48.94" height="48.94" style="fill:rgb(188,190,192);"/>
            </g>
            <g transform="matrix(0.707107,-0.707107,0.707107,0.707107,-239.75,61.9)">
                <rect x="281.59" y="358.11" width="48.94" height="48.94" style="fill:rgb(188,190,192);"/>
            </g>
            <g transform="matrix(0.707107,-0.707107,0.707107,0.707107,-215.88,119.53)">
                <rect x="363.09" y="358.11" width="48.94" height="48.94" style="fill:rgb(188,190,192);"/>
            </g>
            <g transform="matrix(0.707107,-0.707107,0.707107,0.707107,-206.06,-19.57)">
                <rect x="200.09" y="276.7" width="48.94" height="48.94" style="fill:rgb(188,190,192);"/>
            </g>
            <g transform="matrix(0.707107,-0.707107,0.707107,0.707107,-182.19,38.06)">
                <rect x="281.59" y="276.7" width="48.94" height="48.94" style="fill:rgb(188,190,192);"/>
            </g>
            <g transform="matrix(0.707107,-0.707107,0.707107,0.707107,-158.32,95.69)">
                <rect x="363.09" y="276.7" width="48.94" height="48.94" style="fill:rgb(188,190,192);"/>
            </g>
        </g>
        <g id="line" transform="matrix(1,0,0,1,295,5)">
            <path d="M14.49,71.07L85.72,71.07L124.93,110.28L165.43,69.79L206.14,110.51L287.98,28.67L328.9,69.59L369.39,29.1L411.79,71.5L481.33,71.5L481.33,79.55L408.4,79.55L369.18,40.33L328.47,81.04L287.77,40.33L206.36,121.74L165.65,81.04L125.16,121.53L82.54,78.92L14.06,78.92L14.49,71.07Z" style="fill:rgb(255,210,79);fill-rule:nonzero;stroke:black;stroke-width:1.5px;"/>
            <rect x="0" y="67.79" width="16.54" height="15.26" style="fill:rgb(35,31,32);"/>
            <rect x="476.49" y="67.79" width="16.54" height="15.26" style="fill:rgb(35,31,32);"/>
        </g>
        <g id="text" transform="matrix(1,0,0,1,295,5)">
            <g transform="matrix(1,0,0,1,-58.87,-266.56)">
                <rect x="73.39" y="479" width="20.21" height="57.67" style="fill:rgb(35,31,32);fill-rule:nonzero;"/>
            </g>
            <g transform="matrix(1,0,0,1,-58.87,-266.56)">
                <path d="M198.8,479L242,479L242,491.18L219,491.18L219,501.33L240.05,501.33L240.05,513.5L219,513.5L219,524.5L242.34,524.5L242.34,536.67L198.8,536.67L198.8,479Z" style="fill:rgb(35,31,32);fill-rule:nonzero;"/>
            </g>
            <g transform="matrix(1,0,0,1,-58.87,-266.56)">
                <path d="M341.62,493.44L341.62,479L397.86,479L397.86,493.46L379.86,493.46L379.86,536.67L359.64,536.67L359.64,493.44L341.62,493.44Z" style="fill:rgb(35,31,32);fill-rule:nonzero;"/>
            </g>
            <g transform="matrix(1,0,0,1,-58.87,-266.56)">
                <path d="M499.08,479L541.19,479L541.19,491.18L519.29,491.18L519.29,501.66L539.84,501.66L539.84,513.84L519.29,513.84L519.29,536.67L499.08,536.67L499.08,479Z" style="fill:rgb(35,31,32);fill-rule:nonzero;"/>
            </g>
            <g transform="matrix(1,0,0,1,-58.87,-266.56)">
                <path d="M558.87,478.4C563.995,478.405 568.21,482.625 568.21,487.75C568.21,492.879 563.989,497.1 558.86,497.1C553.735,497.1 549.515,492.885 549.51,487.76C549.51,482.625 553.735,478.4 558.87,478.4ZM558.87,495.29C562.999,495.279 566.39,491.879 566.39,487.75C566.39,483.614 562.986,480.21 558.85,480.21C554.714,480.21 551.31,483.614 551.31,487.75C551.31,487.753 551.31,487.757 551.31,487.76C551.321,491.898 554.732,495.295 558.87,495.29ZM560.8,492.73L559.97,491.12C559.07,489.37 558.36,488.64 557.34,488.64L556.66,488.64L556.66,492.73L554.66,492.73L554.66,482.73L559.66,482.73C559.723,482.726 559.787,482.724 559.85,482.724C561.381,482.724 562.641,483.984 562.641,485.515C562.641,486.975 561.496,488.201 560.04,488.3L560.04,488.35C560.89,488.65 561.09,488.9 562.15,490.68L563.32,492.68L560.8,492.73ZM558.62,487.06C559.92,487.06 560.62,486.53 560.62,485.68C560.62,484.83 559.94,484.32 558.54,484.32L556.71,484.32L556.71,487.06L558.62,487.06Z" style="fill:rgb(35,31,32);fill-rule:nonzero;"/>
            </g>
        </g>
    </g>
    <defs>
        <linearGradient id="_Linear1" x1="0" y1="0" x2="1" y2="0" gradientUnits="userSpaceOnUse" gradientTransform="matrix(4.92112e-15,80.368,-7.5457,4.62041e-16,939.048,235.264)"><stop offset="0" style="stop-color:rgb(0,39,121);stop-opacity:1"/><stop offset="1" style="stop-color:black;stop-opacity:1"/></linearGradient>
        <linearGradient id="_Linear2" x1="0" y1="0" x2="1" y2="0" gradientUnits="userSpaceOnUse" gradientTransform="matrix(4.92112e-15,80.368,-7.5457,4.62041e-16,939.048,235.264)"><stop offset="0" style="stop-color:rgb(0,39,121);stop-opacity:1"/><stop offset="1" style="stop-color:black;stop-opacity:1"/></linearGradient>
        <linearGradient id="_Linear3" x1="0" y1="0" x2="1" y2="0" gradientUnits="userSpaceOnUse" gradientTransform="matrix(4.92112e-15,80.368,-7.5457,4.62041e-16,939.048,235.264)"><stop offset="0" style="stop-color:rgb(0,39,121);stop-opacity:1"/><stop offset="1" style="stop-color:black;stop-opacity:1"/></linearGradient>
        <linearGradient id="_Linear4" x1="0" y1="0" x2="1" y2="0" gradientUnits="userSpaceOnUse" gradientTransform="matrix(4.92112e-15,80.368,-7.5457,4.62041e-16,939.048,235.264)"><stop offset="0" style="stop-color:rgb(0,39,121);stop-opacity:1"/><stop offset="1" style="stop-color:black;stop-opacity:1"/></linearGradient>
        <linearGradient id="_Linear5" x1="0" y1="0" x2="1" y2="0" gradientUnits="userSpaceOnUse" gradientTransform="matrix(4.92112e-15,80.368,-7.5457,4.62041e-16,939.048,235.264)"><stop offset="0" style="stop-color:rgb(0,39,121);stop-opacity:1"/><stop offset="1" style="stop-color:black;stop-opacity:1"/></linearGradient>
        <linearGradient id="_Linear6" x1="0" y1="0" x2="1" y2="0" gradientUnits="userSpaceOnUse" gradientTransform="matrix(4.92112e-15,80.368,-7.5457,4.62041e-16,939.048,235.264)"><stop offset="0" style="stop-color:rgb(0,39,121);stop-opacity:1"/><stop offset="1" style="stop-color:black;stop-opacity:1"/></linearGradient>
        <linearGradient id="_Linear7" x1="0" y1="0" x2="1" y2="0" gradientUnits="userSpaceOnUse" gradientTransform="matrix(4.92112e-15,80.368,-7.5457,4.62041e-16,939.048,235.264)"><stop offset="0" style="stop-color:rgb(0,39,121);stop-opacity:1"/><stop offset="1" style="stop-color:black;stop-opacity:1"/></linearGradient>
        <linearGradient id="_Linear8" x1="0" y1="0" x2="1" y2="0" gradientUnits="userSpaceOnUse" gradientTransform="matrix(1.51244e-14,247,-247,1.51244e-14,349,90)"><stop offset="0" style="stop-color:white;stop-opacity:1"/><stop offset="0.5" style="stop-color:rgb(199,199,199);stop-opacity:1"/><stop offset="1" style="stop-color:white;stop-opacity:1"/></linearGradient>
        <linearGradient id="_Linear9" x1="0" y1="0" x2="1" y2="0" gradientUnits="userSpaceOnUse" gradientTransform="matrix(1.51244e-14,247,-247,1.51244e-14,349,90)"><stop offset="0" style="stop-color:white;stop-opacity:1"/><stop offset="0.5" style="stop-color:rgb(146,146,146);stop-opacity:1"/><stop offset="1" style="stop-color:white;stop-opacity:1"/></linearGradient>
    </defs>
</svg>
