<?xml version="1.0" encoding="UTF-8" standalone="no"?>
<!DOCTYPE svg PUBLIC "-//W3C//DTD SVG 1.1//EN" "http://www.w3.org/Graphics/SVG/1.1/DTD/svg11.dtd">
<svg width="100%" height="100%" viewBox="0 0 1329 250" version="1.1" xmlns="http://www.w3.org/2000/svg" xmlns:xlink="http://www.w3.org/1999/xlink" xml:space="preserve" xmlns:serif="http://www.serif.com/" style="fill-rule:evenodd;clip-rule:evenodd;">
    <g transform="matrix(1.39872,0,0,1.39872,-433.548,-258.273)">
        <path d="M591.24,278.56L591.24,304L577.8,304L577.8,241.888L601.704,241.888C609.64,241.888 613.608,246.112 613.608,254.56L613.608,261.76C613.608,266.88 611.784,270.144 608.136,271.552C611.336,272.704 612.936,275.328 612.936,279.424L612.936,304L599.496,304L599.496,280.48C599.496,279.2 598.888,278.56 597.672,278.56L591.24,278.56ZM591.24,251.008L591.24,269.152L598.344,269.152C598.856,269.152 599.288,268.96 599.64,268.576C599.992,268.192 600.168,267.744 600.168,267.232L600.168,252.928C600.168,252.416 599.992,251.968 599.64,251.584C599.288,251.2 598.856,251.008 598.344,251.008L591.24,251.008Z" style="fill:url(#_Linear1);fill-rule:nonzero;"/>
        <path d="M635.688,279.616L635.688,304L622.248,304L622.248,241.888L650.28,241.888L650.28,253.504L635.688,253.504L635.688,268.384L649.32,268.384L649.32,279.616L635.688,279.616Z" style="fill:url(#_Linear2);fill-rule:nonzero;"/>
        <path d="M681.288,293.824L681.288,284.224L694.056,284.224L694.056,292.288C694.056,300.736 690.088,304.96 682.152,304.96L670.056,304.96C662.12,304.96 658.152,300.736 658.152,292.288L658.152,253.6C658.152,245.152 662.12,240.928 670.056,240.928L682.152,240.928C690.088,240.928 694.056,245.152 694.056,253.6L694.056,259.456L681.288,259.456L681.288,251.968C681.288,251.456 681.112,251.008 680.76,250.624C680.408,250.24 679.976,250.048 679.464,250.048L673.416,250.048C672.904,250.048 672.472,250.24 672.12,250.624C671.768,251.008 671.592,251.456 671.592,251.968L671.592,293.824C671.592,294.336 671.768,294.784 672.12,295.168C672.472,295.552 672.904,295.744 673.416,295.744L679.464,295.744C679.976,295.744 680.408,295.552 680.76,295.168C681.112,294.784 681.288,294.336 681.288,293.824Z" style="fill:url(#_Linear3);fill-rule:nonzero;"/>
        <path d="M698.568,253.312L698.568,241.888L732.168,241.888L732.168,253.312L722.088,253.312L722.088,304L708.648,304L708.648,253.312L698.568,253.312Z" style="fill:url(#_Linear4);fill-rule:nonzero;"/>
        <path d="M774.888,253.6L774.888,292.288C774.888,300.736 770.92,304.96 762.984,304.96L750.216,304.96C742.28,304.96 738.312,300.736 738.312,292.288L738.312,253.6C738.312,245.152 742.28,240.928 750.216,240.928L762.984,240.928C770.92,240.928 774.888,245.152 774.888,253.6ZM761.448,293.824L761.448,251.968C761.448,251.456 761.272,251.008 760.92,250.624C760.568,250.24 760.136,250.048 759.624,250.048L753.576,250.048C753.064,250.048 752.632,250.24 752.28,250.624C751.928,251.008 751.752,251.456 751.752,251.968L751.752,293.824C751.752,294.336 751.928,294.784 752.28,295.168C752.632,295.552 753.064,295.744 753.576,295.744L759.624,295.744C760.136,295.744 760.568,295.552 760.92,295.168C761.272,294.784 761.448,294.336 761.448,293.824Z" style="fill:url(#_Linear5);fill-rule:nonzero;"/>
        <path d="M821.352,253.6L821.352,292.288C821.352,300.736 817.384,304.96 809.448,304.96L796.68,304.96C788.744,304.96 784.776,300.736 784.776,292.288L784.776,253.6C784.776,245.152 788.744,240.928 796.68,240.928L809.448,240.928C817.384,240.928 821.352,245.152 821.352,253.6ZM807.912,293.824L807.912,251.968C807.912,251.456 807.736,251.008 807.384,250.624C807.032,250.24 806.6,250.048 806.088,250.048L800.04,250.048C799.528,250.048 799.096,250.24 798.744,250.624C798.392,251.008 798.216,251.456 798.216,251.968L798.216,293.824C798.216,294.336 798.392,294.784 798.744,295.168C799.096,295.552 799.528,295.744 800.04,295.744L806.088,295.744C806.6,295.744 807.032,295.552 807.384,295.168C807.736,294.784 807.912,294.336 807.912,293.824Z" style="fill:url(#_Linear6);fill-rule:nonzero;"/>
        <path d="M844.68,292.672L859.368,292.672L859.368,304L831.24,304L831.24,241.888L844.68,241.888L844.68,292.672Z" style="fill:url(#_Linear7);fill-rule:nonzero;"/>
        <path d="M900.168,258.208L887.4,258.208L887.4,253.312C887.4,252.8 887.224,252.352 886.872,251.968C886.52,251.584 886.088,251.392 885.576,251.392L880.296,251.392C879.784,251.392 879.352,251.584 879,251.968C878.648,252.352 878.472,252.8 878.472,253.312L878.472,264.352C878.472,264.864 878.648,265.312 879,265.696C879.352,266.08 879.784,266.272 880.296,266.272L888.936,266.272C896.872,266.4 900.84,270.624 900.84,278.944L900.84,292.288C900.84,300.736 896.872,304.96 888.936,304.96L877.608,304.96C869.672,304.96 865.704,300.736 865.704,292.288L865.704,285.856L878.472,285.856L878.472,292.768C878.472,293.28 878.648,293.728 879,294.112C879.352,294.496 879.784,294.688 880.296,294.688L886.248,294.688C886.76,294.688 887.192,294.496 887.544,294.112C887.896,293.728 888.072,293.28 888.072,292.768L888.072,280.576C888.072,280.064 887.896,279.616 887.544,279.232C887.192,278.848 886.76,278.656 886.248,278.656L877.608,278.656C869.672,278.656 865.704,274.432 865.704,265.984L865.704,253.6C865.704,245.152 869.672,240.928 877.608,240.928L888.264,240.928C896.2,240.928 900.168,245.152 900.168,253.6L900.168,258.208Z" style="fill:url(#_Linear8);fill-rule:nonzero;"/>
        <rect x="910.248" y="270.784" width="32.736" height="10.272" style="fill:url(#_Linear9);fill-rule:nonzero;"/>
        <path d="M976.104,293.824L976.104,284.224L988.872,284.224L988.872,292.288C988.872,300.736 984.904,304.96 976.968,304.96L964.872,304.96C956.936,304.96 952.968,300.736 952.968,292.288L952.968,253.6C952.968,245.152 956.936,240.928 964.872,240.928L976.968,240.928C984.904,240.928 988.872,245.152 988.872,253.6L988.872,259.456L976.104,259.456L976.104,251.968C976.104,251.456 975.928,251.008 975.576,250.624C975.224,250.24 974.792,250.048 974.28,250.048L968.232,250.048C967.72,250.048 967.288,250.24 966.936,250.624C966.584,251.008 966.408,251.456 966.408,251.968L966.408,293.824C966.408,294.336 966.584,294.784 966.936,295.168C967.288,295.552 967.72,295.744 968.232,295.744L974.28,295.744C974.792,295.744 975.224,295.552 975.576,295.168C975.928,294.784 976.104,294.336 976.104,293.824Z" style="fill:url(#_Linear10);fill-rule:nonzero;"/>
        <path d="M1033.51,253.6L1033.51,292.288C1033.51,300.736 1029.54,304.96 1021.61,304.96L1008.84,304.96C1000.9,304.96 996.936,300.736 996.936,292.288L996.936,253.6C996.936,245.152 1000.9,240.928 1008.84,240.928L1021.61,240.928C1029.54,240.928 1033.51,245.152 1033.51,253.6ZM1020.07,293.824L1020.07,251.968C1020.07,251.456 1019.9,251.008 1019.54,250.624C1019.19,250.24 1018.76,250.048 1018.25,250.048L1012.2,250.048C1011.69,250.048 1011.26,250.24 1010.9,250.624C1010.55,251.008 1010.38,251.456 1010.38,251.968L1010.38,293.824C1010.38,294.336 1010.55,294.784 1010.9,295.168C1011.26,295.552 1011.69,295.744 1012.2,295.744L1018.25,295.744C1018.76,295.744 1019.19,295.552 1019.54,295.168C1019.9,294.784 1020.07,294.336 1020.07,293.824Z" style="fill:url(#_Linear11);fill-rule:nonzero;"/>
        <path d="M1056.74,304L1043.3,304L1043.3,253.6C1043.3,245.152 1047.27,240.928 1055.21,240.928L1062.31,240.928C1066.98,240.928 1070.31,242.464 1072.3,245.536C1074.15,242.464 1077.48,240.928 1082.28,240.928L1089.38,240.928C1097.32,240.928 1101.29,245.152 1101.29,253.6L1101.29,304L1087.85,304L1087.85,252.448C1087.85,251.936 1087.67,251.488 1087.32,251.104C1086.97,250.72 1086.54,250.528 1086.02,250.528L1080.84,250.528C1080.33,250.528 1079.9,250.72 1079.54,251.104C1079.19,251.488 1079.02,251.936 1079.02,252.448L1079.02,304L1065.58,304L1065.58,252.448C1065.58,251.936 1065.4,251.488 1065.05,251.104C1064.7,250.72 1064.26,250.528 1063.75,250.528L1058.57,250.528C1058.06,250.528 1057.62,250.72 1057.27,251.104C1056.92,251.488 1056.74,251.936 1056.74,252.448L1056.74,304Z" style="fill:url(#_Linear12);fill-rule:nonzero;"/>
        <path d="M1123.85,304L1110.41,304L1110.41,253.6C1110.41,245.152 1114.38,240.928 1122.31,240.928L1129.42,240.928C1134.09,240.928 1137.42,242.464 1139.4,245.536C1141.26,242.464 1144.58,240.928 1149.38,240.928L1156.49,240.928C1164.42,240.928 1168.39,245.152 1168.39,253.6L1168.39,304L1154.95,304L1154.95,252.448C1154.95,251.936 1154.78,251.488 1154.42,251.104C1154.07,250.72 1153.64,250.528 1153.13,250.528L1147.94,250.528C1147.43,250.528 1147,250.72 1146.65,251.104C1146.3,251.488 1146.12,251.936 1146.12,252.448L1146.12,304L1132.68,304L1132.68,252.448C1132.68,251.936 1132.5,251.488 1132.15,251.104C1131.8,250.72 1131.37,250.528 1130.86,250.528L1125.67,250.528C1125.16,250.528 1124.73,250.72 1124.38,251.104C1124.02,251.488 1123.85,251.936 1123.85,252.448L1123.85,304Z" style="fill:url(#_Linear13);fill-rule:nonzero;"/>
        <path d="M1214.18,253.6L1214.18,292.288C1214.18,300.736 1210.22,304.96 1202.28,304.96L1189.51,304.96C1181.58,304.96 1177.61,300.736 1177.61,292.288L1177.61,253.6C1177.61,245.152 1181.58,240.928 1189.51,240.928L1202.28,240.928C1210.22,240.928 1214.18,245.152 1214.18,253.6ZM1200.74,293.824L1200.74,251.968C1200.74,251.456 1200.57,251.008 1200.22,250.624C1199.86,250.24 1199.43,250.048 1198.92,250.048L1192.87,250.048C1192.36,250.048 1191.93,250.24 1191.58,250.624C1191.22,251.008 1191.05,251.456 1191.05,251.968L1191.05,293.824C1191.05,294.336 1191.22,294.784 1191.58,295.168C1191.93,295.552 1192.36,295.744 1192.87,295.744L1198.92,295.744C1199.43,295.744 1199.86,295.552 1200.22,295.168C1200.57,294.784 1200.74,294.336 1200.74,293.824Z" style="fill:url(#_Linear14);fill-rule:nonzero;"/>
        <path d="M1259.69,304L1246.25,304L1246.25,252.448C1246.25,251.936 1246.07,251.488 1245.72,251.104C1245.37,250.72 1244.94,250.528 1244.42,250.528L1239.24,250.528C1238.73,250.528 1238.3,250.72 1237.94,251.104C1237.59,251.488 1237.42,251.936 1237.42,252.448L1237.42,304L1223.98,304L1223.98,253.6C1223.98,245.152 1227.94,240.928 1235.88,240.928L1247.78,240.928C1255.72,240.928 1259.69,245.152 1259.69,253.6L1259.69,304Z" style="fill:url(#_Linear15);fill-rule:nonzero;"/>
    </g>
    <g transform="matrix(1,0,0,1,0,-90)">
        <g transform="matrix(0.0384615,0,0,1,323.077,0)">
            <rect x="336" y="90" width="26" height="247" style="fill:url(#_Linear16);"/>
        </g>
        <g transform="matrix(0.0384615,0,0,1,324.077,0)">
            <rect x="336" y="90" width="26" height="247" style="fill:url(#_Linear17);"/>
        </g>
    </g>
    <g transform="matrix(0.60874,0,0,0.60874,-179.578,38.2694)">
        <g id="squares" transform="matrix(1,0,0,1,295,5)">
            <g transform="matrix(0.707107,-0.707107,0.707107,0.707107,-270.59,-94.37)">
                <rect x="77.53" y="317.2" width="48.94" height="48.94" style="fill:rgb(188,190,192);"/>
            </g>
            <g transform="matrix(0.707107,-0.707107,0.707107,0.707107,-151.08,194.17)">
                <rect x="485.59" y="317.2" width="48.94" height="48.94" style="fill:rgb(188,190,192);"/>
            </g>
            <g transform="matrix(0.707107,-0.707107,0.707107,0.707107,-246.72,-36.73)">
                <rect x="159.04" y="317.2" width="48.94" height="48.94" style="fill:rgb(188,190,192);"/>
            </g>
            <g transform="matrix(0.707107,-0.707107,0.707107,0.707107,-222.85,20.9)">
                <rect x="240.54" y="317.2" width="48.94" height="48.94" style="fill:rgb(188,190,192);"/>
            </g>
            <g transform="matrix(0.707107,-0.707107,0.707107,0.707107,-198.98,78.53)">
                <rect x="322.05" y="317.2" width="48.94" height="48.94" style="fill:rgb(188,190,192);"/>
            </g>
            <g transform="matrix(0.707107,-0.707107,0.707107,0.707107,-175.11,136.16)">
                <rect x="403.55" y="317.2" width="48.94" height="48.94" style="fill:rgb(188,190,192);"/>
            </g>
            <g transform="matrix(0.707107,-0.707107,0.707107,0.707107,-263.62,4.28)">
                <rect x="200.09" y="358.11" width="48.94" height="48.94" style="fill:rgb(188,190,192);"/>
            </g>
            <g transform="matrix(0.707107,-0.707107,0.707107,0.707107,-239.75,61.9)">
                <rect x="281.59" y="358.11" width="48.94" height="48.94" style="fill:rgb(188,190,192);"/>
            </g>
            <g transform="matrix(0.707107,-0.707107,0.707107,0.707107,-215.88,119.53)">
                <rect x="363.09" y="358.11" width="48.94" height="48.94" style="fill:rgb(188,190,192);"/>
            </g>
            <g transform="matrix(0.707107,-0.707107,0.707107,0.707107,-206.06,-19.57)">
                <rect x="200.09" y="276.7" width="48.94" height="48.94" style="fill:rgb(188,190,192);"/>
            </g>
            <g transform="matrix(0.707107,-0.707107,0.707107,0.707107,-182.19,38.06)">
                <rect x="281.59" y="276.7" width="48.94" height="48.94" style="fill:rgb(188,190,192);"/>
            </g>
            <g transform="matrix(0.707107,-0.707107,0.707107,0.707107,-158.32,95.69)">
                <rect x="363.09" y="276.7" width="48.94" height="48.94" style="fill:rgb(188,190,192);"/>
            </g>
        </g>
        <g id="line" transform="matrix(1,0,0,1,295,5)">
            <path d="M14.49,71.07L85.72,71.07L124.93,110.28L165.43,69.79L206.14,110.51L287.98,28.67L328.9,69.59L369.39,29.1L411.79,71.5L481.33,71.5L481.33,79.55L408.4,79.55L369.18,40.33L328.47,81.04L287.77,40.33L206.36,121.74L165.65,81.04L125.16,121.53L82.54,78.92L14.06,78.92L14.49,71.07Z" style="fill:rgb(255,210,79);fill-rule:nonzero;stroke:black;stroke-width:1.5px;"/>
            <rect x="0" y="67.79" width="16.54" height="15.26" style="fill:rgb(35,31,32);"/>
            <rect x="476.49" y="67.79" width="16.54" height="15.26" style="fill:rgb(35,31,32);"/>
        </g>
        <g id="text" transform="matrix(1,0,0,1,295,5)">
            <g transform="matrix(1,0,0,1,-58.87,-266.56)">
                <rect x="73.39" y="479" width="20.21" height="57.67" style="fill:rgb(35,31,32);fill-rule:nonzero;"/>
            </g>
            <g transform="matrix(1,0,0,1,-58.87,-266.56)">
                <path d="M198.8,479L242,479L242,491.18L219,491.18L219,501.33L240.05,501.33L240.05,513.5L219,513.5L219,524.5L242.34,524.5L242.34,536.67L198.8,536.67L198.8,479Z" style="fill:rgb(35,31,32);fill-rule:nonzero;"/>
            </g>
            <g transform="matrix(1,0,0,1,-58.87,-266.56)">
                <path d="M341.62,493.44L341.62,479L397.86,479L397.86,493.46L379.86,493.46L379.86,536.67L359.64,536.67L359.64,493.44L341.62,493.44Z" style="fill:rgb(35,31,32);fill-rule:nonzero;"/>
            </g>
            <g transform="matrix(1,0,0,1,-58.87,-266.56)">
                <path d="M499.08,479L541.19,479L541.19,491.18L519.29,491.18L519.29,501.66L539.84,501.66L539.84,513.84L519.29,513.84L519.29,536.67L499.08,536.67L499.08,479Z" style="fill:rgb(35,31,32);fill-rule:nonzero;"/>
            </g>
            <g transform="matrix(1,0,0,1,-58.87,-266.56)">
                <path d="M558.87,478.4C563.995,478.405 568.21,482.625 568.21,487.75C568.21,492.879 563.989,497.1 558.86,497.1C553.735,497.1 549.515,492.885 549.51,487.76C549.51,482.625 553.735,478.4 558.87,478.4ZM558.87,495.29C562.999,495.279 566.39,491.879 566.39,487.75C566.39,483.614 562.986,480.21 558.85,480.21C554.714,480.21 551.31,483.614 551.31,487.75C551.31,487.753 551.31,487.757 551.31,487.76C551.321,491.898 554.732,495.295 558.87,495.29ZM560.8,492.73L559.97,491.12C559.07,489.37 558.36,488.64 557.34,488.64L556.66,488.64L556.66,492.73L554.66,492.73L554.66,482.73L559.66,482.73C559.723,482.726 559.787,482.724 559.85,482.724C561.381,482.724 562.641,483.984 562.641,485.515C562.641,486.975 561.496,488.201 560.04,488.3L560.04,488.35C560.89,488.65 561.09,488.9 562.15,490.68L563.32,492.68L560.8,492.73ZM558.62,487.06C559.92,487.06 560.62,486.53 560.62,485.68C560.62,484.83 559.94,484.32 558.54,484.32L556.71,484.32L556.71,487.06L558.62,487.06Z" style="fill:rgb(35,31,32);fill-rule:nonzero;"/>
            </g>
        </g>
    </g>
    <defs>
        <linearGradient id="_Linear1" x1="0" y1="0" x2="1" y2="0" gradientUnits="userSpaceOnUse" gradientTransform="matrix(4.92112e-15,80.368,-7.5457,4.62041e-16,939.048,235.264)"><stop offset="0" style="stop-color:rgb(0,39,121);stop-opacity:1"/><stop offset="1" style="stop-color:black;stop-opacity:1"/></linearGradient>
        <linearGradient id="_Linear2" x1="0" y1="0" x2="1" y2="0" gradientUnits="userSpaceOnUse" gradientTransform="matrix(4.92112e-15,80.368,-7.5457,4.62041e-16,939.048,235.264)"><stop offset="0" style="stop-color:rgb(0,39,121);stop-opacity:1"/><stop offset="1" style="stop-color:black;stop-opacity:1"/></linearGradient>
        <linearGradient id="_Linear3" x1="0" y1="0" x2="1" y2="0" gradientUnits="userSpaceOnUse" gradientTransform="matrix(4.92112e-15,80.368,-7.5457,4.62041e-16,939.048,235.264)"><stop offset="0" style="stop-color:rgb(0,39,121);stop-opacity:1"/><stop offset="1" style="stop-color:black;stop-opacity:1"/></linearGradient>
        <linearGradient id="_Linear4" x1="0" y1="0" x2="1" y2="0" gradientUnits="userSpaceOnUse" gradientTransform="matrix(4.92112e-15,80.368,-7.5457,4.62041e-16,939.048,235.264)"><stop offset="0" style="stop-color:rgb(0,39,121);stop-opacity:1"/><stop offset="1" style="stop-color:black;stop-opacity:1"/></linearGradient>
        <linearGradient id="_Linear5" x1="0" y1="0" x2="1" y2="0" gradientUnits="userSpaceOnUse" gradientTransform="matrix(4.92112e-15,80.368,-7.5457,4.62041e-16,939.048,235.264)"><stop offset="0" style="stop-color:rgb(0,39,121);stop-opacity:1"/><stop offset="1" style="stop-color:black;stop-opacity:1"/></linearGradient>
        <linearGradient id="_Linear6" x1="0" y1="0" x2="1" y2="0" gradientUnits="userSpaceOnUse" gradientTransform="matrix(4.92112e-15,80.368,-7.5457,4.62041e-16,939.048,235.264)"><stop offset="0" style="stop-color:rgb(0,39,121);stop-opacity:1"/><stop offset="1" style="stop-color:black;stop-opacity:1"/></linearGradient>
        <linearGradient id="_Linear7" x1="0" y1="0" x2="1" y2="0" gradientUnits="userSpaceOnUse" gradientTransform="matrix(4.92112e-15,80.368,-7.5457,4.62041e-16,939.048,235.264)"><stop offset="0" style="stop-color:rgb(0,39,121);stop-opacity:1"/><stop offset="1" style="stop-color:black;stop-opacity:1"/></linearGradient>
        <linearGradient id="_Linear8" x1="0" y1="0" x2="1" y2="0" gradientUnits="userSpaceOnUse" gradientTransform="matrix(4.92112e-15,80.368,-7.5457,4.62041e-16,939.048,235.264)"><stop offset="0" style="stop-color:rgb(0,39,121);stop-opacity:1"/><stop offset="1" style="stop-color:black;stop-opacity:1"/></linearGradient>
        <linearGradient id="_Linear9" x1="0" y1="0" x2="1" y2="0" gradientUnits="userSpaceOnUse" gradientTransform="matrix(4.92112e-15,80.368,-7.5457,4.62041e-16,939.048,235.264)"><stop offset="0" style="stop-color:rgb(0,39,121);stop-opacity:1"/><stop offset="1" style="stop-color:black;stop-opacity:1"/></linearGradient>
        <linearGradient id="_Linear10" x1="0" y1="0" x2="1" y2="0" gradientUnits="userSpaceOnUse" gradientTransform="matrix(4.92112e-15,80.368,-7.5457,4.62041e-16,939.048,235.264)"><stop offset="0" style="stop-color:rgb(0,39,121);stop-opacity:1"/><stop offset="1" style="stop-color:black;stop-opacity:1"/></linearGradient>
        <linearGradient id="_Linear11" x1="0" y1="0" x2="1" y2="0" gradientUnits="userSpaceOnUse" gradientTransform="matrix(4.92112e-15,80.368,-7.5457,4.62041e-16,939.048,235.264)"><stop offset="0" style="stop-color:rgb(0,39,121);stop-opacity:1"/><stop offset="1" style="stop-color:black;stop-opacity:1"/></linearGradient>
        <linearGradient id="_Linear12" x1="0" y1="0" x2="1" y2="0" gradientUnits="userSpaceOnUse" gradientTransform="matrix(4.92112e-15,80.368,-7.5457,4.62041e-16,939.048,235.264)"><stop offset="0" style="stop-color:rgb(0,39,121);stop-opacity:1"/><stop offset="1" style="stop-color:black;stop-opacity:1"/></linearGradient>
        <linearGradient id="_Linear13" x1="0" y1="0" x2="1" y2="0" gradientUnits="userSpaceOnUse" gradientTransform="matrix(4.92112e-15,80.368,-7.5457,4.62041e-16,939.048,235.264)"><stop offset="0" style="stop-color:rgb(0,39,121);stop-opacity:1"/><stop offset="1" style="stop-color:black;stop-opacity:1"/></linearGradient>
        <linearGradient id="_Linear14" x1="0" y1="0" x2="1" y2="0" gradientUnits="userSpaceOnUse" gradientTransform="matrix(4.92112e-15,80.368,-7.5457,4.62041e-16,939.048,235.264)"><stop offset="0" style="stop-color:rgb(0,39,121);stop-opacity:1"/><stop offset="1" style="stop-color:black;stop-opacity:1"/></linearGradient>
        <linearGradient id="_Linear15" x1="0" y1="0" x2="1" y2="0" gradientUnits="userSpaceOnUse" gradientTransform="matrix(4.92112e-15,80.368,-7.5457,4.62041e-16,939.048,235.264)"><stop offset="0" style="stop-color:rgb(0,39,121);stop-opacity:1"/><stop offset="1" style="stop-color:black;stop-opacity:1"/></linearGradient>
        <linearGradient id="_Linear16" x1="0" y1="0" x2="1" y2="0" gradientUnits="userSpaceOnUse" gradientTransform="matrix(1.51244e-14,247,-247,1.51244e-14,349,90)"><stop offset="0" style="stop-color:white;stop-opacity:1"/><stop offset="0.5" style="stop-color:rgb(199,199,199);stop-opacity:1"/><stop offset="1" style="stop-color:white;stop-opacity:1"/></linearGradient>
        <linearGradient id="_Linear17" x1="0" y1="0" x2="1" y2="0" gradientUnits="userSpaceOnUse" gradientTransform="matrix(1.51244e-14,247,-247,1.51244e-14,349,90)"><stop offset="0" style="stop-color:white;stop-opacity:1"/><stop offset="0.5" style="stop-color:rgb(146,146,146);stop-opacity:1"/><stop offset="1" style="stop-color:white;stop-opacity:1"/></linearGradient>
    </defs>
</svg>
