<?xml version="1.0" encoding="UTF-8" standalone="no"?>
<!DOCTYPE svg PUBLIC "-//W3C//DTD SVG 1.1//EN" "http://www.w3.org/Graphics/SVG/1.1/DTD/svg11.dtd">
<svg width="100%" height="100%" viewBox="0 0 1477.07421875 330" version="1.1" xmlns="http://www.w3.org/2000/svg" xmlns:xlink="http://www.w3.org/1999/xlink" xml:space="preserve" xmlns:serif="http://www.serif.com/" style="fill-rule:evenodd;clip-rule:evenodd;stroke-linejoin:round;stroke-miterlimit:2;">
    <path d="M82.912,22.056l-69.362,69.362l69.362,69.363l69.363,-69.363l-69.363,-69.362Z" style="fill:rgb(176,176,176);"/>
    <path d="M82.912,160.781l-69.362,69.363l69.362,69.363l69.363,-69.363l-69.363,-69.363Z" style="fill:rgb(176,176,176);"/>
    <path d="M199.583,0l-94.615,0l-22.056,22.056l69.363,69.362l69.363,-69.362l-22.055,-22.056Z" style="fill:rgb(176,176,176);fill-opacity:0.5;"/>
    <path d="M113.02,329.614l78.511,0l30.107,-30.107l-69.363,-69.363l-69.363,69.363l30.108,30.107Z" style="fill:rgb(176,176,176);fill-opacity:0.5;"/>
    <path d="M0,0l0,77.869l13.55,13.549l69.362,-69.362l-22.055,-22.056l-60.857,-0Z" style="fill:rgb(176,176,176);fill-opacity:0.5;"/>
    <path d="M13.55,368.87l-1.598,-1.597l3.195,-0l-1.597,1.597Zm-13.55,-125.176l0,85.92l52.805,0l30.107,-30.107l-69.362,-69.363l-13.55,13.55Z" style="fill:rgb(176,176,176);fill-opacity:0.5;"/>
    <path d="M0,104.968l0,111.627l13.55,13.549l69.362,-69.363l-69.362,-69.363l-13.55,13.55Z" style="fill:rgb(176,176,176);fill-opacity:0.5;"/>
    <path d="M152.275,91.418l-69.363,69.363l69.363,69.363l69.363,-69.363l-69.363,-69.363Z" style="fill:#7002B9;"/>
    <path d="M221.638,22.056l-69.363,69.362l69.363,69.363l69.363,-69.363l-69.363,-69.362Z" style="fill:#A04DD8;"/>
    <path d="M221.638,160.781l-69.363,69.363l69.363,69.363l69.363,-69.363l-69.363,-69.363Z" style="fill:#A04DD8;"/>
    <path d="M291.001,91.418l-69.363,69.363l69.363,69.363l69.363,-69.363l-69.363,-69.363Z" style="fill:#8202D7;"/>
    <path d="M152.291,110.184l-152.291,152.291l0,-18.781l152.275,-152.276l0.016,0.016l0.016,-0.016l69.543,69.544l69.544,-69.544l9.391,9.391l-78.723,78.722l-0.212,-0.212l-0.212,0.212l-69.347,-69.347Z" style="fill:rgb(255,209,62);"/>
    <path d="M493.38 236L468.38 236L468.38 93.23L493.38 93.23L493.38 236Z" fill="#FFFFFF"/><path d="M587.91 212.76L587.91 236L523.56 236L523.56 93.23L587.91 93.23L587.91 116.18L550.12 116.18L550.12 150.16L585.18 150.16L585.18 173.21L550.12 173.21L550.12 212.76L587.91 212.76Z" fill="#FFFFFF"/><path d="M652.56 116.57L652.56 236L626.10 236L626.10 116.57L598.75 116.57L598.75 93.23L679.91 93.23L679.91 116.57L652.56 116.57Z" fill="#FFFFFF"/><path d="M721.51 178.77L721.51 236L695.14 236L695.14 93.23L759.11 93.23L759.11 116.18L721.51 116.18L721.51 155.82L756.57 155.82L756.57 178.77L721.51 178.77Z" fill="#FFFFFF"/><path d="" fill="#FFFFFF"/><path d="M970.43 93.23L944.75 236L911.55 236L897.58 161.20Q894.36 145.86 892.99 124.96L892.99 124.96L892.21 132.19L888.21 161.59L874.63 236L841.43 236L815.55 93.23L841.63 93.23L854.42 173.79Q856.27 185.90 859.40 211.78L859.40 211.78Q861.84 185.61 863.99 174.38L863.99 174.38L879.22 93.23L906.76 93.23L922.00 174.38Q925.02 192.45 926.78 211.98L926.78 211.98Q930.20 183.07 931.76 173.79L931.76 173.79L944.16 93.23L970.43 93.23Z" fill="#FFFFFF"/><path d="M1014.57 236L989.57 236L989.57 93.23L1014.57 93.23L1014.57 236Z" fill="#FFFFFF"/><path d="M1100.32 155.04L1133.71 236L1105.39 236L1081.96 174.96L1071.31 185.61L1071.31 236L1044.75 236L1044.75 93.23L1071.31 93.23L1071.31 164.03L1080.59 142.64L1104.91 93.23L1133.32 93.23L1100.32 155.04Z" fill="#FFFFFF"/><path d="M1176.10 236L1151.10 236L1151.10 93.23L1176.10 93.23L1176.10 236Z" fill="#FFFFFF"/><path d="M1204.52 222.62L1204.52 222.62Q1204.52 215.00 1208.57 210.80Q1212.62 206.61 1220.63 206.61L1220.63 206.61Q1228.64 206.61 1232.74 210.76Q1236.84 214.91 1236.84 222.62L1236.84 222.62Q1236.84 230.24 1232.59 234.44Q1228.34 238.64 1220.63 238.64L1220.63 238.64Q1212.72 238.64 1208.62 234.39Q1204.52 230.14 1204.52 222.62Z" fill="#FFFFFF"/><path d="M1249.05 277.21L1249.05 277.21Q1238.70 277.21 1232.64 274.77L1232.64 274.77L1232.64 251.63Q1238.99 253.58 1244.65 253.58L1244.65 253.58Q1252.76 253.58 1256.52 248.40Q1260.28 243.23 1260.28 232.97L1260.28 232.97L1260.28 93.23L1286.84 93.23L1286.84 231.61Q1286.84 245.67 1282.10 256.02Q1277.37 266.37 1268.72 271.79Q1260.08 277.21 1249.05 277.21Z" fill="#FFFFFF"/><path d="M1377.07 196.64L1377.07 196.64Q1377.07 216.66 1366.97 227.31Q1356.86 237.95 1337.82 237.95L1337.82 237.95Q1319.16 237.95 1306.08 230.63L1306.08 230.63L1306.08 204.36Q1322.09 214.81 1335.47 214.81L1335.47 214.81Q1343.09 214.81 1346.95 210.61Q1350.80 206.41 1350.80 199.18L1350.80 199.18Q1350.80 192.05 1346.21 186.15Q1341.63 180.24 1331.08 173.01L1331.08 173.01Q1321.90 166.66 1317.16 160.85Q1312.43 155.04 1309.84 147.82Q1307.25 140.59 1307.25 131.02L1307.25 131.02Q1307.25 112.66 1317.46 101.92Q1327.66 91.18 1344.85 91.18L1344.85 91.18Q1361.25 91.18 1376.39 100.36L1376.39 100.36L1367.60 121.64Q1362.91 118.91 1357.79 116.76Q1352.66 114.61 1346.80 114.61L1346.80 114.61Q1340.36 114.61 1336.89 118.86Q1333.42 123.11 1333.42 130.43L1333.42 130.43Q1333.42 137.66 1337.57 143.03Q1341.72 148.40 1352.07 155.24L1352.07 155.24Q1366.04 164.61 1371.56 174.38Q1377.07 184.14 1377.07 196.64Z" fill="#FFFFFF"/><path d="M492.38 235L467.38 235L467.38 92.23L492.38 92.23L492.38 235Z" fill="url(#TextGradient)"/><path d="M586.91 211.76L586.91 235L522.56 235L522.56 92.23L586.91 92.23L586.91 115.18L549.12 115.18L549.12 149.16L584.18 149.16L584.18 172.21L549.12 172.21L549.12 211.76L586.91 211.76Z" fill="url(#TextGradient)"/><path d="M651.56 115.57L651.56 235L625.10 235L625.10 115.57L597.75 115.57L597.75 92.23L678.91 92.23L678.91 115.57L651.56 115.57Z" fill="url(#TextGradient)"/><path d="M720.51 177.77L720.51 235L694.14 235L694.14 92.23L758.11 92.23L758.11 115.18L720.51 115.18L720.51 154.82L755.57 154.82L755.57 177.77L720.51 177.77Z" fill="url(#TextGradient)"/><path d="" fill="url(#TextGradient)"/><path d="M969.43 92.23L943.75 235L910.55 235L896.58 160.20Q893.36 144.86 891.99 123.96L891.99 123.96L891.21 131.19L887.21 160.59L873.63 235L840.43 235L814.55 92.23L840.63 92.23L853.42 172.79Q855.27 184.90 858.40 210.78L858.40 210.78Q860.84 184.61 862.99 173.38L862.99 173.38L878.22 92.23L905.76 92.23L921.00 173.38Q924.02 191.45 925.78 210.98L925.78 210.98Q929.20 182.07 930.76 172.79L930.76 172.79L943.16 92.23L969.43 92.23Z" fill="url(#TextGradient)"/><path d="M1013.57 235L988.57 235L988.57 92.23L1013.57 92.23L1013.57 235Z" fill="url(#TextGradient)"/><path d="M1099.32 154.04L1132.71 235L1104.39 235L1080.96 173.96L1070.31 184.61L1070.31 235L1043.75 235L1043.75 92.23L1070.31 92.23L1070.31 163.03L1079.59 141.64L1103.91 92.23L1132.32 92.23L1099.32 154.04Z" fill="url(#TextGradient)"/><path d="M1175.10 235L1150.10 235L1150.10 92.23L1175.10 92.23L1175.10 235Z" fill="url(#TextGradient)"/><path d="M1203.52 221.62L1203.52 221.62Q1203.52 214.00 1207.57 209.80Q1211.62 205.61 1219.63 205.61L1219.63 205.61Q1227.64 205.61 1231.74 209.76Q1235.84 213.91 1235.84 221.62L1235.84 221.62Q1235.84 229.24 1231.59 233.44Q1227.34 237.64 1219.63 237.64L1219.63 237.64Q1211.72 237.64 1207.62 233.39Q1203.52 229.14 1203.52 221.62Z" fill="url(#TextGradient)"/><path d="M1248.05 276.21L1248.05 276.21Q1237.70 276.21 1231.64 273.77L1231.64 273.77L1231.64 250.63Q1237.99 252.58 1243.65 252.58L1243.65 252.58Q1251.76 252.58 1255.52 247.40Q1259.28 242.23 1259.28 231.97L1259.28 231.97L1259.28 92.23L1285.84 92.23L1285.84 230.61Q1285.84 244.67 1281.10 255.02Q1276.37 265.37 1267.72 270.79Q1259.08 276.21 1248.05 276.21Z" fill="url(#TextGradient)"/><path d="M1376.07 195.64L1376.07 195.64Q1376.07 215.66 1365.97 226.31Q1355.86 236.95 1336.82 236.95L1336.82 236.95Q1318.16 236.95 1305.08 229.63L1305.08 229.63L1305.08 203.36Q1321.09 213.81 1334.47 213.81L1334.47 213.81Q1342.09 213.81 1345.95 209.61Q1349.80 205.41 1349.80 198.18L1349.80 198.18Q1349.80 191.05 1345.21 185.15Q1340.63 179.24 1330.08 172.01L1330.08 172.01Q1320.90 165.66 1316.16 159.85Q1311.43 154.04 1308.84 146.82Q1306.25 139.59 1306.25 130.02L1306.25 130.02Q1306.25 111.66 1316.46 100.92Q1326.66 90.18 1343.85 90.18L1343.85 90.18Q1360.25 90.18 1375.39 99.36L1375.39 99.36L1366.60 120.64Q1361.91 117.91 1356.79 115.76Q1351.66 113.61 1345.80 113.61L1345.80 113.61Q1339.36 113.61 1335.89 117.86Q1332.42 122.11 1332.42 129.43L1332.42 129.43Q1332.42 136.66 1336.57 142.03Q1340.72 147.40 1351.07 154.24L1351.07 154.24Q1365.04 163.61 1370.56 173.38Q1376.07 183.14 1376.07 195.64Z" fill="url(#TextGradient)"/>
    <defs>
        <linearGradient id="TextGradient" x1="0" y1="0" x2="0" y2="1">
            <stop offset="0" style="stop-color:#580291;stop-opacity:1"/>
            <stop offset="1" style="stop-color:#8202D7;stop-opacity:1"/>
        </linearGradient>
    </defs>
</svg>
