<?xml version="1.0" encoding="UTF-8" standalone="no"?>
<!DOCTYPE svg PUBLIC "-//W3C//DTD SVG 1.1//EN" "http://www.w3.org/Graphics/SVG/1.1/DTD/svg11.dtd">
<svg width="100%" height="100%" viewBox="0 0 1582.0546875 330" version="1.1" xmlns="http://www.w3.org/2000/svg" xmlns:xlink="http://www.w3.org/1999/xlink" xml:space="preserve" xmlns:serif="http://www.serif.com/" style="fill-rule:evenodd;clip-rule:evenodd;stroke-linejoin:round;stroke-miterlimit:2;">
    <path d="M82.912,22.056l-69.362,69.362l69.362,69.363l69.363,-69.363l-69.363,-69.362Z" style="fill:rgb(176,176,176);"/>
    <path d="M82.912,160.781l-69.362,69.363l69.362,69.363l69.363,-69.363l-69.363,-69.363Z" style="fill:rgb(176,176,176);"/>
    <path d="M199.583,0l-94.615,0l-22.056,22.056l69.363,69.362l69.363,-69.362l-22.055,-22.056Z" style="fill:rgb(176,176,176);fill-opacity:0.5;"/>
    <path d="M113.02,329.614l78.511,0l30.107,-30.107l-69.363,-69.363l-69.363,69.363l30.108,30.107Z" style="fill:rgb(176,176,176);fill-opacity:0.5;"/>
    <path d="M0,0l0,77.869l13.55,13.549l69.362,-69.362l-22.055,-22.056l-60.857,-0Z" style="fill:rgb(176,176,176);fill-opacity:0.5;"/>
    <path d="M13.55,368.87l-1.598,-1.597l3.195,-0l-1.597,1.597Zm-13.55,-125.176l0,85.92l52.805,0l30.107,-30.107l-69.362,-69.363l-13.55,13.55Z" style="fill:rgb(176,176,176);fill-opacity:0.5;"/>
    <path d="M0,104.968l0,111.627l13.55,13.549l69.362,-69.363l-69.362,-69.363l-13.55,13.55Z" style="fill:rgb(176,176,176);fill-opacity:0.5;"/>
    <path d="M152.275,91.418l-69.363,69.363l69.363,69.363l69.363,-69.363l-69.363,-69.363Z" style="fill:#941849;"/>
    <path d="M221.638,22.056l-69.363,69.362l69.363,69.363l69.363,-69.363l-69.363,-69.362Z" style="fill:#CA5C88;"/>
    <path d="M221.638,160.781l-69.363,69.363l69.363,69.363l69.363,-69.363l-69.363,-69.363Z" style="fill:#CA5C88;"/>
    <path d="M291.001,91.418l-69.363,69.363l69.363,69.363l69.363,-69.363l-69.363,-69.363Z" style="fill:#C2185B;"/>
    <path d="M152.291,110.184l-152.291,152.291l0,-18.781l152.275,-152.276l0.016,0.016l0.016,-0.016l69.543,69.544l69.544,-69.544l9.391,9.391l-78.723,78.722l-0.212,-0.212l-0.212,0.212l-69.347,-69.347Z" style="fill:rgb(255,209,62);"/>
    <path d="M493.38 236L468.38 236L468.38 93.23L493.38 93.23L493.38 236Z" fill="#FFFFFF"/><path d="M623.56 93.23L623.56 236L591.14 236L547.00 132.58L545.73 132.58Q548.17 144.40 548.17 157.97L548.17 157.97L548.17 236L523.56 236L523.56 93.23L556.18 93.23L599.93 195.57L601 195.57Q599.14 185.32 599.14 171.16L599.14 171.16L599.14 93.23L623.56 93.23Z" fill="#FFFFFF"/><path d="M675.12 178.77L675.12 236L648.75 236L648.75 93.23L712.72 93.23L712.72 116.18L675.12 116.18L675.12 155.82L710.18 155.82L710.18 178.77L675.12 178.77Z" fill="#FFFFFF"/><path d="M766.63 180.43L757.15 180.43L757.15 236L730.59 236L730.59 93.23L765.36 93.23Q787.43 93.23 797.92 103.68Q808.42 114.13 808.42 135.61L808.42 135.61Q808.42 162.66 790.16 173.40L790.16 173.40L817.60 236L789.18 236L766.63 180.43ZM757.15 116.18L757.15 157.58L763.99 157.58Q773.36 157.58 777.46 152.26Q781.57 146.94 781.57 136.39L781.57 136.39Q781.57 125.45 777.22 120.81Q772.88 116.18 763.79 116.18L763.79 116.18L757.15 116.18Z" fill="#FFFFFF"/><path d="M924.83 236L898.17 236L889.96 199.96L852.76 199.96L844.55 236L817.99 236L853.34 92.64L889.38 92.64L924.83 236ZM858.03 176.43L884.98 176.43L877.37 143.23Q876.68 140.20 874.29 128.04Q871.90 115.88 871.41 111.78L871.41 111.78Q870.14 120.18 868.19 130.29Q866.23 140.39 858.03 176.43L858.03 176.43Z" fill="#FFFFFF"/><path d="" fill="#FFFFFF"/><path d="M1034.20 114.42L1034.20 114.42Q1022.78 114.42 1016.19 127.80Q1009.59 141.18 1009.59 165.00L1009.59 165.00Q1009.59 214.61 1035.47 214.61L1035.47 214.61Q1046.80 214.61 1059.20 207.39L1059.20 207.39L1059.20 231.02Q1048.75 237.95 1032.45 237.95L1032.45 237.95Q1008.32 237.95 995.38 218.76Q982.45 199.57 982.45 164.81L982.45 164.81Q982.45 130.04 995.78 110.61Q1009.11 91.18 1032.84 91.18L1032.84 91.18Q1040.65 91.18 1047.83 93.32Q1055.00 95.47 1063.21 100.84L1063.21 100.84L1054.42 122.43Q1050.02 119.40 1045.04 116.91Q1040.06 114.42 1034.20 114.42Z" fill="#FFFFFF"/><path d="M1142.80 236L1079.42 236L1079.42 93.23L1105.98 93.23L1105.98 212.76L1142.80 212.76L1142.80 236Z" fill="#FFFFFF"/><path d="M1258.03 164.42L1258.03 164.42Q1258.03 199.87 1244.75 218.91Q1231.47 237.95 1206.76 237.95L1206.76 237.95Q1181.96 237.95 1168.68 218.96Q1155.39 199.96 1155.39 164.22L1155.39 164.22Q1155.39 128.77 1168.68 109.88Q1181.96 90.98 1206.96 90.98L1206.96 90.98Q1231.66 90.98 1244.85 109.97Q1258.03 128.97 1258.03 164.42ZM1182.54 164.42L1182.54 164.42Q1182.54 188.83 1188.70 201.63Q1194.85 214.42 1206.76 214.42L1206.76 214.42Q1230.79 214.42 1230.79 164.42L1230.79 164.42Q1230.79 114.42 1206.96 114.42L1206.96 114.42Q1194.85 114.42 1188.70 127.16Q1182.54 139.91 1182.54 164.42Z" fill="#FFFFFF"/><path d="M1340.26 93.23L1366.63 93.23L1366.63 185.61Q1366.63 211.10 1355.10 224.53Q1343.58 237.95 1321.80 237.95L1321.80 237.95Q1300.51 237.95 1289.38 224.62Q1278.25 211.29 1278.25 185.22L1278.25 185.22L1278.25 93.23L1304.61 93.23L1304.61 187.17Q1304.61 214.42 1322.68 214.42L1322.68 214.42Q1331.08 214.42 1335.67 207.48Q1340.26 200.55 1340.26 187.76L1340.26 187.76L1340.26 93.23Z" fill="#FFFFFF"/><path d="M1482.05 163.25L1482.05 163.25Q1482.05 198.60 1467.65 217.30Q1453.25 236 1426.20 236L1426.20 236L1391.23 236L1391.23 93.23L1429.42 93.23Q1454.32 93.23 1468.19 111.63Q1482.05 130.04 1482.05 163.25ZM1454.81 164.03L1454.81 164.03Q1454.81 116.18 1428.44 116.18L1428.44 116.18L1417.80 116.18L1417.80 212.76L1426.39 212.76Q1440.94 212.76 1447.88 200.60Q1454.81 188.44 1454.81 164.03Z" fill="#FFFFFF"/><path d="M492.38 235L467.38 235L467.38 92.23L492.38 92.23L492.38 235Z" fill="url(#TextGradient)"/><path d="M622.56 92.23L622.56 235L590.14 235L546.00 131.58L544.73 131.58Q547.17 143.40 547.17 156.97L547.17 156.97L547.17 235L522.56 235L522.56 92.23L555.18 92.23L598.93 194.57L600 194.57Q598.14 184.32 598.14 170.16L598.14 170.16L598.14 92.23L622.56 92.23Z" fill="url(#TextGradient)"/><path d="M674.12 177.77L674.12 235L647.75 235L647.75 92.23L711.72 92.23L711.72 115.18L674.12 115.18L674.12 154.82L709.18 154.82L709.18 177.77L674.12 177.77Z" fill="url(#TextGradient)"/><path d="M765.63 179.43L756.15 179.43L756.15 235L729.59 235L729.59 92.23L764.36 92.23Q786.43 92.23 796.92 102.68Q807.42 113.13 807.42 134.61L807.42 134.61Q807.42 161.66 789.16 172.40L789.16 172.40L816.60 235L788.18 235L765.63 179.43ZM756.15 115.18L756.15 156.58L762.99 156.58Q772.36 156.58 776.46 151.26Q780.57 145.94 780.57 135.39L780.57 135.39Q780.57 124.45 776.22 119.81Q771.88 115.18 762.79 115.18L762.79 115.18L756.15 115.18Z" fill="url(#TextGradient)"/><path d="M923.83 235L897.17 235L888.96 198.96L851.76 198.96L843.55 235L816.99 235L852.34 91.64L888.38 91.64L923.83 235ZM857.03 175.43L883.98 175.43L876.37 142.23Q875.68 139.20 873.29 127.04Q870.90 114.88 870.41 110.78L870.41 110.78Q869.14 119.18 867.19 129.29Q865.23 139.39 857.03 175.43L857.03 175.43Z" fill="url(#TextGradient)"/><path d="" fill="url(#TextGradient)"/><path d="M1033.20 113.42L1033.20 113.42Q1021.78 113.42 1015.19 126.80Q1008.59 140.18 1008.59 164.00L1008.59 164.00Q1008.59 213.61 1034.47 213.61L1034.47 213.61Q1045.80 213.61 1058.20 206.39L1058.20 206.39L1058.20 230.02Q1047.75 236.95 1031.45 236.95L1031.45 236.95Q1007.32 236.95 994.38 217.76Q981.45 198.57 981.45 163.81L981.45 163.81Q981.45 129.04 994.78 109.61Q1008.11 90.18 1031.84 90.18L1031.84 90.18Q1039.65 90.18 1046.83 92.32Q1054.00 94.47 1062.21 99.84L1062.21 99.84L1053.42 121.43Q1049.02 118.40 1044.04 115.91Q1039.06 113.42 1033.20 113.42Z" fill="url(#TextGradient)"/><path d="M1141.80 235L1078.42 235L1078.42 92.23L1104.98 92.23L1104.98 211.76L1141.80 211.76L1141.80 235Z" fill="url(#TextGradient)"/><path d="M1257.03 163.42L1257.03 163.42Q1257.03 198.87 1243.75 217.91Q1230.47 236.95 1205.76 236.95L1205.76 236.95Q1180.96 236.95 1167.68 217.96Q1154.39 198.96 1154.39 163.22L1154.39 163.22Q1154.39 127.77 1167.68 108.88Q1180.96 89.98 1205.96 89.98L1205.96 89.98Q1230.66 89.98 1243.85 108.97Q1257.03 127.97 1257.03 163.42ZM1181.54 163.42L1181.54 163.42Q1181.54 187.83 1187.70 200.63Q1193.85 213.42 1205.76 213.42L1205.76 213.42Q1229.79 213.42 1229.79 163.42L1229.79 163.42Q1229.79 113.42 1205.96 113.42L1205.96 113.42Q1193.85 113.42 1187.70 126.16Q1181.54 138.91 1181.54 163.42Z" fill="url(#TextGradient)"/><path d="M1339.26 92.23L1365.63 92.23L1365.63 184.61Q1365.63 210.10 1354.10 223.53Q1342.58 236.95 1320.80 236.95L1320.80 236.95Q1299.51 236.95 1288.38 223.62Q1277.25 210.29 1277.25 184.22L1277.25 184.22L1277.25 92.23L1303.61 92.23L1303.61 186.17Q1303.61 213.42 1321.68 213.42L1321.68 213.42Q1330.08 213.42 1334.67 206.48Q1339.26 199.55 1339.26 186.76L1339.26 186.76L1339.26 92.23Z" fill="url(#TextGradient)"/><path d="M1481.05 162.25L1481.05 162.25Q1481.05 197.60 1466.65 216.30Q1452.25 235 1425.20 235L1425.20 235L1390.23 235L1390.23 92.23L1428.42 92.23Q1453.32 92.23 1467.19 110.63Q1481.05 129.04 1481.05 162.25ZM1453.81 163.03L1453.81 163.03Q1453.81 115.18 1427.44 115.18L1427.44 115.18L1416.80 115.18L1416.80 211.76L1425.39 211.76Q1439.94 211.76 1446.88 199.60Q1453.81 187.44 1453.81 163.03Z" fill="url(#TextGradient)"/>
    <defs>
        <linearGradient id="TextGradient" x1="0" y1="0" x2="0" y2="1">
            <stop offset="0" style="stop-color:#571831;stop-opacity:1"/>
            <stop offset="1" style="stop-color:#C2185B;stop-opacity:1"/>
        </linearGradient>
    </defs>
</svg>
