<?xml version="1.0" encoding="UTF-8" standalone="no"?>
<!DOCTYPE svg PUBLIC "-//W3C//DTD SVG 1.1//EN" "http://www.w3.org/Graphics/SVG/1.1/DTD/svg11.dtd">
<svg width="100%" height="100%" viewBox="0 0 1328.9296875 330" version="1.1" xmlns="http://www.w3.org/2000/svg" xmlns:xlink="http://www.w3.org/1999/xlink" xml:space="preserve" xmlns:serif="http://www.serif.com/" style="fill-rule:evenodd;clip-rule:evenodd;stroke-linejoin:round;stroke-miterlimit:2;">
    <path d="M82.912,22.056l-69.362,69.362l69.362,69.363l69.363,-69.363l-69.363,-69.362Z" style="fill:rgb(176,176,176);"/>
    <path d="M82.912,160.781l-69.362,69.363l69.362,69.363l69.363,-69.363l-69.363,-69.363Z" style="fill:rgb(176,176,176);"/>
    <path d="M199.583,0l-94.615,0l-22.056,22.056l69.363,69.362l69.363,-69.362l-22.055,-22.056Z" style="fill:rgb(176,176,176);fill-opacity:0.5;"/>
    <path d="M113.02,329.614l78.511,0l30.107,-30.107l-69.363,-69.363l-69.363,69.363l30.108,30.107Z" style="fill:rgb(176,176,176);fill-opacity:0.5;"/>
    <path d="M0,0l0,77.869l13.55,13.549l69.362,-69.362l-22.055,-22.056l-60.857,-0Z" style="fill:rgb(176,176,176);fill-opacity:0.5;"/>
    <path d="M13.55,368.87l-1.598,-1.597l3.195,-0l-1.597,1.597Zm-13.55,-125.176l0,85.92l52.805,0l30.107,-30.107l-69.362,-69.363l-13.55,13.55Z" style="fill:rgb(176,176,176);fill-opacity:0.5;"/>
    <path d="M0,104.968l0,111.627l13.55,13.549l69.362,-69.363l-69.362,-69.363l-13.55,13.55Z" style="fill:rgb(176,176,176);fill-opacity:0.5;"/>
    <path d="M152.275,91.418l-69.363,69.363l69.363,69.363l69.363,-69.363l-69.363,-69.363Z" style="fill:#7002B9;"/>
    <path d="M221.638,22.056l-69.363,69.362l69.363,69.363l69.363,-69.363l-69.363,-69.362Z" style="fill:#A04DD8;"/>
    <path d="M221.638,160.781l-69.363,69.363l69.363,69.363l69.363,-69.363l-69.363,-69.363Z" style="fill:#A04DD8;"/>
    <path d="M291.001,91.418l-69.363,69.363l69.363,69.363l69.363,-69.363l-69.363,-69.363Z" style="fill:#8202D7;"/>
    <path d="M152.291,110.184l-152.291,152.291l0,-18.781l152.275,-152.276l0.016,0.016l0.016,-0.016l69.543,69.544l69.544,-69.544l9.391,9.391l-78.723,78.722l-0.212,-0.212l-0.212,0.212l-69.347,-69.347Z" style="fill:rgb(255,209,62);"/>
    <path d="M519.16 155.04L552.56 236L524.24 236L500.80 174.96L490.16 185.61L490.16 236L463.60 236L463.60 93.23L490.16 93.23L490.16 164.03L499.44 142.64L523.75 93.23L552.17 93.23L519.16 155.04Z" fill="#FFFFFF"/><path d="M629.52 212.76L629.52 236L565.16 236L565.16 93.23L629.52 93.23L629.52 116.18L591.72 116.18L591.72 150.16L626.78 150.16L626.78 173.21L591.72 173.21L591.72 212.76L629.52 212.76Z" fill="#FFFFFF"/><path d="M665.75 93.23L684.69 149.57L703.73 93.23L731.57 93.23L697.68 178.77L697.68 236L671.51 236L671.51 179.85L637.72 93.23L665.75 93.23Z" fill="#FFFFFF"/><path d="M788.50 114.42L788.50 114.42Q777.07 114.42 770.48 127.80Q763.89 141.18 763.89 165.00L763.89 165.00Q763.89 214.61 789.77 214.61L789.77 214.61Q801.10 214.61 813.50 207.39L813.50 207.39L813.50 231.02Q803.05 237.95 786.74 237.95L786.74 237.95Q762.62 237.95 749.68 218.76Q736.74 199.57 736.74 164.81L736.74 164.81Q736.74 130.04 750.07 110.61Q763.40 91.18 787.13 91.18L787.13 91.18Q794.95 91.18 802.12 93.32Q809.30 95.47 817.50 100.84L817.50 100.84L808.71 122.43Q804.32 119.40 799.34 116.91Q794.36 114.42 788.50 114.42Z" fill="#FFFFFF"/><path d="M897.09 236L833.71 236L833.71 93.23L860.28 93.23L860.28 212.76L897.09 212.76L897.09 236Z" fill="#FFFFFF"/><path d="M1012.33 164.42L1012.33 164.42Q1012.33 199.87 999.05 218.91Q985.77 237.95 961.06 237.95L961.06 237.95Q936.25 237.95 922.97 218.96Q909.69 199.96 909.69 164.22L909.69 164.22Q909.69 128.77 922.97 109.88Q936.25 90.98 961.25 90.98L961.25 90.98Q985.96 90.98 999.14 109.97Q1012.33 128.97 1012.33 164.42ZM936.84 164.42L936.84 164.42Q936.84 188.83 942.99 201.63Q949.14 214.42 961.06 214.42L961.06 214.42Q985.08 214.42 985.08 164.42L985.08 164.42Q985.08 114.42 961.25 114.42L961.25 114.42Q949.14 114.42 942.99 127.16Q936.84 139.91 936.84 164.42Z" fill="#FFFFFF"/><path d="M1127.37 236L1100.71 236L1092.50 199.96L1055.30 199.96L1047.09 236L1020.53 236L1055.88 92.64L1091.92 92.64L1127.37 236ZM1060.57 176.43L1087.52 176.43L1079.91 143.23Q1079.22 140.20 1076.83 128.04Q1074.44 115.88 1073.95 111.78L1073.95 111.78Q1072.68 120.18 1070.73 130.29Q1068.77 140.39 1060.57 176.43L1060.57 176.43Z" fill="#FFFFFF"/><path d="M1195.53 155.04L1228.93 236L1200.61 236L1177.17 174.96L1166.53 185.61L1166.53 236L1139.96 236L1139.96 93.23L1166.53 93.23L1166.53 164.03L1175.80 142.64L1200.12 93.23L1228.54 93.23L1195.53 155.04Z" fill="#FFFFFF"/><path d="M518.16 154.04L551.56 235L523.24 235L499.80 173.96L489.16 184.61L489.16 235L462.60 235L462.60 92.23L489.16 92.23L489.16 163.03L498.44 141.64L522.75 92.23L551.17 92.23L518.16 154.04Z" fill="url(#TextGradient)"/><path d="M628.52 211.76L628.52 235L564.16 235L564.16 92.23L628.52 92.23L628.52 115.18L590.72 115.18L590.72 149.16L625.78 149.16L625.78 172.21L590.72 172.21L590.72 211.76L628.52 211.76Z" fill="url(#TextGradient)"/><path d="M664.75 92.23L683.69 148.57L702.73 92.23L730.57 92.23L696.68 177.77L696.68 235L670.51 235L670.51 178.85L636.72 92.23L664.75 92.23Z" fill="url(#TextGradient)"/><path d="M787.50 113.42L787.50 113.42Q776.07 113.42 769.48 126.80Q762.89 140.18 762.89 164.00L762.89 164.00Q762.89 213.61 788.77 213.61L788.77 213.61Q800.10 213.61 812.50 206.39L812.50 206.39L812.50 230.02Q802.05 236.95 785.74 236.95L785.74 236.95Q761.62 236.95 748.68 217.76Q735.74 198.57 735.74 163.81L735.74 163.81Q735.74 129.04 749.07 109.61Q762.40 90.18 786.13 90.18L786.13 90.18Q793.95 90.18 801.12 92.32Q808.30 94.47 816.50 99.84L816.50 99.84L807.71 121.43Q803.32 118.40 798.34 115.91Q793.36 113.42 787.50 113.42Z" fill="url(#TextGradient)"/><path d="M896.09 235L832.71 235L832.71 92.23L859.28 92.23L859.28 211.76L896.09 211.76L896.09 235Z" fill="url(#TextGradient)"/><path d="M1011.33 163.42L1011.33 163.42Q1011.33 198.87 998.05 217.91Q984.77 236.95 960.06 236.95L960.06 236.95Q935.25 236.95 921.97 217.96Q908.69 198.96 908.69 163.22L908.69 163.22Q908.69 127.77 921.97 108.88Q935.25 89.98 960.25 89.98L960.25 89.98Q984.96 89.98 998.14 108.97Q1011.33 127.97 1011.33 163.42ZM935.84 163.42L935.84 163.42Q935.84 187.83 941.99 200.63Q948.14 213.42 960.06 213.42L960.06 213.42Q984.08 213.42 984.08 163.42L984.08 163.42Q984.08 113.42 960.25 113.42L960.25 113.42Q948.14 113.42 941.99 126.16Q935.84 138.91 935.84 163.42Z" fill="url(#TextGradient)"/><path d="M1126.37 235L1099.71 235L1091.50 198.96L1054.30 198.96L1046.09 235L1019.53 235L1054.88 91.64L1090.92 91.64L1126.37 235ZM1059.57 175.43L1086.52 175.43L1078.91 142.23Q1078.22 139.20 1075.83 127.04Q1073.44 114.88 1072.95 110.78L1072.95 110.78Q1071.68 119.18 1069.73 129.29Q1067.77 139.39 1059.57 175.43L1059.57 175.43Z" fill="url(#TextGradient)"/><path d="M1194.53 154.04L1227.93 235L1199.61 235L1176.17 173.96L1165.53 184.61L1165.53 235L1138.96 235L1138.96 92.23L1165.53 92.23L1165.53 163.03L1174.80 141.64L1199.12 92.23L1227.54 92.23L1194.53 154.04Z" fill="url(#TextGradient)"/>
    <defs>
        <linearGradient id="TextGradient" x1="0" y1="0" x2="0" y2="1">
            <stop offset="0" style="stop-color:#580291;stop-opacity:1"/>
            <stop offset="1" style="stop-color:#8202D7;stop-opacity:1"/>
        </linearGradient>
    </defs>
</svg>
