<?xml version="1.0" encoding="UTF-8" standalone="no"?>
<!DOCTYPE svg PUBLIC "-//W3C//DTD SVG 1.1//EN" "http://www.w3.org/Graphics/SVG/1.1/DTD/svg11.dtd">
<svg width="100%" height="100%" viewBox="0 0 2517.30859375 330" version="1.1" xmlns="http://www.w3.org/2000/svg" xmlns:xlink="http://www.w3.org/1999/xlink" xml:space="preserve" xmlns:serif="http://www.serif.com/" style="fill-rule:evenodd;clip-rule:evenodd;stroke-linejoin:round;stroke-miterlimit:2;">
    <path d="M82.912,22.056l-69.362,69.362l69.362,69.363l69.363,-69.363l-69.363,-69.362Z" style="fill:rgb(176,176,176);"/>
    <path d="M82.912,160.781l-69.362,69.363l69.362,69.363l69.363,-69.363l-69.363,-69.363Z" style="fill:rgb(176,176,176);"/>
    <path d="M199.583,0l-94.615,0l-22.056,22.056l69.363,69.362l69.363,-69.362l-22.055,-22.056Z" style="fill:rgb(176,176,176);fill-opacity:0.5;"/>
    <path d="M113.02,329.614l78.511,0l30.107,-30.107l-69.363,-69.363l-69.363,69.363l30.108,30.107Z" style="fill:rgb(176,176,176);fill-opacity:0.5;"/>
    <path d="M0,0l0,77.869l13.55,13.549l69.362,-69.362l-22.055,-22.056l-60.857,-0Z" style="fill:rgb(176,176,176);fill-opacity:0.5;"/>
    <path d="M13.55,368.87l-1.598,-1.597l3.195,-0l-1.597,1.597Zm-13.55,-125.176l0,85.92l52.805,0l30.107,-30.107l-69.362,-69.363l-13.55,13.55Z" style="fill:rgb(176,176,176);fill-opacity:0.5;"/>
    <path d="M0,104.968l0,111.627l13.55,13.549l69.362,-69.363l-69.362,-69.363l-13.55,13.55Z" style="fill:rgb(176,176,176);fill-opacity:0.5;"/>
    <path d="M152.275,91.418l-69.363,69.363l69.363,69.363l69.363,-69.363l-69.363,-69.363Z" style="fill:#028BB9;"/>
    <path d="M221.638,22.056l-69.363,69.362l69.363,69.363l69.363,-69.363l-69.363,-69.362Z" style="fill:#4DB5D8;"/>
    <path d="M221.638,160.781l-69.363,69.363l69.363,69.363l69.363,-69.363l-69.363,-69.363Z" style="fill:#4DB5D8;"/>
    <path d="M291.001,91.418l-69.363,69.363l69.363,69.363l69.363,-69.363l-69.363,-69.363Z" style="fill:#02A1D7;"/>
    <path d="M152.291,110.184l-152.291,152.291l0,-18.781l152.275,-152.276l0.016,0.016l0.016,-0.016l69.543,69.544l69.544,-69.544l9.391,9.391l-78.723,78.722l-0.212,-0.212l-0.212,0.212l-69.347,-69.347Z" style="fill:rgb(255,209,62);"/>
    <path d="M543.58 236L514.57 236L487.43 114.42L486.35 114.42Q488.21 128.48 488.21 140.20L488.21 140.20L488.21 236L463.60 236L463.60 93.23L504.42 93.23L528.83 205.43L529.61 205.43L553.83 93.23L595.24 93.23L595.24 236L570.04 236L570.04 139.22Q570.04 127.21 571.41 114.61L571.41 114.61L570.63 114.61L543.58 236Z" fill="#FFFFFF"/><path d="M691.23 236L672.19 236L667.02 221.16L666.43 221.16Q660.67 230.73 654.52 234.34Q648.36 237.95 638.99 237.95L638.99 237.95Q626.98 237.95 620.09 228.97Q613.21 219.98 613.21 203.97L613.21 203.97Q613.21 186.78 622.63 178.43Q632.05 170.08 650.80 169.20L650.80 169.20L665.26 168.62L665.26 160.80Q665.26 145.57 652.07 145.57L652.07 145.57Q642.31 145.57 629.61 153.19L629.61 153.19L620.63 135.22Q636.84 124.96 655.88 124.96L655.88 124.96Q673.17 124.96 682.20 134.88Q691.23 144.79 691.23 162.95L691.23 162.95L691.23 236ZM649.63 217.64L649.63 217.64Q656.76 217.64 661.01 211.24Q665.26 204.85 665.26 194.20L665.26 194.20L665.26 185.02L657.25 185.41Q648.36 185.90 644.21 190.49Q640.06 195.08 640.06 204.16L640.06 204.16Q640.06 217.64 649.63 217.64Z" fill="#FFFFFF"/><path d="M738.40 127.21L738.40 236L712.43 236L712.43 127.21L738.40 127.21ZM711.35 98.79L711.35 98.79Q711.35 92.35 715.11 88.59Q718.87 84.83 725.61 84.83L725.61 84.83Q731.96 84.83 735.77 88.59Q739.57 92.35 739.57 98.79L739.57 98.79Q739.57 105.43 735.67 109.10Q731.76 112.76 725.61 112.76L725.61 112.76Q719.16 112.76 715.26 109.10Q711.35 105.43 711.35 98.79Z" fill="#FFFFFF"/><path d="M786.64 84.05L786.64 236L760.67 236L760.67 84.05L786.64 84.05Z" fill="#FFFFFF"/><path d="" fill="#FFFFFF"/><path d="M903.25 116.57L903.25 236L876.78 236L876.78 116.57L849.44 116.57L849.44 93.23L930.59 93.23L930.59 116.57L903.25 116.57Z" fill="#FFFFFF"/><path d="M1009.20 236L945.82 236L945.82 93.23L972.39 93.23L972.39 212.76L1009.20 212.76L1009.20 236Z" fill="#FFFFFF"/><path d="M1091.23 196.64L1091.23 196.64Q1091.23 216.66 1081.13 227.31Q1071.02 237.95 1051.98 237.95L1051.98 237.95Q1033.32 237.95 1020.24 230.63L1020.24 230.63L1020.24 204.36Q1036.25 214.81 1049.63 214.81L1049.63 214.81Q1057.25 214.81 1061.11 210.61Q1064.96 206.41 1064.96 199.18L1064.96 199.18Q1064.96 192.05 1060.38 186.15Q1055.79 180.24 1045.24 173.01L1045.24 173.01Q1036.06 166.66 1031.32 160.85Q1026.59 155.04 1024.00 147.82Q1021.41 140.59 1021.41 131.02L1021.41 131.02Q1021.41 112.66 1031.62 101.92Q1041.82 91.18 1059.01 91.18L1059.01 91.18Q1075.41 91.18 1090.55 100.36L1090.55 100.36L1081.76 121.64Q1077.07 118.91 1071.95 116.76Q1066.82 114.61 1060.96 114.61L1060.96 114.61Q1054.52 114.61 1051.05 118.86Q1047.58 123.11 1047.58 130.43L1047.58 130.43Q1047.58 137.66 1051.73 143.03Q1055.88 148.40 1066.23 155.24L1066.23 155.24Q1080.20 164.61 1085.72 174.38Q1091.23 184.14 1091.23 196.64Z" fill="#FFFFFF"/><path d="M1203.05 236L1176.39 236L1168.19 199.96L1130.98 199.96L1122.78 236L1096.21 236L1131.57 92.64L1167.60 92.64L1203.05 236ZM1136.25 176.43L1163.21 176.43L1155.59 143.23Q1154.91 140.20 1152.51 128.04Q1150.12 115.88 1149.63 111.78L1149.63 111.78Q1148.36 120.18 1146.41 130.29Q1144.46 140.39 1136.25 176.43L1136.25 176.43Z" fill="#FFFFFF"/><path d="" fill="#FFFFFF"/><path d="M1312.43 114.42L1312.43 114.42Q1301 114.42 1294.41 127.80Q1287.82 141.18 1287.82 165.00L1287.82 165.00Q1287.82 214.61 1313.70 214.61L1313.70 214.61Q1325.02 214.61 1337.43 207.39L1337.43 207.39L1337.43 231.02Q1326.98 237.95 1310.67 237.95L1310.67 237.95Q1286.55 237.95 1273.61 218.76Q1260.67 199.57 1260.67 164.81L1260.67 164.81Q1260.67 130.04 1274.00 110.61Q1287.33 91.18 1311.06 91.18L1311.06 91.18Q1318.87 91.18 1326.05 93.32Q1333.23 95.47 1341.43 100.84L1341.43 100.84L1332.64 122.43Q1328.25 119.40 1323.27 116.91Q1318.29 114.42 1312.43 114.42Z" fill="#FFFFFF"/><path d="M1436.45 236L1410.28 236L1410.28 171.16Q1410.28 147.23 1398.27 147.23L1398.27 147.23Q1389.28 147.23 1385.67 156.65Q1382.05 166.08 1382.05 183.75L1382.05 183.75L1382.05 236L1356.08 236L1356.08 84.05L1382.05 84.05L1382.05 117.84Q1382.05 124.38 1380.88 141.18L1380.88 141.18L1382.25 141.18Q1390.06 125.16 1406.27 125.16L1406.27 125.16Q1421.21 125.16 1428.83 135.27Q1436.45 145.38 1436.45 165.00L1436.45 165.00L1436.45 236Z" fill="#FFFFFF"/><path d="M1497.58 237.95L1497.58 237.95Q1477.17 237.95 1465.40 223.45Q1453.64 208.95 1453.64 182.39L1453.64 182.39Q1453.64 155.43 1464.28 140.30Q1474.93 125.16 1493.97 125.16L1493.97 125.16Q1511.74 125.16 1522.00 138.10Q1532.25 151.04 1532.25 174.38L1532.25 174.38L1532.25 188.25L1480.00 188.25Q1480.30 202.80 1485.96 209.88Q1491.63 216.96 1501.59 216.96L1501.59 216.96Q1514.28 216.96 1527.56 209.05L1527.56 209.05L1527.56 230.43Q1515.06 237.95 1497.58 237.95ZM1493.77 145.18L1493.77 145.18Q1488.21 145.18 1484.59 151.09Q1480.98 157.00 1480.39 169.40L1480.39 169.40L1506.76 169.40Q1506.57 157.48 1503.15 151.33Q1499.73 145.18 1493.77 145.18Z" fill="#FFFFFF"/><path d="M1585.38 237.95L1585.38 237.95Q1565.94 237.95 1555.79 223.79Q1545.63 209.63 1545.63 182.19L1545.63 182.19Q1545.63 153.48 1555.25 139.32Q1564.87 125.16 1584.98 125.16L1584.98 125.16Q1591.04 125.16 1597.68 126.92Q1604.32 128.68 1609.59 132.00L1609.59 132.00L1602.17 152.21Q1594.07 147.43 1587.82 147.43L1587.82 147.43Q1579.52 147.43 1575.85 156.07Q1572.19 164.71 1572.19 182.00L1572.19 182.00Q1572.19 198.89 1575.80 207.24Q1579.42 215.59 1587.62 215.59L1587.62 215.59Q1597.39 215.59 1608.03 208.75L1608.03 208.75L1608.03 231.61Q1597.78 237.95 1585.38 237.95Z" fill="#FFFFFF"/><path d="M1648.46 177.41L1649.24 177.41L1655.79 164.42L1677.27 127.21L1704.81 127.21L1677.27 171.84L1706.66 236L1679.42 236L1659.79 190.00L1649.63 199.18L1649.63 236L1623.66 236L1623.66 84.05L1649.63 84.05L1649.63 155.63L1648.46 177.41Z" fill="#FFFFFF"/><path d="" fill="#FFFFFF"/><path d="M1833.23 212.76L1833.23 236L1768.87 236L1768.87 93.23L1833.23 93.23L1833.23 116.18L1795.43 116.18L1795.43 150.16L1830.49 150.16L1830.49 173.21L1795.43 173.21L1795.43 212.76L1833.23 212.76Z" fill="#FFFFFF"/><path d="M1842.80 236L1871.21 180.43L1844.07 127.21L1871.02 127.21L1885.47 160.41L1898.85 127.21L1925.61 127.21L1898.27 180.43L1926.78 236L1899.63 236L1884.20 201.23L1869.85 236L1842.80 236Z" fill="#FFFFFF"/><path d="M1987.82 237.95L1987.82 237.95Q1980.79 237.95 1975.37 234.78Q1969.95 231.61 1965.26 223.60L1965.26 223.60L1963.89 223.60Q1965.45 236.88 1965.45 239.61L1965.45 239.61L1965.45 284.05L1939.28 284.05L1939.28 127.21L1959.40 127.21L1963.89 141.37L1965.06 141.37Q1973.17 125.16 1988.60 125.16L1988.60 125.16Q2003.44 125.16 2011.84 139.86Q2020.24 154.55 2020.24 181.41L2020.24 181.41Q2020.24 207.88 2011.55 222.91Q2002.86 237.95 1987.82 237.95ZM1979.81 147.23L1979.81 147.23Q1972.19 147.23 1968.82 154.31Q1965.45 161.39 1965.26 177.80L1965.26 177.80L1965.26 181.21Q1965.26 199.18 1968.68 207.39Q1972.09 215.59 1980.00 215.59L1980.00 215.59Q1993.68 215.59 1993.68 181.02L1993.68 181.02Q1993.68 164.03 1990.31 155.63Q1986.94 147.23 1979.81 147.23Z" fill="#FFFFFF"/><path d="M2119.07 181.41L2119.07 181.41Q2119.07 208.17 2107.74 223.06Q2096.41 237.95 2076.68 237.95L2076.68 237.95Q2064.18 237.95 2054.61 231.12Q2045.04 224.28 2039.87 211.44Q2034.69 198.60 2034.69 181.41L2034.69 181.41Q2034.69 154.95 2045.92 140.05Q2057.15 125.16 2077.07 125.16L2077.07 125.16Q2096.31 125.16 2107.69 140.35Q2119.07 155.53 2119.07 181.41ZM2061.25 181.41L2061.25 181.41Q2061.25 198.40 2064.96 207.09Q2068.68 215.79 2076.88 215.79L2076.88 215.79Q2092.50 215.79 2092.50 181.41L2092.50 181.41Q2092.50 164.32 2088.74 155.87Q2084.98 147.43 2076.88 147.43L2076.88 147.43Q2068.68 147.43 2064.96 155.87Q2061.25 164.32 2061.25 181.41Z" fill="#FFFFFF"/><path d="M2183.71 125.16L2183.71 125.16Q2188.50 125.16 2193.09 126.63L2193.09 126.63L2190.06 151.82Q2187.33 150.84 2182.93 150.84L2182.93 150.84Q2173.46 150.84 2168.38 158.31Q2163.30 165.79 2163.30 180.04L2163.30 180.04L2163.30 236L2137.33 236L2137.33 127.21L2158.71 127.21L2161.64 144.20L2162.52 144.20Q2166.82 133.95 2171.90 129.55Q2176.98 125.16 2183.71 125.16Z" fill="#FFFFFF"/><path d="M2242.50 215.98L2242.50 215.98Q2247.97 215.98 2254.32 213.25L2254.32 213.25L2254.32 233.56Q2247.97 237.95 2235.28 237.95L2235.28 237.95Q2221.12 237.95 2214.28 229.51Q2207.45 221.06 2207.45 204.16L2207.45 204.16L2207.45 147.82L2196.90 147.82L2196.90 136.20L2210.47 126.82L2217.11 103.77L2233.71 103.77L2233.71 127.21L2253.44 127.21L2253.44 147.82L2233.71 147.82L2233.71 205.04Q2233.71 215.98 2242.50 215.98Z" fill="#FFFFFF"/><path d="M2309.69 237.95L2309.69 237.95Q2289.28 237.95 2277.51 223.45Q2265.75 208.95 2265.75 182.39L2265.75 182.39Q2265.75 155.43 2276.39 140.30Q2287.04 125.16 2306.08 125.16L2306.08 125.16Q2323.85 125.16 2334.11 138.10Q2344.36 151.04 2344.36 174.38L2344.36 174.38L2344.36 188.25L2292.11 188.25Q2292.41 202.80 2298.07 209.88Q2303.73 216.96 2313.70 216.96L2313.70 216.96Q2326.39 216.96 2339.67 209.05L2339.67 209.05L2339.67 230.43Q2327.17 237.95 2309.69 237.95ZM2305.88 145.18L2305.88 145.18Q2300.32 145.18 2296.70 151.09Q2293.09 157.00 2292.50 169.40L2292.50 169.40L2318.87 169.40Q2318.68 157.48 2315.26 151.33Q2311.84 145.18 2305.88 145.18Z" fill="#FFFFFF"/><path d="M2407.93 125.16L2407.93 125.16Q2412.72 125.16 2417.31 126.63L2417.31 126.63L2414.28 151.82Q2411.55 150.84 2407.15 150.84L2407.15 150.84Q2397.68 150.84 2392.60 158.31Q2387.52 165.79 2387.52 180.04L2387.52 180.04L2387.52 236L2361.55 236L2361.55 127.21L2382.93 127.21L2385.86 144.20L2386.74 144.20Q2391.04 133.95 2396.12 129.55Q2401.20 125.16 2407.93 125.16Z" fill="#FFFFFF"/><path d="M542.58 235L513.57 235L486.43 113.42L485.35 113.42Q487.21 127.48 487.21 139.20L487.21 139.20L487.21 235L462.60 235L462.60 92.23L503.42 92.23L527.83 204.43L528.61 204.43L552.83 92.23L594.24 92.23L594.24 235L569.04 235L569.04 138.22Q569.04 126.21 570.41 113.61L570.41 113.61L569.63 113.61L542.58 235Z" fill="url(#TextGradient)"/><path d="M690.23 235L671.19 235L666.02 220.16L665.43 220.16Q659.67 229.73 653.52 233.34Q647.36 236.95 637.99 236.95L637.99 236.95Q625.98 236.95 619.09 227.97Q612.21 218.98 612.21 202.97L612.21 202.97Q612.21 185.78 621.63 177.43Q631.05 169.08 649.80 168.20L649.80 168.20L664.26 167.62L664.26 159.80Q664.26 144.57 651.07 144.57L651.07 144.57Q641.31 144.57 628.61 152.19L628.61 152.19L619.63 134.22Q635.84 123.96 654.88 123.96L654.88 123.96Q672.17 123.96 681.20 133.88Q690.23 143.79 690.23 161.95L690.23 161.95L690.23 235ZM648.63 216.64L648.63 216.64Q655.76 216.64 660.01 210.24Q664.26 203.85 664.26 193.20L664.26 193.20L664.26 184.02L656.25 184.41Q647.36 184.90 643.21 189.49Q639.06 194.08 639.06 203.16L639.06 203.16Q639.06 216.64 648.63 216.64Z" fill="url(#TextGradient)"/><path d="M737.40 126.21L737.40 235L711.43 235L711.43 126.21L737.40 126.21ZM710.35 97.79L710.35 97.79Q710.35 91.35 714.11 87.59Q717.87 83.83 724.61 83.83L724.61 83.83Q730.96 83.83 734.77 87.59Q738.57 91.35 738.57 97.79L738.57 97.79Q738.57 104.43 734.67 108.10Q730.76 111.76 724.61 111.76L724.61 111.76Q718.16 111.76 714.26 108.10Q710.35 104.43 710.35 97.79Z" fill="url(#TextGradient)"/><path d="M785.64 83.05L785.64 235L759.67 235L759.67 83.05L785.64 83.05Z" fill="url(#TextGradient)"/><path d="" fill="url(#TextGradient)"/><path d="M902.25 115.57L902.25 235L875.78 235L875.78 115.57L848.44 115.57L848.44 92.23L929.59 92.23L929.59 115.57L902.25 115.57Z" fill="url(#TextGradient)"/><path d="M1008.20 235L944.82 235L944.82 92.23L971.39 92.23L971.39 211.76L1008.20 211.76L1008.20 235Z" fill="url(#TextGradient)"/><path d="M1090.23 195.64L1090.23 195.64Q1090.23 215.66 1080.13 226.31Q1070.02 236.95 1050.98 236.95L1050.98 236.95Q1032.32 236.95 1019.24 229.63L1019.24 229.63L1019.24 203.36Q1035.25 213.81 1048.63 213.81L1048.63 213.81Q1056.25 213.81 1060.11 209.61Q1063.96 205.41 1063.96 198.18L1063.96 198.18Q1063.96 191.05 1059.38 185.15Q1054.79 179.24 1044.24 172.01L1044.24 172.01Q1035.06 165.66 1030.32 159.85Q1025.59 154.04 1023.00 146.82Q1020.41 139.59 1020.41 130.02L1020.41 130.02Q1020.41 111.66 1030.62 100.92Q1040.82 90.18 1058.01 90.18L1058.01 90.18Q1074.41 90.18 1089.55 99.36L1089.55 99.36L1080.76 120.64Q1076.07 117.91 1070.95 115.76Q1065.82 113.61 1059.96 113.61L1059.96 113.61Q1053.52 113.61 1050.05 117.86Q1046.58 122.11 1046.58 129.43L1046.58 129.43Q1046.58 136.66 1050.73 142.03Q1054.88 147.40 1065.23 154.24L1065.23 154.24Q1079.20 163.61 1084.72 173.38Q1090.23 183.14 1090.23 195.64Z" fill="url(#TextGradient)"/><path d="M1202.05 235L1175.39 235L1167.19 198.96L1129.98 198.96L1121.78 235L1095.21 235L1130.57 91.64L1166.60 91.64L1202.05 235ZM1135.25 175.43L1162.21 175.43L1154.59 142.23Q1153.91 139.20 1151.51 127.04Q1149.12 114.88 1148.63 110.78L1148.63 110.78Q1147.36 119.18 1145.41 129.29Q1143.46 139.39 1135.25 175.43L1135.25 175.43Z" fill="url(#TextGradient)"/><path d="" fill="url(#TextGradient)"/><path d="M1311.43 113.42L1311.43 113.42Q1300 113.42 1293.41 126.80Q1286.82 140.18 1286.82 164.00L1286.82 164.00Q1286.82 213.61 1312.70 213.61L1312.70 213.61Q1324.02 213.61 1336.43 206.39L1336.43 206.39L1336.43 230.02Q1325.98 236.95 1309.67 236.95L1309.67 236.95Q1285.55 236.95 1272.61 217.76Q1259.67 198.57 1259.67 163.81L1259.67 163.81Q1259.67 129.04 1273.00 109.61Q1286.33 90.18 1310.06 90.18L1310.06 90.18Q1317.87 90.18 1325.05 92.32Q1332.23 94.47 1340.43 99.84L1340.43 99.84L1331.64 121.43Q1327.25 118.40 1322.27 115.91Q1317.29 113.42 1311.43 113.42Z" fill="url(#TextGradient)"/><path d="M1435.45 235L1409.28 235L1409.28 170.16Q1409.28 146.23 1397.27 146.23L1397.27 146.23Q1388.28 146.23 1384.67 155.65Q1381.05 165.08 1381.05 182.75L1381.05 182.75L1381.05 235L1355.08 235L1355.08 83.05L1381.05 83.05L1381.05 116.84Q1381.05 123.38 1379.88 140.18L1379.88 140.18L1381.25 140.18Q1389.06 124.16 1405.27 124.16L1405.27 124.16Q1420.21 124.16 1427.83 134.27Q1435.45 144.38 1435.45 164.00L1435.45 164.00L1435.45 235Z" fill="url(#TextGradient)"/><path d="M1496.58 236.95L1496.58 236.95Q1476.17 236.95 1464.40 222.45Q1452.64 207.95 1452.64 181.39L1452.64 181.39Q1452.64 154.43 1463.28 139.30Q1473.93 124.16 1492.97 124.16L1492.97 124.16Q1510.74 124.16 1521.00 137.10Q1531.25 150.04 1531.25 173.38L1531.25 173.38L1531.25 187.25L1479.00 187.25Q1479.30 201.80 1484.96 208.88Q1490.63 215.96 1500.59 215.96L1500.59 215.96Q1513.28 215.96 1526.56 208.05L1526.56 208.05L1526.56 229.43Q1514.06 236.95 1496.58 236.95ZM1492.77 144.18L1492.77 144.18Q1487.21 144.18 1483.59 150.09Q1479.98 156.00 1479.39 168.40L1479.39 168.40L1505.76 168.40Q1505.57 156.48 1502.15 150.33Q1498.73 144.18 1492.77 144.18Z" fill="url(#TextGradient)"/><path d="M1584.38 236.95L1584.38 236.95Q1564.94 236.95 1554.79 222.79Q1544.63 208.63 1544.63 181.19L1544.63 181.19Q1544.63 152.48 1554.25 138.32Q1563.87 124.16 1583.98 124.16L1583.98 124.16Q1590.04 124.16 1596.68 125.92Q1603.32 127.68 1608.59 131.00L1608.59 131.00L1601.17 151.21Q1593.07 146.43 1586.82 146.43L1586.82 146.43Q1578.52 146.43 1574.85 155.07Q1571.19 163.71 1571.19 181.00L1571.19 181.00Q1571.19 197.89 1574.80 206.24Q1578.42 214.59 1586.62 214.59L1586.62 214.59Q1596.39 214.59 1607.03 207.75L1607.03 207.75L1607.03 230.61Q1596.78 236.95 1584.38 236.95Z" fill="url(#TextGradient)"/><path d="M1647.46 176.41L1648.24 176.41L1654.79 163.42L1676.27 126.21L1703.81 126.21L1676.27 170.84L1705.66 235L1678.42 235L1658.79 189.00L1648.63 198.18L1648.63 235L1622.66 235L1622.66 83.05L1648.63 83.05L1648.63 154.63L1647.46 176.41Z" fill="url(#TextGradient)"/><path d="" fill="url(#TextGradient)"/><path d="M1832.23 211.76L1832.23 235L1767.87 235L1767.87 92.23L1832.23 92.23L1832.23 115.18L1794.43 115.18L1794.43 149.16L1829.49 149.16L1829.49 172.21L1794.43 172.21L1794.43 211.76L1832.23 211.76Z" fill="url(#TextGradient)"/><path d="M1841.80 235L1870.21 179.43L1843.07 126.21L1870.02 126.21L1884.47 159.41L1897.85 126.21L1924.61 126.21L1897.27 179.43L1925.78 235L1898.63 235L1883.20 200.23L1868.85 235L1841.80 235Z" fill="url(#TextGradient)"/><path d="M1986.82 236.95L1986.82 236.95Q1979.79 236.95 1974.37 233.78Q1968.95 230.61 1964.26 222.60L1964.26 222.60L1962.89 222.60Q1964.45 235.88 1964.45 238.61L1964.45 238.61L1964.45 283.05L1938.28 283.05L1938.28 126.21L1958.40 126.21L1962.89 140.37L1964.06 140.37Q1972.17 124.16 1987.60 124.16L1987.60 124.16Q2002.44 124.16 2010.84 138.86Q2019.24 153.55 2019.24 180.41L2019.24 180.41Q2019.24 206.88 2010.55 221.91Q2001.86 236.95 1986.82 236.95ZM1978.81 146.23L1978.81 146.23Q1971.19 146.23 1967.82 153.31Q1964.45 160.39 1964.26 176.80L1964.26 176.80L1964.26 180.21Q1964.26 198.18 1967.68 206.39Q1971.09 214.59 1979.00 214.59L1979.00 214.59Q1992.68 214.59 1992.68 180.02L1992.68 180.02Q1992.68 163.03 1989.31 154.63Q1985.94 146.23 1978.81 146.23Z" fill="url(#TextGradient)"/><path d="M2118.07 180.41L2118.07 180.41Q2118.07 207.17 2106.74 222.06Q2095.41 236.95 2075.68 236.95L2075.68 236.95Q2063.18 236.95 2053.61 230.12Q2044.04 223.28 2038.87 210.44Q2033.69 197.60 2033.69 180.41L2033.69 180.41Q2033.69 153.95 2044.92 139.05Q2056.15 124.16 2076.07 124.16L2076.07 124.16Q2095.31 124.16 2106.69 139.35Q2118.07 154.53 2118.07 180.41ZM2060.25 180.41L2060.25 180.41Q2060.25 197.40 2063.96 206.09Q2067.68 214.79 2075.88 214.79L2075.88 214.79Q2091.50 214.79 2091.50 180.41L2091.50 180.41Q2091.50 163.32 2087.74 154.87Q2083.98 146.43 2075.88 146.43L2075.88 146.43Q2067.68 146.43 2063.96 154.87Q2060.25 163.32 2060.25 180.41Z" fill="url(#TextGradient)"/><path d="M2182.71 124.16L2182.71 124.16Q2187.50 124.16 2192.09 125.63L2192.09 125.63L2189.06 150.82Q2186.33 149.84 2181.93 149.84L2181.93 149.84Q2172.46 149.84 2167.38 157.31Q2162.30 164.79 2162.30 179.04L2162.30 179.04L2162.30 235L2136.33 235L2136.33 126.21L2157.71 126.21L2160.64 143.20L2161.52 143.20Q2165.82 132.95 2170.90 128.55Q2175.98 124.16 2182.71 124.16Z" fill="url(#TextGradient)"/><path d="M2241.50 214.98L2241.50 214.98Q2246.97 214.98 2253.32 212.25L2253.32 212.25L2253.32 232.56Q2246.97 236.95 2234.28 236.95L2234.28 236.95Q2220.12 236.95 2213.28 228.51Q2206.45 220.06 2206.45 203.16L2206.45 203.16L2206.45 146.82L2195.90 146.82L2195.90 135.20L2209.47 125.82L2216.11 102.77L2232.71 102.77L2232.71 126.21L2252.44 126.21L2252.44 146.82L2232.71 146.82L2232.71 204.04Q2232.71 214.98 2241.50 214.98Z" fill="url(#TextGradient)"/><path d="M2308.69 236.95L2308.69 236.95Q2288.28 236.95 2276.51 222.45Q2264.75 207.95 2264.75 181.39L2264.75 181.39Q2264.75 154.43 2275.39 139.30Q2286.04 124.16 2305.08 124.16L2305.08 124.16Q2322.85 124.16 2333.11 137.10Q2343.36 150.04 2343.36 173.38L2343.36 173.38L2343.36 187.25L2291.11 187.25Q2291.41 201.80 2297.07 208.88Q2302.73 215.96 2312.70 215.96L2312.70 215.96Q2325.39 215.96 2338.67 208.05L2338.67 208.05L2338.67 229.43Q2326.17 236.95 2308.69 236.95ZM2304.88 144.18L2304.88 144.18Q2299.32 144.18 2295.70 150.09Q2292.09 156.00 2291.50 168.40L2291.50 168.40L2317.87 168.40Q2317.68 156.48 2314.26 150.33Q2310.84 144.18 2304.88 144.18Z" fill="url(#TextGradient)"/><path d="M2406.93 124.16L2406.93 124.16Q2411.72 124.16 2416.31 125.63L2416.31 125.63L2413.28 150.82Q2410.55 149.84 2406.15 149.84L2406.15 149.84Q2396.68 149.84 2391.60 157.31Q2386.52 164.79 2386.52 179.04L2386.52 179.04L2386.52 235L2360.55 235L2360.55 126.21L2381.93 126.21L2384.86 143.20L2385.74 143.20Q2390.04 132.95 2395.12 128.55Q2400.20 124.16 2406.93 124.16Z" fill="url(#TextGradient)"/>
    <defs>
        <linearGradient id="TextGradient" x1="0" y1="0" x2="0" y2="1">
            <stop offset="0" style="stop-color:#026D91;stop-opacity:1"/>
            <stop offset="1" style="stop-color:#02A1D7;stop-opacity:1"/>
        </linearGradient>
    </defs>
</svg>
