<?xml version="1.0" encoding="UTF-8" standalone="no"?>
<!DOCTYPE svg PUBLIC "-//W3C//DTD SVG 1.1//EN" "http://www.w3.org/Graphics/SVG/1.1/DTD/svg11.dtd">
<svg width="100%" height="100%" viewBox="0 0 1654.90625 330" version="1.1" xmlns="http://www.w3.org/2000/svg" xmlns:xlink="http://www.w3.org/1999/xlink" xml:space="preserve" xmlns:serif="http://www.serif.com/" style="fill-rule:evenodd;clip-rule:evenodd;stroke-linejoin:round;stroke-miterlimit:2;">
    <path d="M82.912,22.056l-69.362,69.362l69.362,69.363l69.363,-69.363l-69.363,-69.362Z" style="fill:rgb(176,176,176);"/>
    <path d="M82.912,160.781l-69.362,69.363l69.362,69.363l69.363,-69.363l-69.363,-69.363Z" style="fill:rgb(176,176,176);"/>
    <path d="M199.583,0l-94.615,0l-22.056,22.056l69.363,69.362l69.363,-69.362l-22.055,-22.056Z" style="fill:rgb(176,176,176);fill-opacity:0.5;"/>
    <path d="M113.02,329.614l78.511,0l30.107,-30.107l-69.363,-69.363l-69.363,69.363l30.108,30.107Z" style="fill:rgb(176,176,176);fill-opacity:0.5;"/>
    <path d="M0,0l0,77.869l13.55,13.549l69.362,-69.362l-22.055,-22.056l-60.857,-0Z" style="fill:rgb(176,176,176);fill-opacity:0.5;"/>
    <path d="M13.55,368.87l-1.598,-1.597l3.195,-0l-1.597,1.597Zm-13.55,-125.176l0,85.92l52.805,0l30.107,-30.107l-69.362,-69.363l-13.55,13.55Z" style="fill:rgb(176,176,176);fill-opacity:0.5;"/>
    <path d="M0,104.968l0,111.627l13.55,13.549l69.362,-69.363l-69.362,-69.363l-13.55,13.55Z" style="fill:rgb(176,176,176);fill-opacity:0.5;"/>
    <path d="M152.275,91.418l-69.363,69.363l69.363,69.363l69.363,-69.363l-69.363,-69.363Z" style="fill:#7002B9;"/>
    <path d="M221.638,22.056l-69.363,69.362l69.363,69.363l69.363,-69.363l-69.363,-69.362Z" style="fill:#A04DD8;"/>
    <path d="M221.638,160.781l-69.363,69.363l69.363,69.363l69.363,-69.363l-69.363,-69.363Z" style="fill:#A04DD8;"/>
    <path d="M291.001,91.418l-69.363,69.363l69.363,69.363l69.363,-69.363l-69.363,-69.363Z" style="fill:#8202D7;"/>
    <path d="M152.291,110.184l-152.291,152.291l0,-18.781l152.275,-152.276l0.016,0.016l0.016,-0.016l69.543,69.544l69.544,-69.544l9.391,9.391l-78.723,78.722l-0.212,-0.212l-0.212,0.212l-69.347,-69.347Z" style="fill:rgb(255,209,62);"/>
    <path d="M543.58 236L514.57 236L487.43 114.42L486.35 114.42Q488.21 128.48 488.21 140.20L488.21 140.20L488.21 236L463.60 236L463.60 93.23L504.42 93.23L528.83 205.43L529.61 205.43L553.83 93.23L595.24 93.23L595.24 236L570.04 236L570.04 139.22Q570.04 127.21 571.41 114.61L571.41 114.61L570.63 114.61L543.58 236Z" fill="#FFFFFF"/><path d="M714.67 236L688.01 236L679.81 199.96L642.60 199.96L634.40 236L607.84 236L643.19 92.64L679.22 92.64L714.67 236ZM647.88 176.43L674.83 176.43L667.21 143.23Q666.53 140.20 664.13 128.04Q661.74 115.88 661.25 111.78L661.25 111.78Q659.98 120.18 658.03 130.29Q656.08 140.39 647.88 176.43L647.88 176.43Z" fill="#FFFFFF"/><path d="M757.05 236L732.05 236L732.05 93.23L757.05 93.23L757.05 236Z" fill="#FFFFFF"/><path d="M850.61 236L787.23 236L787.23 93.23L813.79 93.23L813.79 212.76L850.61 212.76L850.61 236Z" fill="#FFFFFF"/><path d="" fill="#FFFFFF"/><path d="M1011.25 236L984.59 236L976.39 199.96L939.18 199.96L930.98 236L904.42 236L939.77 92.64L975.80 92.64L1011.25 236ZM944.46 176.43L971.41 176.43L963.79 143.23Q963.11 140.20 960.72 128.04Q958.32 115.88 957.84 111.78L957.84 111.78Q956.57 120.18 954.61 130.29Q952.66 140.39 944.46 176.43L944.46 176.43Z" fill="#FFFFFF"/><path d="M1059.89 180.43L1050.41 180.43L1050.41 236L1023.85 236L1023.85 93.23L1058.62 93.23Q1080.69 93.23 1091.19 103.68Q1101.68 114.13 1101.68 135.61L1101.68 135.61Q1101.68 162.66 1083.42 173.40L1083.42 173.40L1110.86 236L1082.45 236L1059.89 180.43ZM1050.41 116.18L1050.41 157.58L1057.25 157.58Q1066.63 157.58 1070.73 152.26Q1074.83 146.94 1074.83 136.39L1074.83 136.39Q1074.83 125.45 1070.48 120.81Q1066.14 116.18 1057.05 116.18L1057.05 116.18L1050.41 116.18Z" fill="#FFFFFF"/><path d="M1171.21 114.42L1171.21 114.42Q1159.79 114.42 1153.20 127.80Q1146.61 141.18 1146.61 165.00L1146.61 165.00Q1146.61 214.61 1172.48 214.61L1172.48 214.61Q1183.81 214.61 1196.21 207.39L1196.21 207.39L1196.21 231.02Q1185.77 237.95 1169.46 237.95L1169.46 237.95Q1145.34 237.95 1132.40 218.76Q1119.46 199.57 1119.46 164.81L1119.46 164.81Q1119.46 130.04 1132.79 110.61Q1146.12 91.18 1169.85 91.18L1169.85 91.18Q1177.66 91.18 1184.84 93.32Q1192.02 95.47 1200.22 100.84L1200.22 100.84L1191.43 122.43Q1187.04 119.40 1182.05 116.91Q1177.07 114.42 1171.21 114.42Z" fill="#FFFFFF"/><path d="M1304.61 93.23L1304.61 236L1278.05 236L1278.05 173.40L1242.99 173.40L1242.99 236L1216.43 236L1216.43 93.23L1242.99 93.23L1242.99 149.96L1278.05 149.96L1278.05 93.23L1304.61 93.23Z" fill="#FFFFFF"/><path d="M1359.59 236L1334.59 236L1334.59 93.23L1359.59 93.23L1359.59 236Z" fill="#FFFFFF"/><path d="M1432.74 180.43L1451.20 93.23L1477.95 93.23L1444.36 236L1410.57 236L1377.17 93.23L1403.93 93.23L1422.58 180.43Q1425.12 191.57 1427.56 212.37L1427.56 212.37Q1429.61 194.69 1432.74 180.43L1432.74 180.43Z" fill="#FFFFFF"/><path d="M1554.91 212.76L1554.91 236L1490.55 236L1490.55 93.23L1554.91 93.23L1554.91 116.18L1517.11 116.18L1517.11 150.16L1552.17 150.16L1552.17 173.21L1517.11 173.21L1517.11 212.76L1554.91 212.76Z" fill="#FFFFFF"/><path d="M542.58 235L513.57 235L486.43 113.42L485.35 113.42Q487.21 127.48 487.21 139.20L487.21 139.20L487.21 235L462.60 235L462.60 92.23L503.42 92.23L527.83 204.43L528.61 204.43L552.83 92.23L594.24 92.23L594.24 235L569.04 235L569.04 138.22Q569.04 126.21 570.41 113.61L570.41 113.61L569.63 113.61L542.58 235Z" fill="url(#TextGradient)"/><path d="M713.67 235L687.01 235L678.81 198.96L641.60 198.96L633.40 235L606.84 235L642.19 91.64L678.22 91.64L713.67 235ZM646.88 175.43L673.83 175.43L666.21 142.23Q665.53 139.20 663.13 127.04Q660.74 114.88 660.25 110.78L660.25 110.78Q658.98 119.18 657.03 129.29Q655.08 139.39 646.88 175.43L646.88 175.43Z" fill="url(#TextGradient)"/><path d="M756.05 235L731.05 235L731.05 92.23L756.05 92.23L756.05 235Z" fill="url(#TextGradient)"/><path d="M849.61 235L786.23 235L786.23 92.23L812.79 92.23L812.79 211.76L849.61 211.76L849.61 235Z" fill="url(#TextGradient)"/><path d="" fill="url(#TextGradient)"/><path d="M1010.25 235L983.59 235L975.39 198.96L938.18 198.96L929.98 235L903.42 235L938.77 91.64L974.80 91.64L1010.25 235ZM943.46 175.43L970.41 175.43L962.79 142.23Q962.11 139.20 959.72 127.04Q957.32 114.88 956.84 110.78L956.84 110.78Q955.57 119.18 953.61 129.29Q951.66 139.39 943.46 175.43L943.46 175.43Z" fill="url(#TextGradient)"/><path d="M1058.89 179.43L1049.41 179.43L1049.41 235L1022.85 235L1022.85 92.23L1057.62 92.23Q1079.69 92.23 1090.19 102.68Q1100.68 113.13 1100.68 134.61L1100.68 134.61Q1100.68 161.66 1082.42 172.40L1082.42 172.40L1109.86 235L1081.45 235L1058.89 179.43ZM1049.41 115.18L1049.41 156.58L1056.25 156.58Q1065.63 156.58 1069.73 151.26Q1073.83 145.94 1073.83 135.39L1073.83 135.39Q1073.83 124.45 1069.48 119.81Q1065.14 115.18 1056.05 115.18L1056.05 115.18L1049.41 115.18Z" fill="url(#TextGradient)"/><path d="M1170.21 113.42L1170.21 113.42Q1158.79 113.42 1152.20 126.80Q1145.61 140.18 1145.61 164.00L1145.61 164.00Q1145.61 213.61 1171.48 213.61L1171.48 213.61Q1182.81 213.61 1195.21 206.39L1195.21 206.39L1195.21 230.02Q1184.77 236.95 1168.46 236.95L1168.46 236.95Q1144.34 236.95 1131.40 217.76Q1118.46 198.57 1118.46 163.81L1118.46 163.81Q1118.46 129.04 1131.79 109.61Q1145.12 90.18 1168.85 90.18L1168.85 90.18Q1176.66 90.18 1183.84 92.32Q1191.02 94.47 1199.22 99.84L1199.22 99.84L1190.43 121.43Q1186.04 118.40 1181.05 115.91Q1176.07 113.42 1170.21 113.42Z" fill="url(#TextGradient)"/><path d="M1303.61 92.23L1303.61 235L1277.05 235L1277.05 172.40L1241.99 172.40L1241.99 235L1215.43 235L1215.43 92.23L1241.99 92.23L1241.99 148.96L1277.05 148.96L1277.05 92.23L1303.61 92.23Z" fill="url(#TextGradient)"/><path d="M1358.59 235L1333.59 235L1333.59 92.23L1358.59 92.23L1358.59 235Z" fill="url(#TextGradient)"/><path d="M1431.74 179.43L1450.20 92.23L1476.95 92.23L1443.36 235L1409.57 235L1376.17 92.23L1402.93 92.23L1421.58 179.43Q1424.12 190.57 1426.56 211.37L1426.56 211.37Q1428.61 193.69 1431.74 179.43L1431.74 179.43Z" fill="url(#TextGradient)"/><path d="M1553.91 211.76L1553.91 235L1489.55 235L1489.55 92.23L1553.91 92.23L1553.91 115.18L1516.11 115.18L1516.11 149.16L1551.17 149.16L1551.17 172.21L1516.11 172.21L1516.11 211.76L1553.91 211.76Z" fill="url(#TextGradient)"/>
    <defs>
        <linearGradient id="TextGradient" x1="0" y1="0" x2="0" y2="1">
            <stop offset="0" style="stop-color:#580291;stop-opacity:1"/>
            <stop offset="1" style="stop-color:#8202D7;stop-opacity:1"/>
        </linearGradient>
    </defs>
</svg>
