<?xml version="1.0" encoding="UTF-8" standalone="no"?>
<!DOCTYPE svg PUBLIC "-//W3C//DTD SVG 1.1//EN" "http://www.w3.org/Graphics/SVG/1.1/DTD/svg11.dtd">
<svg width="100%" height="100%" viewBox="0 0 1048.36328125 330" version="1.1" xmlns="http://www.w3.org/2000/svg" xmlns:xlink="http://www.w3.org/1999/xlink" xml:space="preserve" xmlns:serif="http://www.serif.com/" style="fill-rule:evenodd;clip-rule:evenodd;stroke-linejoin:round;stroke-miterlimit:2;">
    <path d="M82.912,22.056l-69.362,69.362l69.362,69.363l69.363,-69.363l-69.363,-69.362Z" style="fill:rgb(176,176,176);"/>
    <path d="M82.912,160.781l-69.362,69.363l69.362,69.363l69.363,-69.363l-69.363,-69.363Z" style="fill:rgb(176,176,176);"/>
    <path d="M199.583,0l-94.615,0l-22.056,22.056l69.363,69.362l69.363,-69.362l-22.055,-22.056Z" style="fill:rgb(176,176,176);fill-opacity:0.5;"/>
    <path d="M113.02,329.614l78.511,0l30.107,-30.107l-69.363,-69.363l-69.363,69.363l30.108,30.107Z" style="fill:rgb(176,176,176);fill-opacity:0.5;"/>
    <path d="M0,0l0,77.869l13.55,13.549l69.362,-69.362l-22.055,-22.056l-60.857,-0Z" style="fill:rgb(176,176,176);fill-opacity:0.5;"/>
    <path d="M13.55,368.87l-1.598,-1.597l3.195,-0l-1.597,1.597Zm-13.55,-125.176l0,85.92l52.805,0l30.107,-30.107l-69.362,-69.363l-13.55,13.55Z" style="fill:rgb(176,176,176);fill-opacity:0.5;"/>
    <path d="M0,104.968l0,111.627l13.55,13.549l69.362,-69.363l-69.362,-69.363l-13.55,13.55Z" style="fill:rgb(176,176,176);fill-opacity:0.5;"/>
    <path d="M152.275,91.418l-69.363,69.363l69.363,69.363l69.363,-69.363l-69.363,-69.363Z" style="fill:#7002B9;"/>
    <path d="M221.638,22.056l-69.363,69.362l69.363,69.363l69.363,-69.363l-69.363,-69.362Z" style="fill:#A04DD8;"/>
    <path d="M221.638,160.781l-69.363,69.363l69.363,69.363l69.363,-69.363l-69.363,-69.363Z" style="fill:#A04DD8;"/>
    <path d="M291.001,91.418l-69.363,69.363l69.363,69.363l69.363,-69.363l-69.363,-69.363Z" style="fill:#8202D7;"/>
    <path d="M152.291,110.184l-152.291,152.291l0,-18.781l152.275,-152.276l0.016,0.016l0.016,-0.016l69.543,69.544l69.544,-69.544l9.391,9.391l-78.723,78.722l-0.212,-0.212l-0.212,0.212l-69.347,-69.347Z" style="fill:rgb(255,209,62);"/>
    <path d="M541.43 137.17L541.43 137.17Q541.43 159.93 529.96 172.08Q518.48 184.24 496.80 184.24L496.80 184.24L490.16 184.24L490.16 236L463.60 236L463.60 93.23L499.83 93.23Q541.43 93.23 541.43 137.17ZM490.16 116.18L490.16 161.20L495.24 161.20Q505.00 161.20 509.79 155.82Q514.57 150.45 514.57 138.25L514.57 138.25Q514.57 127.02 510.18 121.60Q505.79 116.18 496.61 116.18L496.61 116.18L490.16 116.18Z" fill="#FFFFFF"/><path d="M637.43 236L616.63 236L613.40 222.04L612.04 222.04Q608.42 229.46 601.73 233.71Q595.04 237.95 586.45 237.95L586.45 237.95Q571.80 237.95 564.28 227.99Q556.76 218.03 556.76 198.21L556.76 198.21L556.76 127.21L583.03 127.21L583.03 191.96Q583.03 203.87 585.86 209.93Q588.70 215.98 595.04 215.98L595.04 215.98Q603.44 215.98 607.30 207.58Q611.16 199.18 611.16 179.36L611.16 179.36L611.16 127.21L637.43 127.21L637.43 236Z" fill="#FFFFFF"/><path d="M705.59 125.16L705.59 125.16Q710.38 125.16 714.96 126.63L714.96 126.63L711.94 151.82Q709.20 150.84 704.81 150.84L704.81 150.84Q695.34 150.84 690.26 158.31Q685.18 165.79 685.18 180.04L685.18 180.04L685.18 236L659.20 236L659.20 127.21L680.59 127.21L683.52 144.20L684.40 144.20Q688.70 133.95 693.77 129.55Q698.85 125.16 705.59 125.16Z" fill="#FFFFFF"/><path d="M775.12 237.95L775.12 237.95Q768.09 237.95 762.67 234.78Q757.25 231.61 752.56 223.60L752.56 223.60L751.20 223.60Q752.76 236.88 752.76 239.61L752.76 239.61L752.76 284.05L726.59 284.05L726.59 127.21L746.70 127.21L751.20 141.37L752.37 141.37Q760.47 125.16 775.90 125.16L775.90 125.16Q790.75 125.16 799.14 139.86Q807.54 154.55 807.54 181.41L807.54 181.41Q807.54 207.88 798.85 222.91Q790.16 237.95 775.12 237.95ZM767.11 147.23L767.11 147.23Q759.50 147.23 756.13 154.31Q752.76 161.39 752.56 177.80L752.56 177.80L752.56 181.21Q752.56 199.18 755.98 207.39Q759.40 215.59 767.31 215.59L767.31 215.59Q780.98 215.59 780.98 181.02L780.98 181.02Q780.98 164.03 777.61 155.63Q774.24 147.23 767.11 147.23Z" fill="#FFFFFF"/><path d="M851.78 84.05L851.78 236L825.80 236L825.80 84.05L851.78 84.05Z" fill="#FFFFFF"/><path d="M913.70 237.95L913.70 237.95Q893.29 237.95 881.52 223.45Q869.75 208.95 869.75 182.39L869.75 182.39Q869.75 155.43 880.39 140.30Q891.04 125.16 910.08 125.16L910.08 125.16Q927.86 125.16 938.11 138.10Q948.36 151.04 948.36 174.38L948.36 174.38L948.36 188.25L896.12 188.25Q896.41 202.80 902.07 209.88Q907.74 216.96 917.70 216.96L917.70 216.96Q930.39 216.96 943.68 209.05L943.68 209.05L943.68 230.43Q931.18 237.95 913.70 237.95ZM909.89 145.18L909.89 145.18Q904.32 145.18 900.71 151.09Q897.09 157.00 896.51 169.40L896.51 169.40L922.88 169.40Q922.68 157.48 919.26 151.33Q915.84 145.18 909.89 145.18Z" fill="#FFFFFF"/><path d="M540.43 136.17L540.43 136.17Q540.43 158.93 528.96 171.08Q517.48 183.24 495.80 183.24L495.80 183.24L489.16 183.24L489.16 235L462.60 235L462.60 92.23L498.83 92.23Q540.43 92.23 540.43 136.17ZM489.16 115.18L489.16 160.20L494.24 160.20Q504.00 160.20 508.79 154.82Q513.57 149.45 513.57 137.25L513.57 137.25Q513.57 126.02 509.18 120.60Q504.79 115.18 495.61 115.18L495.61 115.18L489.16 115.18Z" fill="url(#TextGradient)"/><path d="M636.43 235L615.63 235L612.40 221.04L611.04 221.04Q607.42 228.46 600.73 232.71Q594.04 236.95 585.45 236.95L585.45 236.95Q570.80 236.95 563.28 226.99Q555.76 217.03 555.76 197.21L555.76 197.21L555.76 126.21L582.03 126.21L582.03 190.96Q582.03 202.87 584.86 208.93Q587.70 214.98 594.04 214.98L594.04 214.98Q602.44 214.98 606.30 206.58Q610.16 198.18 610.16 178.36L610.16 178.36L610.16 126.21L636.43 126.21L636.43 235Z" fill="url(#TextGradient)"/><path d="M704.59 124.16L704.59 124.16Q709.38 124.16 713.96 125.63L713.96 125.63L710.94 150.82Q708.20 149.84 703.81 149.84L703.81 149.84Q694.34 149.84 689.26 157.31Q684.18 164.79 684.18 179.04L684.18 179.04L684.18 235L658.20 235L658.20 126.21L679.59 126.21L682.52 143.20L683.40 143.20Q687.70 132.95 692.77 128.55Q697.85 124.16 704.59 124.16Z" fill="url(#TextGradient)"/><path d="M774.12 236.95L774.12 236.95Q767.09 236.95 761.67 233.78Q756.25 230.61 751.56 222.60L751.56 222.60L750.20 222.60Q751.76 235.88 751.76 238.61L751.76 238.61L751.76 283.05L725.59 283.05L725.59 126.21L745.70 126.21L750.20 140.37L751.37 140.37Q759.47 124.16 774.90 124.16L774.90 124.16Q789.75 124.16 798.14 138.86Q806.54 153.55 806.54 180.41L806.54 180.41Q806.54 206.88 797.85 221.91Q789.16 236.95 774.12 236.95ZM766.11 146.23L766.11 146.23Q758.50 146.23 755.13 153.31Q751.76 160.39 751.56 176.80L751.56 176.80L751.56 180.21Q751.56 198.18 754.98 206.39Q758.40 214.59 766.31 214.59L766.31 214.59Q779.98 214.59 779.98 180.02L779.98 180.02Q779.98 163.03 776.61 154.63Q773.24 146.23 766.11 146.23Z" fill="url(#TextGradient)"/><path d="M850.78 83.05L850.78 235L824.80 235L824.80 83.05L850.78 83.05Z" fill="url(#TextGradient)"/><path d="M912.70 236.95L912.70 236.95Q892.29 236.95 880.52 222.45Q868.75 207.95 868.75 181.39L868.75 181.39Q868.75 154.43 879.39 139.30Q890.04 124.16 909.08 124.16L909.08 124.16Q926.86 124.16 937.11 137.10Q947.36 150.04 947.36 173.38L947.36 173.38L947.36 187.25L895.12 187.25Q895.41 201.80 901.07 208.88Q906.74 215.96 916.70 215.96L916.70 215.96Q929.39 215.96 942.68 208.05L942.68 208.05L942.68 229.43Q930.18 236.95 912.70 236.95ZM908.89 144.18L908.89 144.18Q903.32 144.18 899.71 150.09Q896.09 156.00 895.51 168.40L895.51 168.40L921.88 168.40Q921.68 156.48 918.26 150.33Q914.84 144.18 908.89 144.18Z" fill="url(#TextGradient)"/>
    <defs>
        <linearGradient id="TextGradient" x1="0" y1="0" x2="0" y2="1">
            <stop offset="0" style="stop-color:#580291;stop-opacity:1"/>
            <stop offset="1" style="stop-color:#8202D7;stop-opacity:1"/>
        </linearGradient>
    </defs>
</svg>
