<?xml version="1.0" encoding="UTF-8" standalone="no"?>
<!DOCTYPE svg PUBLIC "-//W3C//DTD SVG 1.1//EN" "http://www.w3.org/Graphics/SVG/1.1/DTD/svg11.dtd">
<svg width="100%" height="100%" viewBox="0 0 1112.328125 330" version="1.1" xmlns="http://www.w3.org/2000/svg" xmlns:xlink="http://www.w3.org/1999/xlink" xml:space="preserve" xmlns:serif="http://www.serif.com/" style="fill-rule:evenodd;clip-rule:evenodd;stroke-linejoin:round;stroke-miterlimit:2;">
    <path d="M82.912,22.056l-69.362,69.362l69.362,69.363l69.363,-69.363l-69.363,-69.362Z" style="fill:rgb(176,176,176);"/>
    <path d="M82.912,160.781l-69.362,69.363l69.362,69.363l69.363,-69.363l-69.363,-69.363Z" style="fill:rgb(176,176,176);"/>
    <path d="M199.583,0l-94.615,0l-22.056,22.056l69.363,69.362l69.363,-69.362l-22.055,-22.056Z" style="fill:rgb(176,176,176);fill-opacity:0.5;"/>
    <path d="M113.02,329.614l78.511,0l30.107,-30.107l-69.363,-69.363l-69.363,69.363l30.108,30.107Z" style="fill:rgb(176,176,176);fill-opacity:0.5;"/>
    <path d="M0,0l0,77.869l13.55,13.549l69.362,-69.362l-22.055,-22.056l-60.857,-0Z" style="fill:rgb(176,176,176);fill-opacity:0.5;"/>
    <path d="M13.55,368.87l-1.598,-1.597l3.195,-0l-1.597,1.597Zm-13.55,-125.176l0,85.92l52.805,0l30.107,-30.107l-69.362,-69.363l-13.55,13.55Z" style="fill:rgb(176,176,176);fill-opacity:0.5;"/>
    <path d="M0,104.968l0,111.627l13.55,13.549l69.362,-69.363l-69.362,-69.363l-13.55,13.55Z" style="fill:rgb(176,176,176);fill-opacity:0.5;"/>
    <path d="M152.275,91.418l-69.363,69.363l69.363,69.363l69.363,-69.363l-69.363,-69.363Z" style="fill:#7002B9;"/>
    <path d="M221.638,22.056l-69.363,69.362l69.363,69.363l69.363,-69.363l-69.363,-69.362Z" style="fill:#A04DD8;"/>
    <path d="M221.638,160.781l-69.363,69.363l69.363,69.363l69.363,-69.363l-69.363,-69.363Z" style="fill:#A04DD8;"/>
    <path d="M291.001,91.418l-69.363,69.363l69.363,69.363l69.363,-69.363l-69.363,-69.363Z" style="fill:#8202D7;"/>
    <path d="M152.291,110.184l-152.291,152.291l0,-18.781l152.275,-152.276l0.016,0.016l0.016,-0.016l69.543,69.544l69.544,-69.544l9.391,9.391l-78.723,78.722l-0.212,-0.212l-0.212,0.212l-69.347,-69.347Z" style="fill:rgb(255,209,62);"/>
    <path d="M541.43 137.17L541.43 137.17Q541.43 159.93 529.96 172.08Q518.48 184.24 496.80 184.24L496.80 184.24L490.16 184.24L490.16 236L463.60 236L463.60 93.23L499.83 93.23Q541.43 93.23 541.43 137.17ZM490.16 116.18L490.16 161.20L495.24 161.20Q505.00 161.20 509.79 155.82Q514.57 150.45 514.57 138.25L514.57 138.25Q514.57 127.02 510.18 121.60Q505.79 116.18 496.61 116.18L496.61 116.18L490.16 116.18Z" fill="#FFFFFF"/><path d="M620.82 93.23L647.19 93.23L647.19 185.61Q647.19 211.10 635.67 224.53Q624.14 237.95 602.37 237.95L602.37 237.95Q581.08 237.95 569.95 224.62Q558.81 211.29 558.81 185.22L558.81 185.22L558.81 93.23L585.18 93.23L585.18 187.17Q585.18 214.42 603.25 214.42L603.25 214.42Q611.64 214.42 616.23 207.48Q620.82 200.55 620.82 187.76L620.82 187.76L620.82 93.23Z" fill="#FFFFFF"/><path d="M707.84 180.43L698.36 180.43L698.36 236L671.80 236L671.80 93.23L706.57 93.23Q728.64 93.23 739.13 103.68Q749.63 114.13 749.63 135.61L749.63 135.61Q749.63 162.66 731.37 173.40L731.37 173.40L758.81 236L730.39 236L707.84 180.43ZM698.36 116.18L698.36 157.58L705.20 157.58Q714.57 157.58 718.68 152.26Q722.78 146.94 722.78 136.39L722.78 136.39Q722.78 125.45 718.43 120.81Q714.09 116.18 705.00 116.18L705.00 116.18L698.36 116.18Z" fill="#FFFFFF"/><path d="M849.63 137.17L849.63 137.17Q849.63 159.93 838.16 172.08Q826.68 184.24 805.00 184.24L805.00 184.24L798.36 184.24L798.36 236L771.80 236L771.80 93.23L808.03 93.23Q849.63 93.23 849.63 137.17ZM798.36 116.18L798.36 161.20L803.44 161.20Q813.21 161.20 817.99 155.82Q822.78 150.45 822.78 138.25L822.78 138.25Q822.78 127.02 818.38 121.60Q813.99 116.18 804.81 116.18L804.81 116.18L798.36 116.18Z" fill="#FFFFFF"/><path d="M930.98 236L867.60 236L867.60 93.23L894.16 93.23L894.16 212.76L930.98 212.76L930.98 236Z" fill="#FFFFFF"/><path d="M1012.33 212.76L1012.33 236L947.97 236L947.97 93.23L1012.33 93.23L1012.33 116.18L974.54 116.18L974.54 150.16L1009.59 150.16L1009.59 173.21L974.54 173.21L974.54 212.76L1012.33 212.76Z" fill="#FFFFFF"/><path d="M540.43 136.17L540.43 136.17Q540.43 158.93 528.96 171.08Q517.48 183.24 495.80 183.24L495.80 183.24L489.16 183.24L489.16 235L462.60 235L462.60 92.23L498.83 92.23Q540.43 92.23 540.43 136.17ZM489.16 115.18L489.16 160.20L494.24 160.20Q504.00 160.20 508.79 154.82Q513.57 149.45 513.57 137.25L513.57 137.25Q513.57 126.02 509.18 120.60Q504.79 115.18 495.61 115.18L495.61 115.18L489.16 115.18Z" fill="url(#TextGradient)"/><path d="M619.82 92.23L646.19 92.23L646.19 184.61Q646.19 210.10 634.67 223.53Q623.14 236.95 601.37 236.95L601.37 236.95Q580.08 236.95 568.95 223.62Q557.81 210.29 557.81 184.22L557.81 184.22L557.81 92.23L584.18 92.23L584.18 186.17Q584.18 213.42 602.25 213.42L602.25 213.42Q610.64 213.42 615.23 206.48Q619.82 199.55 619.82 186.76L619.82 186.76L619.82 92.23Z" fill="url(#TextGradient)"/><path d="M706.84 179.43L697.36 179.43L697.36 235L670.80 235L670.80 92.23L705.57 92.23Q727.64 92.23 738.13 102.68Q748.63 113.13 748.63 134.61L748.63 134.61Q748.63 161.66 730.37 172.40L730.37 172.40L757.81 235L729.39 235L706.84 179.43ZM697.36 115.18L697.36 156.58L704.20 156.58Q713.57 156.58 717.68 151.26Q721.78 145.94 721.78 135.39L721.78 135.39Q721.78 124.45 717.43 119.81Q713.09 115.18 704.00 115.18L704.00 115.18L697.36 115.18Z" fill="url(#TextGradient)"/><path d="M848.63 136.17L848.63 136.17Q848.63 158.93 837.16 171.08Q825.68 183.24 804.00 183.24L804.00 183.24L797.36 183.24L797.36 235L770.80 235L770.80 92.23L807.03 92.23Q848.63 92.23 848.63 136.17ZM797.36 115.18L797.36 160.20L802.44 160.20Q812.21 160.20 816.99 154.82Q821.78 149.45 821.78 137.25L821.78 137.25Q821.78 126.02 817.38 120.60Q812.99 115.18 803.81 115.18L803.81 115.18L797.36 115.18Z" fill="url(#TextGradient)"/><path d="M929.98 235L866.60 235L866.60 92.23L893.16 92.23L893.16 211.76L929.98 211.76L929.98 235Z" fill="url(#TextGradient)"/><path d="M1011.33 211.76L1011.33 235L946.97 235L946.97 92.23L1011.33 92.23L1011.33 115.18L973.54 115.18L973.54 149.16L1008.59 149.16L1008.59 172.21L973.54 172.21L973.54 211.76L1011.33 211.76Z" fill="url(#TextGradient)"/>
    <defs>
        <linearGradient id="TextGradient" x1="0" y1="0" x2="0" y2="1">
            <stop offset="0" style="stop-color:#580291;stop-opacity:1"/>
            <stop offset="1" style="stop-color:#8202D7;stop-opacity:1"/>
        </linearGradient>
    </defs>
</svg>
