<?xml version="1.0" encoding="UTF-8" standalone="no"?>
<!DOCTYPE svg PUBLIC "-//W3C//DTD SVG 1.1//EN" "http://www.w3.org/Graphics/SVG/1.1/DTD/svg11.dtd">
<svg width="100%" height="100%" viewBox="0 0 1592.89453125 330" version="1.1" xmlns="http://www.w3.org/2000/svg" xmlns:xlink="http://www.w3.org/1999/xlink" xml:space="preserve" xmlns:serif="http://www.serif.com/" style="fill-rule:evenodd;clip-rule:evenodd;stroke-linejoin:round;stroke-miterlimit:2;background-color:#FFFFFF;">
    <rect x="0" y="0" width="1592.89453125" height="330" style="fill:rgb(255,255,255);"/>
    <g transform="matrix(0.707107,-0.707107,0.707107,0.707107,-212.718,125.508)">
        <rect x="184.1" y="233.984" width="98.094" height="98.094" style="fill:rgb(11,140,197);"/>
    </g>
    <g transform="matrix(0.707107,-0.707107,0.707107,0.707107,-282.081,56.1452)">
        <rect x="184.1" y="233.984" width="98.094" height="98.094" style="fill:rgb(176,176,176);"/>
    </g>
    <g transform="matrix(0.707107,-0.707107,0.707107,0.707107,-282.081,194.871)">
        <rect x="184.1" y="233.984" width="98.094" height="98.094" style="fill:rgb(176,176,176);"/>
    </g>
    <g transform="matrix(0.707107,-0.707107,0.707107,0.707107,-212.718,-13.2176)">
        <rect x="184.1" y="233.984" width="98.094" height="98.094" style="fill:rgb(176,176,176);fill-opacity:0.5;"/>
    </g>
    <g transform="matrix(0.707107,-0.707107,0.707107,0.707107,-351.444,125.508)">
        <rect x="184.1" y="233.984" width="98.094" height="98.094" style="fill:rgb(176,176,176);fill-opacity:0.5;"/>
    </g>
    <g transform="matrix(0.707107,-0.707107,0.707107,0.707107,-212.718,264.234)">
        <rect x="184.1" y="233.984" width="98.094" height="98.094" style="fill:rgb(176,176,176);fill-opacity:0.5;"/>
    </g>
    <g transform="matrix(0.707107,-0.707107,0.707107,0.707107,-351.444,264.234)">
        <rect x="184.1" y="233.984" width="98.094" height="98.094" style="fill:rgb(176,176,176);fill-opacity:0.5;"/>
    </g>
    <g transform="matrix(0.707107,-0.707107,0.707107,0.707107,-351.444,-13.2176)">
        <rect x="184.1" y="233.984" width="98.094" height="98.094" style="fill:rgb(176,176,176);fill-opacity:0.5;"/>
    </g>
    <g transform="matrix(0.707107,-0.707107,0.707107,0.707107,-143.355,56.1452)">
        <rect x="184.1" y="233.984" width="98.094" height="98.094" style="fill:rgb(80,178,223);"/>
    </g>
    <g transform="matrix(0.707107,-0.707107,0.707107,0.707107,-143.355,194.871)">
        <rect x="184.1" y="233.984" width="98.094" height="98.094" style="fill:rgb(80,178,223);"/>
    </g>
    <g transform="matrix(0.707107,-0.707107,0.707107,0.707107,-73.9922,125.508)">
        <rect x="184.1" y="233.984" width="98.094" height="98.094" style="fill:rgb(2,161,215);"/>
    </g>
    <path d="M152.291,211.378L0,59.087L0,77.869L152.275,230.144L152.291,230.128L152.307,230.144L221.85,160.601L291.394,230.144L300.785,220.753L222.062,142.031L221.85,142.243L221.638,142.031L152.291,211.378Z" style="fill:rgb(255,209,62);"/>
    <path d="M541.43 137.17L541.43 137.17Q541.43 159.93 529.96 172.08Q518.48 184.24 496.80 184.24L496.80 184.24L490.16 184.24L490.16 236L463.60 236L463.60 93.23L499.83 93.23Q541.43 93.23 541.43 137.17ZM490.16 116.18L490.16 161.20L495.24 161.20Q505.00 161.20 509.79 155.82Q514.57 150.45 514.57 138.25L514.57 138.25Q514.57 127.02 510.18 121.60Q505.79 116.18 496.61 116.18L496.61 116.18L490.16 116.18Z" fill="#FFFFFF"/><path d="M574.83 93.23L593.77 149.57L612.82 93.23L640.65 93.23L606.76 178.77L606.76 236L580.59 236L580.59 179.85L546.80 93.23L574.83 93.23Z" fill="#FFFFFF"/><path d="M731.08 137.17L731.08 137.17Q731.08 159.93 719.60 172.08Q708.13 184.24 686.45 184.24L686.45 184.24L679.81 184.24L679.81 236L653.25 236L653.25 93.23L689.48 93.23Q731.08 93.23 731.08 137.17ZM679.81 116.18L679.81 161.20L684.89 161.20Q694.65 161.20 699.44 155.82Q704.22 150.45 704.22 138.25L704.22 138.25Q704.22 127.02 699.83 121.60Q695.43 116.18 686.25 116.18L686.25 116.18L679.81 116.18Z" fill="#FFFFFF"/><path d="M778.83 236L753.83 236L753.83 93.23L778.83 93.23L778.83 236Z" fill="#FFFFFF"/><path d="M852.56 193.81L803.44 193.81L803.44 170.96L852.56 170.96L852.56 193.81Z" fill="#FFFFFF"/><path d="M950.02 137.17L950.02 137.17Q950.02 159.93 938.55 172.08Q927.07 184.24 905.39 184.24L905.39 184.24L898.75 184.24L898.75 236L872.19 236L872.19 93.23L908.42 93.23Q950.02 93.23 950.02 137.17ZM898.75 116.18L898.75 161.20L903.83 161.20Q913.60 161.20 918.38 155.82Q923.17 150.45 923.17 138.25L923.17 138.25Q923.17 127.02 918.77 121.60Q914.38 116.18 905.20 116.18L905.20 116.18L898.75 116.18Z" fill="#FFFFFF"/><path d="M1029.42 93.23L1055.79 93.23L1055.79 185.61Q1055.79 211.10 1044.26 224.53Q1032.74 237.95 1010.96 237.95L1010.96 237.95Q989.67 237.95 978.54 224.62Q967.41 211.29 967.41 185.22L967.41 185.22L967.41 93.23L993.77 93.23L993.77 187.17Q993.77 214.42 1011.84 214.42L1011.84 214.42Q1020.24 214.42 1024.83 207.48Q1029.42 200.55 1029.42 187.76L1029.42 187.76L1029.42 93.23Z" fill="#FFFFFF"/><path d="M1080.39 236L1080.39 93.23L1116.82 93.23Q1139.09 93.23 1149.24 101.87Q1159.40 110.51 1159.40 129.36L1159.40 129.36Q1159.40 141.76 1154.03 150.11Q1148.66 158.46 1139.38 160.22L1139.38 160.22L1139.38 161.20Q1151.49 164.22 1156.86 172.52Q1162.23 180.82 1162.23 194.59L1162.23 194.59Q1162.23 214.03 1151.83 225.01Q1141.43 236 1123.36 236L1123.36 236L1080.39 236ZM1105.39 116.18L1105.39 150.65L1117.60 150.65Q1126 150.65 1129.42 146.16Q1132.84 141.66 1132.84 132.78L1132.84 132.78Q1132.84 123.89 1128.93 120.03Q1125.02 116.18 1116.63 116.18L1116.63 116.18L1105.39 116.18ZM1118.38 172.82L1105.39 172.82L1105.39 212.76L1118.77 212.76Q1127.07 212.76 1131.13 207.68Q1135.18 202.60 1135.18 191.96L1135.18 191.96Q1135.18 172.82 1118.38 172.82L1118.38 172.82Z" fill="#FFFFFF"/><path d="M1245.14 236L1181.76 236L1181.76 93.23L1208.32 93.23L1208.32 212.76L1245.14 212.76L1245.14 236Z" fill="#FFFFFF"/><path d="M1291.92 236L1266.92 236L1266.92 93.23L1291.92 93.23L1291.92 236Z" fill="#FFFFFF"/><path d="M1387.13 196.64L1387.13 196.64Q1387.13 216.66 1377.03 227.31Q1366.92 237.95 1347.88 237.95L1347.88 237.95Q1329.22 237.95 1316.14 230.63L1316.14 230.63L1316.14 204.36Q1332.15 214.81 1345.53 214.81L1345.53 214.81Q1353.15 214.81 1357.01 210.61Q1360.86 206.41 1360.86 199.18L1360.86 199.18Q1360.86 192.05 1356.27 186.15Q1351.68 180.24 1341.14 173.01L1341.14 173.01Q1331.96 166.66 1327.22 160.85Q1322.48 155.04 1319.90 147.82Q1317.31 140.59 1317.31 131.02L1317.31 131.02Q1317.31 112.66 1327.51 101.92Q1337.72 91.18 1354.91 91.18L1354.91 91.18Q1371.31 91.18 1386.45 100.36L1386.45 100.36L1377.66 121.64Q1372.97 118.91 1367.85 116.76Q1362.72 114.61 1356.86 114.61L1356.86 114.61Q1350.41 114.61 1346.95 118.86Q1343.48 123.11 1343.48 130.43L1343.48 130.43Q1343.48 137.66 1347.63 143.03Q1351.78 148.40 1362.13 155.24L1362.13 155.24Q1376.10 164.61 1381.62 174.38Q1387.13 184.14 1387.13 196.64Z" fill="#FFFFFF"/><path d="M1492.89 93.23L1492.89 236L1466.33 236L1466.33 173.40L1431.27 173.40L1431.27 236L1404.71 236L1404.71 93.23L1431.27 93.23L1431.27 149.96L1466.33 149.96L1466.33 93.23L1492.89 93.23Z" fill="#FFFFFF"/><path d="M540.43 136.17L540.43 136.17Q540.43 158.93 528.96 171.08Q517.48 183.24 495.80 183.24L495.80 183.24L489.16 183.24L489.16 235L462.60 235L462.60 92.23L498.83 92.23Q540.43 92.23 540.43 136.17ZM489.16 115.18L489.16 160.20L494.24 160.20Q504.00 160.20 508.79 154.82Q513.57 149.45 513.57 137.25L513.57 137.25Q513.57 126.02 509.18 120.60Q504.79 115.18 495.61 115.18L495.61 115.18L489.16 115.18Z" fill="#002D3C"/><path d="M573.83 92.23L592.77 148.57L611.82 92.23L639.65 92.23L605.76 177.77L605.76 235L579.59 235L579.59 178.85L545.80 92.23L573.83 92.23Z" fill="#002D3C"/><path d="M730.08 136.17L730.08 136.17Q730.08 158.93 718.60 171.08Q707.13 183.24 685.45 183.24L685.45 183.24L678.81 183.24L678.81 235L652.25 235L652.25 92.23L688.48 92.23Q730.08 92.23 730.08 136.17ZM678.81 115.18L678.81 160.20L683.89 160.20Q693.65 160.20 698.44 154.82Q703.22 149.45 703.22 137.25L703.22 137.25Q703.22 126.02 698.83 120.60Q694.43 115.18 685.25 115.18L685.25 115.18L678.81 115.18Z" fill="#002D3C"/><path d="M777.83 235L752.83 235L752.83 92.23L777.83 92.23L777.83 235Z" fill="#002D3C"/><path d="M851.56 192.81L802.44 192.81L802.44 169.96L851.56 169.96L851.56 192.81Z" fill="#002D3C"/><path d="M949.02 136.17L949.02 136.17Q949.02 158.93 937.55 171.08Q926.07 183.24 904.39 183.24L904.39 183.24L897.75 183.24L897.75 235L871.19 235L871.19 92.23L907.42 92.23Q949.02 92.23 949.02 136.17ZM897.75 115.18L897.75 160.20L902.83 160.20Q912.60 160.20 917.38 154.82Q922.17 149.45 922.17 137.25L922.17 137.25Q922.17 126.02 917.77 120.60Q913.38 115.18 904.20 115.18L904.20 115.18L897.75 115.18Z" fill="#002D3C"/><path d="M1028.42 92.23L1054.79 92.23L1054.79 184.61Q1054.79 210.10 1043.26 223.53Q1031.74 236.95 1009.96 236.95L1009.96 236.95Q988.67 236.95 977.54 223.62Q966.41 210.29 966.41 184.22L966.41 184.22L966.41 92.23L992.77 92.23L992.77 186.17Q992.77 213.42 1010.84 213.42L1010.84 213.42Q1019.24 213.42 1023.83 206.48Q1028.42 199.55 1028.42 186.76L1028.42 186.76L1028.42 92.23Z" fill="#002D3C"/><path d="M1079.39 235L1079.39 92.23L1115.82 92.23Q1138.09 92.23 1148.24 100.87Q1158.40 109.51 1158.40 128.36L1158.40 128.36Q1158.40 140.76 1153.03 149.11Q1147.66 157.46 1138.38 159.22L1138.38 159.22L1138.38 160.20Q1150.49 163.22 1155.86 171.52Q1161.23 179.82 1161.23 193.59L1161.23 193.59Q1161.23 213.03 1150.83 224.01Q1140.43 235 1122.36 235L1122.36 235L1079.39 235ZM1104.39 115.18L1104.39 149.65L1116.60 149.65Q1125 149.65 1128.42 145.16Q1131.84 140.66 1131.84 131.78L1131.84 131.78Q1131.84 122.89 1127.93 119.03Q1124.02 115.18 1115.63 115.18L1115.63 115.18L1104.39 115.18ZM1117.38 171.82L1104.39 171.82L1104.39 211.76L1117.77 211.76Q1126.07 211.76 1130.13 206.68Q1134.18 201.60 1134.18 190.96L1134.18 190.96Q1134.18 171.82 1117.38 171.82L1117.38 171.82Z" fill="#002D3C"/><path d="M1244.14 235L1180.76 235L1180.76 92.23L1207.32 92.23L1207.32 211.76L1244.14 211.76L1244.14 235Z" fill="#002D3C"/><path d="M1290.92 235L1265.92 235L1265.92 92.23L1290.92 92.23L1290.92 235Z" fill="#002D3C"/><path d="M1386.13 195.64L1386.13 195.64Q1386.13 215.66 1376.03 226.31Q1365.92 236.95 1346.88 236.95L1346.88 236.95Q1328.22 236.95 1315.14 229.63L1315.14 229.63L1315.14 203.36Q1331.15 213.81 1344.53 213.81L1344.53 213.81Q1352.15 213.81 1356.01 209.61Q1359.86 205.41 1359.86 198.18L1359.86 198.18Q1359.86 191.05 1355.27 185.15Q1350.68 179.24 1340.14 172.01L1340.14 172.01Q1330.96 165.66 1326.22 159.85Q1321.48 154.04 1318.90 146.82Q1316.31 139.59 1316.31 130.02L1316.31 130.02Q1316.31 111.66 1326.51 100.92Q1336.72 90.18 1353.91 90.18L1353.91 90.18Q1370.31 90.18 1385.45 99.36L1385.45 99.36L1376.66 120.64Q1371.97 117.91 1366.85 115.76Q1361.72 113.61 1355.86 113.61L1355.86 113.61Q1349.41 113.61 1345.95 117.86Q1342.48 122.11 1342.48 129.43L1342.48 129.43Q1342.48 136.66 1346.63 142.03Q1350.78 147.40 1361.13 154.24L1361.13 154.24Q1375.10 163.61 1380.62 173.38Q1386.13 183.14 1386.13 195.64Z" fill="#002D3C"/><path d="M1491.89 92.23L1491.89 235L1465.33 235L1465.33 172.40L1430.27 172.40L1430.27 235L1403.71 235L1403.71 92.23L1430.27 92.23L1430.27 148.96L1465.33 148.96L1465.33 92.23L1491.89 92.23Z" fill="#002D3C"/>
</svg>
