<?xml version="1.0" encoding="UTF-8" standalone="no"?>
<!DOCTYPE svg PUBLIC "-//W3C//DTD SVG 1.1//EN" "http://www.w3.org/Graphics/SVG/1.1/DTD/svg11.dtd">
<svg width="100%" height="100%" viewBox="0 0 1550.4140625 330" version="1.1" xmlns="http://www.w3.org/2000/svg" xmlns:xlink="http://www.w3.org/1999/xlink" xml:space="preserve" xmlns:serif="http://www.serif.com/" style="fill-rule:evenodd;clip-rule:evenodd;stroke-linejoin:round;stroke-miterlimit:2;">
    <g transform="matrix(0.707107,-0.707107,0.707107,0.707107,-212.718,125.508)">
        <rect x="184.1" y="233.984" width="98.094" height="98.094" style="fill:rgb(11,140,197);"/>
    </g>
    <g transform="matrix(0.707107,-0.707107,0.707107,0.707107,-282.081,56.1452)">
        <rect x="184.1" y="233.984" width="98.094" height="98.094" style="fill:rgb(176,176,176);"/>
    </g>
    <g transform="matrix(0.707107,-0.707107,0.707107,0.707107,-282.081,194.871)">
        <rect x="184.1" y="233.984" width="98.094" height="98.094" style="fill:rgb(176,176,176);"/>
    </g>
    <g transform="matrix(0.707107,-0.707107,0.707107,0.707107,-212.718,-13.2176)">
        <rect x="184.1" y="233.984" width="98.094" height="98.094" style="fill:rgb(176,176,176);fill-opacity:0.5;"/>
    </g>
    <g transform="matrix(0.707107,-0.707107,0.707107,0.707107,-351.444,125.508)">
        <rect x="184.1" y="233.984" width="98.094" height="98.094" style="fill:rgb(176,176,176);fill-opacity:0.5;"/>
    </g>
    <g transform="matrix(0.707107,-0.707107,0.707107,0.707107,-212.718,264.234)">
        <rect x="184.1" y="233.984" width="98.094" height="98.094" style="fill:rgb(176,176,176);fill-opacity:0.5;"/>
    </g>
    <g transform="matrix(0.707107,-0.707107,0.707107,0.707107,-351.444,264.234)">
        <rect x="184.1" y="233.984" width="98.094" height="98.094" style="fill:rgb(176,176,176);fill-opacity:0.5;"/>
    </g>
    <g transform="matrix(0.707107,-0.707107,0.707107,0.707107,-351.444,-13.2176)">
        <rect x="184.1" y="233.984" width="98.094" height="98.094" style="fill:rgb(176,176,176);fill-opacity:0.5;"/>
    </g>
    <g transform="matrix(0.707107,-0.707107,0.707107,0.707107,-143.355,56.1452)">
        <rect x="184.1" y="233.984" width="98.094" height="98.094" style="fill:rgb(80,178,223);"/>
    </g>
    <g transform="matrix(0.707107,-0.707107,0.707107,0.707107,-143.355,194.871)">
        <rect x="184.1" y="233.984" width="98.094" height="98.094" style="fill:rgb(80,178,223);"/>
    </g>
    <g transform="matrix(0.707107,-0.707107,0.707107,0.707107,-73.9922,125.508)">
        <rect x="184.1" y="233.984" width="98.094" height="98.094" style="fill:rgb(2,161,215);"/>
    </g>
    <g transform="matrix(1,0,0,-1,0,321.563)">
        <path d="M152.291,211.378L0,59.087L0,77.869L152.275,230.144L152.291,230.128L152.307,230.144L221.85,160.601L291.394,230.144L300.785,220.753L222.062,142.031L221.85,142.243L221.638,142.031L152.291,211.378Z" style="fill:rgb(255,209,62);"/>
    </g>
    <path d="M499.63 180.43L490.16 180.43L490.16 236L463.60 236L463.60 93.23L498.36 93.23Q520.43 93.23 530.93 103.68Q541.43 114.13 541.43 135.61L541.43 135.61Q541.43 162.66 523.17 173.40L523.17 173.40L550.61 236L522.19 236L499.63 180.43ZM490.16 116.18L490.16 157.58L497.00 157.58Q506.37 157.58 510.47 152.26Q514.57 146.94 514.57 136.39L514.57 136.39Q514.57 125.45 510.23 120.81Q505.88 116.18 496.80 116.18L496.80 116.18L490.16 116.18Z" fill="#FFFFFF"/><path d="M589.96 178.77L589.96 236L563.60 236L563.60 93.23L627.56 93.23L627.56 116.18L589.96 116.18L589.96 155.82L625.02 155.82L625.02 178.77L589.96 178.77Z" fill="#FFFFFF"/><path d="M692.80 114.42L692.80 114.42Q681.37 114.42 674.78 127.80Q668.19 141.18 668.19 165.00L668.19 165.00Q668.19 214.61 694.07 214.61L694.07 214.61Q705.39 214.61 717.80 207.39L717.80 207.39L717.80 231.02Q707.35 237.95 691.04 237.95L691.04 237.95Q666.92 237.95 653.98 218.76Q641.04 199.57 641.04 164.81L641.04 164.81Q641.04 130.04 654.37 110.61Q667.70 91.18 691.43 91.18L691.43 91.18Q699.24 91.18 706.42 93.32Q713.60 95.47 721.80 100.84L721.80 100.84L713.01 122.43Q708.62 119.40 703.64 116.91Q698.66 114.42 692.80 114.42Z" fill="#FFFFFF"/><path d="M781.57 193.81L732.45 193.81L732.45 170.96L781.57 170.96L781.57 193.81Z" fill="#FFFFFF"/><path d="M850.61 162.95L883.23 236L855.59 236L835.18 184.83L816.23 236L788.60 236L821.21 161.78L791.04 93.23L817.80 93.23L836.64 140.20L852.95 93.23L880.79 93.23L850.61 162.95Z" fill="#FFFFFF"/><path d="M975.80 236L946.80 236L919.65 114.42L918.58 114.42Q920.43 128.48 920.43 140.20L920.43 140.20L920.43 236L895.82 236L895.82 93.23L936.64 93.23L961.06 205.43L961.84 205.43L986.06 93.23L1027.46 93.23L1027.46 236L1002.27 236L1002.27 139.22Q1002.27 127.21 1003.64 114.61L1003.64 114.61L1002.86 114.61L975.80 236Z" fill="#FFFFFF"/><path d="M1116.04 236L1052.66 236L1052.66 93.23L1079.22 93.23L1079.22 212.76L1116.04 212.76L1116.04 236Z" fill="#FFFFFF"/><path d="M1223.85 163.25L1223.85 163.25Q1223.85 198.60 1209.45 217.30Q1195.04 236 1167.99 236L1167.99 236L1133.03 236L1133.03 93.23L1171.21 93.23Q1196.12 93.23 1209.98 111.63Q1223.85 130.04 1223.85 163.25ZM1196.61 164.03L1196.61 164.03Q1196.61 116.18 1170.24 116.18L1170.24 116.18L1159.59 116.18L1159.59 212.76L1168.19 212.76Q1182.74 212.76 1189.67 200.60Q1196.61 188.44 1196.61 164.03Z" fill="#FFFFFF"/><path d="M1274.44 236L1249.44 236L1249.44 93.23L1274.44 93.23L1274.44 236Z" fill="#FFFFFF"/><path d="M1330.98 178.77L1330.98 236L1304.61 236L1304.61 93.23L1368.58 93.23L1368.58 116.18L1330.98 116.18L1330.98 155.82L1366.04 155.82L1366.04 178.77L1330.98 178.77Z" fill="#FFFFFF"/><path d="M1412.82 178.77L1412.82 236L1386.45 236L1386.45 93.23L1450.41 93.23L1450.41 116.18L1412.82 116.18L1412.82 155.82L1447.88 155.82L1447.88 178.77L1412.82 178.77Z" fill="#FFFFFF"/><path d="M498.63 179.43L489.16 179.43L489.16 235L462.60 235L462.60 92.23L497.36 92.23Q519.43 92.23 529.93 102.68Q540.43 113.13 540.43 134.61L540.43 134.61Q540.43 161.66 522.17 172.40L522.17 172.40L549.61 235L521.19 235L498.63 179.43ZM489.16 115.18L489.16 156.58L496.00 156.58Q505.37 156.58 509.47 151.26Q513.57 145.94 513.57 135.39L513.57 135.39Q513.57 124.45 509.23 119.81Q504.88 115.18 495.80 115.18L495.80 115.18L489.16 115.18Z" fill="url(#TextGradient)"/><path d="M588.96 177.77L588.96 235L562.60 235L562.60 92.23L626.56 92.23L626.56 115.18L588.96 115.18L588.96 154.82L624.02 154.82L624.02 177.77L588.96 177.77Z" fill="url(#TextGradient)"/><path d="M691.80 113.42L691.80 113.42Q680.37 113.42 673.78 126.80Q667.19 140.18 667.19 164.00L667.19 164.00Q667.19 213.61 693.07 213.61L693.07 213.61Q704.39 213.61 716.80 206.39L716.80 206.39L716.80 230.02Q706.35 236.95 690.04 236.95L690.04 236.95Q665.92 236.95 652.98 217.76Q640.04 198.57 640.04 163.81L640.04 163.81Q640.04 129.04 653.37 109.61Q666.70 90.18 690.43 90.18L690.43 90.18Q698.24 90.18 705.42 92.32Q712.60 94.47 720.80 99.84L720.80 99.84L712.01 121.43Q707.62 118.40 702.64 115.91Q697.66 113.42 691.80 113.42Z" fill="url(#TextGradient)"/><path d="M780.57 192.81L731.45 192.81L731.45 169.96L780.57 169.96L780.57 192.81Z" fill="url(#TextGradient)"/><path d="M849.61 161.95L882.23 235L854.59 235L834.18 183.83L815.23 235L787.60 235L820.21 160.78L790.04 92.23L816.80 92.23L835.64 139.20L851.95 92.23L879.79 92.23L849.61 161.95Z" fill="url(#TextGradient)"/><path d="M974.80 235L945.80 235L918.65 113.42L917.58 113.42Q919.43 127.48 919.43 139.20L919.43 139.20L919.43 235L894.82 235L894.82 92.23L935.64 92.23L960.06 204.43L960.84 204.43L985.06 92.23L1026.46 92.23L1026.46 235L1001.27 235L1001.27 138.22Q1001.27 126.21 1002.64 113.61L1002.64 113.61L1001.86 113.61L974.80 235Z" fill="url(#TextGradient)"/><path d="M1115.04 235L1051.66 235L1051.66 92.23L1078.22 92.23L1078.22 211.76L1115.04 211.76L1115.04 235Z" fill="url(#TextGradient)"/><path d="M1222.85 162.25L1222.85 162.25Q1222.85 197.60 1208.45 216.30Q1194.04 235 1166.99 235L1166.99 235L1132.03 235L1132.03 92.23L1170.21 92.23Q1195.12 92.23 1208.98 110.63Q1222.85 129.04 1222.85 162.25ZM1195.61 163.03L1195.61 163.03Q1195.61 115.18 1169.24 115.18L1169.24 115.18L1158.59 115.18L1158.59 211.76L1167.19 211.76Q1181.74 211.76 1188.67 199.60Q1195.61 187.44 1195.61 163.03Z" fill="url(#TextGradient)"/><path d="M1273.44 235L1248.44 235L1248.44 92.23L1273.44 92.23L1273.44 235Z" fill="url(#TextGradient)"/><path d="M1329.98 177.77L1329.98 235L1303.61 235L1303.61 92.23L1367.58 92.23L1367.58 115.18L1329.98 115.18L1329.98 154.82L1365.04 154.82L1365.04 177.77L1329.98 177.77Z" fill="url(#TextGradient)"/><path d="M1411.82 177.77L1411.82 235L1385.45 235L1385.45 92.23L1449.41 92.23L1449.41 115.18L1411.82 115.18L1411.82 154.82L1446.88 154.82L1446.88 177.77L1411.82 177.77Z" fill="url(#TextGradient)"/>
    <defs>
        <linearGradient id="TextGradient" x1="0" y1="0" x2="0" y2="1">
            <stop offset="0" style="stop-color:rgb(2,161,215);stop-opacity:1"/>
            <stop offset="1" style="stop-color:rgb(6,72,101);stop-opacity:1"/>
        </linearGradient>
    </defs>
</svg>
