<?xml version="1.0" encoding="UTF-8" standalone="no"?>
<!DOCTYPE svg PUBLIC "-//W3C//DTD SVG 1.1//EN" "http://www.w3.org/Graphics/SVG/1.1/DTD/svg11.dtd">
<svg width="100%" height="100%" viewBox="0 0 1460.1796875 330" version="1.1" xmlns="http://www.w3.org/2000/svg" xmlns:xlink="http://www.w3.org/1999/xlink" xml:space="preserve" xmlns:serif="http://www.serif.com/" style="fill-rule:evenodd;clip-rule:evenodd;stroke-linejoin:round;stroke-miterlimit:2;">
    <path d="M82.912,22.056l-69.362,69.362l69.362,69.363l69.363,-69.363l-69.363,-69.362Z" style="fill:rgb(176,176,176);"/>
    <path d="M82.912,160.781l-69.362,69.363l69.362,69.363l69.363,-69.363l-69.363,-69.363Z" style="fill:rgb(176,176,176);"/>
    <path d="M199.583,0l-94.615,0l-22.056,22.056l69.363,69.362l69.363,-69.362l-22.055,-22.056Z" style="fill:rgb(176,176,176);fill-opacity:0.5;"/>
    <path d="M113.02,329.614l78.511,0l30.107,-30.107l-69.363,-69.363l-69.363,69.363l30.108,30.107Z" style="fill:rgb(176,176,176);fill-opacity:0.5;"/>
    <path d="M0,0l0,77.869l13.55,13.549l69.362,-69.362l-22.055,-22.056l-60.857,-0Z" style="fill:rgb(176,176,176);fill-opacity:0.5;"/>
    <path d="M13.55,368.87l-1.598,-1.597l3.195,-0l-1.597,1.597Zm-13.55,-125.176l0,85.92l52.805,0l30.107,-30.107l-69.362,-69.363l-13.55,13.55Z" style="fill:rgb(176,176,176);fill-opacity:0.5;"/>
    <path d="M0,104.968l0,111.627l13.55,13.549l69.362,-69.363l-69.362,-69.363l-13.55,13.55Z" style="fill:rgb(176,176,176);fill-opacity:0.5;"/>
    <path d="M152.275,91.418l-69.363,69.363l69.363,69.363l69.363,-69.363l-69.363,-69.363Z" style="fill:#028BB9;"/>
    <path d="M221.638,22.056l-69.363,69.362l69.363,69.363l69.363,-69.363l-69.363,-69.362Z" style="fill:#4DB5D8;"/>
    <path d="M221.638,160.781l-69.363,69.363l69.363,69.363l69.363,-69.363l-69.363,-69.363Z" style="fill:#4DB5D8;"/>
    <path d="M291.001,91.418l-69.363,69.363l69.363,69.363l69.363,-69.363l-69.363,-69.363Z" style="fill:#02A1D7;"/>
    <path d="M152.291,110.184l-152.291,152.291l0,-18.781l152.275,-152.276l0.016,0.016l0.016,-0.016l69.543,69.544l69.544,-69.544l9.391,9.391l-78.723,78.722l-0.212,-0.212l-0.212,0.212l-69.347,-69.347Z" style="fill:rgb(255,209,62);"/>
    <path d="M499.63 180.43L490.16 180.43L490.16 236L463.60 236L463.60 93.23L498.36 93.23Q520.43 93.23 530.93 103.68Q541.43 114.13 541.43 135.61L541.43 135.61Q541.43 162.66 523.17 173.40L523.17 173.40L550.61 236L522.19 236L499.63 180.43ZM490.16 116.18L490.16 157.58L497.00 157.58Q506.37 157.58 510.47 152.26Q514.57 146.94 514.57 136.39L514.57 136.39Q514.57 125.45 510.23 120.81Q505.88 116.18 496.80 116.18L496.80 116.18L490.16 116.18Z" fill="#FFFFFF"/><path d="M589.96 178.77L589.96 236L563.60 236L563.60 93.23L627.56 93.23L627.56 116.18L589.96 116.18L589.96 155.82L625.02 155.82L625.02 178.77L589.96 178.77Z" fill="#FFFFFF"/><path d="M692.80 114.42L692.80 114.42Q681.37 114.42 674.78 127.80Q668.19 141.18 668.19 165.00L668.19 165.00Q668.19 214.61 694.07 214.61L694.07 214.61Q705.39 214.61 717.80 207.39L717.80 207.39L717.80 231.02Q707.35 237.95 691.04 237.95L691.04 237.95Q666.92 237.95 653.98 218.76Q641.04 199.57 641.04 164.81L641.04 164.81Q641.04 130.04 654.37 110.61Q667.70 91.18 691.43 91.18L691.43 91.18Q699.24 91.18 706.42 93.32Q713.60 95.47 721.80 100.84L721.80 100.84L713.01 122.43Q708.62 119.40 703.64 116.91Q698.66 114.42 692.80 114.42Z" fill="#FFFFFF"/><path d="M781.57 193.81L732.45 193.81L732.45 170.96L781.57 170.96L781.57 193.81Z" fill="#FFFFFF"/><path d="M865.55 212.76L865.55 236L801.20 236L801.20 93.23L865.55 93.23L865.55 116.18L827.76 116.18L827.76 150.16L862.82 150.16L862.82 173.21L827.76 173.21L827.76 212.76L865.55 212.76Z" fill="#FFFFFF"/><path d="M922.39 180.43L912.91 180.43L912.91 236L886.35 236L886.35 93.23L921.12 93.23Q943.19 93.23 953.69 103.68Q964.18 114.13 964.18 135.61L964.18 135.61Q964.18 162.66 945.92 173.40L945.92 173.40L973.36 236L944.95 236L922.39 180.43ZM912.91 116.18L912.91 157.58L919.75 157.58Q929.13 157.58 933.23 152.26Q937.33 146.94 937.33 136.39L937.33 136.39Q937.33 125.45 932.98 120.81Q928.64 116.18 919.55 116.18L919.55 116.18L912.91 116.18Z" fill="#FFFFFF"/><path d="M1022.39 180.43L1012.91 180.43L1012.91 236L986.35 236L986.35 93.23L1021.12 93.23Q1043.19 93.23 1053.69 103.68Q1064.18 114.13 1064.18 135.61L1064.18 135.61Q1064.18 162.66 1045.92 173.40L1045.92 173.40L1073.36 236L1044.95 236L1022.39 180.43ZM1012.91 116.18L1012.91 157.58L1019.75 157.58Q1029.13 157.58 1033.23 152.26Q1037.33 146.94 1037.33 136.39L1037.33 136.39Q1037.33 125.45 1032.98 120.81Q1028.64 116.18 1019.55 116.18L1019.55 116.18L1012.91 116.18Z" fill="#FFFFFF"/><path d="M1180.59 236L1153.93 236L1145.73 199.96L1108.52 199.96L1100.32 236L1073.75 236L1109.11 92.64L1145.14 92.64L1180.59 236ZM1113.79 176.43L1140.75 176.43L1133.13 143.23Q1132.45 140.20 1130.05 128.04Q1127.66 115.88 1127.17 111.78L1127.17 111.78Q1125.90 120.18 1123.95 130.29Q1122.00 140.39 1113.79 176.43L1113.79 176.43Z" fill="#FFFFFF"/><path d="M1230.20 116.57L1230.20 236L1203.73 236L1203.73 116.57L1176.39 116.57L1176.39 93.23L1257.54 93.23L1257.54 116.57L1230.20 116.57Z" fill="#FFFFFF"/><path d="M1360.18 236L1333.52 236L1325.32 199.96L1288.11 199.96L1279.91 236L1253.34 236L1288.70 92.64L1324.73 92.64L1360.18 236ZM1293.38 176.43L1320.34 176.43L1312.72 143.23Q1312.04 140.20 1309.64 128.04Q1307.25 115.88 1306.76 111.78L1306.76 111.78Q1305.49 120.18 1303.54 130.29Q1301.59 140.39 1293.38 176.43L1293.38 176.43Z" fill="#FFFFFF"/><path d="M498.63 179.43L489.16 179.43L489.16 235L462.60 235L462.60 92.23L497.36 92.23Q519.43 92.23 529.93 102.68Q540.43 113.13 540.43 134.61L540.43 134.61Q540.43 161.66 522.17 172.40L522.17 172.40L549.61 235L521.19 235L498.63 179.43ZM489.16 115.18L489.16 156.58L496.00 156.58Q505.37 156.58 509.47 151.26Q513.57 145.94 513.57 135.39L513.57 135.39Q513.57 124.45 509.23 119.81Q504.88 115.18 495.80 115.18L495.80 115.18L489.16 115.18Z" fill="url(#TextGradient)"/><path d="M588.96 177.77L588.96 235L562.60 235L562.60 92.23L626.56 92.23L626.56 115.18L588.96 115.18L588.96 154.82L624.02 154.82L624.02 177.77L588.96 177.77Z" fill="url(#TextGradient)"/><path d="M691.80 113.42L691.80 113.42Q680.37 113.42 673.78 126.80Q667.19 140.18 667.19 164.00L667.19 164.00Q667.19 213.61 693.07 213.61L693.07 213.61Q704.39 213.61 716.80 206.39L716.80 206.39L716.80 230.02Q706.35 236.95 690.04 236.95L690.04 236.95Q665.92 236.95 652.98 217.76Q640.04 198.57 640.04 163.81L640.04 163.81Q640.04 129.04 653.37 109.61Q666.70 90.18 690.43 90.18L690.43 90.18Q698.24 90.18 705.42 92.32Q712.60 94.47 720.80 99.84L720.80 99.84L712.01 121.43Q707.62 118.40 702.64 115.91Q697.66 113.42 691.80 113.42Z" fill="url(#TextGradient)"/><path d="M780.57 192.81L731.45 192.81L731.45 169.96L780.57 169.96L780.57 192.81Z" fill="url(#TextGradient)"/><path d="M864.55 211.76L864.55 235L800.20 235L800.20 92.23L864.55 92.23L864.55 115.18L826.76 115.18L826.76 149.16L861.82 149.16L861.82 172.21L826.76 172.21L826.76 211.76L864.55 211.76Z" fill="url(#TextGradient)"/><path d="M921.39 179.43L911.91 179.43L911.91 235L885.35 235L885.35 92.23L920.12 92.23Q942.19 92.23 952.69 102.68Q963.18 113.13 963.18 134.61L963.18 134.61Q963.18 161.66 944.92 172.40L944.92 172.40L972.36 235L943.95 235L921.39 179.43ZM911.91 115.18L911.91 156.58L918.75 156.58Q928.13 156.58 932.23 151.26Q936.33 145.94 936.33 135.39L936.33 135.39Q936.33 124.45 931.98 119.81Q927.64 115.18 918.55 115.18L918.55 115.18L911.91 115.18Z" fill="url(#TextGradient)"/><path d="M1021.39 179.43L1011.91 179.43L1011.91 235L985.35 235L985.35 92.23L1020.12 92.23Q1042.19 92.23 1052.69 102.68Q1063.18 113.13 1063.18 134.61L1063.18 134.61Q1063.18 161.66 1044.92 172.40L1044.92 172.40L1072.36 235L1043.95 235L1021.39 179.43ZM1011.91 115.18L1011.91 156.58L1018.75 156.58Q1028.13 156.58 1032.23 151.26Q1036.33 145.94 1036.33 135.39L1036.33 135.39Q1036.33 124.45 1031.98 119.81Q1027.64 115.18 1018.55 115.18L1018.55 115.18L1011.91 115.18Z" fill="url(#TextGradient)"/><path d="M1179.59 235L1152.93 235L1144.73 198.96L1107.52 198.96L1099.32 235L1072.75 235L1108.11 91.64L1144.14 91.64L1179.59 235ZM1112.79 175.43L1139.75 175.43L1132.13 142.23Q1131.45 139.20 1129.05 127.04Q1126.66 114.88 1126.17 110.78L1126.17 110.78Q1124.90 119.18 1122.95 129.29Q1121.00 139.39 1112.79 175.43L1112.79 175.43Z" fill="url(#TextGradient)"/><path d="M1229.20 115.57L1229.20 235L1202.73 235L1202.73 115.57L1175.39 115.57L1175.39 92.23L1256.54 92.23L1256.54 115.57L1229.20 115.57Z" fill="url(#TextGradient)"/><path d="M1359.18 235L1332.52 235L1324.32 198.96L1287.11 198.96L1278.91 235L1252.34 235L1287.70 91.64L1323.73 91.64L1359.18 235ZM1292.38 175.43L1319.34 175.43L1311.72 142.23Q1311.04 139.20 1308.64 127.04Q1306.25 114.88 1305.76 110.78L1305.76 110.78Q1304.49 119.18 1302.54 129.29Q1300.59 139.39 1292.38 175.43L1292.38 175.43Z" fill="url(#TextGradient)"/>
    <defs>
        <linearGradient id="TextGradient" x1="0" y1="0" x2="0" y2="1">
            <stop offset="0" style="stop-color:#026D91;stop-opacity:1"/>
            <stop offset="1" style="stop-color:#02A1D7;stop-opacity:1"/>
        </linearGradient>
    </defs>
</svg>
