<?xml version="1.0" encoding="UTF-8" standalone="no"?>
<!DOCTYPE svg PUBLIC "-//W3C//DTD SVG 1.1//EN" "http://www.w3.org/Graphics/SVG/1.1/DTD/svg11.dtd">
<svg width="100%" height="100%" viewBox="0 0 1350.609375 330" version="1.1" xmlns="http://www.w3.org/2000/svg" xmlns:xlink="http://www.w3.org/1999/xlink" xml:space="preserve" xmlns:serif="http://www.serif.com/" style="fill-rule:evenodd;clip-rule:evenodd;stroke-linejoin:round;stroke-miterlimit:2;">
    <path d="M82.912,22.056l-69.362,69.362l69.362,69.363l69.363,-69.363l-69.363,-69.362Z" style="fill:rgb(176,176,176);"/>
    <path d="M82.912,160.781l-69.362,69.363l69.362,69.363l69.363,-69.363l-69.363,-69.363Z" style="fill:rgb(176,176,176);"/>
    <path d="M199.583,0l-94.615,0l-22.056,22.056l69.363,69.362l69.363,-69.362l-22.055,-22.056Z" style="fill:rgb(176,176,176);fill-opacity:0.5;"/>
    <path d="M113.02,329.614l78.511,0l30.107,-30.107l-69.363,-69.363l-69.363,69.363l30.108,30.107Z" style="fill:rgb(176,176,176);fill-opacity:0.5;"/>
    <path d="M0,0l0,77.869l13.55,13.549l69.362,-69.362l-22.055,-22.056l-60.857,-0Z" style="fill:rgb(176,176,176);fill-opacity:0.5;"/>
    <path d="M13.55,368.87l-1.598,-1.597l3.195,-0l-1.597,1.597Zm-13.55,-125.176l0,85.92l52.805,0l30.107,-30.107l-69.362,-69.363l-13.55,13.55Z" style="fill:rgb(176,176,176);fill-opacity:0.5;"/>
    <path d="M0,104.968l0,111.627l13.55,13.549l69.362,-69.363l-69.362,-69.363l-13.55,13.55Z" style="fill:rgb(176,176,176);fill-opacity:0.5;"/>
    <path d="M152.275,91.418l-69.363,69.363l69.363,69.363l69.363,-69.363l-69.363,-69.363Z" style="fill:#028BB9;"/>
    <path d="M221.638,22.056l-69.363,69.362l69.363,69.363l69.363,-69.363l-69.363,-69.362Z" style="fill:#4DB5D8;"/>
    <path d="M221.638,160.781l-69.363,69.363l69.363,69.363l69.363,-69.363l-69.363,-69.363Z" style="fill:#4DB5D8;"/>
    <path d="M291.001,91.418l-69.363,69.363l69.363,69.363l69.363,-69.363l-69.363,-69.363Z" style="fill:#02A1D7;"/>
    <path d="M152.291,110.184l-152.291,152.291l0,-18.781l152.275,-152.276l0.016,0.016l0.016,-0.016l69.543,69.544l69.544,-69.544l9.391,9.391l-78.723,78.722l-0.212,-0.212l-0.212,0.212l-69.347,-69.347Z" style="fill:rgb(255,209,62);"/>
    <path d="M499.63 180.43L490.16 180.43L490.16 236L463.60 236L463.60 93.23L498.36 93.23Q520.43 93.23 530.93 103.68Q541.43 114.13 541.43 135.61L541.43 135.61Q541.43 162.66 523.17 173.40L523.17 173.40L550.61 236L522.19 236L499.63 180.43ZM490.16 116.18L490.16 157.58L497.00 157.58Q506.37 157.58 510.47 152.26Q514.57 146.94 514.57 136.39L514.57 136.39Q514.57 125.45 510.23 120.81Q505.88 116.18 496.80 116.18L496.80 116.18L490.16 116.18Z" fill="#FFFFFF"/><path d="M589.96 178.77L589.96 236L563.60 236L563.60 93.23L627.56 93.23L627.56 116.18L589.96 116.18L589.96 155.82L625.02 155.82L625.02 178.77L589.96 178.77Z" fill="#FFFFFF"/><path d="M692.80 114.42L692.80 114.42Q681.37 114.42 674.78 127.80Q668.19 141.18 668.19 165.00L668.19 165.00Q668.19 214.61 694.07 214.61L694.07 214.61Q705.39 214.61 717.80 207.39L717.80 207.39L717.80 231.02Q707.35 237.95 691.04 237.95L691.04 237.95Q666.92 237.95 653.98 218.76Q641.04 199.57 641.04 164.81L641.04 164.81Q641.04 130.04 654.37 110.61Q667.70 91.18 691.43 91.18L691.43 91.18Q699.24 91.18 706.42 93.32Q713.60 95.47 721.80 100.84L721.80 100.84L713.01 122.43Q708.62 119.40 703.64 116.91Q698.66 114.42 692.80 114.42Z" fill="#FFFFFF"/><path d="M809.20 212.37L809.20 236L732.64 236L732.64 216.18L758.03 180.24Q768.48 165.39 772.39 158.22Q776.29 151.04 778.15 144.45Q780.00 137.86 780.00 130.82L780.00 130.82Q780.00 122.62 776.34 118.52Q772.68 114.42 766.82 114.42L766.82 114.42Q761.64 114.42 757.15 117.15Q752.66 119.89 746.21 127.02L746.21 127.02L731.37 111.39Q741.63 99.77 750.41 95.47Q759.20 91.18 769.46 91.18L769.46 91.18Q786.74 91.18 796.46 101.33Q806.18 111.49 806.18 129.55L806.18 129.55Q806.18 137.76 804.42 145.08Q802.66 152.41 799.10 159.78Q795.53 167.15 790.16 175.11Q784.79 183.07 762.43 211.59L762.43 211.59L762.43 212.37L809.20 212.37Z" fill="#FFFFFF"/><path d="M918.77 93.23L918.77 236L892.21 236L892.21 173.40L857.15 173.40L857.15 236L830.59 236L830.59 93.23L857.15 93.23L857.15 149.96L892.21 149.96L892.21 93.23L918.77 93.23Z" fill="#FFFFFF"/><path d="M987.82 116.57L987.82 236L961.35 236L961.35 116.57L934.01 116.57L934.01 93.23L1015.16 93.23L1015.16 116.57L987.82 116.57Z" fill="#FFFFFF"/><path d="M1110.38 236L1081.37 236L1054.22 114.42L1053.15 114.42Q1055.00 128.48 1055.00 140.20L1055.00 140.20L1055.00 236L1030.39 236L1030.39 93.23L1071.21 93.23L1095.63 205.43L1096.41 205.43L1120.63 93.23L1162.04 93.23L1162.04 236L1136.84 236L1136.84 139.22Q1136.84 127.21 1138.21 114.61L1138.21 114.61L1137.43 114.61L1110.38 236Z" fill="#FFFFFF"/><path d="M1250.61 236L1187.23 236L1187.23 93.23L1213.79 93.23L1213.79 212.76L1250.61 212.76L1250.61 236Z" fill="#FFFFFF"/><path d="M498.63 179.43L489.16 179.43L489.16 235L462.60 235L462.60 92.23L497.36 92.23Q519.43 92.23 529.93 102.68Q540.43 113.13 540.43 134.61L540.43 134.61Q540.43 161.66 522.17 172.40L522.17 172.40L549.61 235L521.19 235L498.63 179.43ZM489.16 115.18L489.16 156.58L496.00 156.58Q505.37 156.58 509.47 151.26Q513.57 145.94 513.57 135.39L513.57 135.39Q513.57 124.45 509.23 119.81Q504.88 115.18 495.80 115.18L495.80 115.18L489.16 115.18Z" fill="url(#TextGradient)"/><path d="M588.96 177.77L588.96 235L562.60 235L562.60 92.23L626.56 92.23L626.56 115.18L588.96 115.18L588.96 154.82L624.02 154.82L624.02 177.77L588.96 177.77Z" fill="url(#TextGradient)"/><path d="M691.80 113.42L691.80 113.42Q680.37 113.42 673.78 126.80Q667.19 140.18 667.19 164.00L667.19 164.00Q667.19 213.61 693.07 213.61L693.07 213.61Q704.39 213.61 716.80 206.39L716.80 206.39L716.80 230.02Q706.35 236.95 690.04 236.95L690.04 236.95Q665.92 236.95 652.98 217.76Q640.04 198.57 640.04 163.81L640.04 163.81Q640.04 129.04 653.37 109.61Q666.70 90.18 690.43 90.18L690.43 90.18Q698.24 90.18 705.42 92.32Q712.60 94.47 720.80 99.84L720.80 99.84L712.01 121.43Q707.62 118.40 702.64 115.91Q697.66 113.42 691.80 113.42Z" fill="url(#TextGradient)"/><path d="M808.20 211.37L808.20 235L731.64 235L731.64 215.18L757.03 179.24Q767.48 164.39 771.39 157.22Q775.29 150.04 777.15 143.45Q779.00 136.86 779.00 129.82L779.00 129.82Q779.00 121.62 775.34 117.52Q771.68 113.42 765.82 113.42L765.82 113.42Q760.64 113.42 756.15 116.15Q751.66 118.89 745.21 126.02L745.21 126.02L730.37 110.39Q740.63 98.77 749.41 94.47Q758.20 90.18 768.46 90.18L768.46 90.18Q785.74 90.18 795.46 100.33Q805.18 110.49 805.18 128.55L805.18 128.55Q805.18 136.76 803.42 144.08Q801.66 151.41 798.10 158.78Q794.53 166.15 789.16 174.11Q783.79 182.07 761.43 210.59L761.43 210.59L761.43 211.37L808.20 211.37Z" fill="url(#TextGradient)"/><path d="M917.77 92.23L917.77 235L891.21 235L891.21 172.40L856.15 172.40L856.15 235L829.59 235L829.59 92.23L856.15 92.23L856.15 148.96L891.21 148.96L891.21 92.23L917.77 92.23Z" fill="url(#TextGradient)"/><path d="M986.82 115.57L986.82 235L960.35 235L960.35 115.57L933.01 115.57L933.01 92.23L1014.16 92.23L1014.16 115.57L986.82 115.57Z" fill="url(#TextGradient)"/><path d="M1109.38 235L1080.37 235L1053.22 113.42L1052.15 113.42Q1054.00 127.48 1054.00 139.20L1054.00 139.20L1054.00 235L1029.39 235L1029.39 92.23L1070.21 92.23L1094.63 204.43L1095.41 204.43L1119.63 92.23L1161.04 92.23L1161.04 235L1135.84 235L1135.84 138.22Q1135.84 126.21 1137.21 113.61L1137.21 113.61L1136.43 113.61L1109.38 235Z" fill="url(#TextGradient)"/><path d="M1249.61 235L1186.23 235L1186.23 92.23L1212.79 92.23L1212.79 211.76L1249.61 211.76L1249.61 235Z" fill="url(#TextGradient)"/>
    <defs>
        <linearGradient id="TextGradient" x1="0" y1="0" x2="0" y2="1">
            <stop offset="0" style="stop-color:#026D91;stop-opacity:1"/>
            <stop offset="1" style="stop-color:#02A1D7;stop-opacity:1"/>
        </linearGradient>
    </defs>
</svg>
