<?xml version="1.0" encoding="UTF-8" standalone="no"?>
<!DOCTYPE svg PUBLIC "-//W3C//DTD SVG 1.1//EN" "http://www.w3.org/Graphics/SVG/1.1/DTD/svg11.dtd">
<svg width="100%" height="100%" viewBox="0 0 2008.6171875 330" version="1.1" xmlns="http://www.w3.org/2000/svg" xmlns:xlink="http://www.w3.org/1999/xlink" xml:space="preserve" xmlns:serif="http://www.serif.com/" style="fill-rule:evenodd;clip-rule:evenodd;stroke-linejoin:round;stroke-miterlimit:2;">
    <path d="M82.912,22.056l-69.362,69.362l69.362,69.363l69.363,-69.363l-69.363,-69.362Z" style="fill:rgb(176,176,176);"/>
    <path d="M82.912,160.781l-69.362,69.363l69.362,69.363l69.363,-69.363l-69.363,-69.363Z" style="fill:rgb(176,176,176);"/>
    <path d="M199.583,0l-94.615,0l-22.056,22.056l69.363,69.362l69.363,-69.362l-22.055,-22.056Z" style="fill:rgb(176,176,176);fill-opacity:0.5;"/>
    <path d="M113.02,329.614l78.511,0l30.107,-30.107l-69.363,-69.363l-69.363,69.363l30.108,30.107Z" style="fill:rgb(176,176,176);fill-opacity:0.5;"/>
    <path d="M0,0l0,77.869l13.55,13.549l69.362,-69.362l-22.055,-22.056l-60.857,-0Z" style="fill:rgb(176,176,176);fill-opacity:0.5;"/>
    <path d="M13.55,368.87l-1.598,-1.597l3.195,-0l-1.597,1.597Zm-13.55,-125.176l0,85.92l52.805,0l30.107,-30.107l-69.362,-69.363l-13.55,13.55Z" style="fill:rgb(176,176,176);fill-opacity:0.5;"/>
    <path d="M0,104.968l0,111.627l13.55,13.549l69.362,-69.363l-69.362,-69.363l-13.55,13.55Z" style="fill:rgb(176,176,176);fill-opacity:0.5;"/>
    <path d="M152.275,91.418l-69.363,69.363l69.363,69.363l69.363,-69.363l-69.363,-69.363Z" style="fill:#7002B9;"/>
    <path d="M221.638,22.056l-69.363,69.362l69.363,69.363l69.363,-69.363l-69.363,-69.362Z" style="fill:#A04DD8;"/>
    <path d="M221.638,160.781l-69.363,69.363l69.363,69.363l69.363,-69.363l-69.363,-69.363Z" style="fill:#A04DD8;"/>
    <path d="M291.001,91.418l-69.363,69.363l69.363,69.363l69.363,-69.363l-69.363,-69.363Z" style="fill:#8202D7;"/>
    <path d="M152.291,110.184l-152.291,152.291l0,-18.781l152.275,-152.276l0.016,0.016l0.016,-0.016l69.543,69.544l69.544,-69.544l9.391,9.391l-78.723,78.722l-0.212,-0.212l-0.212,0.212l-69.347,-69.347Z" style="fill:rgb(255,209,62);"/>
    <path d="M499.63 180.43L490.16 180.43L490.16 236L463.60 236L463.60 93.23L498.36 93.23Q520.43 93.23 530.93 103.68Q541.43 114.13 541.43 135.61L541.43 135.61Q541.43 162.66 523.17 173.40L523.17 173.40L550.61 236L522.19 236L499.63 180.43ZM490.16 116.18L490.16 157.58L497.00 157.58Q506.37 157.58 510.47 152.26Q514.57 146.94 514.57 136.39L514.57 136.39Q514.57 125.45 510.23 120.81Q505.88 116.18 496.80 116.18L496.80 116.18L490.16 116.18Z" fill="#FFFFFF"/><path d="M589.96 178.77L589.96 236L563.60 236L563.60 93.23L627.56 93.23L627.56 116.18L589.96 116.18L589.96 155.82L625.02 155.82L625.02 178.77L589.96 178.77Z" fill="#FFFFFF"/><path d="M692.80 114.42L692.80 114.42Q681.37 114.42 674.78 127.80Q668.19 141.18 668.19 165.00L668.19 165.00Q668.19 214.61 694.07 214.61L694.07 214.61Q705.39 214.61 717.80 207.39L717.80 207.39L717.80 231.02Q707.35 237.95 691.04 237.95L691.04 237.95Q666.92 237.95 653.98 218.76Q641.04 199.57 641.04 164.81L641.04 164.81Q641.04 130.04 654.37 110.61Q667.70 91.18 691.43 91.18L691.43 91.18Q699.24 91.18 706.42 93.32Q713.60 95.47 721.80 100.84L721.80 100.84L713.01 122.43Q708.62 119.40 703.64 116.91Q698.66 114.42 692.80 114.42Z" fill="#FFFFFF"/><path d="" fill="#FFFFFF"/><path d="M851.78 212.76L851.78 236L787.43 236L787.43 93.23L851.78 93.23L851.78 116.18L813.99 116.18L813.99 150.16L849.05 150.16L849.05 173.21L813.99 173.21L813.99 212.76L851.78 212.76Z" fill="#FFFFFF"/><path d="M899.63 237.95L899.63 237.95Q884.59 237.95 875.90 223.11Q867.21 208.27 867.21 181.80L867.21 181.80Q867.21 155.24 875.71 140.20Q884.20 125.16 899.14 125.16L899.14 125.16Q906.57 125.16 911.99 128.82Q917.41 132.48 922.00 141.18L922.00 141.18L923.56 141.18Q922.39 126.33 922.39 120.38L922.39 120.38L922.39 84.05L948.36 84.05L948.36 236L929.03 236L924.63 221.84L923.75 221.84Q915.45 237.95 899.63 237.95ZM908.03 215.98L908.03 215.98Q915.26 215.98 918.58 209.39Q921.90 202.80 922.19 185.41L922.19 185.41L922.19 182.00Q922.19 163.05 918.82 155.34Q915.45 147.62 907.74 147.62L907.74 147.62Q900.51 147.62 897.24 156.46Q893.97 165.30 893.97 182.19L893.97 182.19Q893.97 199.09 897.29 207.53Q900.61 215.98 908.03 215.98Z" fill="#FFFFFF"/><path d="M996.41 127.21L996.41 236L970.43 236L970.43 127.21L996.41 127.21ZM969.36 98.79L969.36 98.79Q969.36 92.35 973.12 88.59Q976.88 84.83 983.62 84.83L983.62 84.83Q989.96 84.83 993.77 88.59Q997.58 92.35 997.58 98.79L997.58 98.79Q997.58 105.43 993.68 109.10Q989.77 112.76 983.62 112.76L983.62 112.76Q977.17 112.76 973.27 109.10Q969.36 105.43 969.36 98.79Z" fill="#FFFFFF"/><path d="M1056.47 215.98L1056.47 215.98Q1061.94 215.98 1068.29 213.25L1068.29 213.25L1068.29 233.56Q1061.94 237.95 1049.24 237.95L1049.24 237.95Q1035.08 237.95 1028.25 229.51Q1021.41 221.06 1021.41 204.16L1021.41 204.16L1021.41 147.82L1010.86 147.82L1010.86 136.20L1024.44 126.82L1031.08 103.77L1047.68 103.77L1047.68 127.21L1067.41 127.21L1067.41 147.82L1047.68 147.82L1047.68 205.04Q1047.68 215.98 1056.47 215.98Z" fill="#FFFFFF"/><path d="M1164.09 181.41L1164.09 181.41Q1164.09 208.17 1152.76 223.06Q1141.43 237.95 1121.70 237.95L1121.70 237.95Q1109.20 237.95 1099.63 231.12Q1090.06 224.28 1084.89 211.44Q1079.71 198.60 1079.71 181.41L1079.71 181.41Q1079.71 154.95 1090.94 140.05Q1102.17 125.16 1122.09 125.16L1122.09 125.16Q1141.33 125.16 1152.71 140.35Q1164.09 155.53 1164.09 181.41ZM1106.27 181.41L1106.27 181.41Q1106.27 198.40 1109.98 207.09Q1113.70 215.79 1121.90 215.79L1121.90 215.79Q1137.52 215.79 1137.52 181.41L1137.52 181.41Q1137.52 164.32 1133.76 155.87Q1130.00 147.43 1121.90 147.43L1121.90 147.43Q1113.70 147.43 1109.98 155.87Q1106.27 164.32 1106.27 181.41Z" fill="#FFFFFF"/><path d="M1228.73 125.16L1228.73 125.16Q1233.52 125.16 1238.11 126.63L1238.11 126.63L1235.08 151.82Q1232.35 150.84 1227.95 150.84L1227.95 150.84Q1218.48 150.84 1213.40 158.31Q1208.32 165.79 1208.32 180.04L1208.32 180.04L1208.32 236L1182.35 236L1182.35 127.21L1203.73 127.21L1206.66 144.20L1207.54 144.20Q1211.84 133.95 1216.92 129.55Q1222.00 125.16 1228.73 125.16Z" fill="#FFFFFF"/><path d="" fill="#FFFFFF"/><path d="M1444.75 93.23L1419.07 236L1385.86 236L1371.90 161.20Q1368.68 145.86 1367.31 124.96L1367.31 124.96L1366.53 132.19L1362.52 161.59L1348.95 236L1315.75 236L1289.87 93.23L1315.94 93.23L1328.73 173.79Q1330.59 185.90 1333.71 211.78L1333.71 211.78Q1336.16 185.61 1338.30 174.38L1338.30 174.38L1353.54 93.23L1381.08 93.23L1396.31 174.38Q1399.34 192.45 1401.10 211.98L1401.10 211.98Q1404.52 183.07 1406.08 173.79L1406.08 173.79L1418.48 93.23L1444.75 93.23Z" fill="#FFFFFF"/><path d="M1494.65 237.95L1494.65 237.95Q1474.24 237.95 1462.47 223.45Q1450.71 208.95 1450.71 182.39L1450.71 182.39Q1450.71 155.43 1461.35 140.30Q1472.00 125.16 1491.04 125.16L1491.04 125.16Q1508.81 125.16 1519.07 138.10Q1529.32 151.04 1529.32 174.38L1529.32 174.38L1529.32 188.25L1477.07 188.25Q1477.37 202.80 1483.03 209.88Q1488.70 216.96 1498.66 216.96L1498.66 216.96Q1511.35 216.96 1524.63 209.05L1524.63 209.05L1524.63 230.43Q1512.13 237.95 1494.65 237.95ZM1490.84 145.18L1490.84 145.18Q1485.28 145.18 1481.66 151.09Q1478.05 157.00 1477.46 169.40L1477.46 169.40L1503.83 169.40Q1503.64 157.48 1500.22 151.33Q1496.80 145.18 1490.84 145.18Z" fill="#FFFFFF"/><path d="M1595.63 125.16L1595.63 125.16Q1610.47 125.16 1618.97 139.91Q1627.46 154.65 1627.46 181.41L1627.46 181.41Q1627.46 208.46 1618.92 223.21Q1610.38 237.95 1595.24 237.95L1595.24 237.95Q1587.91 237.95 1582.30 234.78Q1576.68 231.61 1571.70 223.60L1571.70 223.60L1570.04 223.60L1565.65 236L1546.51 236L1546.51 84.05L1572.48 84.05L1572.48 119.59Q1572.48 121.84 1572.39 124.28Q1572.29 126.72 1571.12 141.37L1571.12 141.37L1572.48 141.37Q1577.27 132.39 1582.84 128.77Q1588.40 125.16 1595.63 125.16ZM1586.64 147.23L1586.64 147.23Q1579.22 147.23 1575.95 154.16Q1572.68 161.10 1572.48 178.58L1572.48 178.58L1572.48 181.21Q1572.48 200.16 1575.85 207.88Q1579.22 215.59 1586.84 215.59L1586.84 215.59Q1600.90 215.59 1600.90 181.02L1600.90 181.02Q1600.90 147.23 1586.64 147.23Z" fill="#FFFFFF"/><path d="M1704.13 204.16L1704.13 204.16Q1704.13 220.08 1694.80 229.02Q1685.47 237.95 1667.31 237.95L1667.31 237.95Q1651.20 237.95 1640.65 231.61L1640.65 231.61L1640.65 209.05Q1646.02 212.76 1653.20 215.20Q1660.38 217.64 1665.84 217.64L1665.84 217.64Q1671.90 217.64 1675.07 214.66Q1678.25 211.68 1678.25 206.80L1678.25 206.80Q1678.25 201.82 1674.93 198.11Q1671.61 194.40 1662.72 189.03L1662.72 189.03Q1650.90 182.00 1645.78 174.04Q1640.65 166.08 1640.65 155.24L1640.65 155.24Q1640.65 141.37 1650.17 133.27Q1659.69 125.16 1676.29 125.16L1676.29 125.16Q1690.75 125.16 1703.54 132.78L1703.54 132.78L1695.04 151.43Q1684.59 145.77 1676.68 145.77L1676.68 145.77Q1671.70 145.77 1669.21 148.40Q1666.72 151.04 1666.72 154.85L1666.72 154.85Q1666.72 159.24 1669.80 162.66Q1672.88 166.08 1681.27 171.16L1681.27 171.16Q1691.43 177.31 1695.53 181.61Q1699.63 185.90 1701.88 191.37Q1704.13 196.84 1704.13 204.16Z" fill="#FFFFFF"/><path d="M1746.70 127.21L1746.70 236L1720.73 236L1720.73 127.21L1746.70 127.21ZM1719.65 98.79L1719.65 98.79Q1719.65 92.35 1723.41 88.59Q1727.17 84.83 1733.91 84.83L1733.91 84.83Q1740.26 84.83 1744.07 88.59Q1747.88 92.35 1747.88 98.79L1747.88 98.79Q1747.88 105.43 1743.97 109.10Q1740.06 112.76 1733.91 112.76L1733.91 112.76Q1727.46 112.76 1723.56 109.10Q1719.65 105.43 1719.65 98.79Z" fill="#FFFFFF"/><path d="M1806.76 215.98L1806.76 215.98Q1812.23 215.98 1818.58 213.25L1818.58 213.25L1818.58 233.56Q1812.23 237.95 1799.54 237.95L1799.54 237.95Q1785.38 237.95 1778.54 229.51Q1771.70 221.06 1771.70 204.16L1771.70 204.16L1771.70 147.82L1761.16 147.82L1761.16 136.20L1774.73 126.82L1781.37 103.77L1797.97 103.77L1797.97 127.21L1817.70 127.21L1817.70 147.82L1797.97 147.82L1797.97 205.04Q1797.97 215.98 1806.76 215.98Z" fill="#FFFFFF"/><path d="M1873.95 237.95L1873.95 237.95Q1853.54 237.95 1841.77 223.45Q1830.00 208.95 1830.00 182.39L1830.00 182.39Q1830.00 155.43 1840.65 140.30Q1851.29 125.16 1870.34 125.16L1870.34 125.16Q1888.11 125.16 1898.36 138.10Q1908.62 151.04 1908.62 174.38L1908.62 174.38L1908.62 188.25L1856.37 188.25Q1856.66 202.80 1862.33 209.88Q1867.99 216.96 1877.95 216.96L1877.95 216.96Q1890.65 216.96 1903.93 209.05L1903.93 209.05L1903.93 230.43Q1891.43 237.95 1873.95 237.95ZM1870.14 145.18L1870.14 145.18Q1864.57 145.18 1860.96 151.09Q1857.35 157.00 1856.76 169.40L1856.76 169.40L1883.13 169.40Q1882.93 157.48 1879.52 151.33Q1876.10 145.18 1870.14 145.18Z" fill="#FFFFFF"/><path d="M498.63 179.43L489.16 179.43L489.16 235L462.60 235L462.60 92.23L497.36 92.23Q519.43 92.23 529.93 102.68Q540.43 113.13 540.43 134.61L540.43 134.61Q540.43 161.66 522.17 172.40L522.17 172.40L549.61 235L521.19 235L498.63 179.43ZM489.16 115.18L489.16 156.58L496.00 156.58Q505.37 156.58 509.47 151.26Q513.57 145.94 513.57 135.39L513.57 135.39Q513.57 124.45 509.23 119.81Q504.88 115.18 495.80 115.18L495.80 115.18L489.16 115.18Z" fill="url(#TextGradient)"/><path d="M588.96 177.77L588.96 235L562.60 235L562.60 92.23L626.56 92.23L626.56 115.18L588.96 115.18L588.96 154.82L624.02 154.82L624.02 177.77L588.96 177.77Z" fill="url(#TextGradient)"/><path d="M691.80 113.42L691.80 113.42Q680.37 113.42 673.78 126.80Q667.19 140.18 667.19 164.00L667.19 164.00Q667.19 213.61 693.07 213.61L693.07 213.61Q704.39 213.61 716.80 206.39L716.80 206.39L716.80 230.02Q706.35 236.95 690.04 236.95L690.04 236.95Q665.92 236.95 652.98 217.76Q640.04 198.57 640.04 163.81L640.04 163.81Q640.04 129.04 653.37 109.61Q666.70 90.18 690.43 90.18L690.43 90.18Q698.24 90.18 705.42 92.32Q712.60 94.47 720.80 99.84L720.80 99.84L712.01 121.43Q707.62 118.40 702.64 115.91Q697.66 113.42 691.80 113.42Z" fill="url(#TextGradient)"/><path d="" fill="url(#TextGradient)"/><path d="M850.78 211.76L850.78 235L786.43 235L786.43 92.23L850.78 92.23L850.78 115.18L812.99 115.18L812.99 149.16L848.05 149.16L848.05 172.21L812.99 172.21L812.99 211.76L850.78 211.76Z" fill="url(#TextGradient)"/><path d="M898.63 236.95L898.63 236.95Q883.59 236.95 874.90 222.11Q866.21 207.27 866.21 180.80L866.21 180.80Q866.21 154.24 874.71 139.20Q883.20 124.16 898.14 124.16L898.14 124.16Q905.57 124.16 910.99 127.82Q916.41 131.48 921.00 140.18L921.00 140.18L922.56 140.18Q921.39 125.33 921.39 119.38L921.39 119.38L921.39 83.05L947.36 83.05L947.36 235L928.03 235L923.63 220.84L922.75 220.84Q914.45 236.95 898.63 236.95ZM907.03 214.98L907.03 214.98Q914.26 214.98 917.58 208.39Q920.90 201.80 921.19 184.41L921.19 184.41L921.19 181.00Q921.19 162.05 917.82 154.34Q914.45 146.62 906.74 146.62L906.74 146.62Q899.51 146.62 896.24 155.46Q892.97 164.30 892.97 181.19L892.97 181.19Q892.97 198.09 896.29 206.53Q899.61 214.98 907.03 214.98Z" fill="url(#TextGradient)"/><path d="M995.41 126.21L995.41 235L969.43 235L969.43 126.21L995.41 126.21ZM968.36 97.79L968.36 97.79Q968.36 91.35 972.12 87.59Q975.88 83.83 982.62 83.83L982.62 83.83Q988.96 83.83 992.77 87.59Q996.58 91.35 996.58 97.79L996.58 97.79Q996.58 104.43 992.68 108.10Q988.77 111.76 982.62 111.76L982.62 111.76Q976.17 111.76 972.27 108.10Q968.36 104.43 968.36 97.79Z" fill="url(#TextGradient)"/><path d="M1055.47 214.98L1055.47 214.98Q1060.94 214.98 1067.29 212.25L1067.29 212.25L1067.29 232.56Q1060.94 236.95 1048.24 236.95L1048.24 236.95Q1034.08 236.95 1027.25 228.51Q1020.41 220.06 1020.41 203.16L1020.41 203.16L1020.41 146.82L1009.86 146.82L1009.86 135.20L1023.44 125.82L1030.08 102.77L1046.68 102.77L1046.68 126.21L1066.41 126.21L1066.41 146.82L1046.68 146.82L1046.68 204.04Q1046.68 214.98 1055.47 214.98Z" fill="url(#TextGradient)"/><path d="M1163.09 180.41L1163.09 180.41Q1163.09 207.17 1151.76 222.06Q1140.43 236.95 1120.70 236.95L1120.70 236.95Q1108.20 236.95 1098.63 230.12Q1089.06 223.28 1083.89 210.44Q1078.71 197.60 1078.71 180.41L1078.71 180.41Q1078.71 153.95 1089.94 139.05Q1101.17 124.16 1121.09 124.16L1121.09 124.16Q1140.33 124.16 1151.71 139.35Q1163.09 154.53 1163.09 180.41ZM1105.27 180.41L1105.27 180.41Q1105.27 197.40 1108.98 206.09Q1112.70 214.79 1120.90 214.79L1120.90 214.79Q1136.52 214.79 1136.52 180.41L1136.52 180.41Q1136.52 163.32 1132.76 154.87Q1129.00 146.43 1120.90 146.43L1120.90 146.43Q1112.70 146.43 1108.98 154.87Q1105.27 163.32 1105.27 180.41Z" fill="url(#TextGradient)"/><path d="M1227.73 124.16L1227.73 124.16Q1232.52 124.16 1237.11 125.63L1237.11 125.63L1234.08 150.82Q1231.35 149.84 1226.95 149.84L1226.95 149.84Q1217.48 149.84 1212.40 157.31Q1207.32 164.79 1207.32 179.04L1207.32 179.04L1207.32 235L1181.35 235L1181.35 126.21L1202.73 126.21L1205.66 143.20L1206.54 143.20Q1210.84 132.95 1215.92 128.55Q1221.00 124.16 1227.73 124.16Z" fill="url(#TextGradient)"/><path d="" fill="url(#TextGradient)"/><path d="M1443.75 92.23L1418.07 235L1384.86 235L1370.90 160.20Q1367.68 144.86 1366.31 123.96L1366.31 123.96L1365.53 131.19L1361.52 160.59L1347.95 235L1314.75 235L1288.87 92.23L1314.94 92.23L1327.73 172.79Q1329.59 184.90 1332.71 210.78L1332.71 210.78Q1335.16 184.61 1337.30 173.38L1337.30 173.38L1352.54 92.23L1380.08 92.23L1395.31 173.38Q1398.34 191.45 1400.10 210.98L1400.10 210.98Q1403.52 182.07 1405.08 172.79L1405.08 172.79L1417.48 92.23L1443.75 92.23Z" fill="url(#TextGradient)"/><path d="M1493.65 236.95L1493.65 236.95Q1473.24 236.95 1461.47 222.45Q1449.71 207.95 1449.71 181.39L1449.71 181.39Q1449.71 154.43 1460.35 139.30Q1471.00 124.16 1490.04 124.16L1490.04 124.16Q1507.81 124.16 1518.07 137.10Q1528.32 150.04 1528.32 173.38L1528.32 173.38L1528.32 187.25L1476.07 187.25Q1476.37 201.80 1482.03 208.88Q1487.70 215.96 1497.66 215.96L1497.66 215.96Q1510.35 215.96 1523.63 208.05L1523.63 208.05L1523.63 229.43Q1511.13 236.95 1493.65 236.95ZM1489.84 144.18L1489.84 144.18Q1484.28 144.18 1480.66 150.09Q1477.05 156.00 1476.46 168.40L1476.46 168.40L1502.83 168.40Q1502.64 156.48 1499.22 150.33Q1495.80 144.18 1489.84 144.18Z" fill="url(#TextGradient)"/><path d="M1594.63 124.16L1594.63 124.16Q1609.47 124.16 1617.97 138.91Q1626.46 153.65 1626.46 180.41L1626.46 180.41Q1626.46 207.46 1617.92 222.21Q1609.38 236.95 1594.24 236.95L1594.24 236.95Q1586.91 236.95 1581.30 233.78Q1575.68 230.61 1570.70 222.60L1570.70 222.60L1569.04 222.60L1564.65 235L1545.51 235L1545.51 83.05L1571.48 83.05L1571.48 118.59Q1571.48 120.84 1571.39 123.28Q1571.29 125.72 1570.12 140.37L1570.12 140.37L1571.48 140.37Q1576.27 131.39 1581.84 127.77Q1587.40 124.16 1594.63 124.16ZM1585.64 146.23L1585.64 146.23Q1578.22 146.23 1574.95 153.16Q1571.68 160.10 1571.48 177.58L1571.48 177.58L1571.48 180.21Q1571.48 199.16 1574.85 206.88Q1578.22 214.59 1585.84 214.59L1585.84 214.59Q1599.90 214.59 1599.90 180.02L1599.90 180.02Q1599.90 146.23 1585.64 146.23Z" fill="url(#TextGradient)"/><path d="M1703.13 203.16L1703.13 203.16Q1703.13 219.08 1693.80 228.02Q1684.47 236.95 1666.31 236.95L1666.31 236.95Q1650.20 236.95 1639.65 230.61L1639.65 230.61L1639.65 208.05Q1645.02 211.76 1652.20 214.20Q1659.38 216.64 1664.84 216.64L1664.84 216.64Q1670.90 216.64 1674.07 213.66Q1677.25 210.68 1677.25 205.80L1677.25 205.80Q1677.25 200.82 1673.93 197.11Q1670.61 193.40 1661.72 188.03L1661.72 188.03Q1649.90 181.00 1644.78 173.04Q1639.65 165.08 1639.65 154.24L1639.65 154.24Q1639.65 140.37 1649.17 132.27Q1658.69 124.16 1675.29 124.16L1675.29 124.16Q1689.75 124.16 1702.54 131.78L1702.54 131.78L1694.04 150.43Q1683.59 144.77 1675.68 144.77L1675.68 144.77Q1670.70 144.77 1668.21 147.40Q1665.72 150.04 1665.72 153.85L1665.72 153.85Q1665.72 158.24 1668.80 161.66Q1671.88 165.08 1680.27 170.16L1680.27 170.16Q1690.43 176.31 1694.53 180.61Q1698.63 184.90 1700.88 190.37Q1703.13 195.84 1703.13 203.16Z" fill="url(#TextGradient)"/><path d="M1745.70 126.21L1745.70 235L1719.73 235L1719.73 126.21L1745.70 126.21ZM1718.65 97.79L1718.65 97.79Q1718.65 91.35 1722.41 87.59Q1726.17 83.83 1732.91 83.83L1732.91 83.83Q1739.26 83.83 1743.07 87.59Q1746.88 91.35 1746.88 97.79L1746.88 97.79Q1746.88 104.43 1742.97 108.10Q1739.06 111.76 1732.91 111.76L1732.91 111.76Q1726.46 111.76 1722.56 108.10Q1718.65 104.43 1718.65 97.79Z" fill="url(#TextGradient)"/><path d="M1805.76 214.98L1805.76 214.98Q1811.23 214.98 1817.58 212.25L1817.58 212.25L1817.58 232.56Q1811.23 236.95 1798.54 236.95L1798.54 236.95Q1784.38 236.95 1777.54 228.51Q1770.70 220.06 1770.70 203.16L1770.70 203.16L1770.70 146.82L1760.16 146.82L1760.16 135.20L1773.73 125.82L1780.37 102.77L1796.97 102.77L1796.97 126.21L1816.70 126.21L1816.70 146.82L1796.97 146.82L1796.97 204.04Q1796.97 214.98 1805.76 214.98Z" fill="url(#TextGradient)"/><path d="M1872.95 236.95L1872.95 236.95Q1852.54 236.95 1840.77 222.45Q1829.00 207.95 1829.00 181.39L1829.00 181.39Q1829.00 154.43 1839.65 139.30Q1850.29 124.16 1869.34 124.16L1869.34 124.16Q1887.11 124.16 1897.36 137.10Q1907.62 150.04 1907.62 173.38L1907.62 173.38L1907.62 187.25L1855.37 187.25Q1855.66 201.80 1861.33 208.88Q1866.99 215.96 1876.95 215.96L1876.95 215.96Q1889.65 215.96 1902.93 208.05L1902.93 208.05L1902.93 229.43Q1890.43 236.95 1872.95 236.95ZM1869.14 144.18L1869.14 144.18Q1863.57 144.18 1859.96 150.09Q1856.35 156.00 1855.76 168.40L1855.76 168.40L1882.13 168.40Q1881.93 156.48 1878.52 150.33Q1875.10 144.18 1869.14 144.18Z" fill="url(#TextGradient)"/>
    <defs>
        <linearGradient id="TextGradient" x1="0" y1="0" x2="0" y2="1">
            <stop offset="0" style="stop-color:#580291;stop-opacity:1"/>
            <stop offset="1" style="stop-color:#8202D7;stop-opacity:1"/>
        </linearGradient>
    </defs>
</svg>
