<?xml version="1.0" encoding="UTF-8" standalone="no"?>
<!DOCTYPE svg PUBLIC "-//W3C//DTD SVG 1.1//EN" "http://www.w3.org/Graphics/SVG/1.1/DTD/svg11.dtd">
<svg width="100%" height="100%" viewBox="0 0 1174.73046875 330" version="1.1" xmlns="http://www.w3.org/2000/svg" xmlns:xlink="http://www.w3.org/1999/xlink" xml:space="preserve" xmlns:serif="http://www.serif.com/" style="fill-rule:evenodd;clip-rule:evenodd;stroke-linejoin:round;stroke-miterlimit:2;">
    <g transform="matrix(0.707107,-0.707107,0.707107,0.707107,-212.718,125.508)">
        <rect x="184.1" y="233.984" width="98.094" height="98.094" style="fill:rgb(11,140,197);"/>
    </g>
    <g transform="matrix(0.707107,-0.707107,0.707107,0.707107,-282.081,56.1452)">
        <rect x="184.1" y="233.984" width="98.094" height="98.094" style="fill:rgb(176,176,176);"/>
    </g>
    <g transform="matrix(0.707107,-0.707107,0.707107,0.707107,-282.081,194.871)">
        <rect x="184.1" y="233.984" width="98.094" height="98.094" style="fill:rgb(176,176,176);"/>
    </g>
    <g transform="matrix(0.707107,-0.707107,0.707107,0.707107,-212.718,-13.2176)">
        <rect x="184.1" y="233.984" width="98.094" height="98.094" style="fill:rgb(176,176,176);fill-opacity:0.5;"/>
    </g>
    <g transform="matrix(0.707107,-0.707107,0.707107,0.707107,-351.444,125.508)">
        <rect x="184.1" y="233.984" width="98.094" height="98.094" style="fill:rgb(176,176,176);fill-opacity:0.5;"/>
    </g>
    <g transform="matrix(0.707107,-0.707107,0.707107,0.707107,-212.718,264.234)">
        <rect x="184.1" y="233.984" width="98.094" height="98.094" style="fill:rgb(176,176,176);fill-opacity:0.5;"/>
    </g>
    <g transform="matrix(0.707107,-0.707107,0.707107,0.707107,-351.444,264.234)">
        <rect x="184.1" y="233.984" width="98.094" height="98.094" style="fill:rgb(176,176,176);fill-opacity:0.5;"/>
    </g>
    <g transform="matrix(0.707107,-0.707107,0.707107,0.707107,-351.444,-13.2176)">
        <rect x="184.1" y="233.984" width="98.094" height="98.094" style="fill:rgb(176,176,176);fill-opacity:0.5;"/>
    </g>
    <g transform="matrix(0.707107,-0.707107,0.707107,0.707107,-143.355,56.1452)">
        <rect x="184.1" y="233.984" width="98.094" height="98.094" style="fill:rgb(80,178,223);"/>
    </g>
    <g transform="matrix(0.707107,-0.707107,0.707107,0.707107,-143.355,194.871)">
        <rect x="184.1" y="233.984" width="98.094" height="98.094" style="fill:rgb(80,178,223);"/>
    </g>
    <g transform="matrix(0.707107,-0.707107,0.707107,0.707107,-73.9922,125.508)">
        <rect x="184.1" y="233.984" width="98.094" height="98.094" style="fill:rgb(2,161,215);"/>
    </g>
    <g transform="matrix(1,0,0,-1,0,321.563)">
        <path d="M152.291,211.378L0,59.087L0,77.869L152.275,230.144L152.291,230.128L152.307,230.144L221.85,160.601L291.394,230.144L300.785,220.753L222.062,142.031L221.85,142.243L221.638,142.031L152.291,211.378Z" style="fill:rgb(255,209,62);"/>
    </g>
    <path d="M499.63 180.43L490.16 180.43L490.16 236L463.60 236L463.60 93.23L498.36 93.23Q520.43 93.23 530.93 103.68Q541.43 114.13 541.43 135.61L541.43 135.61Q541.43 162.66 523.17 173.40L523.17 173.40L550.61 236L522.19 236L499.63 180.43ZM490.16 116.18L490.16 157.58L497.00 157.58Q506.37 157.58 510.47 152.26Q514.57 146.94 514.57 136.39L514.57 136.39Q514.57 125.45 510.23 120.81Q505.88 116.18 496.80 116.18L496.80 116.18L490.16 116.18Z" fill="#FFFFFF"/><path d="M589.96 178.77L589.96 236L563.60 236L563.60 93.23L627.56 93.23L627.56 116.18L589.96 116.18L589.96 155.82L625.02 155.82L625.02 178.77L589.96 178.77Z" fill="#FFFFFF"/><path d="M692.80 114.42L692.80 114.42Q681.37 114.42 674.78 127.80Q668.19 141.18 668.19 165.00L668.19 165.00Q668.19 214.61 694.07 214.61L694.07 214.61Q705.39 214.61 717.80 207.39L717.80 207.39L717.80 231.02Q707.35 237.95 691.04 237.95L691.04 237.95Q666.92 237.95 653.98 218.76Q641.04 199.57 641.04 164.81L641.04 164.81Q641.04 130.04 654.37 110.61Q667.70 91.18 691.43 91.18L691.43 91.18Q699.24 91.18 706.42 93.32Q713.60 95.47 721.80 100.84L721.80 100.84L713.01 122.43Q708.62 119.40 703.64 116.91Q698.66 114.42 692.80 114.42Z" fill="#FFFFFF"/><path d="M801.39 236L738.01 236L738.01 93.23L764.57 93.23L764.57 212.76L801.39 212.76L801.39 236Z" fill="#FFFFFF"/><path d="M848.17 236L823.17 236L823.17 93.23L848.17 93.23L848.17 236Z" fill="#FFFFFF"/><path d="M978.34 93.23L978.34 236L945.92 236L901.78 132.58L900.51 132.58Q902.95 144.40 902.95 157.97L902.95 157.97L902.95 236L878.34 236L878.34 93.23L910.96 93.23L954.71 195.57L955.79 195.57Q953.93 185.32 953.93 171.16L953.93 171.16L953.93 93.23L978.34 93.23Z" fill="#FFFFFF"/><path d="M1047.39 116.57L1047.39 236L1020.92 236L1020.92 116.57L993.58 116.57L993.58 93.23L1074.73 93.23L1074.73 116.57L1047.39 116.57Z" fill="#FFFFFF"/><path d="M498.63 179.43L489.16 179.43L489.16 235L462.60 235L462.60 92.23L497.36 92.23Q519.43 92.23 529.93 102.68Q540.43 113.13 540.43 134.61L540.43 134.61Q540.43 161.66 522.17 172.40L522.17 172.40L549.61 235L521.19 235L498.63 179.43ZM489.16 115.18L489.16 156.58L496.00 156.58Q505.37 156.58 509.47 151.26Q513.57 145.94 513.57 135.39L513.57 135.39Q513.57 124.45 509.23 119.81Q504.88 115.18 495.80 115.18L495.80 115.18L489.16 115.18Z" fill="url(#TextGradient)"/><path d="M588.96 177.77L588.96 235L562.60 235L562.60 92.23L626.56 92.23L626.56 115.18L588.96 115.18L588.96 154.82L624.02 154.82L624.02 177.77L588.96 177.77Z" fill="url(#TextGradient)"/><path d="M691.80 113.42L691.80 113.42Q680.37 113.42 673.78 126.80Q667.19 140.18 667.19 164.00L667.19 164.00Q667.19 213.61 693.07 213.61L693.07 213.61Q704.39 213.61 716.80 206.39L716.80 206.39L716.80 230.02Q706.35 236.95 690.04 236.95L690.04 236.95Q665.92 236.95 652.98 217.76Q640.04 198.57 640.04 163.81L640.04 163.81Q640.04 129.04 653.37 109.61Q666.70 90.18 690.43 90.18L690.43 90.18Q698.24 90.18 705.42 92.32Q712.60 94.47 720.80 99.84L720.80 99.84L712.01 121.43Q707.62 118.40 702.64 115.91Q697.66 113.42 691.80 113.42Z" fill="url(#TextGradient)"/><path d="M800.39 235L737.01 235L737.01 92.23L763.57 92.23L763.57 211.76L800.39 211.76L800.39 235Z" fill="url(#TextGradient)"/><path d="M847.17 235L822.17 235L822.17 92.23L847.17 92.23L847.17 235Z" fill="url(#TextGradient)"/><path d="M977.34 92.23L977.34 235L944.92 235L900.78 131.58L899.51 131.58Q901.95 143.40 901.95 156.97L901.95 156.97L901.95 235L877.34 235L877.34 92.23L909.96 92.23L953.71 194.57L954.79 194.57Q952.93 184.32 952.93 170.16L952.93 170.16L952.93 92.23L977.34 92.23Z" fill="url(#TextGradient)"/><path d="M1046.39 115.57L1046.39 235L1019.92 235L1019.92 115.57L992.58 115.57L992.58 92.23L1073.73 92.23L1073.73 115.57L1046.39 115.57Z" fill="url(#TextGradient)"/>
    <defs>
        <linearGradient id="TextGradient" x1="0" y1="0" x2="0" y2="1">
            <stop offset="0" style="stop-color:rgb(2,161,215);stop-opacity:1"/>
            <stop offset="1" style="stop-color:rgb(6,72,101);stop-opacity:1"/>
        </linearGradient>
    </defs>
</svg>
