<?xml version="1.0" encoding="UTF-8" standalone="no"?>
<!DOCTYPE svg PUBLIC "-//W3C//DTD SVG 1.1//EN" "http://www.w3.org/Graphics/SVG/1.1/DTD/svg11.dtd">
<svg width="100%" height="100%" viewBox="0 0 2127.3671875 330" version="1.1" xmlns="http://www.w3.org/2000/svg" xmlns:xlink="http://www.w3.org/1999/xlink" xml:space="preserve" xmlns:serif="http://www.serif.com/" style="fill-rule:evenodd;clip-rule:evenodd;stroke-linejoin:round;stroke-miterlimit:2;">
    <g transform="matrix(0.707107,-0.707107,0.707107,0.707107,-212.718,125.508)">
        <rect x="184.1" y="233.984" width="98.094" height="98.094" style="fill:rgb(11,140,197);"/>
    </g>
    <g transform="matrix(0.707107,-0.707107,0.707107,0.707107,-282.081,56.1452)">
        <rect x="184.1" y="233.984" width="98.094" height="98.094" style="fill:rgb(176,176,176);"/>
    </g>
    <g transform="matrix(0.707107,-0.707107,0.707107,0.707107,-282.081,194.871)">
        <rect x="184.1" y="233.984" width="98.094" height="98.094" style="fill:rgb(176,176,176);"/>
    </g>
    <g transform="matrix(0.707107,-0.707107,0.707107,0.707107,-212.718,-13.2176)">
        <rect x="184.1" y="233.984" width="98.094" height="98.094" style="fill:rgb(176,176,176);fill-opacity:0.5;"/>
    </g>
    <g transform="matrix(0.707107,-0.707107,0.707107,0.707107,-351.444,125.508)">
        <rect x="184.1" y="233.984" width="98.094" height="98.094" style="fill:rgb(176,176,176);fill-opacity:0.5;"/>
    </g>
    <g transform="matrix(0.707107,-0.707107,0.707107,0.707107,-212.718,264.234)">
        <rect x="184.1" y="233.984" width="98.094" height="98.094" style="fill:rgb(176,176,176);fill-opacity:0.5;"/>
    </g>
    <g transform="matrix(0.707107,-0.707107,0.707107,0.707107,-351.444,264.234)">
        <rect x="184.1" y="233.984" width="98.094" height="98.094" style="fill:rgb(176,176,176);fill-opacity:0.5;"/>
    </g>
    <g transform="matrix(0.707107,-0.707107,0.707107,0.707107,-351.444,-13.2176)">
        <rect x="184.1" y="233.984" width="98.094" height="98.094" style="fill:rgb(176,176,176);fill-opacity:0.5;"/>
    </g>
    <g transform="matrix(0.707107,-0.707107,0.707107,0.707107,-143.355,56.1452)">
        <rect x="184.1" y="233.984" width="98.094" height="98.094" style="fill:rgb(80,178,223);"/>
    </g>
    <g transform="matrix(0.707107,-0.707107,0.707107,0.707107,-143.355,194.871)">
        <rect x="184.1" y="233.984" width="98.094" height="98.094" style="fill:rgb(80,178,223);"/>
    </g>
    <g transform="matrix(0.707107,-0.707107,0.707107,0.707107,-73.9922,125.508)">
        <rect x="184.1" y="233.984" width="98.094" height="98.094" style="fill:rgb(2,161,215);"/>
    </g>
    <g transform="matrix(1,0,0,-1,0,321.563)">
        <path d="M152.291,211.378L0,59.087L0,77.869L152.275,230.144L152.291,230.128L152.307,230.144L221.85,160.601L291.394,230.144L300.785,220.753L222.062,142.031L221.85,142.243L221.638,142.031L152.291,211.378Z" style="fill:rgb(255,209,62);"/>
    </g>
    <path d="M499.63 180.43L490.16 180.43L490.16 236L463.60 236L463.60 93.23L498.36 93.23Q520.43 93.23 530.93 103.68Q541.43 114.13 541.43 135.61L541.43 135.61Q541.43 162.66 523.17 173.40L523.17 173.40L550.61 236L522.19 236L499.63 180.43ZM490.16 116.18L490.16 157.58L497.00 157.58Q506.37 157.58 510.47 152.26Q514.57 146.94 514.57 136.39L514.57 136.39Q514.57 125.45 510.23 120.81Q505.88 116.18 496.80 116.18L496.80 116.18L490.16 116.18Z" fill="#FFFFFF"/><path d="M589.96 178.77L589.96 236L563.60 236L563.60 93.23L627.56 93.23L627.56 116.18L589.96 116.18L589.96 155.82L625.02 155.82L625.02 178.77L589.96 178.77Z" fill="#FFFFFF"/><path d="M692.80 114.42L692.80 114.42Q681.37 114.42 674.78 127.80Q668.19 141.18 668.19 165.00L668.19 165.00Q668.19 214.61 694.07 214.61L694.07 214.61Q705.39 214.61 717.80 207.39L717.80 207.39L717.80 231.02Q707.35 237.95 691.04 237.95L691.04 237.95Q666.92 237.95 653.98 218.76Q641.04 199.57 641.04 164.81L641.04 164.81Q641.04 130.04 654.37 110.61Q667.70 91.18 691.43 91.18L691.43 91.18Q699.24 91.18 706.42 93.32Q713.60 95.47 721.80 100.84L721.80 100.84L713.01 122.43Q708.62 119.40 703.64 116.91Q698.66 114.42 692.80 114.42Z" fill="#FFFFFF"/><path d="M781.86 116.57L781.86 236L755.39 236L755.39 116.57L728.05 116.57L728.05 93.23L809.20 93.23L809.20 116.57L781.86 116.57Z" fill="#FFFFFF"/><path d="M920.04 164.42L920.04 164.42Q920.04 199.87 906.76 218.91Q893.48 237.95 868.77 237.95L868.77 237.95Q843.97 237.95 830.69 218.96Q817.41 199.96 817.41 164.22L817.41 164.22Q817.41 128.77 830.69 109.88Q843.97 90.98 868.97 90.98L868.97 90.98Q893.68 90.98 906.86 109.97Q920.04 128.97 920.04 164.42ZM844.55 164.42L844.55 164.42Q844.55 188.83 850.71 201.63Q856.86 214.42 868.77 214.42L868.77 214.42Q892.80 214.42 892.80 164.42L892.80 164.42Q892.80 114.42 868.97 114.42L868.97 114.42Q856.86 114.42 850.71 127.16Q844.55 139.91 844.55 164.42Z" fill="#FFFFFF"/><path d="M1039.09 164.42L1039.09 164.42Q1039.09 199.87 1025.80 218.91Q1012.52 237.95 987.82 237.95L987.82 237.95Q963.01 237.95 949.73 218.96Q936.45 199.96 936.45 164.22L936.45 164.22Q936.45 128.77 949.73 109.88Q963.01 90.98 988.01 90.98L988.01 90.98Q1012.72 90.98 1025.90 109.97Q1039.09 128.97 1039.09 164.42ZM963.60 164.42L963.60 164.42Q963.60 188.83 969.75 201.63Q975.90 214.42 987.82 214.42L987.82 214.42Q1011.84 214.42 1011.84 164.42L1011.84 164.42Q1011.84 114.42 988.01 114.42L988.01 114.42Q975.90 114.42 969.75 127.16Q963.60 139.91 963.60 164.42Z" fill="#FFFFFF"/><path d="M1123.27 236L1059.89 236L1059.89 93.23L1086.45 93.23L1086.45 212.76L1123.27 212.76L1123.27 236Z" fill="#FFFFFF"/><path d="M1205.30 196.64L1205.30 196.64Q1205.30 216.66 1195.19 227.31Q1185.08 237.95 1166.04 237.95L1166.04 237.95Q1147.39 237.95 1134.30 230.63L1134.30 230.63L1134.30 204.36Q1150.32 214.81 1163.70 214.81L1163.70 214.81Q1171.31 214.81 1175.17 210.61Q1179.03 206.41 1179.03 199.18L1179.03 199.18Q1179.03 192.05 1174.44 186.15Q1169.85 180.24 1159.30 173.01L1159.30 173.01Q1150.12 166.66 1145.38 160.85Q1140.65 155.04 1138.06 147.82Q1135.47 140.59 1135.47 131.02L1135.47 131.02Q1135.47 112.66 1145.68 101.92Q1155.88 91.18 1173.07 91.18L1173.07 91.18Q1189.48 91.18 1204.61 100.36L1204.61 100.36L1195.82 121.64Q1191.14 118.91 1186.01 116.76Q1180.88 114.61 1175.02 114.61L1175.02 114.61Q1168.58 114.61 1165.11 118.86Q1161.64 123.11 1161.64 130.43L1161.64 130.43Q1161.64 137.66 1165.79 143.03Q1169.95 148.40 1180.30 155.24L1180.30 155.24Q1194.26 164.61 1199.78 174.38Q1205.30 184.14 1205.30 196.64Z" fill="#FFFFFF"/><path d="M1266.43 193.81L1217.31 193.81L1217.31 170.96L1266.43 170.96L1266.43 193.81Z" fill="#FFFFFF"/><path d="M1333.42 114.42L1333.42 114.42Q1322.00 114.42 1315.40 127.80Q1308.81 141.18 1308.81 165.00L1308.81 165.00Q1308.81 214.61 1334.69 214.61L1334.69 214.61Q1346.02 214.61 1358.42 207.39L1358.42 207.39L1358.42 231.02Q1347.97 237.95 1331.66 237.95L1331.66 237.95Q1307.54 237.95 1294.60 218.76Q1281.66 199.57 1281.66 164.81L1281.66 164.81Q1281.66 130.04 1294.99 110.61Q1308.32 91.18 1332.05 91.18L1332.05 91.18Q1339.87 91.18 1347.04 93.32Q1354.22 95.47 1362.43 100.84L1362.43 100.84L1353.64 122.43Q1349.24 119.40 1344.26 116.91Q1339.28 114.42 1333.42 114.42Z" fill="#FFFFFF"/><path d="M1473.85 164.42L1473.85 164.42Q1473.85 199.87 1460.57 218.91Q1447.29 237.95 1422.58 237.95L1422.58 237.95Q1397.78 237.95 1384.50 218.96Q1371.21 199.96 1371.21 164.22L1371.21 164.22Q1371.21 128.77 1384.50 109.88Q1397.78 90.98 1422.78 90.98L1422.78 90.98Q1447.48 90.98 1460.67 109.97Q1473.85 128.97 1473.85 164.42ZM1398.36 164.42L1398.36 164.42Q1398.36 188.83 1404.52 201.63Q1410.67 214.42 1422.58 214.42L1422.58 214.42Q1446.61 214.42 1446.61 164.42L1446.61 164.42Q1446.61 114.42 1422.78 114.42L1422.78 114.42Q1410.67 114.42 1404.52 127.16Q1398.36 139.91 1398.36 164.42Z" fill="#FFFFFF"/><path d="M1574.63 236L1545.63 236L1518.48 114.42L1517.41 114.42Q1519.26 128.48 1519.26 140.20L1519.26 140.20L1519.26 236L1494.65 236L1494.65 93.23L1535.47 93.23L1559.89 205.43L1560.67 205.43L1584.89 93.23L1626.29 93.23L1626.29 236L1601.10 236L1601.10 139.22Q1601.10 127.21 1602.46 114.61L1602.46 114.61L1601.68 114.61L1574.63 236Z" fill="#FFFFFF"/><path d="M1731.47 236L1702.46 236L1675.32 114.42L1674.24 114.42Q1676.10 128.48 1676.10 140.20L1676.10 140.20L1676.10 236L1651.49 236L1651.49 93.23L1692.31 93.23L1716.72 205.43L1717.50 205.43L1741.72 93.23L1783.13 93.23L1783.13 236L1757.93 236L1757.93 139.22Q1757.93 127.21 1759.30 114.61L1759.30 114.61L1758.52 114.61L1731.47 236Z" fill="#FFFFFF"/><path d="M1906.57 164.42L1906.57 164.42Q1906.57 199.87 1893.29 218.91Q1880.00 237.95 1855.30 237.95L1855.30 237.95Q1830.49 237.95 1817.21 218.96Q1803.93 199.96 1803.93 164.22L1803.93 164.22Q1803.93 128.77 1817.21 109.88Q1830.49 90.98 1855.49 90.98L1855.49 90.98Q1880.20 90.98 1893.38 109.97Q1906.57 128.97 1906.57 164.42ZM1831.08 164.42L1831.08 164.42Q1831.08 188.83 1837.23 201.63Q1843.38 214.42 1855.30 214.42L1855.30 214.42Q1879.32 214.42 1879.32 164.42L1879.32 164.42Q1879.32 114.42 1855.49 114.42L1855.49 114.42Q1843.38 114.42 1837.23 127.16Q1831.08 139.91 1831.08 164.42Z" fill="#FFFFFF"/><path d="M2027.37 93.23L2027.37 236L1994.95 236L1950.80 132.58L1949.54 132.58Q1951.98 144.40 1951.98 157.97L1951.98 157.97L1951.98 236L1927.37 236L1927.37 93.23L1959.98 93.23L2003.73 195.57L2004.81 195.57Q2002.95 185.32 2002.95 171.16L2002.95 171.16L2002.95 93.23L2027.37 93.23Z" fill="#FFFFFF"/><path d="M498.63 179.43L489.16 179.43L489.16 235L462.60 235L462.60 92.23L497.36 92.23Q519.43 92.23 529.93 102.68Q540.43 113.13 540.43 134.61L540.43 134.61Q540.43 161.66 522.17 172.40L522.17 172.40L549.61 235L521.19 235L498.63 179.43ZM489.16 115.18L489.16 156.58L496.00 156.58Q505.37 156.58 509.47 151.26Q513.57 145.94 513.57 135.39L513.57 135.39Q513.57 124.45 509.23 119.81Q504.88 115.18 495.80 115.18L495.80 115.18L489.16 115.18Z" fill="url(#TextGradient)"/><path d="M588.96 177.77L588.96 235L562.60 235L562.60 92.23L626.56 92.23L626.56 115.18L588.96 115.18L588.96 154.82L624.02 154.82L624.02 177.77L588.96 177.77Z" fill="url(#TextGradient)"/><path d="M691.80 113.42L691.80 113.42Q680.37 113.42 673.78 126.80Q667.19 140.18 667.19 164.00L667.19 164.00Q667.19 213.61 693.07 213.61L693.07 213.61Q704.39 213.61 716.80 206.39L716.80 206.39L716.80 230.02Q706.35 236.95 690.04 236.95L690.04 236.95Q665.92 236.95 652.98 217.76Q640.04 198.57 640.04 163.81L640.04 163.81Q640.04 129.04 653.37 109.61Q666.70 90.18 690.43 90.18L690.43 90.18Q698.24 90.18 705.42 92.32Q712.60 94.47 720.80 99.84L720.80 99.84L712.01 121.43Q707.62 118.40 702.64 115.91Q697.66 113.42 691.80 113.42Z" fill="url(#TextGradient)"/><path d="M780.86 115.57L780.86 235L754.39 235L754.39 115.57L727.05 115.57L727.05 92.23L808.20 92.23L808.20 115.57L780.86 115.57Z" fill="url(#TextGradient)"/><path d="M919.04 163.42L919.04 163.42Q919.04 198.87 905.76 217.91Q892.48 236.95 867.77 236.95L867.77 236.95Q842.97 236.95 829.69 217.96Q816.41 198.96 816.41 163.22L816.41 163.22Q816.41 127.77 829.69 108.88Q842.97 89.98 867.97 89.98L867.97 89.98Q892.68 89.98 905.86 108.97Q919.04 127.97 919.04 163.42ZM843.55 163.42L843.55 163.42Q843.55 187.83 849.71 200.63Q855.86 213.42 867.77 213.42L867.77 213.42Q891.80 213.42 891.80 163.42L891.80 163.42Q891.80 113.42 867.97 113.42L867.97 113.42Q855.86 113.42 849.71 126.16Q843.55 138.91 843.55 163.42Z" fill="url(#TextGradient)"/><path d="M1038.09 163.42L1038.09 163.42Q1038.09 198.87 1024.80 217.91Q1011.52 236.95 986.82 236.95L986.82 236.95Q962.01 236.95 948.73 217.96Q935.45 198.96 935.45 163.22L935.45 163.22Q935.45 127.77 948.73 108.88Q962.01 89.98 987.01 89.98L987.01 89.98Q1011.72 89.98 1024.90 108.97Q1038.09 127.97 1038.09 163.42ZM962.60 163.42L962.60 163.42Q962.60 187.83 968.75 200.63Q974.90 213.42 986.82 213.42L986.82 213.42Q1010.84 213.42 1010.84 163.42L1010.84 163.42Q1010.84 113.42 987.01 113.42L987.01 113.42Q974.90 113.42 968.75 126.16Q962.60 138.91 962.60 163.42Z" fill="url(#TextGradient)"/><path d="M1122.27 235L1058.89 235L1058.89 92.23L1085.45 92.23L1085.45 211.76L1122.27 211.76L1122.27 235Z" fill="url(#TextGradient)"/><path d="M1204.30 195.64L1204.30 195.64Q1204.30 215.66 1194.19 226.31Q1184.08 236.95 1165.04 236.95L1165.04 236.95Q1146.39 236.95 1133.30 229.63L1133.30 229.63L1133.30 203.36Q1149.32 213.81 1162.70 213.81L1162.70 213.81Q1170.31 213.81 1174.17 209.61Q1178.03 205.41 1178.03 198.18L1178.03 198.18Q1178.03 191.05 1173.44 185.15Q1168.85 179.24 1158.30 172.01L1158.30 172.01Q1149.12 165.66 1144.38 159.85Q1139.65 154.04 1137.06 146.82Q1134.47 139.59 1134.47 130.02L1134.47 130.02Q1134.47 111.66 1144.68 100.92Q1154.88 90.18 1172.07 90.18L1172.07 90.18Q1188.48 90.18 1203.61 99.36L1203.61 99.36L1194.82 120.64Q1190.14 117.91 1185.01 115.76Q1179.88 113.61 1174.02 113.61L1174.02 113.61Q1167.58 113.61 1164.11 117.86Q1160.64 122.11 1160.64 129.43L1160.64 129.43Q1160.64 136.66 1164.79 142.03Q1168.95 147.40 1179.30 154.24L1179.30 154.24Q1193.26 163.61 1198.78 173.38Q1204.30 183.14 1204.30 195.64Z" fill="url(#TextGradient)"/><path d="M1265.43 192.81L1216.31 192.81L1216.31 169.96L1265.43 169.96L1265.43 192.81Z" fill="url(#TextGradient)"/><path d="M1332.42 113.42L1332.42 113.42Q1321.00 113.42 1314.40 126.80Q1307.81 140.18 1307.81 164.00L1307.81 164.00Q1307.81 213.61 1333.69 213.61L1333.69 213.61Q1345.02 213.61 1357.42 206.39L1357.42 206.39L1357.42 230.02Q1346.97 236.95 1330.66 236.95L1330.66 236.95Q1306.54 236.95 1293.60 217.76Q1280.66 198.57 1280.66 163.81L1280.66 163.81Q1280.66 129.04 1293.99 109.61Q1307.32 90.18 1331.05 90.18L1331.05 90.18Q1338.87 90.18 1346.04 92.32Q1353.22 94.47 1361.43 99.84L1361.43 99.84L1352.64 121.43Q1348.24 118.40 1343.26 115.91Q1338.28 113.42 1332.42 113.42Z" fill="url(#TextGradient)"/><path d="M1472.85 163.42L1472.85 163.42Q1472.85 198.87 1459.57 217.91Q1446.29 236.95 1421.58 236.95L1421.58 236.95Q1396.78 236.95 1383.50 217.96Q1370.21 198.96 1370.21 163.22L1370.21 163.22Q1370.21 127.77 1383.50 108.88Q1396.78 89.98 1421.78 89.98L1421.78 89.98Q1446.48 89.98 1459.67 108.97Q1472.85 127.97 1472.85 163.42ZM1397.36 163.42L1397.36 163.42Q1397.36 187.83 1403.52 200.63Q1409.67 213.42 1421.58 213.42L1421.58 213.42Q1445.61 213.42 1445.61 163.42L1445.61 163.42Q1445.61 113.42 1421.78 113.42L1421.78 113.42Q1409.67 113.42 1403.52 126.16Q1397.36 138.91 1397.36 163.42Z" fill="url(#TextGradient)"/><path d="M1573.63 235L1544.63 235L1517.48 113.42L1516.41 113.42Q1518.26 127.48 1518.26 139.20L1518.26 139.20L1518.26 235L1493.65 235L1493.65 92.23L1534.47 92.23L1558.89 204.43L1559.67 204.43L1583.89 92.23L1625.29 92.23L1625.29 235L1600.10 235L1600.10 138.22Q1600.10 126.21 1601.46 113.61L1601.46 113.61L1600.68 113.61L1573.63 235Z" fill="url(#TextGradient)"/><path d="M1730.47 235L1701.46 235L1674.32 113.42L1673.24 113.42Q1675.10 127.48 1675.10 139.20L1675.10 139.20L1675.10 235L1650.49 235L1650.49 92.23L1691.31 92.23L1715.72 204.43L1716.50 204.43L1740.72 92.23L1782.13 92.23L1782.13 235L1756.93 235L1756.93 138.22Q1756.93 126.21 1758.30 113.61L1758.30 113.61L1757.52 113.61L1730.47 235Z" fill="url(#TextGradient)"/><path d="M1905.57 163.42L1905.57 163.42Q1905.57 198.87 1892.29 217.91Q1879.00 236.95 1854.30 236.95L1854.30 236.95Q1829.49 236.95 1816.21 217.96Q1802.93 198.96 1802.93 163.22L1802.93 163.22Q1802.93 127.77 1816.21 108.88Q1829.49 89.98 1854.49 89.98L1854.49 89.98Q1879.20 89.98 1892.38 108.97Q1905.57 127.97 1905.57 163.42ZM1830.08 163.42L1830.08 163.42Q1830.08 187.83 1836.23 200.63Q1842.38 213.42 1854.30 213.42L1854.30 213.42Q1878.32 213.42 1878.32 163.42L1878.32 163.42Q1878.32 113.42 1854.49 113.42L1854.49 113.42Q1842.38 113.42 1836.23 126.16Q1830.08 138.91 1830.08 163.42Z" fill="url(#TextGradient)"/><path d="M2026.37 92.23L2026.37 235L1993.95 235L1949.80 131.58L1948.54 131.58Q1950.98 143.40 1950.98 156.97L1950.98 156.97L1950.98 235L1926.37 235L1926.37 92.23L1958.98 92.23L2002.73 194.57L2003.81 194.57Q2001.95 184.32 2001.95 170.16L2001.95 170.16L2001.95 92.23L2026.37 92.23Z" fill="url(#TextGradient)"/>
    <defs>
        <linearGradient id="TextGradient" x1="0" y1="0" x2="0" y2="1">
            <stop offset="0" style="stop-color:rgb(2,161,215);stop-opacity:1"/>
            <stop offset="1" style="stop-color:rgb(6,72,101);stop-opacity:1"/>
        </linearGradient>
    </defs>
</svg>
