<?xml version="1.0" encoding="UTF-8" standalone="no"?>
<!DOCTYPE svg PUBLIC "-//W3C//DTD SVG 1.1//EN" "http://www.w3.org/Graphics/SVG/1.1/DTD/svg11.dtd">
<svg width="100%" height="100%" viewBox="0 0 1584.7890625 330" version="1.1" xmlns="http://www.w3.org/2000/svg" xmlns:xlink="http://www.w3.org/1999/xlink" xml:space="preserve" xmlns:serif="http://www.serif.com/" style="fill-rule:evenodd;clip-rule:evenodd;stroke-linejoin:round;stroke-miterlimit:2;">
    <path d="M82.912,22.056l-69.362,69.362l69.362,69.363l69.363,-69.363l-69.363,-69.362Z" style="fill:rgb(176,176,176);"/>
    <path d="M82.912,160.781l-69.362,69.363l69.362,69.363l69.363,-69.363l-69.363,-69.363Z" style="fill:rgb(176,176,176);"/>
    <path d="M199.583,0l-94.615,0l-22.056,22.056l69.363,69.362l69.363,-69.362l-22.055,-22.056Z" style="fill:rgb(176,176,176);fill-opacity:0.5;"/>
    <path d="M113.02,329.614l78.511,0l30.107,-30.107l-69.363,-69.363l-69.363,69.363l30.108,30.107Z" style="fill:rgb(176,176,176);fill-opacity:0.5;"/>
    <path d="M0,0l0,77.869l13.55,13.549l69.362,-69.362l-22.055,-22.056l-60.857,-0Z" style="fill:rgb(176,176,176);fill-opacity:0.5;"/>
    <path d="M13.55,368.87l-1.598,-1.597l3.195,-0l-1.597,1.597Zm-13.55,-125.176l0,85.92l52.805,0l30.107,-30.107l-69.362,-69.363l-13.55,13.55Z" style="fill:rgb(176,176,176);fill-opacity:0.5;"/>
    <path d="M0,104.968l0,111.627l13.55,13.549l69.362,-69.363l-69.362,-69.363l-13.55,13.55Z" style="fill:rgb(176,176,176);fill-opacity:0.5;"/>
    <path d="M152.275,91.418l-69.363,69.363l69.363,69.363l69.363,-69.363l-69.363,-69.363Z" style="fill:#7002B9;"/>
    <path d="M221.638,22.056l-69.363,69.362l69.363,69.363l69.363,-69.363l-69.363,-69.362Z" style="fill:#A04DD8;"/>
    <path d="M221.638,160.781l-69.363,69.363l69.363,69.363l69.363,-69.363l-69.363,-69.363Z" style="fill:#A04DD8;"/>
    <path d="M291.001,91.418l-69.363,69.363l69.363,69.363l69.363,-69.363l-69.363,-69.363Z" style="fill:#8202D7;"/>
    <path d="M152.291,110.184l-152.291,152.291l0,-18.781l152.275,-152.276l0.016,0.016l0.016,-0.016l69.543,69.544l69.544,-69.544l9.391,9.391l-78.723,78.722l-0.212,-0.212l-0.212,0.212l-69.347,-69.347Z" style="fill:rgb(255,209,62);"/>
    <path d="M499.63 180.43L490.16 180.43L490.16 236L463.60 236L463.60 93.23L498.36 93.23Q520.43 93.23 530.93 103.68Q541.43 114.13 541.43 135.61L541.43 135.61Q541.43 162.66 523.17 173.40L523.17 173.40L550.61 236L522.19 236L499.63 180.43ZM490.16 116.18L490.16 157.58L497.00 157.58Q506.37 157.58 510.47 152.26Q514.57 146.94 514.57 136.39L514.57 136.39Q514.57 125.45 510.23 120.81Q505.88 116.18 496.80 116.18L496.80 116.18L490.16 116.18Z" fill="#FFFFFF"/><path d="M641.43 137.17L641.43 137.17Q641.43 159.93 629.96 172.08Q618.48 184.24 596.80 184.24L596.80 184.24L590.16 184.24L590.16 236L563.60 236L563.60 93.23L599.83 93.23Q641.43 93.23 641.43 137.17ZM590.16 116.18L590.16 161.20L595.24 161.20Q605.00 161.20 609.79 155.82Q614.57 150.45 614.57 138.25L614.57 138.25Q614.57 127.02 610.18 121.60Q605.79 116.18 596.61 116.18L596.61 116.18L590.16 116.18Z" fill="#FFFFFF"/><path d="M706.76 114.42L706.76 114.42Q695.34 114.42 688.74 127.80Q682.15 141.18 682.15 165.00L682.15 165.00Q682.15 214.61 708.03 214.61L708.03 214.61Q719.36 214.61 731.76 207.39L731.76 207.39L731.76 231.02Q721.31 237.95 705.00 237.95L705.00 237.95Q680.88 237.95 667.94 218.76Q655.00 199.57 655.00 164.81L655.00 164.81Q655.00 130.04 668.33 110.61Q681.66 91.18 705.39 91.18L705.39 91.18Q713.21 91.18 720.38 93.32Q727.56 95.47 735.77 100.84L735.77 100.84L726.98 122.43Q722.58 119.40 717.60 116.91Q712.62 114.42 706.76 114.42Z" fill="#FFFFFF"/><path d="" fill="#FFFFFF"/><path d="M827.76 178.77L827.76 236L801.39 236L801.39 93.23L865.36 93.23L865.36 116.18L827.76 116.18L827.76 155.82L862.82 155.82L862.82 178.77L827.76 178.77Z" fill="#FFFFFF"/><path d="M928.05 125.16L928.05 125.16Q932.84 125.16 937.43 126.63L937.43 126.63L934.40 151.82Q931.66 150.84 927.27 150.84L927.27 150.84Q917.80 150.84 912.72 158.31Q907.64 165.79 907.64 180.04L907.64 180.04L907.64 236L881.66 236L881.66 127.21L903.05 127.21L905.98 144.20L906.86 144.20Q911.16 133.95 916.23 129.55Q921.31 125.16 928.05 125.16Z" fill="#FFFFFF"/><path d="M1029.61 181.41L1029.61 181.41Q1029.61 208.17 1018.29 223.06Q1006.96 237.95 987.23 237.95L987.23 237.95Q974.73 237.95 965.16 231.12Q955.59 224.28 950.41 211.44Q945.24 198.60 945.24 181.41L945.24 181.41Q945.24 154.95 956.47 140.05Q967.70 125.16 987.62 125.16L987.62 125.16Q1006.86 125.16 1018.24 140.35Q1029.61 155.53 1029.61 181.41ZM971.80 181.41L971.80 181.41Q971.80 198.40 975.51 207.09Q979.22 215.79 987.43 215.79L987.43 215.79Q1003.05 215.79 1003.05 181.41L1003.05 181.41Q1003.05 164.32 999.29 155.87Q995.53 147.43 987.43 147.43L987.43 147.43Q979.22 147.43 975.51 155.87Q971.80 164.32 971.80 181.41Z" fill="#FFFFFF"/><path d="M1128.25 236L1102.07 236L1102.07 171.16Q1102.07 159.34 1099.24 153.29Q1096.41 147.23 1090.06 147.23L1090.06 147.23Q1081.66 147.23 1077.76 155.58Q1073.85 163.93 1073.85 183.75L1073.85 183.75L1073.85 236L1047.88 236L1047.88 127.21L1068.48 127.21L1071.61 141.18L1073.27 141.18Q1076.78 133.66 1083.32 129.41Q1089.87 125.16 1098.66 125.16L1098.66 125.16Q1113.50 125.16 1120.87 135.32Q1128.25 145.47 1128.25 165.00L1128.25 165.00L1128.25 236Z" fill="#FFFFFF"/><path d="M1187.04 215.98L1187.04 215.98Q1192.50 215.98 1198.85 213.25L1198.85 213.25L1198.85 233.56Q1192.50 237.95 1179.81 237.95L1179.81 237.95Q1165.65 237.95 1158.81 229.51Q1151.98 221.06 1151.98 204.16L1151.98 204.16L1151.98 147.82L1141.43 147.82L1141.43 136.20L1155.00 126.82L1161.64 103.77L1178.25 103.77L1178.25 127.21L1197.97 127.21L1197.97 147.82L1178.25 147.82L1178.25 205.04Q1178.25 215.98 1187.04 215.98Z" fill="#FFFFFF"/><path d="M1254.22 237.95L1254.22 237.95Q1233.81 237.95 1222.04 223.45Q1210.28 208.95 1210.28 182.39L1210.28 182.39Q1210.28 155.43 1220.92 140.30Q1231.57 125.16 1250.61 125.16L1250.61 125.16Q1268.38 125.16 1278.64 138.10Q1288.89 151.04 1288.89 174.38L1288.89 174.38L1288.89 188.25L1236.64 188.25Q1236.94 202.80 1242.60 209.88Q1248.27 216.96 1258.23 216.96L1258.23 216.96Q1270.92 216.96 1284.20 209.05L1284.20 209.05L1284.20 230.43Q1271.70 237.95 1254.22 237.95ZM1250.41 145.18L1250.41 145.18Q1244.85 145.18 1241.23 151.09Q1237.62 157.00 1237.04 169.40L1237.04 169.40L1263.40 169.40Q1263.21 157.48 1259.79 151.33Q1256.37 145.18 1250.41 145.18Z" fill="#FFFFFF"/><path d="M1386.45 236L1360.28 236L1360.28 171.16Q1360.28 159.34 1357.45 153.29Q1354.61 147.23 1348.27 147.23L1348.27 147.23Q1339.87 147.23 1335.96 155.58Q1332.05 163.93 1332.05 183.75L1332.05 183.75L1332.05 236L1306.08 236L1306.08 127.21L1326.68 127.21L1329.81 141.18L1331.47 141.18Q1334.98 133.66 1341.53 129.41Q1348.07 125.16 1356.86 125.16L1356.86 125.16Q1371.70 125.16 1379.08 135.32Q1386.45 145.47 1386.45 165.00L1386.45 165.00L1386.45 236Z" fill="#FFFFFF"/><path d="M1436.06 237.95L1436.06 237.95Q1421.02 237.95 1412.33 223.11Q1403.64 208.27 1403.64 181.80L1403.64 181.80Q1403.64 155.24 1412.13 140.20Q1420.63 125.16 1435.57 125.16L1435.57 125.16Q1442.99 125.16 1448.41 128.82Q1453.83 132.48 1458.42 141.18L1458.42 141.18L1459.98 141.18Q1458.81 126.33 1458.81 120.38L1458.81 120.38L1458.81 84.05L1484.79 84.05L1484.79 236L1465.45 236L1461.06 221.84L1460.18 221.84Q1451.88 237.95 1436.06 237.95ZM1444.46 215.98L1444.46 215.98Q1451.68 215.98 1455.00 209.39Q1458.32 202.80 1458.62 185.41L1458.62 185.41L1458.62 182.00Q1458.62 163.05 1455.25 155.34Q1451.88 147.62 1444.16 147.62L1444.16 147.62Q1436.94 147.62 1433.67 156.46Q1430.39 165.30 1430.39 182.19L1430.39 182.19Q1430.39 199.09 1433.71 207.53Q1437.04 215.98 1444.46 215.98Z" fill="#FFFFFF"/><path d="M498.63 179.43L489.16 179.43L489.16 235L462.60 235L462.60 92.23L497.36 92.23Q519.43 92.23 529.93 102.68Q540.43 113.13 540.43 134.61L540.43 134.61Q540.43 161.66 522.17 172.40L522.17 172.40L549.61 235L521.19 235L498.63 179.43ZM489.16 115.18L489.16 156.58L496.00 156.58Q505.37 156.58 509.47 151.26Q513.57 145.94 513.57 135.39L513.57 135.39Q513.57 124.45 509.23 119.81Q504.88 115.18 495.80 115.18L495.80 115.18L489.16 115.18Z" fill="url(#TextGradient)"/><path d="M640.43 136.17L640.43 136.17Q640.43 158.93 628.96 171.08Q617.48 183.24 595.80 183.24L595.80 183.24L589.16 183.24L589.16 235L562.60 235L562.60 92.23L598.83 92.23Q640.43 92.23 640.43 136.17ZM589.16 115.18L589.16 160.20L594.24 160.20Q604.00 160.20 608.79 154.82Q613.57 149.45 613.57 137.25L613.57 137.25Q613.57 126.02 609.18 120.60Q604.79 115.18 595.61 115.18L595.61 115.18L589.16 115.18Z" fill="url(#TextGradient)"/><path d="M705.76 113.42L705.76 113.42Q694.34 113.42 687.74 126.80Q681.15 140.18 681.15 164.00L681.15 164.00Q681.15 213.61 707.03 213.61L707.03 213.61Q718.36 213.61 730.76 206.39L730.76 206.39L730.76 230.02Q720.31 236.95 704.00 236.95L704.00 236.95Q679.88 236.95 666.94 217.76Q654.00 198.57 654.00 163.81L654.00 163.81Q654.00 129.04 667.33 109.61Q680.66 90.18 704.39 90.18L704.39 90.18Q712.21 90.18 719.38 92.32Q726.56 94.47 734.77 99.84L734.77 99.84L725.98 121.43Q721.58 118.40 716.60 115.91Q711.62 113.42 705.76 113.42Z" fill="url(#TextGradient)"/><path d="" fill="url(#TextGradient)"/><path d="M826.76 177.77L826.76 235L800.39 235L800.39 92.23L864.36 92.23L864.36 115.18L826.76 115.18L826.76 154.82L861.82 154.82L861.82 177.77L826.76 177.77Z" fill="url(#TextGradient)"/><path d="M927.05 124.16L927.05 124.16Q931.84 124.16 936.43 125.63L936.43 125.63L933.40 150.82Q930.66 149.84 926.27 149.84L926.27 149.84Q916.80 149.84 911.72 157.31Q906.64 164.79 906.64 179.04L906.64 179.04L906.64 235L880.66 235L880.66 126.21L902.05 126.21L904.98 143.20L905.86 143.20Q910.16 132.95 915.23 128.55Q920.31 124.16 927.05 124.16Z" fill="url(#TextGradient)"/><path d="M1028.61 180.41L1028.61 180.41Q1028.61 207.17 1017.29 222.06Q1005.96 236.95 986.23 236.95L986.23 236.95Q973.73 236.95 964.16 230.12Q954.59 223.28 949.41 210.44Q944.24 197.60 944.24 180.41L944.24 180.41Q944.24 153.95 955.47 139.05Q966.70 124.16 986.62 124.16L986.62 124.16Q1005.86 124.16 1017.24 139.35Q1028.61 154.53 1028.61 180.41ZM970.80 180.41L970.80 180.41Q970.80 197.40 974.51 206.09Q978.22 214.79 986.43 214.79L986.43 214.79Q1002.05 214.79 1002.05 180.41L1002.05 180.41Q1002.05 163.32 998.29 154.87Q994.53 146.43 986.43 146.43L986.43 146.43Q978.22 146.43 974.51 154.87Q970.80 163.32 970.80 180.41Z" fill="url(#TextGradient)"/><path d="M1127.25 235L1101.07 235L1101.07 170.16Q1101.07 158.34 1098.24 152.29Q1095.41 146.23 1089.06 146.23L1089.06 146.23Q1080.66 146.23 1076.76 154.58Q1072.85 162.93 1072.85 182.75L1072.85 182.75L1072.85 235L1046.88 235L1046.88 126.21L1067.48 126.21L1070.61 140.18L1072.27 140.18Q1075.78 132.66 1082.32 128.41Q1088.87 124.16 1097.66 124.16L1097.66 124.16Q1112.50 124.16 1119.87 134.32Q1127.25 144.47 1127.25 164.00L1127.25 164.00L1127.25 235Z" fill="url(#TextGradient)"/><path d="M1186.04 214.98L1186.04 214.98Q1191.50 214.98 1197.85 212.25L1197.85 212.25L1197.85 232.56Q1191.50 236.95 1178.81 236.95L1178.81 236.95Q1164.65 236.95 1157.81 228.51Q1150.98 220.06 1150.98 203.16L1150.98 203.16L1150.98 146.82L1140.43 146.82L1140.43 135.20L1154.00 125.82L1160.64 102.77L1177.25 102.77L1177.25 126.21L1196.97 126.21L1196.97 146.82L1177.25 146.82L1177.25 204.04Q1177.25 214.98 1186.04 214.98Z" fill="url(#TextGradient)"/><path d="M1253.22 236.95L1253.22 236.95Q1232.81 236.95 1221.04 222.45Q1209.28 207.95 1209.28 181.39L1209.28 181.39Q1209.28 154.43 1219.92 139.30Q1230.57 124.16 1249.61 124.16L1249.61 124.16Q1267.38 124.16 1277.64 137.10Q1287.89 150.04 1287.89 173.38L1287.89 173.38L1287.89 187.25L1235.64 187.25Q1235.94 201.80 1241.60 208.88Q1247.27 215.96 1257.23 215.96L1257.23 215.96Q1269.92 215.96 1283.20 208.05L1283.20 208.05L1283.20 229.43Q1270.70 236.95 1253.22 236.95ZM1249.41 144.18L1249.41 144.18Q1243.85 144.18 1240.23 150.09Q1236.62 156.00 1236.04 168.40L1236.04 168.40L1262.40 168.40Q1262.21 156.48 1258.79 150.33Q1255.37 144.18 1249.41 144.18Z" fill="url(#TextGradient)"/><path d="M1385.45 235L1359.28 235L1359.28 170.16Q1359.28 158.34 1356.45 152.29Q1353.61 146.23 1347.27 146.23L1347.27 146.23Q1338.87 146.23 1334.96 154.58Q1331.05 162.93 1331.05 182.75L1331.05 182.75L1331.05 235L1305.08 235L1305.08 126.21L1325.68 126.21L1328.81 140.18L1330.47 140.18Q1333.98 132.66 1340.53 128.41Q1347.07 124.16 1355.86 124.16L1355.86 124.16Q1370.70 124.16 1378.08 134.32Q1385.45 144.47 1385.45 164.00L1385.45 164.00L1385.45 235Z" fill="url(#TextGradient)"/><path d="M1435.06 236.95L1435.06 236.95Q1420.02 236.95 1411.33 222.11Q1402.64 207.27 1402.64 180.80L1402.64 180.80Q1402.64 154.24 1411.13 139.20Q1419.63 124.16 1434.57 124.16L1434.57 124.16Q1441.99 124.16 1447.41 127.82Q1452.83 131.48 1457.42 140.18L1457.42 140.18L1458.98 140.18Q1457.81 125.33 1457.81 119.38L1457.81 119.38L1457.81 83.05L1483.79 83.05L1483.79 235L1464.45 235L1460.06 220.84L1459.18 220.84Q1450.88 236.95 1435.06 236.95ZM1443.46 214.98L1443.46 214.98Q1450.68 214.98 1454.00 208.39Q1457.32 201.80 1457.62 184.41L1457.62 184.41L1457.62 181.00Q1457.62 162.05 1454.25 154.34Q1450.88 146.62 1443.16 146.62L1443.16 146.62Q1435.94 146.62 1432.67 155.46Q1429.39 164.30 1429.39 181.19L1429.39 181.19Q1429.39 198.09 1432.71 206.53Q1436.04 214.98 1443.46 214.98Z" fill="url(#TextGradient)"/>
    <defs>
        <linearGradient id="TextGradient" x1="0" y1="0" x2="0" y2="1">
            <stop offset="0" style="stop-color:#580291;stop-opacity:1"/>
            <stop offset="1" style="stop-color:#8202D7;stop-opacity:1"/>
        </linearGradient>
    </defs>
</svg>
