<?xml version="1.0" encoding="UTF-8" standalone="no"?>
<!DOCTYPE svg PUBLIC "-//W3C//DTD SVG 1.1//EN" "http://www.w3.org/Graphics/SVG/1.1/DTD/svg11.dtd">
<svg width="100%" height="100%" viewBox="0 0 835.765625 330" version="1.1" xmlns="http://www.w3.org/2000/svg" xmlns:xlink="http://www.w3.org/1999/xlink" xml:space="preserve" xmlns:serif="http://www.serif.com/" style="fill-rule:evenodd;clip-rule:evenodd;stroke-linejoin:round;stroke-miterlimit:2;">
    <path d="M82.912,22.056l-69.362,69.362l69.362,69.363l69.363,-69.363l-69.363,-69.362Z" style="fill:rgb(176,176,176);"/>
    <path d="M82.912,160.781l-69.362,69.363l69.362,69.363l69.363,-69.363l-69.363,-69.363Z" style="fill:rgb(176,176,176);"/>
    <path d="M199.583,0l-94.615,0l-22.056,22.056l69.363,69.362l69.363,-69.362l-22.055,-22.056Z" style="fill:rgb(176,176,176);fill-opacity:0.5;"/>
    <path d="M113.02,329.614l78.511,0l30.107,-30.107l-69.363,-69.363l-69.363,69.363l30.108,30.107Z" style="fill:rgb(176,176,176);fill-opacity:0.5;"/>
    <path d="M0,0l0,77.869l13.55,13.549l69.362,-69.362l-22.055,-22.056l-60.857,-0Z" style="fill:rgb(176,176,176);fill-opacity:0.5;"/>
    <path d="M13.55,368.87l-1.598,-1.597l3.195,-0l-1.597,1.597Zm-13.55,-125.176l0,85.92l52.805,0l30.107,-30.107l-69.362,-69.363l-13.55,13.55Z" style="fill:rgb(176,176,176);fill-opacity:0.5;"/>
    <path d="M0,104.968l0,111.627l13.55,13.549l69.362,-69.363l-69.362,-69.363l-13.55,13.55Z" style="fill:rgb(176,176,176);fill-opacity:0.5;"/>
    <path d="M152.275,91.418l-69.363,69.363l69.363,69.363l69.363,-69.363l-69.363,-69.363Z" style="fill:#7002B9;"/>
    <path d="M221.638,22.056l-69.363,69.362l69.363,69.363l69.363,-69.363l-69.363,-69.362Z" style="fill:#A04DD8;"/>
    <path d="M221.638,160.781l-69.363,69.363l69.363,69.363l69.363,-69.363l-69.363,-69.363Z" style="fill:#A04DD8;"/>
    <path d="M291.001,91.418l-69.363,69.363l69.363,69.363l69.363,-69.363l-69.363,-69.363Z" style="fill:#8202D7;"/>
    <path d="M152.291,110.184l-152.291,152.291l0,-18.781l152.275,-152.276l0.016,0.016l0.016,-0.016l69.543,69.544l69.544,-69.544l9.391,9.391l-78.723,78.722l-0.212,-0.212l-0.212,0.212l-69.347,-69.347Z" style="fill:rgb(255,209,62);"/>
    <path d="M499.63 180.43L490.16 180.43L490.16 236L463.60 236L463.60 93.23L498.36 93.23Q520.43 93.23 530.93 103.68Q541.43 114.13 541.43 135.61L541.43 135.61Q541.43 162.66 523.17 173.40L523.17 173.40L550.61 236L522.19 236L499.63 180.43ZM490.16 116.18L490.16 157.58L497.00 157.58Q506.37 157.58 510.47 152.26Q514.57 146.94 514.57 136.39L514.57 136.39Q514.57 125.45 510.23 120.81Q505.88 116.18 496.80 116.18L496.80 116.18L490.16 116.18Z" fill="#FFFFFF"/><path d="M641.43 137.17L641.43 137.17Q641.43 159.93 629.96 172.08Q618.48 184.24 596.80 184.24L596.80 184.24L590.16 184.24L590.16 236L563.60 236L563.60 93.23L599.83 93.23Q641.43 93.23 641.43 137.17ZM590.16 116.18L590.16 161.20L595.24 161.20Q605.00 161.20 609.79 155.82Q614.57 150.45 614.57 138.25L614.57 138.25Q614.57 127.02 610.18 121.60Q605.79 116.18 596.61 116.18L596.61 116.18L590.16 116.18Z" fill="#FFFFFF"/><path d="M706.76 114.42L706.76 114.42Q695.34 114.42 688.74 127.80Q682.15 141.18 682.15 165.00L682.15 165.00Q682.15 214.61 708.03 214.61L708.03 214.61Q719.36 214.61 731.76 207.39L731.76 207.39L731.76 231.02Q721.31 237.95 705.00 237.95L705.00 237.95Q680.88 237.95 667.94 218.76Q655.00 199.57 655.00 164.81L655.00 164.81Q655.00 130.04 668.33 110.61Q681.66 91.18 705.39 91.18L705.39 91.18Q713.21 91.18 720.38 93.32Q727.56 95.47 735.77 100.84L735.77 100.84L726.98 122.43Q722.58 119.40 717.60 116.91Q712.62 114.42 706.76 114.42Z" fill="#FFFFFF"/><path d="M498.63 179.43L489.16 179.43L489.16 235L462.60 235L462.60 92.23L497.36 92.23Q519.43 92.23 529.93 102.68Q540.43 113.13 540.43 134.61L540.43 134.61Q540.43 161.66 522.17 172.40L522.17 172.40L549.61 235L521.19 235L498.63 179.43ZM489.16 115.18L489.16 156.58L496.00 156.58Q505.37 156.58 509.47 151.26Q513.57 145.94 513.57 135.39L513.57 135.39Q513.57 124.45 509.23 119.81Q504.88 115.18 495.80 115.18L495.80 115.18L489.16 115.18Z" fill="url(#TextGradient)"/><path d="M640.43 136.17L640.43 136.17Q640.43 158.93 628.96 171.08Q617.48 183.24 595.80 183.24L595.80 183.24L589.16 183.24L589.16 235L562.60 235L562.60 92.23L598.83 92.23Q640.43 92.23 640.43 136.17ZM589.16 115.18L589.16 160.20L594.24 160.20Q604.00 160.20 608.79 154.82Q613.57 149.45 613.57 137.25L613.57 137.25Q613.57 126.02 609.18 120.60Q604.79 115.18 595.61 115.18L595.61 115.18L589.16 115.18Z" fill="url(#TextGradient)"/><path d="M705.76 113.42L705.76 113.42Q694.34 113.42 687.74 126.80Q681.15 140.18 681.15 164.00L681.15 164.00Q681.15 213.61 707.03 213.61L707.03 213.61Q718.36 213.61 730.76 206.39L730.76 206.39L730.76 230.02Q720.31 236.95 704.00 236.95L704.00 236.95Q679.88 236.95 666.94 217.76Q654.00 198.57 654.00 163.81L654.00 163.81Q654.00 129.04 667.33 109.61Q680.66 90.18 704.39 90.18L704.39 90.18Q712.21 90.18 719.38 92.32Q726.56 94.47 734.77 99.84L734.77 99.84L725.98 121.43Q721.58 118.40 716.60 115.91Q711.62 113.42 705.76 113.42Z" fill="url(#TextGradient)"/>
    <defs>
        <linearGradient id="TextGradient" x1="0" y1="0" x2="0" y2="1">
            <stop offset="0" style="stop-color:#580291;stop-opacity:1"/>
            <stop offset="1" style="stop-color:#8202D7;stop-opacity:1"/>
        </linearGradient>
    </defs>
</svg>
