<?xml version="1.0" encoding="UTF-8" standalone="no"?>
<!DOCTYPE svg PUBLIC "-//W3C//DTD SVG 1.1//EN" "http://www.w3.org/Graphics/SVG/1.1/DTD/svg11.dtd">
<svg width="100%" height="100%" viewBox="0 0 2419.9453125 330" version="1.1" xmlns="http://www.w3.org/2000/svg" xmlns:xlink="http://www.w3.org/1999/xlink" xml:space="preserve" xmlns:serif="http://www.serif.com/" style="fill-rule:evenodd;clip-rule:evenodd;stroke-linejoin:round;stroke-miterlimit:2;">
    <path d="M82.912,22.056l-69.362,69.362l69.362,69.363l69.363,-69.363l-69.363,-69.362Z" style="fill:rgb(176,176,176);"/>
    <path d="M82.912,160.781l-69.362,69.363l69.362,69.363l69.363,-69.363l-69.363,-69.363Z" style="fill:rgb(176,176,176);"/>
    <path d="M199.583,0l-94.615,0l-22.056,22.056l69.363,69.362l69.363,-69.362l-22.055,-22.056Z" style="fill:rgb(176,176,176);fill-opacity:0.5;"/>
    <path d="M113.02,329.614l78.511,0l30.107,-30.107l-69.363,-69.363l-69.363,69.363l30.108,30.107Z" style="fill:rgb(176,176,176);fill-opacity:0.5;"/>
    <path d="M0,0l0,77.869l13.55,13.549l69.362,-69.362l-22.055,-22.056l-60.857,-0Z" style="fill:rgb(176,176,176);fill-opacity:0.5;"/>
    <path d="M13.55,368.87l-1.598,-1.597l3.195,-0l-1.597,1.597Zm-13.55,-125.176l0,85.92l52.805,0l30.107,-30.107l-69.362,-69.363l-13.55,13.55Z" style="fill:rgb(176,176,176);fill-opacity:0.5;"/>
    <path d="M0,104.968l0,111.627l13.55,13.549l69.362,-69.363l-69.362,-69.363l-13.55,13.55Z" style="fill:rgb(176,176,176);fill-opacity:0.5;"/>
    <path d="M152.275,91.418l-69.363,69.363l69.363,69.363l69.363,-69.363l-69.363,-69.363Z" style="fill:#941849;"/>
    <path d="M221.638,22.056l-69.363,69.362l69.363,69.363l69.363,-69.363l-69.363,-69.362Z" style="fill:#CA5C88;"/>
    <path d="M221.638,160.781l-69.363,69.363l69.363,69.363l69.363,-69.363l-69.363,-69.363Z" style="fill:#CA5C88;"/>
    <path d="M291.001,91.418l-69.363,69.363l69.363,69.363l69.363,-69.363l-69.363,-69.363Z" style="fill:#C2185B;"/>
    <path d="M152.291,110.184l-152.291,152.291l0,-18.781l152.275,-152.276l0.016,0.016l0.016,-0.016l69.543,69.544l69.544,-69.544l9.391,9.391l-78.723,78.722l-0.212,-0.212l-0.212,0.212l-69.347,-69.347Z" style="fill:rgb(255,209,62);"/>
    <path d="M528.64 196.64L528.64 196.64Q528.64 216.66 518.53 227.31Q508.42 237.95 489.38 237.95L489.38 237.95Q470.73 237.95 457.64 230.63L457.64 230.63L457.64 204.36Q473.66 214.81 487.04 214.81L487.04 214.81Q494.65 214.81 498.51 210.61Q502.37 206.41 502.37 199.18L502.37 199.18Q502.37 192.05 497.78 186.15Q493.19 180.24 482.64 173.01L482.64 173.01Q473.46 166.66 468.72 160.85Q463.99 155.04 461.40 147.82Q458.81 140.59 458.81 131.02L458.81 131.02Q458.81 112.66 469.02 101.92Q479.22 91.18 496.41 91.18L496.41 91.18Q512.82 91.18 527.95 100.36L527.95 100.36L519.16 121.64Q514.48 118.91 509.35 116.76Q504.22 114.61 498.36 114.61L498.36 114.61Q491.92 114.61 488.45 118.86Q484.98 123.11 484.98 130.43L484.98 130.43Q484.98 137.66 489.13 143.03Q493.29 148.40 503.64 155.24L503.64 155.24Q517.60 164.61 523.12 174.38Q528.64 184.14 528.64 196.64Z" fill="#FFFFFF"/><path d="M610.57 212.76L610.57 236L546.21 236L546.21 93.23L610.57 93.23L610.57 116.18L572.78 116.18L572.78 150.16L607.84 150.16L607.84 173.21L572.78 173.21L572.78 212.76L610.57 212.76Z" fill="#FFFFFF"/><path d="M711.35 236L682.35 236L655.20 114.42L654.13 114.42Q655.98 128.48 655.98 140.20L655.98 140.20L655.98 236L631.37 236L631.37 93.23L672.19 93.23L696.61 205.43L697.39 205.43L721.61 93.23L763.01 93.23L763.01 236L737.82 236L737.82 139.22Q737.82 127.21 739.18 114.61L739.18 114.61L738.40 114.61L711.35 236Z" fill="#FFFFFF"/><path d="M831.18 180.43L849.63 93.23L876.39 93.23L842.80 236L809.01 236L775.61 93.23L802.37 93.23L821.02 180.43Q823.56 191.57 826 212.37L826 212.37Q828.05 194.69 831.18 180.43L831.18 180.43Z" fill="#FFFFFF"/><path d="M953.34 212.76L953.34 236L888.99 236L888.99 93.23L953.34 93.23L953.34 116.18L915.55 116.18L915.55 150.16L950.61 150.16L950.61 173.21L915.55 173.21L915.55 212.76L953.34 212.76Z" fill="#FFFFFF"/><path d="M1010.18 180.43L1000.71 180.43L1000.71 236L974.14 236L974.14 93.23L1008.91 93.23Q1030.98 93.23 1041.48 103.68Q1051.98 114.13 1051.98 135.61L1051.98 135.61Q1051.98 162.66 1033.71 173.40L1033.71 173.40L1061.16 236L1032.74 236L1010.18 180.43ZM1000.71 116.18L1000.71 157.58L1007.54 157.58Q1016.92 157.58 1021.02 152.26Q1025.12 146.94 1025.12 136.39L1025.12 136.39Q1025.12 125.45 1020.78 120.81Q1016.43 116.18 1007.35 116.18L1007.35 116.18L1000.71 116.18Z" fill="#FFFFFF"/><path d="" fill="#FFFFFF"/><path d="M1166.72 180.24L1166.72 156.80L1210.38 156.80L1210.38 230.04Q1191.82 237.95 1170.92 237.95L1170.92 237.95Q1146.02 237.95 1132.59 219.01Q1119.16 200.06 1119.16 164.42L1119.16 164.42Q1119.16 130.04 1134.54 110.61Q1149.93 91.18 1177.56 91.18L1177.56 91.18Q1194.65 91.18 1210.18 99.96L1210.18 99.96L1201.78 121.64Q1189.67 114.61 1179.13 114.61L1179.13 114.61Q1163.99 114.61 1155.15 128.14Q1146.31 141.66 1146.31 165.00L1146.31 165.00Q1146.31 189.03 1152.71 201.82Q1159.11 214.61 1171.31 214.61L1171.31 214.61Q1177.76 214.61 1184.40 212.95L1184.40 212.95L1184.40 180.24L1166.72 180.24Z" fill="#FFFFFF"/><path d="M1261.94 236L1236.94 236L1236.94 93.23L1261.94 93.23L1261.94 236Z" fill="#FFFFFF"/><path d="M1335.96 116.57L1335.96 236L1309.50 236L1309.50 116.57L1282.15 116.57L1282.15 93.23L1363.30 93.23L1363.30 116.57L1335.96 116.57Z" fill="#FFFFFF"/><path d="M1466.72 93.23L1466.72 236L1440.16 236L1440.16 173.40L1405.10 173.40L1405.10 236L1378.54 236L1378.54 93.23L1405.10 93.23L1405.10 149.96L1440.16 149.96L1440.16 93.23L1466.72 93.23Z" fill="#FFFFFF"/><path d="M1553.34 93.23L1579.71 93.23L1579.71 185.61Q1579.71 211.10 1568.19 224.53Q1556.66 237.95 1534.89 237.95L1534.89 237.95Q1513.60 237.95 1502.46 224.62Q1491.33 211.29 1491.33 185.22L1491.33 185.22L1491.33 93.23L1517.70 93.23L1517.70 187.17Q1517.70 214.42 1535.77 214.42L1535.77 214.42Q1544.16 214.42 1548.75 207.48Q1553.34 200.55 1553.34 187.76L1553.34 187.76L1553.34 93.23Z" fill="#FFFFFF"/><path d="M1604.32 236L1604.32 93.23L1640.75 93.23Q1663.01 93.23 1673.17 101.87Q1683.32 110.51 1683.32 129.36L1683.32 129.36Q1683.32 141.76 1677.95 150.11Q1672.58 158.46 1663.30 160.22L1663.30 160.22L1663.30 161.20Q1675.41 164.22 1680.79 172.52Q1686.16 180.82 1686.16 194.59L1686.16 194.59Q1686.16 214.03 1675.76 225.01Q1665.36 236 1647.29 236L1647.29 236L1604.32 236ZM1629.32 116.18L1629.32 150.65L1641.53 150.65Q1649.93 150.65 1653.34 146.16Q1656.76 141.66 1656.76 132.78L1656.76 132.78Q1656.76 123.89 1652.86 120.03Q1648.95 116.18 1640.55 116.18L1640.55 116.18L1629.32 116.18ZM1642.31 172.82L1629.32 172.82L1629.32 212.76L1642.70 212.76Q1651 212.76 1655.05 207.68Q1659.11 202.60 1659.11 191.96L1659.11 191.96Q1659.11 172.82 1642.31 172.82L1642.31 172.82Z" fill="#FFFFFF"/><path d="" fill="#FFFFFF"/><path d="M1849.34 236L1822.68 236L1814.48 199.96L1777.27 199.96L1769.07 236L1742.50 236L1777.86 92.64L1813.89 92.64L1849.34 236ZM1782.54 176.43L1809.50 176.43L1801.88 143.23Q1801.20 140.20 1798.80 128.04Q1796.41 115.88 1795.92 111.78L1795.92 111.78Q1794.65 120.18 1792.70 130.29Q1790.75 140.39 1782.54 176.43L1782.54 176.43Z" fill="#FFFFFF"/><path d="M1909.30 114.42L1909.30 114.42Q1897.88 114.42 1891.28 127.80Q1884.69 141.18 1884.69 165.00L1884.69 165.00Q1884.69 214.61 1910.57 214.61L1910.57 214.61Q1921.90 214.61 1934.30 207.39L1934.30 207.39L1934.30 231.02Q1923.85 237.95 1907.54 237.95L1907.54 237.95Q1883.42 237.95 1870.48 218.76Q1857.54 199.57 1857.54 164.81L1857.54 164.81Q1857.54 130.04 1870.87 110.61Q1884.20 91.18 1907.93 91.18L1907.93 91.18Q1915.75 91.18 1922.92 93.32Q1930.10 95.47 1938.30 100.84L1938.30 100.84L1929.52 122.43Q1925.12 119.40 1920.14 116.91Q1915.16 114.42 1909.30 114.42Z" fill="#FFFFFF"/><path d="M1998.36 116.57L1998.36 236L1971.90 236L1971.90 116.57L1944.55 116.57L1944.55 93.23L2025.71 93.23L2025.71 116.57L1998.36 116.57Z" fill="#FFFFFF"/><path d="M2070.73 236L2045.73 236L2045.73 93.23L2070.73 93.23L2070.73 236Z" fill="#FFFFFF"/><path d="M2199.14 164.42L2199.14 164.42Q2199.14 199.87 2185.86 218.91Q2172.58 237.95 2147.88 237.95L2147.88 237.95Q2123.07 237.95 2109.79 218.96Q2096.51 199.96 2096.51 164.22L2096.51 164.22Q2096.51 128.77 2109.79 109.88Q2123.07 90.98 2148.07 90.98L2148.07 90.98Q2172.78 90.98 2185.96 109.97Q2199.14 128.97 2199.14 164.42ZM2123.66 164.42L2123.66 164.42Q2123.66 188.83 2129.81 201.63Q2135.96 214.42 2147.88 214.42L2147.88 214.42Q2171.90 214.42 2171.90 164.42L2171.90 164.42Q2171.90 114.42 2148.07 114.42L2148.07 114.42Q2135.96 114.42 2129.81 127.16Q2123.66 139.91 2123.66 164.42Z" fill="#FFFFFF"/><path d="M2319.95 93.23L2319.95 236L2287.52 236L2243.38 132.58L2242.11 132.58Q2244.55 144.40 2244.55 157.97L2244.55 157.97L2244.55 236L2219.95 236L2219.95 93.23L2252.56 93.23L2296.31 195.57L2297.39 195.57Q2295.53 185.32 2295.53 171.16L2295.53 171.16L2295.53 93.23L2319.95 93.23Z" fill="#FFFFFF"/><path d="M527.64 195.64L527.64 195.64Q527.64 215.66 517.53 226.31Q507.42 236.95 488.38 236.95L488.38 236.95Q469.73 236.95 456.64 229.63L456.64 229.63L456.64 203.36Q472.66 213.81 486.04 213.81L486.04 213.81Q493.65 213.81 497.51 209.61Q501.37 205.41 501.37 198.18L501.37 198.18Q501.37 191.05 496.78 185.15Q492.19 179.24 481.64 172.01L481.64 172.01Q472.46 165.66 467.72 159.85Q462.99 154.04 460.40 146.82Q457.81 139.59 457.81 130.02L457.81 130.02Q457.81 111.66 468.02 100.92Q478.22 90.18 495.41 90.18L495.41 90.18Q511.82 90.18 526.95 99.36L526.95 99.36L518.16 120.64Q513.48 117.91 508.35 115.76Q503.22 113.61 497.36 113.61L497.36 113.61Q490.92 113.61 487.45 117.86Q483.98 122.11 483.98 129.43L483.98 129.43Q483.98 136.66 488.13 142.03Q492.29 147.40 502.64 154.24L502.64 154.24Q516.60 163.61 522.12 173.38Q527.64 183.14 527.64 195.64Z" fill="url(#TextGradient)"/><path d="M609.57 211.76L609.57 235L545.21 235L545.21 92.23L609.57 92.23L609.57 115.18L571.78 115.18L571.78 149.16L606.84 149.16L606.84 172.21L571.78 172.21L571.78 211.76L609.57 211.76Z" fill="url(#TextGradient)"/><path d="M710.35 235L681.35 235L654.20 113.42L653.13 113.42Q654.98 127.48 654.98 139.20L654.98 139.20L654.98 235L630.37 235L630.37 92.23L671.19 92.23L695.61 204.43L696.39 204.43L720.61 92.23L762.01 92.23L762.01 235L736.82 235L736.82 138.22Q736.82 126.21 738.18 113.61L738.18 113.61L737.40 113.61L710.35 235Z" fill="url(#TextGradient)"/><path d="M830.18 179.43L848.63 92.23L875.39 92.23L841.80 235L808.01 235L774.61 92.23L801.37 92.23L820.02 179.43Q822.56 190.57 825 211.37L825 211.37Q827.05 193.69 830.18 179.43L830.18 179.43Z" fill="url(#TextGradient)"/><path d="M952.34 211.76L952.34 235L887.99 235L887.99 92.23L952.34 92.23L952.34 115.18L914.55 115.18L914.55 149.16L949.61 149.16L949.61 172.21L914.55 172.21L914.55 211.76L952.34 211.76Z" fill="url(#TextGradient)"/><path d="M1009.18 179.43L999.71 179.43L999.71 235L973.14 235L973.14 92.23L1007.91 92.23Q1029.98 92.23 1040.48 102.68Q1050.98 113.13 1050.98 134.61L1050.98 134.61Q1050.98 161.66 1032.71 172.40L1032.71 172.40L1060.16 235L1031.74 235L1009.18 179.43ZM999.71 115.18L999.71 156.58L1006.54 156.58Q1015.92 156.58 1020.02 151.26Q1024.12 145.94 1024.12 135.39L1024.12 135.39Q1024.12 124.45 1019.78 119.81Q1015.43 115.18 1006.35 115.18L1006.35 115.18L999.71 115.18Z" fill="url(#TextGradient)"/><path d="" fill="url(#TextGradient)"/><path d="M1165.72 179.24L1165.72 155.80L1209.38 155.80L1209.38 229.04Q1190.82 236.95 1169.92 236.95L1169.92 236.95Q1145.02 236.95 1131.59 218.01Q1118.16 199.06 1118.16 163.42L1118.16 163.42Q1118.16 129.04 1133.54 109.61Q1148.93 90.18 1176.56 90.18L1176.56 90.18Q1193.65 90.18 1209.18 98.96L1209.18 98.96L1200.78 120.64Q1188.67 113.61 1178.13 113.61L1178.13 113.61Q1162.99 113.61 1154.15 127.14Q1145.31 140.66 1145.31 164.00L1145.31 164.00Q1145.31 188.03 1151.71 200.82Q1158.11 213.61 1170.31 213.61L1170.31 213.61Q1176.76 213.61 1183.40 211.95L1183.40 211.95L1183.40 179.24L1165.72 179.24Z" fill="url(#TextGradient)"/><path d="M1260.94 235L1235.94 235L1235.94 92.23L1260.94 92.23L1260.94 235Z" fill="url(#TextGradient)"/><path d="M1334.96 115.57L1334.96 235L1308.50 235L1308.50 115.57L1281.15 115.57L1281.15 92.23L1362.30 92.23L1362.30 115.57L1334.96 115.57Z" fill="url(#TextGradient)"/><path d="M1465.72 92.23L1465.72 235L1439.16 235L1439.16 172.40L1404.10 172.40L1404.10 235L1377.54 235L1377.54 92.23L1404.10 92.23L1404.10 148.96L1439.16 148.96L1439.16 92.23L1465.72 92.23Z" fill="url(#TextGradient)"/><path d="M1552.34 92.23L1578.71 92.23L1578.71 184.61Q1578.71 210.10 1567.19 223.53Q1555.66 236.95 1533.89 236.95L1533.89 236.95Q1512.60 236.95 1501.46 223.62Q1490.33 210.29 1490.33 184.22L1490.33 184.22L1490.33 92.23L1516.70 92.23L1516.70 186.17Q1516.70 213.42 1534.77 213.42L1534.77 213.42Q1543.16 213.42 1547.75 206.48Q1552.34 199.55 1552.34 186.76L1552.34 186.76L1552.34 92.23Z" fill="url(#TextGradient)"/><path d="M1603.32 235L1603.32 92.23L1639.75 92.23Q1662.01 92.23 1672.17 100.87Q1682.32 109.51 1682.32 128.36L1682.32 128.36Q1682.32 140.76 1676.95 149.11Q1671.58 157.46 1662.30 159.22L1662.30 159.22L1662.30 160.20Q1674.41 163.22 1679.79 171.52Q1685.16 179.82 1685.16 193.59L1685.16 193.59Q1685.16 213.03 1674.76 224.01Q1664.36 235 1646.29 235L1646.29 235L1603.32 235ZM1628.32 115.18L1628.32 149.65L1640.53 149.65Q1648.93 149.65 1652.34 145.16Q1655.76 140.66 1655.76 131.78L1655.76 131.78Q1655.76 122.89 1651.86 119.03Q1647.95 115.18 1639.55 115.18L1639.55 115.18L1628.32 115.18ZM1641.31 171.82L1628.32 171.82L1628.32 211.76L1641.70 211.76Q1650 211.76 1654.05 206.68Q1658.11 201.60 1658.11 190.96L1658.11 190.96Q1658.11 171.82 1641.31 171.82L1641.31 171.82Z" fill="url(#TextGradient)"/><path d="" fill="url(#TextGradient)"/><path d="M1848.34 235L1821.68 235L1813.48 198.96L1776.27 198.96L1768.07 235L1741.50 235L1776.86 91.64L1812.89 91.64L1848.34 235ZM1781.54 175.43L1808.50 175.43L1800.88 142.23Q1800.20 139.20 1797.80 127.04Q1795.41 114.88 1794.92 110.78L1794.92 110.78Q1793.65 119.18 1791.70 129.29Q1789.75 139.39 1781.54 175.43L1781.54 175.43Z" fill="url(#TextGradient)"/><path d="M1908.30 113.42L1908.30 113.42Q1896.88 113.42 1890.28 126.80Q1883.69 140.18 1883.69 164.00L1883.69 164.00Q1883.69 213.61 1909.57 213.61L1909.57 213.61Q1920.90 213.61 1933.30 206.39L1933.30 206.39L1933.30 230.02Q1922.85 236.95 1906.54 236.95L1906.54 236.95Q1882.42 236.95 1869.48 217.76Q1856.54 198.57 1856.54 163.81L1856.54 163.81Q1856.54 129.04 1869.87 109.61Q1883.20 90.18 1906.93 90.18L1906.93 90.18Q1914.75 90.18 1921.92 92.32Q1929.10 94.47 1937.30 99.84L1937.30 99.84L1928.52 121.43Q1924.12 118.40 1919.14 115.91Q1914.16 113.42 1908.30 113.42Z" fill="url(#TextGradient)"/><path d="M1997.36 115.57L1997.36 235L1970.90 235L1970.90 115.57L1943.55 115.57L1943.55 92.23L2024.71 92.23L2024.71 115.57L1997.36 115.57Z" fill="url(#TextGradient)"/><path d="M2069.73 235L2044.73 235L2044.73 92.23L2069.73 92.23L2069.73 235Z" fill="url(#TextGradient)"/><path d="M2198.14 163.42L2198.14 163.42Q2198.14 198.87 2184.86 217.91Q2171.58 236.95 2146.88 236.95L2146.88 236.95Q2122.07 236.95 2108.79 217.96Q2095.51 198.96 2095.51 163.22L2095.51 163.22Q2095.51 127.77 2108.79 108.88Q2122.07 89.98 2147.07 89.98L2147.07 89.98Q2171.78 89.98 2184.96 108.97Q2198.14 127.97 2198.14 163.42ZM2122.66 163.42L2122.66 163.42Q2122.66 187.83 2128.81 200.63Q2134.96 213.42 2146.88 213.42L2146.88 213.42Q2170.90 213.42 2170.90 163.42L2170.90 163.42Q2170.90 113.42 2147.07 113.42L2147.07 113.42Q2134.96 113.42 2128.81 126.16Q2122.66 138.91 2122.66 163.42Z" fill="url(#TextGradient)"/><path d="M2318.95 92.23L2318.95 235L2286.52 235L2242.38 131.58L2241.11 131.58Q2243.55 143.40 2243.55 156.97L2243.55 156.97L2243.55 235L2218.95 235L2218.95 92.23L2251.56 92.23L2295.31 194.57L2296.39 194.57Q2294.53 184.32 2294.53 170.16L2294.53 170.16L2294.53 92.23L2318.95 92.23Z" fill="url(#TextGradient)"/>
    <defs>
        <linearGradient id="TextGradient" x1="0" y1="0" x2="0" y2="1">
            <stop offset="0" style="stop-color:#571831;stop-opacity:1"/>
            <stop offset="1" style="stop-color:#C2185B;stop-opacity:1"/>
        </linearGradient>
    </defs>
</svg>
