<?xml version="1.0" encoding="UTF-8" standalone="no"?>
<!DOCTYPE svg PUBLIC "-//W3C//DTD SVG 1.1//EN" "http://www.w3.org/Graphics/SVG/1.1/DTD/svg11.dtd">
<svg width="100%" height="100%" viewBox="0 0 1638.98828125 330" version="1.1" xmlns="http://www.w3.org/2000/svg" xmlns:xlink="http://www.w3.org/1999/xlink" xml:space="preserve" xmlns:serif="http://www.serif.com/" style="fill-rule:evenodd;clip-rule:evenodd;stroke-linejoin:round;stroke-miterlimit:2;">
    <path d="M82.912,22.056l-69.362,69.362l69.362,69.363l69.363,-69.363l-69.363,-69.362Z" style="fill:rgb(176,176,176);"/>
    <path d="M82.912,160.781l-69.362,69.363l69.362,69.363l69.363,-69.363l-69.363,-69.363Z" style="fill:rgb(176,176,176);"/>
    <path d="M199.583,0l-94.615,0l-22.056,22.056l69.363,69.362l69.363,-69.362l-22.055,-22.056Z" style="fill:rgb(176,176,176);fill-opacity:0.5;"/>
    <path d="M113.02,329.614l78.511,0l30.107,-30.107l-69.363,-69.363l-69.363,69.363l30.108,30.107Z" style="fill:rgb(176,176,176);fill-opacity:0.5;"/>
    <path d="M0,0l0,77.869l13.55,13.549l69.362,-69.362l-22.055,-22.056l-60.857,-0Z" style="fill:rgb(176,176,176);fill-opacity:0.5;"/>
    <path d="M13.55,368.87l-1.598,-1.597l3.195,-0l-1.597,1.597Zm-13.55,-125.176l0,85.92l52.805,0l30.107,-30.107l-69.362,-69.363l-13.55,13.55Z" style="fill:rgb(176,176,176);fill-opacity:0.5;"/>
    <path d="M0,104.968l0,111.627l13.55,13.549l69.362,-69.363l-69.362,-69.363l-13.55,13.55Z" style="fill:rgb(176,176,176);fill-opacity:0.5;"/>
    <path d="M152.275,91.418l-69.363,69.363l69.363,69.363l69.363,-69.363l-69.363,-69.363Z" style="fill:#7002B9;"/>
    <path d="M221.638,22.056l-69.363,69.362l69.363,69.363l69.363,-69.363l-69.363,-69.362Z" style="fill:#A04DD8;"/>
    <path d="M221.638,160.781l-69.363,69.363l69.363,69.363l69.363,-69.363l-69.363,-69.363Z" style="fill:#A04DD8;"/>
    <path d="M291.001,91.418l-69.363,69.363l69.363,69.363l69.363,-69.363l-69.363,-69.363Z" style="fill:#8202D7;"/>
    <path d="M152.291,110.184l-152.291,152.291l0,-18.781l152.275,-152.276l0.016,0.016l0.016,-0.016l69.543,69.544l69.544,-69.544l9.391,9.391l-78.723,78.722l-0.212,-0.212l-0.212,0.212l-69.347,-69.347Z" style="fill:rgb(255,209,62);"/>
    <path d="M528.64 196.64L528.64 196.64Q528.64 216.66 518.53 227.31Q508.42 237.95 489.38 237.95L489.38 237.95Q470.73 237.95 457.64 230.63L457.64 230.63L457.64 204.36Q473.66 214.81 487.04 214.81L487.04 214.81Q494.65 214.81 498.51 210.61Q502.37 206.41 502.37 199.18L502.37 199.18Q502.37 192.05 497.78 186.15Q493.19 180.24 482.64 173.01L482.64 173.01Q473.46 166.66 468.72 160.85Q463.99 155.04 461.40 147.82Q458.81 140.59 458.81 131.02L458.81 131.02Q458.81 112.66 469.02 101.92Q479.22 91.18 496.41 91.18L496.41 91.18Q512.82 91.18 527.95 100.36L527.95 100.36L519.16 121.64Q514.48 118.91 509.35 116.76Q504.22 114.61 498.36 114.61L498.36 114.61Q491.92 114.61 488.45 118.86Q484.98 123.11 484.98 130.43L484.98 130.43Q484.98 137.66 489.13 143.03Q493.29 148.40 503.64 155.24L503.64 155.24Q517.60 164.61 523.12 174.38Q528.64 184.14 528.64 196.64Z" fill="#FFFFFF"/><path d="M570.82 127.21L570.82 236L544.85 236L544.85 127.21L570.82 127.21ZM543.77 98.79L543.77 98.79Q543.77 92.35 547.53 88.59Q551.29 84.83 558.03 84.83L558.03 84.83Q564.38 84.83 568.19 88.59Q572.00 92.35 572.00 98.79L572.00 98.79Q572.00 105.43 568.09 109.10Q564.18 112.76 558.03 112.76L558.03 112.76Q551.59 112.76 547.68 109.10Q543.77 105.43 543.77 98.79Z" fill="#FFFFFF"/><path d="M621.70 237.95L621.70 237.95Q606.66 237.95 597.97 223.11Q589.28 208.27 589.28 181.80L589.28 181.80Q589.28 155.24 597.78 140.20Q606.27 125.16 621.21 125.16L621.21 125.16Q628.64 125.16 634.06 128.82Q639.48 132.48 644.07 141.18L644.07 141.18L645.63 141.18Q644.46 126.33 644.46 120.38L644.46 120.38L644.46 84.05L670.43 84.05L670.43 236L651.10 236L646.70 221.84L645.82 221.84Q637.52 237.95 621.70 237.95ZM630.10 215.98L630.10 215.98Q637.33 215.98 640.65 209.39Q643.97 202.80 644.26 185.41L644.26 185.41L644.26 182.00Q644.26 163.05 640.89 155.34Q637.52 147.62 629.81 147.62L629.81 147.62Q622.58 147.62 619.31 156.46Q616.04 165.30 616.04 182.19L616.04 182.19Q616.04 199.09 619.36 207.53Q622.68 215.98 630.10 215.98Z" fill="#FFFFFF"/><path d="M732.45 237.95L732.45 237.95Q712.04 237.95 700.27 223.45Q688.50 208.95 688.50 182.39L688.50 182.39Q688.50 155.43 699.14 140.30Q709.79 125.16 728.83 125.16L728.83 125.16Q746.61 125.16 756.86 138.10Q767.11 151.04 767.11 174.38L767.11 174.38L767.11 188.25L714.87 188.25Q715.16 202.80 720.82 209.88Q726.49 216.96 736.45 216.96L736.45 216.96Q749.14 216.96 762.43 209.05L762.43 209.05L762.43 230.43Q749.93 237.95 732.45 237.95ZM728.64 145.18L728.64 145.18Q723.07 145.18 719.46 151.09Q715.84 157.00 715.26 169.40L715.26 169.40L741.63 169.40Q741.43 157.48 738.01 151.33Q734.59 145.18 728.64 145.18Z" fill="#FFFFFF"/><path d="" fill="#FFFFFF"/><path d="M915.26 236L886.25 236L859.11 114.42L858.03 114.42Q859.89 128.48 859.89 140.20L859.89 140.20L859.89 236L835.28 236L835.28 93.23L876.10 93.23L900.51 205.43L901.29 205.43L925.51 93.23L966.92 93.23L966.92 236L941.72 236L941.72 139.22Q941.72 127.21 943.09 114.61L943.09 114.61L942.31 114.61L915.26 236Z" fill="#FFFFFF"/><path d="M1030.69 237.95L1030.69 237.95Q1010.28 237.95 998.51 223.45Q986.74 208.95 986.74 182.39L986.74 182.39Q986.74 155.43 997.39 140.30Q1008.03 125.16 1027.07 125.16L1027.07 125.16Q1044.85 125.16 1055.10 138.10Q1065.36 151.04 1065.36 174.38L1065.36 174.38L1065.36 188.25L1013.11 188.25Q1013.40 202.80 1019.07 209.88Q1024.73 216.96 1034.69 216.96L1034.69 216.96Q1047.39 216.96 1060.67 209.05L1060.67 209.05L1060.67 230.43Q1048.17 237.95 1030.69 237.95ZM1026.88 145.18L1026.88 145.18Q1021.31 145.18 1017.70 151.09Q1014.09 157.00 1013.50 169.40L1013.50 169.40L1039.87 169.40Q1039.67 157.48 1036.25 151.33Q1032.84 145.18 1026.88 145.18Z" fill="#FFFFFF"/><path d="M1122.68 237.95L1122.68 237.95Q1102.27 237.95 1090.50 223.45Q1078.73 208.95 1078.73 182.39L1078.73 182.39Q1078.73 155.43 1089.38 140.30Q1100.02 125.16 1119.07 125.16L1119.07 125.16Q1136.84 125.16 1147.09 138.10Q1157.35 151.04 1157.35 174.38L1157.35 174.38L1157.35 188.25L1105.10 188.25Q1105.39 202.80 1111.06 209.88Q1116.72 216.96 1126.68 216.96L1126.68 216.96Q1139.38 216.96 1152.66 209.05L1152.66 209.05L1152.66 230.43Q1140.16 237.95 1122.68 237.95ZM1118.87 145.18L1118.87 145.18Q1113.30 145.18 1109.69 151.09Q1106.08 157.00 1105.49 169.40L1105.49 169.40L1131.86 169.40Q1131.66 157.48 1128.25 151.33Q1124.83 145.18 1118.87 145.18Z" fill="#FFFFFF"/><path d="M1212.33 215.98L1212.33 215.98Q1217.80 215.98 1224.14 213.25L1224.14 213.25L1224.14 233.56Q1217.80 237.95 1205.10 237.95L1205.10 237.95Q1190.94 237.95 1184.11 229.51Q1177.27 221.06 1177.27 204.16L1177.27 204.16L1177.27 147.82L1166.72 147.82L1166.72 136.20L1180.30 126.82L1186.94 103.77L1203.54 103.77L1203.54 127.21L1223.27 127.21L1223.27 147.82L1203.54 147.82L1203.54 205.04Q1203.54 215.98 1212.33 215.98Z" fill="#FFFFFF"/><path d="M1265.55 127.21L1265.55 236L1239.57 236L1239.57 127.21L1265.55 127.21ZM1238.50 98.79L1238.50 98.79Q1238.50 92.35 1242.26 88.59Q1246.02 84.83 1252.76 84.83L1252.76 84.83Q1259.11 84.83 1262.91 88.59Q1266.72 92.35 1266.72 98.79L1266.72 98.79Q1266.72 105.43 1262.82 109.10Q1258.91 112.76 1252.76 112.76L1252.76 112.76Q1246.31 112.76 1242.41 109.10Q1238.50 105.43 1238.50 98.79Z" fill="#FFFFFF"/><path d="M1368.19 236L1342.02 236L1342.02 171.16Q1342.02 159.34 1339.18 153.29Q1336.35 147.23 1330.00 147.23L1330.00 147.23Q1321.61 147.23 1317.70 155.58Q1313.79 163.93 1313.79 183.75L1313.79 183.75L1313.79 236L1287.82 236L1287.82 127.21L1308.42 127.21L1311.55 141.18L1313.21 141.18Q1316.72 133.66 1323.27 129.41Q1329.81 125.16 1338.60 125.16L1338.60 125.16Q1353.44 125.16 1360.81 135.32Q1368.19 145.47 1368.19 165.00L1368.19 165.00L1368.19 236Z" fill="#FFFFFF"/><path d="M1436.55 127.41L1467.50 127.41L1467.50 142.64L1454.52 145.57Q1458.32 152.41 1458.32 162.76L1458.32 162.76Q1458.32 180.04 1448.95 189.81Q1439.57 199.57 1422.78 199.57L1422.78 199.57Q1417.89 199.57 1415.55 198.79L1415.55 198.79Q1413.70 200.45 1412.04 202.50Q1410.38 204.55 1410.38 207.58L1410.38 207.58Q1410.38 214.42 1422.19 214.42L1422.19 214.42L1437.91 214.42Q1451.78 214.42 1459.25 221.89Q1466.72 229.36 1466.72 244.40L1466.72 244.40Q1466.72 263.34 1454.03 273.70Q1441.33 284.05 1417.50 284.05L1417.50 284.05Q1399.44 284.05 1389.67 276.19Q1379.91 268.32 1379.91 253.77L1379.91 253.77Q1379.91 244.69 1385.47 237.81Q1391.04 230.92 1400.90 227.80L1400.90 227.80Q1395.92 225.84 1392.75 221.74Q1389.57 217.64 1389.57 212.17L1389.57 212.17Q1389.57 208.85 1390.55 206.17Q1391.53 203.48 1393.33 201.09Q1395.14 198.70 1400.71 194.01L1400.71 194.01Q1393.97 189.91 1390.06 181.41Q1386.16 172.91 1386.16 162.56L1386.16 162.56Q1386.16 144.69 1395.53 134.93Q1404.91 125.16 1422.39 125.16L1422.39 125.16Q1425.71 125.16 1430.00 125.89Q1434.30 126.63 1436.55 127.41L1436.55 127.41ZM1403.54 251.82L1403.54 251.82Q1403.54 258.27 1407.59 261.73Q1411.64 265.20 1419.16 265.20L1419.16 265.20Q1430.98 265.20 1436.89 260.71Q1442.80 256.21 1442.80 248.40L1442.80 248.40Q1442.80 242.25 1439.62 239.71Q1436.45 237.17 1427.76 237.17L1427.76 237.17L1415.16 237.17Q1409.89 237.17 1406.71 241.13Q1403.54 245.08 1403.54 251.82ZM1411.55 162.76L1411.55 162.76Q1411.55 182.00 1422.39 182.00L1422.39 182.00Q1432.93 182.00 1432.93 162.56L1432.93 162.56Q1432.93 142.64 1422.39 142.64L1422.39 142.64Q1411.55 142.64 1411.55 162.76Z" fill="#FFFFFF"/><path d="M1538.99 204.16L1538.99 204.16Q1538.99 220.08 1529.66 229.02Q1520.34 237.95 1502.17 237.95L1502.17 237.95Q1486.06 237.95 1475.51 231.61L1475.51 231.61L1475.51 209.05Q1480.88 212.76 1488.06 215.20Q1495.24 217.64 1500.71 217.64L1500.71 217.64Q1506.76 217.64 1509.94 214.66Q1513.11 211.68 1513.11 206.80L1513.11 206.80Q1513.11 201.82 1509.79 198.11Q1506.47 194.40 1497.58 189.03L1497.58 189.03Q1485.77 182.00 1480.64 174.04Q1475.51 166.08 1475.51 155.24L1475.51 155.24Q1475.51 141.37 1485.03 133.27Q1494.55 125.16 1511.16 125.16L1511.16 125.16Q1525.61 125.16 1538.40 132.78L1538.40 132.78L1529.91 151.43Q1519.46 145.77 1511.55 145.77L1511.55 145.77Q1506.57 145.77 1504.08 148.40Q1501.59 151.04 1501.59 154.85L1501.59 154.85Q1501.59 159.24 1504.66 162.66Q1507.74 166.08 1516.14 171.16L1516.14 171.16Q1526.29 177.31 1530.39 181.61Q1534.50 185.90 1536.74 191.37Q1538.99 196.84 1538.99 204.16Z" fill="#FFFFFF"/><path d="M527.64 195.64L527.64 195.64Q527.64 215.66 517.53 226.31Q507.42 236.95 488.38 236.95L488.38 236.95Q469.73 236.95 456.64 229.63L456.64 229.63L456.64 203.36Q472.66 213.81 486.04 213.81L486.04 213.81Q493.65 213.81 497.51 209.61Q501.37 205.41 501.37 198.18L501.37 198.18Q501.37 191.05 496.78 185.15Q492.19 179.24 481.64 172.01L481.64 172.01Q472.46 165.66 467.72 159.85Q462.99 154.04 460.40 146.82Q457.81 139.59 457.81 130.02L457.81 130.02Q457.81 111.66 468.02 100.92Q478.22 90.18 495.41 90.18L495.41 90.18Q511.82 90.18 526.95 99.36L526.95 99.36L518.16 120.64Q513.48 117.91 508.35 115.76Q503.22 113.61 497.36 113.61L497.36 113.61Q490.92 113.61 487.45 117.86Q483.98 122.11 483.98 129.43L483.98 129.43Q483.98 136.66 488.13 142.03Q492.29 147.40 502.64 154.24L502.64 154.24Q516.60 163.61 522.12 173.38Q527.64 183.14 527.64 195.64Z" fill="url(#TextGradient)"/><path d="M569.82 126.21L569.82 235L543.85 235L543.85 126.21L569.82 126.21ZM542.77 97.79L542.77 97.79Q542.77 91.35 546.53 87.59Q550.29 83.83 557.03 83.83L557.03 83.83Q563.38 83.83 567.19 87.59Q571.00 91.35 571.00 97.79L571.00 97.79Q571.00 104.43 567.09 108.10Q563.18 111.76 557.03 111.76L557.03 111.76Q550.59 111.76 546.68 108.10Q542.77 104.43 542.77 97.79Z" fill="url(#TextGradient)"/><path d="M620.70 236.95L620.70 236.95Q605.66 236.95 596.97 222.11Q588.28 207.27 588.28 180.80L588.28 180.80Q588.28 154.24 596.78 139.20Q605.27 124.16 620.21 124.16L620.21 124.16Q627.64 124.16 633.06 127.82Q638.48 131.48 643.07 140.18L643.07 140.18L644.63 140.18Q643.46 125.33 643.46 119.38L643.46 119.38L643.46 83.05L669.43 83.05L669.43 235L650.10 235L645.70 220.84L644.82 220.84Q636.52 236.95 620.70 236.95ZM629.10 214.98L629.10 214.98Q636.33 214.98 639.65 208.39Q642.97 201.80 643.26 184.41L643.26 184.41L643.26 181.00Q643.26 162.05 639.89 154.34Q636.52 146.62 628.81 146.62L628.81 146.62Q621.58 146.62 618.31 155.46Q615.04 164.30 615.04 181.19L615.04 181.19Q615.04 198.09 618.36 206.53Q621.68 214.98 629.10 214.98Z" fill="url(#TextGradient)"/><path d="M731.45 236.95L731.45 236.95Q711.04 236.95 699.27 222.45Q687.50 207.95 687.50 181.39L687.50 181.39Q687.50 154.43 698.14 139.30Q708.79 124.16 727.83 124.16L727.83 124.16Q745.61 124.16 755.86 137.10Q766.11 150.04 766.11 173.38L766.11 173.38L766.11 187.25L713.87 187.25Q714.16 201.80 719.82 208.88Q725.49 215.96 735.45 215.96L735.45 215.96Q748.14 215.96 761.43 208.05L761.43 208.05L761.43 229.43Q748.93 236.95 731.45 236.95ZM727.64 144.18L727.64 144.18Q722.07 144.18 718.46 150.09Q714.84 156.00 714.26 168.40L714.26 168.40L740.63 168.40Q740.43 156.48 737.01 150.33Q733.59 144.18 727.64 144.18Z" fill="url(#TextGradient)"/><path d="" fill="url(#TextGradient)"/><path d="M914.26 235L885.25 235L858.11 113.42L857.03 113.42Q858.89 127.48 858.89 139.20L858.89 139.20L858.89 235L834.28 235L834.28 92.23L875.10 92.23L899.51 204.43L900.29 204.43L924.51 92.23L965.92 92.23L965.92 235L940.72 235L940.72 138.22Q940.72 126.21 942.09 113.61L942.09 113.61L941.31 113.61L914.26 235Z" fill="url(#TextGradient)"/><path d="M1029.69 236.95L1029.69 236.95Q1009.28 236.95 997.51 222.45Q985.74 207.95 985.74 181.39L985.74 181.39Q985.74 154.43 996.39 139.30Q1007.03 124.16 1026.07 124.16L1026.07 124.16Q1043.85 124.16 1054.10 137.10Q1064.36 150.04 1064.36 173.38L1064.36 173.38L1064.36 187.25L1012.11 187.25Q1012.40 201.80 1018.07 208.88Q1023.73 215.96 1033.69 215.96L1033.69 215.96Q1046.39 215.96 1059.67 208.05L1059.67 208.05L1059.67 229.43Q1047.17 236.95 1029.69 236.95ZM1025.88 144.18L1025.88 144.18Q1020.31 144.18 1016.70 150.09Q1013.09 156.00 1012.50 168.40L1012.50 168.40L1038.87 168.40Q1038.67 156.48 1035.25 150.33Q1031.84 144.18 1025.88 144.18Z" fill="url(#TextGradient)"/><path d="M1121.68 236.95L1121.68 236.95Q1101.27 236.95 1089.50 222.45Q1077.73 207.95 1077.73 181.39L1077.73 181.39Q1077.73 154.43 1088.38 139.30Q1099.02 124.16 1118.07 124.16L1118.07 124.16Q1135.84 124.16 1146.09 137.10Q1156.35 150.04 1156.35 173.38L1156.35 173.38L1156.35 187.25L1104.10 187.25Q1104.39 201.80 1110.06 208.88Q1115.72 215.96 1125.68 215.96L1125.68 215.96Q1138.38 215.96 1151.66 208.05L1151.66 208.05L1151.66 229.43Q1139.16 236.95 1121.68 236.95ZM1117.87 144.18L1117.87 144.18Q1112.30 144.18 1108.69 150.09Q1105.08 156.00 1104.49 168.40L1104.49 168.40L1130.86 168.40Q1130.66 156.48 1127.25 150.33Q1123.83 144.18 1117.87 144.18Z" fill="url(#TextGradient)"/><path d="M1211.33 214.98L1211.33 214.98Q1216.80 214.98 1223.14 212.25L1223.14 212.25L1223.14 232.56Q1216.80 236.95 1204.10 236.95L1204.10 236.95Q1189.94 236.95 1183.11 228.51Q1176.27 220.06 1176.27 203.16L1176.27 203.16L1176.27 146.82L1165.72 146.82L1165.72 135.20L1179.30 125.82L1185.94 102.77L1202.54 102.77L1202.54 126.21L1222.27 126.21L1222.27 146.82L1202.54 146.82L1202.54 204.04Q1202.54 214.98 1211.33 214.98Z" fill="url(#TextGradient)"/><path d="M1264.55 126.21L1264.55 235L1238.57 235L1238.57 126.21L1264.55 126.21ZM1237.50 97.79L1237.50 97.79Q1237.50 91.35 1241.26 87.59Q1245.02 83.83 1251.76 83.83L1251.76 83.83Q1258.11 83.83 1261.91 87.59Q1265.72 91.35 1265.72 97.79L1265.72 97.79Q1265.72 104.43 1261.82 108.10Q1257.91 111.76 1251.76 111.76L1251.76 111.76Q1245.31 111.76 1241.41 108.10Q1237.50 104.43 1237.50 97.79Z" fill="url(#TextGradient)"/><path d="M1367.19 235L1341.02 235L1341.02 170.16Q1341.02 158.34 1338.18 152.29Q1335.35 146.23 1329.00 146.23L1329.00 146.23Q1320.61 146.23 1316.70 154.58Q1312.79 162.93 1312.79 182.75L1312.79 182.75L1312.79 235L1286.82 235L1286.82 126.21L1307.42 126.21L1310.55 140.18L1312.21 140.18Q1315.72 132.66 1322.27 128.41Q1328.81 124.16 1337.60 124.16L1337.60 124.16Q1352.44 124.16 1359.81 134.32Q1367.19 144.47 1367.19 164.00L1367.19 164.00L1367.19 235Z" fill="url(#TextGradient)"/><path d="M1435.55 126.41L1466.50 126.41L1466.50 141.64L1453.52 144.57Q1457.32 151.41 1457.32 161.76L1457.32 161.76Q1457.32 179.04 1447.95 188.81Q1438.57 198.57 1421.78 198.57L1421.78 198.57Q1416.89 198.57 1414.55 197.79L1414.55 197.79Q1412.70 199.45 1411.04 201.50Q1409.38 203.55 1409.38 206.58L1409.38 206.58Q1409.38 213.42 1421.19 213.42L1421.19 213.42L1436.91 213.42Q1450.78 213.42 1458.25 220.89Q1465.72 228.36 1465.72 243.40L1465.72 243.40Q1465.72 262.34 1453.03 272.70Q1440.33 283.05 1416.50 283.05L1416.50 283.05Q1398.44 283.05 1388.67 275.19Q1378.91 267.32 1378.91 252.77L1378.91 252.77Q1378.91 243.69 1384.47 236.81Q1390.04 229.92 1399.90 226.80L1399.90 226.80Q1394.92 224.84 1391.75 220.74Q1388.57 216.64 1388.57 211.17L1388.57 211.17Q1388.57 207.85 1389.55 205.17Q1390.53 202.48 1392.33 200.09Q1394.14 197.70 1399.71 193.01L1399.71 193.01Q1392.97 188.91 1389.06 180.41Q1385.16 171.91 1385.16 161.56L1385.16 161.56Q1385.16 143.69 1394.53 133.93Q1403.91 124.16 1421.39 124.16L1421.39 124.16Q1424.71 124.16 1429.00 124.89Q1433.30 125.63 1435.55 126.41L1435.55 126.41ZM1402.54 250.82L1402.54 250.82Q1402.54 257.27 1406.59 260.73Q1410.64 264.20 1418.16 264.20L1418.16 264.20Q1429.98 264.20 1435.89 259.71Q1441.80 255.21 1441.80 247.40L1441.80 247.40Q1441.80 241.25 1438.62 238.71Q1435.45 236.17 1426.76 236.17L1426.76 236.17L1414.16 236.17Q1408.89 236.17 1405.71 240.13Q1402.54 244.08 1402.54 250.82ZM1410.55 161.76L1410.55 161.76Q1410.55 181.00 1421.39 181.00L1421.39 181.00Q1431.93 181.00 1431.93 161.56L1431.93 161.56Q1431.93 141.64 1421.39 141.64L1421.39 141.64Q1410.55 141.64 1410.55 161.76Z" fill="url(#TextGradient)"/><path d="M1537.99 203.16L1537.99 203.16Q1537.99 219.08 1528.66 228.02Q1519.34 236.95 1501.17 236.95L1501.17 236.95Q1485.06 236.95 1474.51 230.61L1474.51 230.61L1474.51 208.05Q1479.88 211.76 1487.06 214.20Q1494.24 216.64 1499.71 216.64L1499.71 216.64Q1505.76 216.64 1508.94 213.66Q1512.11 210.68 1512.11 205.80L1512.11 205.80Q1512.11 200.82 1508.79 197.11Q1505.47 193.40 1496.58 188.03L1496.58 188.03Q1484.77 181.00 1479.64 173.04Q1474.51 165.08 1474.51 154.24L1474.51 154.24Q1474.51 140.37 1484.03 132.27Q1493.55 124.16 1510.16 124.16L1510.16 124.16Q1524.61 124.16 1537.40 131.78L1537.40 131.78L1528.91 150.43Q1518.46 144.77 1510.55 144.77L1510.55 144.77Q1505.57 144.77 1503.08 147.40Q1500.59 150.04 1500.59 153.85L1500.59 153.85Q1500.59 158.24 1503.66 161.66Q1506.74 165.08 1515.14 170.16L1515.14 170.16Q1525.29 176.31 1529.39 180.61Q1533.50 184.90 1535.74 190.37Q1537.99 195.84 1537.99 203.16Z" fill="url(#TextGradient)"/>
    <defs>
        <linearGradient id="TextGradient" x1="0" y1="0" x2="0" y2="1">
            <stop offset="0" style="stop-color:#580291;stop-opacity:1"/>
            <stop offset="1" style="stop-color:#8202D7;stop-opacity:1"/>
        </linearGradient>
    </defs>
</svg>
