<?xml version="1.0" encoding="UTF-8" standalone="no"?>
<!DOCTYPE svg PUBLIC "-//W3C//DTD SVG 1.1//EN" "http://www.w3.org/Graphics/SVG/1.1/DTD/svg11.dtd">
<svg width="100%" height="100%" viewBox="0 0 1325.21875 330" version="1.1" xmlns="http://www.w3.org/2000/svg" xmlns:xlink="http://www.w3.org/1999/xlink" xml:space="preserve" xmlns:serif="http://www.serif.com/" style="fill-rule:evenodd;clip-rule:evenodd;stroke-linejoin:round;stroke-miterlimit:2;background-color:#EBEBEB;">
    <rect x="0" y="0" width="1325.21875" height="330" style="fill:rgb(235,235,235);"/>
    <g transform="matrix(0.707107,-0.707107,0.707107,0.707107,-212.718,125.508)">
        <rect x="184.1" y="233.984" width="98.094" height="98.094" style="fill:rgb(11,140,197);"/>
    </g>
    <g transform="matrix(0.707107,-0.707107,0.707107,0.707107,-282.081,56.1452)">
        <rect x="184.1" y="233.984" width="98.094" height="98.094" style="fill:rgb(176,176,176);"/>
    </g>
    <g transform="matrix(0.707107,-0.707107,0.707107,0.707107,-282.081,194.871)">
        <rect x="184.1" y="233.984" width="98.094" height="98.094" style="fill:rgb(176,176,176);"/>
    </g>
    <g transform="matrix(0.707107,-0.707107,0.707107,0.707107,-212.718,-13.2176)">
        <rect x="184.1" y="233.984" width="98.094" height="98.094" style="fill:rgb(176,176,176);fill-opacity:0.5;"/>
    </g>
    <g transform="matrix(0.707107,-0.707107,0.707107,0.707107,-351.444,125.508)">
        <rect x="184.1" y="233.984" width="98.094" height="98.094" style="fill:rgb(176,176,176);fill-opacity:0.5;"/>
    </g>
    <g transform="matrix(0.707107,-0.707107,0.707107,0.707107,-212.718,264.234)">
        <rect x="184.1" y="233.984" width="98.094" height="98.094" style="fill:rgb(176,176,176);fill-opacity:0.5;"/>
    </g>
    <g transform="matrix(0.707107,-0.707107,0.707107,0.707107,-351.444,264.234)">
        <rect x="184.1" y="233.984" width="98.094" height="98.094" style="fill:rgb(176,176,176);fill-opacity:0.5;"/>
    </g>
    <g transform="matrix(0.707107,-0.707107,0.707107,0.707107,-351.444,-13.2176)">
        <rect x="184.1" y="233.984" width="98.094" height="98.094" style="fill:rgb(176,176,176);fill-opacity:0.5;"/>
    </g>
    <g transform="matrix(0.707107,-0.707107,0.707107,0.707107,-143.355,56.1452)">
        <rect x="184.1" y="233.984" width="98.094" height="98.094" style="fill:rgb(80,178,223);"/>
    </g>
    <g transform="matrix(0.707107,-0.707107,0.707107,0.707107,-143.355,194.871)">
        <rect x="184.1" y="233.984" width="98.094" height="98.094" style="fill:rgb(80,178,223);"/>
    </g>
    <g transform="matrix(0.707107,-0.707107,0.707107,0.707107,-73.9922,125.508)">
        <rect x="184.1" y="233.984" width="98.094" height="98.094" style="fill:rgb(2,161,215);"/>
    </g>
    <path d="M152.291,211.378L0,59.087L0,77.869L152.275,230.144L152.291,230.128L152.307,230.144L221.85,160.601L291.394,230.144L300.785,220.753L222.062,142.031L221.85,142.243L221.638,142.031L152.291,211.378Z" style="fill:rgb(255,209,62);"/>
    <path d="M528.64 196.64L528.64 196.64Q528.64 216.66 518.53 227.31Q508.42 237.95 489.38 237.95L489.38 237.95Q470.73 237.95 457.64 230.63L457.64 230.63L457.64 204.36Q473.66 214.81 487.04 214.81L487.04 214.81Q494.65 214.81 498.51 210.61Q502.37 206.41 502.37 199.18L502.37 199.18Q502.37 192.05 497.78 186.15Q493.19 180.24 482.64 173.01L482.64 173.01Q473.46 166.66 468.72 160.85Q463.99 155.04 461.40 147.82Q458.81 140.59 458.81 131.02L458.81 131.02Q458.81 112.66 469.02 101.92Q479.22 91.18 496.41 91.18L496.41 91.18Q512.82 91.18 527.95 100.36L527.95 100.36L519.16 121.64Q514.48 118.91 509.35 116.76Q504.22 114.61 498.36 114.61L498.36 114.61Q491.92 114.61 488.45 118.86Q484.98 123.11 484.98 130.43L484.98 130.43Q484.98 137.66 489.13 143.03Q493.29 148.40 503.64 155.24L503.64 155.24Q517.60 164.61 523.12 174.38Q528.64 184.14 528.64 196.64Z" fill="#FFFFFF"/><path d="M589.18 180.43L607.64 93.23L634.40 93.23L600.80 236L567.02 236L533.62 93.23L560.38 93.23L579.03 180.43Q581.57 191.57 584.01 212.37L584.01 212.37Q586.06 194.69 589.18 180.43L589.18 180.43Z" fill="#FFFFFF"/><path d="M687.13 180.24L687.13 156.80L730.79 156.80L730.79 230.04Q712.23 237.95 691.33 237.95L691.33 237.95Q666.43 237.95 653.00 219.01Q639.57 200.06 639.57 164.42L639.57 164.42Q639.57 130.04 654.96 110.61Q670.34 91.18 697.97 91.18L697.97 91.18Q715.06 91.18 730.59 99.96L730.59 99.96L722.19 121.64Q710.08 114.61 699.54 114.61L699.54 114.61Q684.40 114.61 675.56 128.14Q666.72 141.66 666.72 165.00L666.72 165.00Q666.72 189.03 673.12 201.82Q679.52 214.61 691.72 214.61L691.72 214.61Q698.17 214.61 704.81 212.95L704.81 212.95L704.81 180.24L687.13 180.24Z" fill="#FFFFFF"/><path d="M799.93 114.42L799.93 114.42Q788.50 114.42 781.91 127.80Q775.32 141.18 775.32 165.00L775.32 165.00Q775.32 214.61 801.20 214.61L801.20 214.61Q812.52 214.61 824.93 207.39L824.93 207.39L824.93 231.02Q814.48 237.95 798.17 237.95L798.17 237.95Q774.05 237.95 761.11 218.76Q748.17 199.57 748.17 164.81L748.17 164.81Q748.17 130.04 761.50 110.61Q774.83 91.18 798.56 91.18L798.56 91.18Q806.37 91.18 813.55 93.32Q820.73 95.47 828.93 100.84L828.93 100.84L820.14 122.43Q815.75 119.40 810.77 116.91Q805.79 114.42 799.93 114.42Z" fill="#FFFFFF"/><path d="M933.32 93.23L933.32 236L906.76 236L906.76 173.40L871.70 173.40L871.70 236L845.14 236L845.14 93.23L871.70 93.23L871.70 149.96L906.76 149.96L906.76 93.23L933.32 93.23Z" fill="#FFFFFF"/><path d="M1022.88 212.76L1022.88 236L958.52 236L958.52 93.23L1022.88 93.23L1022.88 116.18L985.08 116.18L985.08 150.16L1020.14 150.16L1020.14 173.21L985.08 173.21L985.08 212.76L1022.88 212.76Z" fill="#FFFFFF"/><path d="M1091.04 114.42L1091.04 114.42Q1079.61 114.42 1073.02 127.80Q1066.43 141.18 1066.43 165.00L1066.43 165.00Q1066.43 214.61 1092.31 214.61L1092.31 214.61Q1103.64 214.61 1116.04 207.39L1116.04 207.39L1116.04 231.02Q1105.59 237.95 1089.28 237.95L1089.28 237.95Q1065.16 237.95 1052.22 218.76Q1039.28 199.57 1039.28 164.81L1039.28 164.81Q1039.28 130.04 1052.61 110.61Q1065.94 91.18 1089.67 91.18L1089.67 91.18Q1097.48 91.18 1104.66 93.32Q1111.84 95.47 1120.04 100.84L1120.04 100.84L1111.25 122.43Q1106.86 119.40 1101.88 116.91Q1096.90 114.42 1091.04 114.42Z" fill="#FFFFFF"/><path d="M1191.82 155.04L1225.22 236L1196.90 236L1173.46 174.96L1162.82 185.61L1162.82 236L1136.25 236L1136.25 93.23L1162.82 93.23L1162.82 164.03L1172.09 142.64L1196.41 93.23L1224.83 93.23L1191.82 155.04Z" fill="#FFFFFF"/><path d="M527.64 195.64L527.64 195.64Q527.64 215.66 517.53 226.31Q507.42 236.95 488.38 236.95L488.38 236.95Q469.73 236.95 456.64 229.63L456.64 229.63L456.64 203.36Q472.66 213.81 486.04 213.81L486.04 213.81Q493.65 213.81 497.51 209.61Q501.37 205.41 501.37 198.18L501.37 198.18Q501.37 191.05 496.78 185.15Q492.19 179.24 481.64 172.01L481.64 172.01Q472.46 165.66 467.72 159.85Q462.99 154.04 460.40 146.82Q457.81 139.59 457.81 130.02L457.81 130.02Q457.81 111.66 468.02 100.92Q478.22 90.18 495.41 90.18L495.41 90.18Q511.82 90.18 526.95 99.36L526.95 99.36L518.16 120.64Q513.48 117.91 508.35 115.76Q503.22 113.61 497.36 113.61L497.36 113.61Q490.92 113.61 487.45 117.86Q483.98 122.11 483.98 129.43L483.98 129.43Q483.98 136.66 488.13 142.03Q492.29 147.40 502.64 154.24L502.64 154.24Q516.60 163.61 522.12 173.38Q527.64 183.14 527.64 195.64Z" fill="#002D3C"/><path d="M588.18 179.43L606.64 92.23L633.40 92.23L599.80 235L566.02 235L532.62 92.23L559.38 92.23L578.03 179.43Q580.57 190.57 583.01 211.37L583.01 211.37Q585.06 193.69 588.18 179.43L588.18 179.43Z" fill="#002D3C"/><path d="M686.13 179.24L686.13 155.80L729.79 155.80L729.79 229.04Q711.23 236.95 690.33 236.95L690.33 236.95Q665.43 236.95 652.00 218.01Q638.57 199.06 638.57 163.42L638.57 163.42Q638.57 129.04 653.96 109.61Q669.34 90.18 696.97 90.18L696.97 90.18Q714.06 90.18 729.59 98.96L729.59 98.96L721.19 120.64Q709.08 113.61 698.54 113.61L698.54 113.61Q683.40 113.61 674.56 127.14Q665.72 140.66 665.72 164.00L665.72 164.00Q665.72 188.03 672.12 200.82Q678.52 213.61 690.72 213.61L690.72 213.61Q697.17 213.61 703.81 211.95L703.81 211.95L703.81 179.24L686.13 179.24Z" fill="#002D3C"/><path d="M798.93 113.42L798.93 113.42Q787.50 113.42 780.91 126.80Q774.32 140.18 774.32 164.00L774.32 164.00Q774.32 213.61 800.20 213.61L800.20 213.61Q811.52 213.61 823.93 206.39L823.93 206.39L823.93 230.02Q813.48 236.95 797.17 236.95L797.17 236.95Q773.05 236.95 760.11 217.76Q747.17 198.57 747.17 163.81L747.17 163.81Q747.17 129.04 760.50 109.61Q773.83 90.18 797.56 90.18L797.56 90.18Q805.37 90.18 812.55 92.32Q819.73 94.47 827.93 99.84L827.93 99.84L819.14 121.43Q814.75 118.40 809.77 115.91Q804.79 113.42 798.93 113.42Z" fill="#002D3C"/><path d="M932.32 92.23L932.32 235L905.76 235L905.76 172.40L870.70 172.40L870.70 235L844.14 235L844.14 92.23L870.70 92.23L870.70 148.96L905.76 148.96L905.76 92.23L932.32 92.23Z" fill="#002D3C"/><path d="M1021.88 211.76L1021.88 235L957.52 235L957.52 92.23L1021.88 92.23L1021.88 115.18L984.08 115.18L984.08 149.16L1019.14 149.16L1019.14 172.21L984.08 172.21L984.08 211.76L1021.88 211.76Z" fill="#002D3C"/><path d="M1090.04 113.42L1090.04 113.42Q1078.61 113.42 1072.02 126.80Q1065.43 140.18 1065.43 164.00L1065.43 164.00Q1065.43 213.61 1091.31 213.61L1091.31 213.61Q1102.64 213.61 1115.04 206.39L1115.04 206.39L1115.04 230.02Q1104.59 236.95 1088.28 236.95L1088.28 236.95Q1064.16 236.95 1051.22 217.76Q1038.28 198.57 1038.28 163.81L1038.28 163.81Q1038.28 129.04 1051.61 109.61Q1064.94 90.18 1088.67 90.18L1088.67 90.18Q1096.48 90.18 1103.66 92.32Q1110.84 94.47 1119.04 99.84L1119.04 99.84L1110.25 121.43Q1105.86 118.40 1100.88 115.91Q1095.90 113.42 1090.04 113.42Z" fill="#002D3C"/><path d="M1190.82 154.04L1224.22 235L1195.90 235L1172.46 173.96L1161.82 184.61L1161.82 235L1135.25 235L1135.25 92.23L1161.82 92.23L1161.82 163.03L1171.09 141.64L1195.41 92.23L1223.83 92.23L1190.82 154.04Z" fill="#002D3C"/>
</svg>
