<?xml version="1.0" encoding="UTF-8" standalone="no"?>
<!DOCTYPE svg PUBLIC "-//W3C//DTD SVG 1.1//EN" "http://www.w3.org/Graphics/SVG/1.1/DTD/svg11.dtd">
<svg width="100%" height="100%" viewBox="0 0 2052.7578125 330" version="1.1" xmlns="http://www.w3.org/2000/svg" xmlns:xlink="http://www.w3.org/1999/xlink" xml:space="preserve" xmlns:serif="http://www.serif.com/" style="fill-rule:evenodd;clip-rule:evenodd;stroke-linejoin:round;stroke-miterlimit:2;">
    <path d="M82.912,22.056l-69.362,69.362l69.362,69.363l69.363,-69.363l-69.363,-69.362Z" style="fill:rgb(176,176,176);"/>
    <path d="M82.912,160.781l-69.362,69.363l69.362,69.363l69.363,-69.363l-69.363,-69.363Z" style="fill:rgb(176,176,176);"/>
    <path d="M199.583,0l-94.615,0l-22.056,22.056l69.363,69.362l69.363,-69.362l-22.055,-22.056Z" style="fill:rgb(176,176,176);fill-opacity:0.5;"/>
    <path d="M113.02,329.614l78.511,0l30.107,-30.107l-69.363,-69.363l-69.363,69.363l30.108,30.107Z" style="fill:rgb(176,176,176);fill-opacity:0.5;"/>
    <path d="M0,0l0,77.869l13.55,13.549l69.362,-69.362l-22.055,-22.056l-60.857,-0Z" style="fill:rgb(176,176,176);fill-opacity:0.5;"/>
    <path d="M13.55,368.87l-1.598,-1.597l3.195,-0l-1.597,1.597Zm-13.55,-125.176l0,85.92l52.805,0l30.107,-30.107l-69.362,-69.363l-13.55,13.55Z" style="fill:rgb(176,176,176);fill-opacity:0.5;"/>
    <path d="M0,104.968l0,111.627l13.55,13.549l69.362,-69.363l-69.362,-69.363l-13.55,13.55Z" style="fill:rgb(176,176,176);fill-opacity:0.5;"/>
    <path d="M152.275,91.418l-69.363,69.363l69.363,69.363l69.363,-69.363l-69.363,-69.363Z" style="fill:#4C734E;"/>
    <path d="M221.638,22.056l-69.363,69.362l69.363,69.363l69.363,-69.363l-69.363,-69.362Z" style="fill:#93BF95;"/>
    <path d="M221.638,160.781l-69.363,69.363l69.363,69.363l69.363,-69.363l-69.363,-69.363Z" style="fill:#93BF95;"/>
    <path d="M291.001,91.418l-69.363,69.363l69.363,69.363l69.363,-69.363l-69.363,-69.363Z" style="fill:#4CAF50;"/>
    <path d="M152.291,110.184l-152.291,152.291l0,-18.781l152.275,-152.276l0.016,0.016l0.016,-0.016l69.543,69.544l69.544,-69.544l9.391,9.391l-78.723,78.722l-0.212,-0.212l-0.212,0.212l-69.347,-69.347Z" style="fill:rgb(255,209,62);"/>
    <path d="M507.45 116.57L507.45 236L480.98 236L480.98 116.57L453.64 116.57L453.64 93.23L534.79 93.23L534.79 116.57L507.45 116.57Z" fill="#FFFFFF"/><path d="M645.63 164.42L645.63 164.42Q645.63 199.87 632.35 218.91Q619.07 237.95 594.36 237.95L594.36 237.95Q569.55 237.95 556.27 218.96Q542.99 199.96 542.99 164.22L542.99 164.22Q542.99 128.77 556.27 109.88Q569.55 90.98 594.55 90.98L594.55 90.98Q619.26 90.98 632.45 109.97Q645.63 128.97 645.63 164.42ZM570.14 164.42L570.14 164.42Q570.14 188.83 576.29 201.63Q582.45 214.42 594.36 214.42L594.36 214.42Q618.38 214.42 618.38 164.42L618.38 164.42Q618.38 114.42 594.55 114.42L594.55 114.42Q582.45 114.42 576.29 127.16Q570.14 139.91 570.14 164.42Z" fill="#FFFFFF"/><path d="M764.67 164.42L764.67 164.42Q764.67 199.87 751.39 218.91Q738.11 237.95 713.40 237.95L713.40 237.95Q688.60 237.95 675.32 218.96Q662.04 199.96 662.04 164.22L662.04 164.22Q662.04 128.77 675.32 109.88Q688.60 90.98 713.60 90.98L713.60 90.98Q738.30 90.98 751.49 109.97Q764.67 128.97 764.67 164.42ZM689.18 164.42L689.18 164.42Q689.18 188.83 695.34 201.63Q701.49 214.42 713.40 214.42L713.40 214.42Q737.43 214.42 737.43 164.42L737.43 164.42Q737.43 114.42 713.60 114.42L713.60 114.42Q701.49 114.42 695.34 127.16Q689.18 139.91 689.18 164.42Z" fill="#FFFFFF"/><path d="M848.85 236L785.47 236L785.47 93.23L812.04 93.23L812.04 212.76L848.85 212.76L848.85 236Z" fill="#FFFFFF"/><path d="M930.88 196.64L930.88 196.64Q930.88 216.66 920.78 227.31Q910.67 237.95 891.63 237.95L891.63 237.95Q872.97 237.95 859.89 230.63L859.89 230.63L859.89 204.36Q875.90 214.81 889.28 214.81L889.28 214.81Q896.90 214.81 900.76 210.61Q904.61 206.41 904.61 199.18L904.61 199.18Q904.61 192.05 900.02 186.15Q895.43 180.24 884.89 173.01L884.89 173.01Q875.71 166.66 870.97 160.85Q866.23 155.04 863.65 147.82Q861.06 140.59 861.06 131.02L861.06 131.02Q861.06 112.66 871.26 101.92Q881.47 91.18 898.66 91.18L898.66 91.18Q915.06 91.18 930.20 100.36L930.20 100.36L921.41 121.64Q916.72 118.91 911.60 116.76Q906.47 114.61 900.61 114.61L900.61 114.61Q894.16 114.61 890.70 118.86Q887.23 123.11 887.23 130.43L887.23 130.43Q887.23 137.66 891.38 143.03Q895.53 148.40 905.88 155.24L905.88 155.24Q919.85 164.61 925.37 174.38Q930.88 184.14 930.88 196.64Z" fill="#FFFFFF"/><path d="" fill="#FFFFFF"/><path d="M1141.92 93.23L1116.23 236L1083.03 236L1069.07 161.20Q1065.84 145.86 1064.48 124.96L1064.48 124.96L1063.70 132.19L1059.69 161.59L1046.12 236L1012.91 236L987.04 93.23L1013.11 93.23L1025.90 173.79Q1027.76 185.90 1030.88 211.78L1030.88 211.78Q1033.32 185.61 1035.47 174.38L1035.47 174.38L1050.71 93.23L1078.25 93.23L1093.48 174.38Q1096.51 192.45 1098.27 211.98L1098.27 211.98Q1101.68 183.07 1103.25 173.79L1103.25 173.79L1115.65 93.23L1141.92 93.23Z" fill="#FFFFFF"/><path d="M1254.52 164.42L1254.52 164.42Q1254.52 199.87 1241.23 218.91Q1227.95 237.95 1203.25 237.95L1203.25 237.95Q1178.44 237.95 1165.16 218.96Q1151.88 199.96 1151.88 164.22L1151.88 164.22Q1151.88 128.77 1165.16 109.88Q1178.44 90.98 1203.44 90.98L1203.44 90.98Q1228.15 90.98 1241.33 109.97Q1254.52 128.97 1254.52 164.42ZM1179.03 164.42L1179.03 164.42Q1179.03 188.83 1185.18 201.63Q1191.33 214.42 1203.25 214.42L1203.25 214.42Q1227.27 214.42 1227.27 164.42L1227.27 164.42Q1227.27 114.42 1203.44 114.42L1203.44 114.42Q1191.33 114.42 1185.18 127.16Q1179.03 139.91 1179.03 164.42Z" fill="#FFFFFF"/><path d="M1311.35 180.43L1301.88 180.43L1301.88 236L1275.32 236L1275.32 93.23L1310.08 93.23Q1332.15 93.23 1342.65 103.68Q1353.15 114.13 1353.15 135.61L1353.15 135.61Q1353.15 162.66 1334.89 173.40L1334.89 173.40L1362.33 236L1333.91 236L1311.35 180.43ZM1301.88 116.18L1301.88 157.58L1308.71 157.58Q1318.09 157.58 1322.19 152.26Q1326.29 146.94 1326.29 136.39L1326.29 136.39Q1326.29 125.45 1321.95 120.81Q1317.60 116.18 1308.52 116.18L1308.52 116.18L1301.88 116.18Z" fill="#FFFFFF"/><path d="M1430.88 155.04L1464.28 236L1435.96 236L1412.52 174.96L1401.88 185.61L1401.88 236L1375.32 236L1375.32 93.23L1401.88 93.23L1401.88 164.03L1411.16 142.64L1435.47 93.23L1463.89 93.23L1430.88 155.04Z" fill="#FFFFFF"/><path d="M1541.92 196.64L1541.92 196.64Q1541.92 216.66 1531.81 227.31Q1521.70 237.95 1502.66 237.95L1502.66 237.95Q1484.01 237.95 1470.92 230.63L1470.92 230.63L1470.92 204.36Q1486.94 214.81 1500.32 214.81L1500.32 214.81Q1507.93 214.81 1511.79 210.61Q1515.65 206.41 1515.65 199.18L1515.65 199.18Q1515.65 192.05 1511.06 186.15Q1506.47 180.24 1495.92 173.01L1495.92 173.01Q1486.74 166.66 1482.01 160.85Q1477.27 155.04 1474.68 147.82Q1472.09 140.59 1472.09 131.02L1472.09 131.02Q1472.09 112.66 1482.30 101.92Q1492.50 91.18 1509.69 91.18L1509.69 91.18Q1526.10 91.18 1541.23 100.36L1541.23 100.36L1532.45 121.64Q1527.76 118.91 1522.63 116.76Q1517.50 114.61 1511.64 114.61L1511.64 114.61Q1505.20 114.61 1501.73 118.86Q1498.27 123.11 1498.27 130.43L1498.27 130.43Q1498.27 137.66 1502.42 143.03Q1506.57 148.40 1516.92 155.24L1516.92 155.24Q1530.88 164.61 1536.40 174.38Q1541.92 184.14 1541.92 196.64Z" fill="#FFFFFF"/><path d="M1647.68 93.23L1647.68 236L1621.12 236L1621.12 173.40L1586.06 173.40L1586.06 236L1559.50 236L1559.50 93.23L1586.06 93.23L1586.06 149.96L1621.12 149.96L1621.12 93.23L1647.68 93.23Z" fill="#FFFFFF"/><path d="M1771.12 164.42L1771.12 164.42Q1771.12 199.87 1757.84 218.91Q1744.55 237.95 1719.85 237.95L1719.85 237.95Q1695.04 237.95 1681.76 218.96Q1668.48 199.96 1668.48 164.22L1668.48 164.22Q1668.48 128.77 1681.76 109.88Q1695.04 90.98 1720.04 90.98L1720.04 90.98Q1744.75 90.98 1757.93 109.97Q1771.12 128.97 1771.12 164.42ZM1695.63 164.42L1695.63 164.42Q1695.63 188.83 1701.78 201.63Q1707.93 214.42 1719.85 214.42L1719.85 214.42Q1743.87 214.42 1743.87 164.42L1743.87 164.42Q1743.87 114.42 1720.04 114.42L1720.04 114.42Q1707.93 114.42 1701.78 127.16Q1695.63 139.91 1695.63 164.42Z" fill="#FFFFFF"/><path d="M1869.75 137.17L1869.75 137.17Q1869.75 159.93 1858.28 172.08Q1846.80 184.24 1825.12 184.24L1825.12 184.24L1818.48 184.24L1818.48 236L1791.92 236L1791.92 93.23L1828.15 93.23Q1869.75 93.23 1869.75 137.17ZM1818.48 116.18L1818.48 161.20L1823.56 161.20Q1833.32 161.20 1838.11 155.82Q1842.89 150.45 1842.89 138.25L1842.89 138.25Q1842.89 127.02 1838.50 121.60Q1834.11 116.18 1824.93 116.18L1824.93 116.18L1818.48 116.18Z" fill="#FFFFFF"/><path d="M1952.76 196.64L1952.76 196.64Q1952.76 216.66 1942.65 227.31Q1932.54 237.95 1913.50 237.95L1913.50 237.95Q1894.85 237.95 1881.76 230.63L1881.76 230.63L1881.76 204.36Q1897.78 214.81 1911.16 214.81L1911.16 214.81Q1918.77 214.81 1922.63 210.61Q1926.49 206.41 1926.49 199.18L1926.49 199.18Q1926.49 192.05 1921.90 186.15Q1917.31 180.24 1906.76 173.01L1906.76 173.01Q1897.58 166.66 1892.85 160.85Q1888.11 155.04 1885.52 147.82Q1882.93 140.59 1882.93 131.02L1882.93 131.02Q1882.93 112.66 1893.14 101.92Q1903.34 91.18 1920.53 91.18L1920.53 91.18Q1936.94 91.18 1952.07 100.36L1952.07 100.36L1943.29 121.64Q1938.60 118.91 1933.47 116.76Q1928.34 114.61 1922.48 114.61L1922.48 114.61Q1916.04 114.61 1912.57 118.86Q1909.11 123.11 1909.11 130.43L1909.11 130.43Q1909.11 137.66 1913.26 143.03Q1917.41 148.40 1927.76 155.24L1927.76 155.24Q1941.72 164.61 1947.24 174.38Q1952.76 184.14 1952.76 196.64Z" fill="#FFFFFF"/><path d="M506.45 115.57L506.45 235L479.98 235L479.98 115.57L452.64 115.57L452.64 92.23L533.79 92.23L533.79 115.57L506.45 115.57Z" fill="url(#TextGradient)"/><path d="M644.63 163.42L644.63 163.42Q644.63 198.87 631.35 217.91Q618.07 236.95 593.36 236.95L593.36 236.95Q568.55 236.95 555.27 217.96Q541.99 198.96 541.99 163.22L541.99 163.22Q541.99 127.77 555.27 108.88Q568.55 89.98 593.55 89.98L593.55 89.98Q618.26 89.98 631.45 108.97Q644.63 127.97 644.63 163.42ZM569.14 163.42L569.14 163.42Q569.14 187.83 575.29 200.63Q581.45 213.42 593.36 213.42L593.36 213.42Q617.38 213.42 617.38 163.42L617.38 163.42Q617.38 113.42 593.55 113.42L593.55 113.42Q581.45 113.42 575.29 126.16Q569.14 138.91 569.14 163.42Z" fill="url(#TextGradient)"/><path d="M763.67 163.42L763.67 163.42Q763.67 198.87 750.39 217.91Q737.11 236.95 712.40 236.95L712.40 236.95Q687.60 236.95 674.32 217.96Q661.04 198.96 661.04 163.22L661.04 163.22Q661.04 127.77 674.32 108.88Q687.60 89.98 712.60 89.98L712.60 89.98Q737.30 89.98 750.49 108.97Q763.67 127.97 763.67 163.42ZM688.18 163.42L688.18 163.42Q688.18 187.83 694.34 200.63Q700.49 213.42 712.40 213.42L712.40 213.42Q736.43 213.42 736.43 163.42L736.43 163.42Q736.43 113.42 712.60 113.42L712.60 113.42Q700.49 113.42 694.34 126.16Q688.18 138.91 688.18 163.42Z" fill="url(#TextGradient)"/><path d="M847.85 235L784.47 235L784.47 92.23L811.04 92.23L811.04 211.76L847.85 211.76L847.85 235Z" fill="url(#TextGradient)"/><path d="M929.88 195.64L929.88 195.64Q929.88 215.66 919.78 226.31Q909.67 236.95 890.63 236.95L890.63 236.95Q871.97 236.95 858.89 229.63L858.89 229.63L858.89 203.36Q874.90 213.81 888.28 213.81L888.28 213.81Q895.90 213.81 899.76 209.61Q903.61 205.41 903.61 198.18L903.61 198.18Q903.61 191.05 899.02 185.15Q894.43 179.24 883.89 172.01L883.89 172.01Q874.71 165.66 869.97 159.85Q865.23 154.04 862.65 146.82Q860.06 139.59 860.06 130.02L860.06 130.02Q860.06 111.66 870.26 100.92Q880.47 90.18 897.66 90.18L897.66 90.18Q914.06 90.18 929.20 99.36L929.20 99.36L920.41 120.64Q915.72 117.91 910.60 115.76Q905.47 113.61 899.61 113.61L899.61 113.61Q893.16 113.61 889.70 117.86Q886.23 122.11 886.23 129.43L886.23 129.43Q886.23 136.66 890.38 142.03Q894.53 147.40 904.88 154.24L904.88 154.24Q918.85 163.61 924.37 173.38Q929.88 183.14 929.88 195.64Z" fill="url(#TextGradient)"/><path d="" fill="url(#TextGradient)"/><path d="M1140.92 92.23L1115.23 235L1082.03 235L1068.07 160.20Q1064.84 144.86 1063.48 123.96L1063.48 123.96L1062.70 131.19L1058.69 160.59L1045.12 235L1011.91 235L986.04 92.23L1012.11 92.23L1024.90 172.79Q1026.76 184.90 1029.88 210.78L1029.88 210.78Q1032.32 184.61 1034.47 173.38L1034.47 173.38L1049.71 92.23L1077.25 92.23L1092.48 173.38Q1095.51 191.45 1097.27 210.98L1097.27 210.98Q1100.68 182.07 1102.25 172.79L1102.25 172.79L1114.65 92.23L1140.92 92.23Z" fill="url(#TextGradient)"/><path d="M1253.52 163.42L1253.52 163.42Q1253.52 198.87 1240.23 217.91Q1226.95 236.95 1202.25 236.95L1202.25 236.95Q1177.44 236.95 1164.16 217.96Q1150.88 198.96 1150.88 163.22L1150.88 163.22Q1150.88 127.77 1164.16 108.88Q1177.44 89.98 1202.44 89.98L1202.44 89.98Q1227.15 89.98 1240.33 108.97Q1253.52 127.97 1253.52 163.42ZM1178.03 163.42L1178.03 163.42Q1178.03 187.83 1184.18 200.63Q1190.33 213.42 1202.25 213.42L1202.25 213.42Q1226.27 213.42 1226.27 163.42L1226.27 163.42Q1226.27 113.42 1202.44 113.42L1202.44 113.42Q1190.33 113.42 1184.18 126.16Q1178.03 138.91 1178.03 163.42Z" fill="url(#TextGradient)"/><path d="M1310.35 179.43L1300.88 179.43L1300.88 235L1274.32 235L1274.32 92.23L1309.08 92.23Q1331.15 92.23 1341.65 102.68Q1352.15 113.13 1352.15 134.61L1352.15 134.61Q1352.15 161.66 1333.89 172.40L1333.89 172.40L1361.33 235L1332.91 235L1310.35 179.43ZM1300.88 115.18L1300.88 156.58L1307.71 156.58Q1317.09 156.58 1321.19 151.26Q1325.29 145.94 1325.29 135.39L1325.29 135.39Q1325.29 124.45 1320.95 119.81Q1316.60 115.18 1307.52 115.18L1307.52 115.18L1300.88 115.18Z" fill="url(#TextGradient)"/><path d="M1429.88 154.04L1463.28 235L1434.96 235L1411.52 173.96L1400.88 184.61L1400.88 235L1374.32 235L1374.32 92.23L1400.88 92.23L1400.88 163.03L1410.16 141.64L1434.47 92.23L1462.89 92.23L1429.88 154.04Z" fill="url(#TextGradient)"/><path d="M1540.92 195.64L1540.92 195.64Q1540.92 215.66 1530.81 226.31Q1520.70 236.95 1501.66 236.95L1501.66 236.95Q1483.01 236.95 1469.92 229.63L1469.92 229.63L1469.92 203.36Q1485.94 213.81 1499.32 213.81L1499.32 213.81Q1506.93 213.81 1510.79 209.61Q1514.65 205.41 1514.65 198.18L1514.65 198.18Q1514.65 191.05 1510.06 185.15Q1505.47 179.24 1494.92 172.01L1494.92 172.01Q1485.74 165.66 1481.01 159.85Q1476.27 154.04 1473.68 146.82Q1471.09 139.59 1471.09 130.02L1471.09 130.02Q1471.09 111.66 1481.30 100.92Q1491.50 90.18 1508.69 90.18L1508.69 90.18Q1525.10 90.18 1540.23 99.36L1540.23 99.36L1531.45 120.64Q1526.76 117.91 1521.63 115.76Q1516.50 113.61 1510.64 113.61L1510.64 113.61Q1504.20 113.61 1500.73 117.86Q1497.27 122.11 1497.27 129.43L1497.27 129.43Q1497.27 136.66 1501.42 142.03Q1505.57 147.40 1515.92 154.24L1515.92 154.24Q1529.88 163.61 1535.40 173.38Q1540.92 183.14 1540.92 195.64Z" fill="url(#TextGradient)"/><path d="M1646.68 92.23L1646.68 235L1620.12 235L1620.12 172.40L1585.06 172.40L1585.06 235L1558.50 235L1558.50 92.23L1585.06 92.23L1585.06 148.96L1620.12 148.96L1620.12 92.23L1646.68 92.23Z" fill="url(#TextGradient)"/><path d="M1770.12 163.42L1770.12 163.42Q1770.12 198.87 1756.84 217.91Q1743.55 236.95 1718.85 236.95L1718.85 236.95Q1694.04 236.95 1680.76 217.96Q1667.48 198.96 1667.48 163.22L1667.48 163.22Q1667.48 127.77 1680.76 108.88Q1694.04 89.98 1719.04 89.98L1719.04 89.98Q1743.75 89.98 1756.93 108.97Q1770.12 127.97 1770.12 163.42ZM1694.63 163.42L1694.63 163.42Q1694.63 187.83 1700.78 200.63Q1706.93 213.42 1718.85 213.42L1718.85 213.42Q1742.87 213.42 1742.87 163.42L1742.87 163.42Q1742.87 113.42 1719.04 113.42L1719.04 113.42Q1706.93 113.42 1700.78 126.16Q1694.63 138.91 1694.63 163.42Z" fill="url(#TextGradient)"/><path d="M1868.75 136.17L1868.75 136.17Q1868.75 158.93 1857.28 171.08Q1845.80 183.24 1824.12 183.24L1824.12 183.24L1817.48 183.24L1817.48 235L1790.92 235L1790.92 92.23L1827.15 92.23Q1868.75 92.23 1868.75 136.17ZM1817.48 115.18L1817.48 160.20L1822.56 160.20Q1832.32 160.20 1837.11 154.82Q1841.89 149.45 1841.89 137.25L1841.89 137.25Q1841.89 126.02 1837.50 120.60Q1833.11 115.18 1823.93 115.18L1823.93 115.18L1817.48 115.18Z" fill="url(#TextGradient)"/><path d="M1951.76 195.64L1951.76 195.64Q1951.76 215.66 1941.65 226.31Q1931.54 236.95 1912.50 236.95L1912.50 236.95Q1893.85 236.95 1880.76 229.63L1880.76 229.63L1880.76 203.36Q1896.78 213.81 1910.16 213.81L1910.16 213.81Q1917.77 213.81 1921.63 209.61Q1925.49 205.41 1925.49 198.18L1925.49 198.18Q1925.49 191.05 1920.90 185.15Q1916.31 179.24 1905.76 172.01L1905.76 172.01Q1896.58 165.66 1891.85 159.85Q1887.11 154.04 1884.52 146.82Q1881.93 139.59 1881.93 130.02L1881.93 130.02Q1881.93 111.66 1892.14 100.92Q1902.34 90.18 1919.53 90.18L1919.53 90.18Q1935.94 90.18 1951.07 99.36L1951.07 99.36L1942.29 120.64Q1937.60 117.91 1932.47 115.76Q1927.34 113.61 1921.48 113.61L1921.48 113.61Q1915.04 113.61 1911.57 117.86Q1908.11 122.11 1908.11 129.43L1908.11 129.43Q1908.11 136.66 1912.26 142.03Q1916.41 147.40 1926.76 154.24L1926.76 154.24Q1940.72 163.61 1946.24 173.38Q1951.76 183.14 1951.76 195.64Z" fill="url(#TextGradient)"/>
    <defs>
        <linearGradient id="TextGradient" x1="0" y1="0" x2="0" y2="1">
            <stop offset="0" style="stop-color:#414141;stop-opacity:1"/>
            <stop offset="1" style="stop-color:#4CAF50;stop-opacity:1"/>
        </linearGradient>
    </defs>
</svg>
