<?xml version="1.0" encoding="UTF-8" standalone="no"?>
<!DOCTYPE svg PUBLIC "-//W3C//DTD SVG 1.1//EN" "http://www.w3.org/Graphics/SVG/1.1/DTD/svg11.dtd">
<svg width="100%" height="100%" viewBox="0 0 1603.9296875 330" version="1.1" xmlns="http://www.w3.org/2000/svg" xmlns:xlink="http://www.w3.org/1999/xlink" xml:space="preserve" xmlns:serif="http://www.serif.com/" style="fill-rule:evenodd;clip-rule:evenodd;stroke-linejoin:round;stroke-miterlimit:2;">
    <g transform="matrix(0.707107,-0.707107,0.707107,0.707107,-212.718,125.508)">
        <rect x="184.1" y="233.984" width="98.094" height="98.094" style="fill:rgb(11,140,197);"/>
    </g>
    <g transform="matrix(0.707107,-0.707107,0.707107,0.707107,-282.081,56.1452)">
        <rect x="184.1" y="233.984" width="98.094" height="98.094" style="fill:rgb(176,176,176);"/>
    </g>
    <g transform="matrix(0.707107,-0.707107,0.707107,0.707107,-282.081,194.871)">
        <rect x="184.1" y="233.984" width="98.094" height="98.094" style="fill:rgb(176,176,176);"/>
    </g>
    <g transform="matrix(0.707107,-0.707107,0.707107,0.707107,-212.718,-13.2176)">
        <rect x="184.1" y="233.984" width="98.094" height="98.094" style="fill:rgb(176,176,176);fill-opacity:0.5;"/>
    </g>
    <g transform="matrix(0.707107,-0.707107,0.707107,0.707107,-351.444,125.508)">
        <rect x="184.1" y="233.984" width="98.094" height="98.094" style="fill:rgb(176,176,176);fill-opacity:0.5;"/>
    </g>
    <g transform="matrix(0.707107,-0.707107,0.707107,0.707107,-212.718,264.234)">
        <rect x="184.1" y="233.984" width="98.094" height="98.094" style="fill:rgb(176,176,176);fill-opacity:0.5;"/>
    </g>
    <g transform="matrix(0.707107,-0.707107,0.707107,0.707107,-351.444,264.234)">
        <rect x="184.1" y="233.984" width="98.094" height="98.094" style="fill:rgb(176,176,176);fill-opacity:0.5;"/>
    </g>
    <g transform="matrix(0.707107,-0.707107,0.707107,0.707107,-351.444,-13.2176)">
        <rect x="184.1" y="233.984" width="98.094" height="98.094" style="fill:rgb(176,176,176);fill-opacity:0.5;"/>
    </g>
    <g transform="matrix(0.707107,-0.707107,0.707107,0.707107,-143.355,56.1452)">
        <rect x="184.1" y="233.984" width="98.094" height="98.094" style="fill:rgb(80,178,223);"/>
    </g>
    <g transform="matrix(0.707107,-0.707107,0.707107,0.707107,-143.355,194.871)">
        <rect x="184.1" y="233.984" width="98.094" height="98.094" style="fill:rgb(80,178,223);"/>
    </g>
    <g transform="matrix(0.707107,-0.707107,0.707107,0.707107,-73.9922,125.508)">
        <rect x="184.1" y="233.984" width="98.094" height="98.094" style="fill:rgb(2,161,215);"/>
    </g>
    <path d="M152.291,211.378L0,59.087L0,77.869L152.275,230.144L152.291,230.128L152.307,230.144L221.85,160.601L291.394,230.144L300.785,220.753L222.062,142.031L221.85,142.243L221.638,142.031L152.291,211.378Z" style="fill:rgb(255,209,62);"/>
    <path d="M607.64 93.23L581.96 236L548.75 236L534.79 161.20Q531.57 145.86 530.20 124.96L530.20 124.96L529.42 132.19L525.41 161.59L511.84 236L478.64 236L452.76 93.23L478.83 93.23L491.63 173.79Q493.48 185.90 496.61 211.78L496.61 211.78Q499.05 185.61 501.20 174.38L501.20 174.38L516.43 93.23L543.97 93.23L559.20 174.38Q562.23 192.45 563.99 211.98L563.99 211.98Q567.41 183.07 568.97 173.79L568.97 173.79L581.37 93.23L607.64 93.23Z" fill="#FFFFFF"/><path d="M713.21 236L686.55 236L678.34 199.96L641.14 199.96L632.93 236L606.37 236L641.72 92.64L677.76 92.64L713.21 236ZM646.41 176.43L673.36 176.43L665.75 143.23Q665.06 140.20 662.67 128.04Q660.28 115.88 659.79 111.78L659.79 111.78Q658.52 120.18 656.57 130.29Q654.61 140.39 646.41 176.43L646.41 176.43Z" fill="#FFFFFF"/><path d="M768.97 180.24L768.97 156.80L812.62 156.80L812.62 230.04Q794.07 237.95 773.17 237.95L773.17 237.95Q748.27 237.95 734.84 219.01Q721.41 200.06 721.41 164.42L721.41 164.42Q721.41 130.04 736.79 110.61Q752.17 91.18 779.81 91.18L779.81 91.18Q796.90 91.18 812.43 99.96L812.43 99.96L804.03 121.64Q791.92 114.61 781.37 114.61L781.37 114.61Q766.23 114.61 757.40 128.14Q748.56 141.66 748.56 165.00L748.56 165.00Q748.56 189.03 754.96 201.82Q761.35 214.61 773.56 214.61L773.56 214.61Q780.00 214.61 786.64 212.95L786.64 212.95L786.64 180.24L768.97 180.24Z" fill="#FFFFFF"/><path d="M878.25 116.57L878.25 236L851.78 236L851.78 116.57L824.44 116.57L824.44 93.23L905.59 93.23L905.59 116.57L878.25 116.57Z" fill="#FFFFFF"/><path d="M1008.23 236L981.57 236L973.36 199.96L936.16 199.96L927.95 236L901.39 236L936.74 92.64L972.78 92.64L1008.23 236ZM941.43 176.43L968.38 176.43L960.77 143.23Q960.08 140.20 957.69 128.04Q955.30 115.88 954.81 111.78L954.81 111.78Q953.54 120.18 951.59 130.29Q949.63 140.39 941.43 176.43L941.43 176.43Z" fill="#FFFFFF"/><path d="M1050.61 236L1025.61 236L1025.61 93.23L1050.61 93.23L1050.61 236Z" fill="#FFFFFF"/><path d="M1144.16 236L1080.79 236L1080.79 93.23L1107.35 93.23L1107.35 212.76L1144.16 212.76L1144.16 236Z" fill="#FFFFFF"/><path d="" fill="#FFFFFF"/><path d="M1275.61 196.64L1275.61 196.64Q1275.61 216.66 1265.50 227.31Q1255.39 237.95 1236.35 237.95L1236.35 237.95Q1217.70 237.95 1204.61 230.63L1204.61 230.63L1204.61 204.36Q1220.63 214.81 1234.01 214.81L1234.01 214.81Q1241.63 214.81 1245.48 210.61Q1249.34 206.41 1249.34 199.18L1249.34 199.18Q1249.34 192.05 1244.75 186.15Q1240.16 180.24 1229.61 173.01L1229.61 173.01Q1220.43 166.66 1215.70 160.85Q1210.96 155.04 1208.37 147.82Q1205.79 140.59 1205.79 131.02L1205.79 131.02Q1205.79 112.66 1215.99 101.92Q1226.20 91.18 1243.38 91.18L1243.38 91.18Q1259.79 91.18 1274.93 100.36L1274.93 100.36L1266.14 121.64Q1261.45 118.91 1256.32 116.76Q1251.20 114.61 1245.34 114.61L1245.34 114.61Q1238.89 114.61 1235.42 118.86Q1231.96 123.11 1231.96 130.43L1231.96 130.43Q1231.96 137.66 1236.11 143.03Q1240.26 148.40 1250.61 155.24L1250.61 155.24Q1264.57 164.61 1270.09 174.38Q1275.61 184.14 1275.61 196.64Z" fill="#FFFFFF"/><path d="M1322.97 236L1297.97 236L1297.97 93.23L1322.97 93.23L1322.97 236Z" fill="#FFFFFF"/><path d="M1397.00 116.57L1397.00 236L1370.53 236L1370.53 116.57L1343.19 116.57L1343.19 93.23L1424.34 93.23L1424.34 116.57L1397.00 116.57Z" fill="#FFFFFF"/><path d="M1503.93 212.76L1503.93 236L1439.57 236L1439.57 93.23L1503.93 93.23L1503.93 116.18L1466.14 116.18L1466.14 150.16L1501.20 150.16L1501.20 173.21L1466.14 173.21L1466.14 212.76L1503.93 212.76Z" fill="#FFFFFF"/><path d="M606.64 92.23L580.96 235L547.75 235L533.79 160.20Q530.57 144.86 529.20 123.96L529.20 123.96L528.42 131.19L524.41 160.59L510.84 235L477.64 235L451.76 92.23L477.83 92.23L490.63 172.79Q492.48 184.90 495.61 210.78L495.61 210.78Q498.05 184.61 500.20 173.38L500.20 173.38L515.43 92.23L542.97 92.23L558.20 173.38Q561.23 191.45 562.99 210.98L562.99 210.98Q566.41 182.07 567.97 172.79L567.97 172.79L580.37 92.23L606.64 92.23Z" fill="url(#TextGradient)"/><path d="M712.21 235L685.55 235L677.34 198.96L640.14 198.96L631.93 235L605.37 235L640.72 91.64L676.76 91.64L712.21 235ZM645.41 175.43L672.36 175.43L664.75 142.23Q664.06 139.20 661.67 127.04Q659.28 114.88 658.79 110.78L658.79 110.78Q657.52 119.18 655.57 129.29Q653.61 139.39 645.41 175.43L645.41 175.43Z" fill="url(#TextGradient)"/><path d="M767.97 179.24L767.97 155.80L811.62 155.80L811.62 229.04Q793.07 236.95 772.17 236.95L772.17 236.95Q747.27 236.95 733.84 218.01Q720.41 199.06 720.41 163.42L720.41 163.42Q720.41 129.04 735.79 109.61Q751.17 90.18 778.81 90.18L778.81 90.18Q795.90 90.18 811.43 98.96L811.43 98.96L803.03 120.64Q790.92 113.61 780.37 113.61L780.37 113.61Q765.23 113.61 756.40 127.14Q747.56 140.66 747.56 164.00L747.56 164.00Q747.56 188.03 753.96 200.82Q760.35 213.61 772.56 213.61L772.56 213.61Q779.00 213.61 785.64 211.95L785.64 211.95L785.64 179.24L767.97 179.24Z" fill="url(#TextGradient)"/><path d="M877.25 115.57L877.25 235L850.78 235L850.78 115.57L823.44 115.57L823.44 92.23L904.59 92.23L904.59 115.57L877.25 115.57Z" fill="url(#TextGradient)"/><path d="M1007.23 235L980.57 235L972.36 198.96L935.16 198.96L926.95 235L900.39 235L935.74 91.64L971.78 91.64L1007.23 235ZM940.43 175.43L967.38 175.43L959.77 142.23Q959.08 139.20 956.69 127.04Q954.30 114.88 953.81 110.78L953.81 110.78Q952.54 119.18 950.59 129.29Q948.63 139.39 940.43 175.43L940.43 175.43Z" fill="url(#TextGradient)"/><path d="M1049.61 235L1024.61 235L1024.61 92.23L1049.61 92.23L1049.61 235Z" fill="url(#TextGradient)"/><path d="M1143.16 235L1079.79 235L1079.79 92.23L1106.35 92.23L1106.35 211.76L1143.16 211.76L1143.16 235Z" fill="url(#TextGradient)"/><path d="" fill="url(#TextGradient)"/><path d="M1274.61 195.64L1274.61 195.64Q1274.61 215.66 1264.50 226.31Q1254.39 236.95 1235.35 236.95L1235.35 236.95Q1216.70 236.95 1203.61 229.63L1203.61 229.63L1203.61 203.36Q1219.63 213.81 1233.01 213.81L1233.01 213.81Q1240.63 213.81 1244.48 209.61Q1248.34 205.41 1248.34 198.18L1248.34 198.18Q1248.34 191.05 1243.75 185.15Q1239.16 179.24 1228.61 172.01L1228.61 172.01Q1219.43 165.66 1214.70 159.85Q1209.96 154.04 1207.37 146.82Q1204.79 139.59 1204.79 130.02L1204.79 130.02Q1204.79 111.66 1214.99 100.92Q1225.20 90.18 1242.38 90.18L1242.38 90.18Q1258.79 90.18 1273.93 99.36L1273.93 99.36L1265.14 120.64Q1260.45 117.91 1255.32 115.76Q1250.20 113.61 1244.34 113.61L1244.34 113.61Q1237.89 113.61 1234.42 117.86Q1230.96 122.11 1230.96 129.43L1230.96 129.43Q1230.96 136.66 1235.11 142.03Q1239.26 147.40 1249.61 154.24L1249.61 154.24Q1263.57 163.61 1269.09 173.38Q1274.61 183.14 1274.61 195.64Z" fill="url(#TextGradient)"/><path d="M1321.97 235L1296.97 235L1296.97 92.23L1321.97 92.23L1321.97 235Z" fill="url(#TextGradient)"/><path d="M1396.00 115.57L1396.00 235L1369.53 235L1369.53 115.57L1342.19 115.57L1342.19 92.23L1423.34 92.23L1423.34 115.57L1396.00 115.57Z" fill="url(#TextGradient)"/><path d="M1502.93 211.76L1502.93 235L1438.57 235L1438.57 92.23L1502.93 92.23L1502.93 115.18L1465.14 115.18L1465.14 149.16L1500.20 149.16L1500.20 172.21L1465.14 172.21L1465.14 211.76L1502.93 211.76Z" fill="url(#TextGradient)"/>
    <defs>
        <linearGradient id="TextGradient" x1="0" y1="0" x2="0" y2="1">
            <stop offset="0" style="stop-color:rgb(2,161,215);stop-opacity:1"/>
            <stop offset="1" style="stop-color:rgb(6,72,101);stop-opacity:1"/>
        </linearGradient>
    </defs>
</svg>
