<?xml version="1.0" encoding="UTF-8" standalone="no"?>
<!DOCTYPE svg PUBLIC "-//W3C//DTD SVG 1.1//EN" "http://www.w3.org/Graphics/SVG/1.1/DTD/svg11.dtd">
<svg width="100%" height="100%" viewBox="0 0 2881.6640625 330" version="1.1" xmlns="http://www.w3.org/2000/svg" xmlns:xlink="http://www.w3.org/1999/xlink" xml:space="preserve" xmlns:serif="http://www.serif.com/" style="fill-rule:evenodd;clip-rule:evenodd;stroke-linejoin:round;stroke-miterlimit:2;">
    <path d="M82.912,22.056l-69.362,69.362l69.362,69.363l69.363,-69.363l-69.363,-69.362Z" style="fill:rgb(176,176,176);"/>
    <path d="M82.912,160.781l-69.362,69.363l69.362,69.363l69.363,-69.363l-69.363,-69.363Z" style="fill:rgb(176,176,176);"/>
    <path d="M199.583,0l-94.615,0l-22.056,22.056l69.363,69.362l69.363,-69.362l-22.055,-22.056Z" style="fill:rgb(176,176,176);fill-opacity:0.5;"/>
    <path d="M113.02,329.614l78.511,0l30.107,-30.107l-69.363,-69.363l-69.363,69.363l30.108,30.107Z" style="fill:rgb(176,176,176);fill-opacity:0.5;"/>
    <path d="M0,0l0,77.869l13.55,13.549l69.362,-69.362l-22.055,-22.056l-60.857,-0Z" style="fill:rgb(176,176,176);fill-opacity:0.5;"/>
    <path d="M13.55,368.87l-1.598,-1.597l3.195,-0l-1.597,1.597Zm-13.55,-125.176l0,85.92l52.805,0l30.107,-30.107l-69.362,-69.363l-13.55,13.55Z" style="fill:rgb(176,176,176);fill-opacity:0.5;"/>
    <path d="M0,104.968l0,111.627l13.55,13.549l69.362,-69.363l-69.362,-69.363l-13.55,13.55Z" style="fill:rgb(176,176,176);fill-opacity:0.5;"/>
    <path d="M152.275,91.418l-69.363,69.363l69.363,69.363l69.363,-69.363l-69.363,-69.363Z" style="fill:#941849;"/>
    <path d="M221.638,22.056l-69.363,69.362l69.363,69.363l69.363,-69.363l-69.363,-69.362Z" style="fill:#CA5C88;"/>
    <path d="M221.638,160.781l-69.363,69.363l69.363,69.363l69.363,-69.363l-69.363,-69.363Z" style="fill:#CA5C88;"/>
    <path d="M291.001,91.418l-69.363,69.363l69.363,69.363l69.363,-69.363l-69.363,-69.363Z" style="fill:#C2185B;"/>
    <path d="M152.291,110.184l-152.291,152.291l0,-18.781l152.275,-152.276l0.016,0.016l0.016,-0.016l69.543,69.544l69.544,-69.544l9.391,9.391l-78.723,78.722l-0.212,-0.212l-0.212,0.212l-69.347,-69.347Z" style="fill:rgb(255,209,62);"/>
    <path d="M607.64 93.23L581.96 236L548.75 236L534.79 161.20Q531.57 145.86 530.20 124.96L530.20 124.96L529.42 132.19L525.41 161.59L511.84 236L478.64 236L452.76 93.23L478.83 93.23L491.63 173.79Q493.48 185.90 496.61 211.78L496.61 211.78Q499.05 185.61 501.20 174.38L501.20 174.38L516.43 93.23L543.97 93.23L559.20 174.38Q562.23 192.45 563.99 211.98L563.99 211.98Q567.41 183.07 568.97 173.79L568.97 173.79L581.37 93.23L607.64 93.23Z" fill="#FFFFFF"/><path d="M720.24 164.42L720.24 164.42Q720.24 199.87 706.96 218.91Q693.68 237.95 668.97 237.95L668.97 237.95Q644.16 237.95 630.88 218.96Q617.60 199.96 617.60 164.22L617.60 164.22Q617.60 128.77 630.88 109.88Q644.16 90.98 669.16 90.98L669.16 90.98Q693.87 90.98 707.05 109.97Q720.24 128.97 720.24 164.42ZM644.75 164.42L644.75 164.42Q644.75 188.83 650.90 201.63Q657.05 214.42 668.97 214.42L668.97 214.42Q692.99 214.42 692.99 164.42L692.99 164.42Q692.99 114.42 669.16 114.42L669.16 114.42Q657.05 114.42 650.90 127.16Q644.75 139.91 644.75 164.42Z" fill="#FFFFFF"/><path d="M777.07 180.43L767.60 180.43L767.60 236L741.04 236L741.04 93.23L775.80 93.23Q797.88 93.23 808.37 103.68Q818.87 114.13 818.87 135.61L818.87 135.61Q818.87 162.66 800.61 173.40L800.61 173.40L828.05 236L799.63 236L777.07 180.43ZM767.60 116.18L767.60 157.58L774.44 157.58Q783.81 157.58 787.91 152.26Q792.02 146.94 792.02 136.39L792.02 136.39Q792.02 125.45 787.67 120.81Q783.32 116.18 774.24 116.18L774.24 116.18L767.60 116.18Z" fill="#FFFFFF"/><path d="M896.61 155.04L930.00 236L901.68 236L878.25 174.96L867.60 185.61L867.60 236L841.04 236L841.04 93.23L867.60 93.23L867.60 164.03L876.88 142.64L901.20 93.23L929.61 93.23L896.61 155.04Z" fill="#FFFFFF"/><path d="M968.97 178.77L968.97 236L942.60 236L942.60 93.23L1006.57 93.23L1006.57 116.18L968.97 116.18L968.97 155.82L1004.03 155.82L1004.03 178.77L968.97 178.77Z" fill="#FFFFFF"/><path d="M1087.82 236L1024.44 236L1024.44 93.23L1051 93.23L1051 212.76L1087.82 212.76L1087.82 236Z" fill="#FFFFFF"/><path d="M1203.05 164.42L1203.05 164.42Q1203.05 199.87 1189.77 218.91Q1176.49 237.95 1151.78 237.95L1151.78 237.95Q1126.98 237.95 1113.70 218.96Q1100.41 199.96 1100.41 164.22L1100.41 164.22Q1100.41 128.77 1113.70 109.88Q1126.98 90.98 1151.98 90.98L1151.98 90.98Q1176.68 90.98 1189.87 109.97Q1203.05 128.97 1203.05 164.42ZM1127.56 164.42L1127.56 164.42Q1127.56 188.83 1133.71 201.63Q1139.87 214.42 1151.78 214.42L1151.78 214.42Q1175.80 214.42 1175.80 164.42L1175.80 164.42Q1175.80 114.42 1151.98 114.42L1151.98 114.42Q1139.87 114.42 1133.71 127.16Q1127.56 139.91 1127.56 164.42Z" fill="#FFFFFF"/><path d="M1367.89 93.23L1342.21 236L1309.01 236L1295.04 161.20Q1291.82 145.86 1290.45 124.96L1290.45 124.96L1289.67 132.19L1285.67 161.59L1272.09 236L1238.89 236L1213.01 93.23L1239.09 93.23L1251.88 173.79Q1253.73 185.90 1256.86 211.78L1256.86 211.78Q1259.30 185.61 1261.45 174.38L1261.45 174.38L1276.68 93.23L1304.22 93.23L1319.46 174.38Q1322.48 192.45 1324.24 211.98L1324.24 211.98Q1327.66 183.07 1329.22 173.79L1329.22 173.79L1341.63 93.23L1367.89 93.23Z" fill="#FFFFFF"/><path d="" fill="#FFFFFF"/><path d="M1522.48 163.25L1522.48 163.25Q1522.48 198.60 1508.08 217.30Q1493.68 236 1466.63 236L1466.63 236L1431.66 236L1431.66 93.23L1469.85 93.23Q1494.75 93.23 1508.62 111.63Q1522.48 130.04 1522.48 163.25ZM1495.24 164.03L1495.24 164.03Q1495.24 116.18 1468.87 116.18L1468.87 116.18L1458.23 116.18L1458.23 212.76L1466.82 212.76Q1481.37 212.76 1488.30 200.60Q1495.24 188.44 1495.24 164.03Z" fill="#FFFFFF"/><path d="M1573.07 236L1548.07 236L1548.07 93.23L1573.07 93.23L1573.07 236Z" fill="#FFFFFF"/><path d="M1668.29 196.64L1668.29 196.64Q1668.29 216.66 1658.18 227.31Q1648.07 237.95 1629.03 237.95L1629.03 237.95Q1610.38 237.95 1597.29 230.63L1597.29 230.63L1597.29 204.36Q1613.30 214.81 1626.68 214.81L1626.68 214.81Q1634.30 214.81 1638.16 210.61Q1642.02 206.41 1642.02 199.18L1642.02 199.18Q1642.02 192.05 1637.43 186.15Q1632.84 180.24 1622.29 173.01L1622.29 173.01Q1613.11 166.66 1608.37 160.85Q1603.64 155.04 1601.05 147.82Q1598.46 140.59 1598.46 131.02L1598.46 131.02Q1598.46 112.66 1608.67 101.92Q1618.87 91.18 1636.06 91.18L1636.06 91.18Q1652.46 91.18 1667.60 100.36L1667.60 100.36L1658.81 121.64Q1654.13 118.91 1649.00 116.76Q1643.87 114.61 1638.01 114.61L1638.01 114.61Q1631.57 114.61 1628.10 118.86Q1624.63 123.11 1624.63 130.43L1624.63 130.43Q1624.63 137.66 1628.78 143.03Q1632.93 148.40 1643.29 155.24L1643.29 155.24Q1657.25 164.61 1662.77 174.38Q1668.29 184.14 1668.29 196.64Z" fill="#FFFFFF"/><path d="M1763.70 137.17L1763.70 137.17Q1763.70 159.93 1752.22 172.08Q1740.75 184.24 1719.07 184.24L1719.07 184.24L1712.43 184.24L1712.43 236L1685.86 236L1685.86 93.23L1722.09 93.23Q1763.70 93.23 1763.70 137.17ZM1712.43 116.18L1712.43 161.20L1717.50 161.20Q1727.27 161.20 1732.05 155.82Q1736.84 150.45 1736.84 138.25L1736.84 138.25Q1736.84 127.02 1732.45 121.60Q1728.05 116.18 1718.87 116.18L1718.87 116.18L1712.43 116.18Z" fill="#FFFFFF"/><path d="M1871.90 236L1845.24 236L1837.04 199.96L1799.83 199.96L1791.63 236L1765.06 236L1800.41 92.64L1836.45 92.64L1871.90 236ZM1805.10 176.43L1832.05 176.43L1824.44 143.23Q1823.75 140.20 1821.36 128.04Q1818.97 115.88 1818.48 111.78L1818.48 111.78Q1817.21 120.18 1815.26 130.29Q1813.30 140.39 1805.10 176.43L1805.10 176.43Z" fill="#FFFFFF"/><path d="M1921.51 116.57L1921.51 236L1895.04 236L1895.04 116.57L1867.70 116.57L1867.70 93.23L1948.85 93.23L1948.85 116.57L1921.51 116.57Z" fill="#FFFFFF"/><path d="M2008.81 114.42L2008.81 114.42Q1997.39 114.42 1990.79 127.80Q1984.20 141.18 1984.20 165.00L1984.20 165.00Q1984.20 214.61 2010.08 214.61L2010.08 214.61Q2021.41 214.61 2033.81 207.39L2033.81 207.39L2033.81 231.02Q2023.36 237.95 2007.05 237.95L2007.05 237.95Q1982.93 237.95 1969.99 218.76Q1957.05 199.57 1957.05 164.81L1957.05 164.81Q1957.05 130.04 1970.38 110.61Q1983.71 91.18 2007.45 91.18L2007.45 91.18Q2015.26 91.18 2022.44 93.32Q2029.61 95.47 2037.82 100.84L2037.82 100.84L2029.03 122.43Q2024.63 119.40 2019.65 116.91Q2014.67 114.42 2008.81 114.42Z" fill="#FFFFFF"/><path d="M2142.21 93.23L2142.21 236L2115.65 236L2115.65 173.40L2080.59 173.40L2080.59 236L2054.03 236L2054.03 93.23L2080.59 93.23L2080.59 149.96L2115.65 149.96L2115.65 93.23L2142.21 93.23Z" fill="#FFFFFF"/><path d="" fill="#FFFFFF"/><path d="M2311.06 236L2284.40 236L2276.20 199.96L2238.99 199.96L2230.79 236L2204.22 236L2239.57 92.64L2275.61 92.64L2311.06 236ZM2244.26 176.43L2271.21 176.43L2263.60 143.23Q2262.91 140.20 2260.52 128.04Q2258.13 115.88 2257.64 111.78L2257.64 111.78Q2256.37 120.18 2254.42 130.29Q2252.46 140.39 2244.26 176.43L2244.26 176.43Z" fill="#FFFFFF"/><path d="M2371.02 114.42L2371.02 114.42Q2359.59 114.42 2353.00 127.80Q2346.41 141.18 2346.41 165.00L2346.41 165.00Q2346.41 214.61 2372.29 214.61L2372.29 214.61Q2383.62 214.61 2396.02 207.39L2396.02 207.39L2396.02 231.02Q2385.57 237.95 2369.26 237.95L2369.26 237.95Q2345.14 237.95 2332.20 218.76Q2319.26 199.57 2319.26 164.81L2319.26 164.81Q2319.26 130.04 2332.59 110.61Q2345.92 91.18 2369.65 91.18L2369.65 91.18Q2377.46 91.18 2384.64 93.32Q2391.82 95.47 2400.02 100.84L2400.02 100.84L2391.23 122.43Q2386.84 119.40 2381.86 116.91Q2376.88 114.42 2371.02 114.42Z" fill="#FFFFFF"/><path d="M2460.08 116.57L2460.08 236L2433.62 236L2433.62 116.57L2406.27 116.57L2406.27 93.23L2487.43 93.23L2487.43 116.57L2460.08 116.57Z" fill="#FFFFFF"/><path d="M2532.45 236L2507.45 236L2507.45 93.23L2532.45 93.23L2532.45 236Z" fill="#FFFFFF"/><path d="M2660.86 164.42L2660.86 164.42Q2660.86 199.87 2647.58 218.91Q2634.30 237.95 2609.59 237.95L2609.59 237.95Q2584.79 237.95 2571.51 218.96Q2558.23 199.96 2558.23 164.22L2558.23 164.22Q2558.23 128.77 2571.51 109.88Q2584.79 90.98 2609.79 90.98L2609.79 90.98Q2634.50 90.98 2647.68 109.97Q2660.86 128.97 2660.86 164.42ZM2585.38 164.42L2585.38 164.42Q2585.38 188.83 2591.53 201.63Q2597.68 214.42 2609.59 214.42L2609.59 214.42Q2633.62 214.42 2633.62 164.42L2633.62 164.42Q2633.62 114.42 2609.79 114.42L2609.79 114.42Q2597.68 114.42 2591.53 127.16Q2585.38 139.91 2585.38 164.42Z" fill="#FFFFFF"/><path d="M2781.66 93.23L2781.66 236L2749.24 236L2705.10 132.58L2703.83 132.58Q2706.27 144.40 2706.27 157.97L2706.27 157.97L2706.27 236L2681.66 236L2681.66 93.23L2714.28 93.23L2758.03 195.57L2759.11 195.57Q2757.25 185.32 2757.25 171.16L2757.25 171.16L2757.25 93.23L2781.66 93.23Z" fill="#FFFFFF"/><path d="M606.64 92.23L580.96 235L547.75 235L533.79 160.20Q530.57 144.86 529.20 123.96L529.20 123.96L528.42 131.19L524.41 160.59L510.84 235L477.64 235L451.76 92.23L477.83 92.23L490.63 172.79Q492.48 184.90 495.61 210.78L495.61 210.78Q498.05 184.61 500.20 173.38L500.20 173.38L515.43 92.23L542.97 92.23L558.20 173.38Q561.23 191.45 562.99 210.98L562.99 210.98Q566.41 182.07 567.97 172.79L567.97 172.79L580.37 92.23L606.64 92.23Z" fill="url(#TextGradient)"/><path d="M719.24 163.42L719.24 163.42Q719.24 198.87 705.96 217.91Q692.68 236.95 667.97 236.95L667.97 236.95Q643.16 236.95 629.88 217.96Q616.60 198.96 616.60 163.22L616.60 163.22Q616.60 127.77 629.88 108.88Q643.16 89.98 668.16 89.98L668.16 89.98Q692.87 89.98 706.05 108.97Q719.24 127.97 719.24 163.42ZM643.75 163.42L643.75 163.42Q643.75 187.83 649.90 200.63Q656.05 213.42 667.97 213.42L667.97 213.42Q691.99 213.42 691.99 163.42L691.99 163.42Q691.99 113.42 668.16 113.42L668.16 113.42Q656.05 113.42 649.90 126.16Q643.75 138.91 643.75 163.42Z" fill="url(#TextGradient)"/><path d="M776.07 179.43L766.60 179.43L766.60 235L740.04 235L740.04 92.23L774.80 92.23Q796.88 92.23 807.37 102.68Q817.87 113.13 817.87 134.61L817.87 134.61Q817.87 161.66 799.61 172.40L799.61 172.40L827.05 235L798.63 235L776.07 179.43ZM766.60 115.18L766.60 156.58L773.44 156.58Q782.81 156.58 786.91 151.26Q791.02 145.94 791.02 135.39L791.02 135.39Q791.02 124.45 786.67 119.81Q782.32 115.18 773.24 115.18L773.24 115.18L766.60 115.18Z" fill="url(#TextGradient)"/><path d="M895.61 154.04L929.00 235L900.68 235L877.25 173.96L866.60 184.61L866.60 235L840.04 235L840.04 92.23L866.60 92.23L866.60 163.03L875.88 141.64L900.20 92.23L928.61 92.23L895.61 154.04Z" fill="url(#TextGradient)"/><path d="M967.97 177.77L967.97 235L941.60 235L941.60 92.23L1005.57 92.23L1005.57 115.18L967.97 115.18L967.97 154.82L1003.03 154.82L1003.03 177.77L967.97 177.77Z" fill="url(#TextGradient)"/><path d="M1086.82 235L1023.44 235L1023.44 92.23L1050 92.23L1050 211.76L1086.82 211.76L1086.82 235Z" fill="url(#TextGradient)"/><path d="M1202.05 163.42L1202.05 163.42Q1202.05 198.87 1188.77 217.91Q1175.49 236.95 1150.78 236.95L1150.78 236.95Q1125.98 236.95 1112.70 217.96Q1099.41 198.96 1099.41 163.22L1099.41 163.22Q1099.41 127.77 1112.70 108.88Q1125.98 89.98 1150.98 89.98L1150.98 89.98Q1175.68 89.98 1188.87 108.97Q1202.05 127.97 1202.05 163.42ZM1126.56 163.42L1126.56 163.42Q1126.56 187.83 1132.71 200.63Q1138.87 213.42 1150.78 213.42L1150.78 213.42Q1174.80 213.42 1174.80 163.42L1174.80 163.42Q1174.80 113.42 1150.98 113.42L1150.98 113.42Q1138.87 113.42 1132.71 126.16Q1126.56 138.91 1126.56 163.42Z" fill="url(#TextGradient)"/><path d="M1366.89 92.23L1341.21 235L1308.01 235L1294.04 160.20Q1290.82 144.86 1289.45 123.96L1289.45 123.96L1288.67 131.19L1284.67 160.59L1271.09 235L1237.89 235L1212.01 92.23L1238.09 92.23L1250.88 172.79Q1252.73 184.90 1255.86 210.78L1255.86 210.78Q1258.30 184.61 1260.45 173.38L1260.45 173.38L1275.68 92.23L1303.22 92.23L1318.46 173.38Q1321.48 191.45 1323.24 210.98L1323.24 210.98Q1326.66 182.07 1328.22 172.79L1328.22 172.79L1340.63 92.23L1366.89 92.23Z" fill="url(#TextGradient)"/><path d="" fill="url(#TextGradient)"/><path d="M1521.48 162.25L1521.48 162.25Q1521.48 197.60 1507.08 216.30Q1492.68 235 1465.63 235L1465.63 235L1430.66 235L1430.66 92.23L1468.85 92.23Q1493.75 92.23 1507.62 110.63Q1521.48 129.04 1521.48 162.25ZM1494.24 163.03L1494.24 163.03Q1494.24 115.18 1467.87 115.18L1467.87 115.18L1457.23 115.18L1457.23 211.76L1465.82 211.76Q1480.37 211.76 1487.30 199.60Q1494.24 187.44 1494.24 163.03Z" fill="url(#TextGradient)"/><path d="M1572.07 235L1547.07 235L1547.07 92.23L1572.07 92.23L1572.07 235Z" fill="url(#TextGradient)"/><path d="M1667.29 195.64L1667.29 195.64Q1667.29 215.66 1657.18 226.31Q1647.07 236.95 1628.03 236.95L1628.03 236.95Q1609.38 236.95 1596.29 229.63L1596.29 229.63L1596.29 203.36Q1612.30 213.81 1625.68 213.81L1625.68 213.81Q1633.30 213.81 1637.16 209.61Q1641.02 205.41 1641.02 198.18L1641.02 198.18Q1641.02 191.05 1636.43 185.15Q1631.84 179.24 1621.29 172.01L1621.29 172.01Q1612.11 165.66 1607.37 159.85Q1602.64 154.04 1600.05 146.82Q1597.46 139.59 1597.46 130.02L1597.46 130.02Q1597.46 111.66 1607.67 100.92Q1617.87 90.18 1635.06 90.18L1635.06 90.18Q1651.46 90.18 1666.60 99.36L1666.60 99.36L1657.81 120.64Q1653.13 117.91 1648.00 115.76Q1642.87 113.61 1637.01 113.61L1637.01 113.61Q1630.57 113.61 1627.10 117.86Q1623.63 122.11 1623.63 129.43L1623.63 129.43Q1623.63 136.66 1627.78 142.03Q1631.93 147.40 1642.29 154.24L1642.29 154.24Q1656.25 163.61 1661.77 173.38Q1667.29 183.14 1667.29 195.64Z" fill="url(#TextGradient)"/><path d="M1762.70 136.17L1762.70 136.17Q1762.70 158.93 1751.22 171.08Q1739.75 183.24 1718.07 183.24L1718.07 183.24L1711.43 183.24L1711.43 235L1684.86 235L1684.86 92.23L1721.09 92.23Q1762.70 92.23 1762.70 136.17ZM1711.43 115.18L1711.43 160.20L1716.50 160.20Q1726.27 160.20 1731.05 154.82Q1735.84 149.45 1735.84 137.25L1735.84 137.25Q1735.84 126.02 1731.45 120.60Q1727.05 115.18 1717.87 115.18L1717.87 115.18L1711.43 115.18Z" fill="url(#TextGradient)"/><path d="M1870.90 235L1844.24 235L1836.04 198.96L1798.83 198.96L1790.63 235L1764.06 235L1799.41 91.64L1835.45 91.64L1870.90 235ZM1804.10 175.43L1831.05 175.43L1823.44 142.23Q1822.75 139.20 1820.36 127.04Q1817.97 114.88 1817.48 110.78L1817.48 110.78Q1816.21 119.18 1814.26 129.29Q1812.30 139.39 1804.10 175.43L1804.10 175.43Z" fill="url(#TextGradient)"/><path d="M1920.51 115.57L1920.51 235L1894.04 235L1894.04 115.57L1866.70 115.57L1866.70 92.23L1947.85 92.23L1947.85 115.57L1920.51 115.57Z" fill="url(#TextGradient)"/><path d="M2007.81 113.42L2007.81 113.42Q1996.39 113.42 1989.79 126.80Q1983.20 140.18 1983.20 164.00L1983.20 164.00Q1983.20 213.61 2009.08 213.61L2009.08 213.61Q2020.41 213.61 2032.81 206.39L2032.81 206.39L2032.81 230.02Q2022.36 236.95 2006.05 236.95L2006.05 236.95Q1981.93 236.95 1968.99 217.76Q1956.05 198.57 1956.05 163.81L1956.05 163.81Q1956.05 129.04 1969.38 109.61Q1982.71 90.18 2006.45 90.18L2006.45 90.18Q2014.26 90.18 2021.44 92.32Q2028.61 94.47 2036.82 99.84L2036.82 99.84L2028.03 121.43Q2023.63 118.40 2018.65 115.91Q2013.67 113.42 2007.81 113.42Z" fill="url(#TextGradient)"/><path d="M2141.21 92.23L2141.21 235L2114.65 235L2114.65 172.40L2079.59 172.40L2079.59 235L2053.03 235L2053.03 92.23L2079.59 92.23L2079.59 148.96L2114.65 148.96L2114.65 92.23L2141.21 92.23Z" fill="url(#TextGradient)"/><path d="" fill="url(#TextGradient)"/><path d="M2310.06 235L2283.40 235L2275.20 198.96L2237.99 198.96L2229.79 235L2203.22 235L2238.57 91.64L2274.61 91.64L2310.06 235ZM2243.26 175.43L2270.21 175.43L2262.60 142.23Q2261.91 139.20 2259.52 127.04Q2257.13 114.88 2256.64 110.78L2256.64 110.78Q2255.37 119.18 2253.42 129.29Q2251.46 139.39 2243.26 175.43L2243.26 175.43Z" fill="url(#TextGradient)"/><path d="M2370.02 113.42L2370.02 113.42Q2358.59 113.42 2352.00 126.80Q2345.41 140.18 2345.41 164.00L2345.41 164.00Q2345.41 213.61 2371.29 213.61L2371.29 213.61Q2382.62 213.61 2395.02 206.39L2395.02 206.39L2395.02 230.02Q2384.57 236.95 2368.26 236.95L2368.26 236.95Q2344.14 236.95 2331.20 217.76Q2318.26 198.57 2318.26 163.81L2318.26 163.81Q2318.26 129.04 2331.59 109.61Q2344.92 90.18 2368.65 90.18L2368.65 90.18Q2376.46 90.18 2383.64 92.32Q2390.82 94.47 2399.02 99.84L2399.02 99.84L2390.23 121.43Q2385.84 118.40 2380.86 115.91Q2375.88 113.42 2370.02 113.42Z" fill="url(#TextGradient)"/><path d="M2459.08 115.57L2459.08 235L2432.62 235L2432.62 115.57L2405.27 115.57L2405.27 92.23L2486.43 92.23L2486.43 115.57L2459.08 115.57Z" fill="url(#TextGradient)"/><path d="M2531.45 235L2506.45 235L2506.45 92.23L2531.45 92.23L2531.45 235Z" fill="url(#TextGradient)"/><path d="M2659.86 163.42L2659.86 163.42Q2659.86 198.87 2646.58 217.91Q2633.30 236.95 2608.59 236.95L2608.59 236.95Q2583.79 236.95 2570.51 217.96Q2557.23 198.96 2557.23 163.22L2557.23 163.22Q2557.23 127.77 2570.51 108.88Q2583.79 89.98 2608.79 89.98L2608.79 89.98Q2633.50 89.98 2646.68 108.97Q2659.86 127.97 2659.86 163.42ZM2584.38 163.42L2584.38 163.42Q2584.38 187.83 2590.53 200.63Q2596.68 213.42 2608.59 213.42L2608.59 213.42Q2632.62 213.42 2632.62 163.42L2632.62 163.42Q2632.62 113.42 2608.79 113.42L2608.79 113.42Q2596.68 113.42 2590.53 126.16Q2584.38 138.91 2584.38 163.42Z" fill="url(#TextGradient)"/><path d="M2780.66 92.23L2780.66 235L2748.24 235L2704.10 131.58L2702.83 131.58Q2705.27 143.40 2705.27 156.97L2705.27 156.97L2705.27 235L2680.66 235L2680.66 92.23L2713.28 92.23L2757.03 194.57L2758.11 194.57Q2756.25 184.32 2756.25 170.16L2756.25 170.16L2756.25 92.23L2780.66 92.23Z" fill="url(#TextGradient)"/>
    <defs>
        <linearGradient id="TextGradient" x1="0" y1="0" x2="0" y2="1">
            <stop offset="0" style="stop-color:#571831;stop-opacity:1"/>
            <stop offset="1" style="stop-color:#C2185B;stop-opacity:1"/>
        </linearGradient>
    </defs>
</svg>
