<?xml version="1.0" encoding="UTF-8" standalone="no"?>
<!DOCTYPE svg PUBLIC "-//W3C//DTD SVG 1.1//EN" "http://www.w3.org/Graphics/SVG/1.1/DTD/svg11.dtd">
<svg width="100%" height="100%" viewBox="0 0 1246.21484375 330" version="1.1" xmlns="http://www.w3.org/2000/svg" xmlns:xlink="http://www.w3.org/1999/xlink" xml:space="preserve" xmlns:serif="http://www.serif.com/" style="fill-rule:evenodd;clip-rule:evenodd;stroke-linejoin:round;stroke-miterlimit:2;">
    <g transform="matrix(0.707107,-0.707107,0.707107,0.707107,-212.718,125.508)">
        <rect x="184.1" y="233.984" width="98.094" height="98.094" style="fill:rgb(11,140,197);"/>
    </g>
    <g transform="matrix(0.707107,-0.707107,0.707107,0.707107,-282.081,56.1452)">
        <rect x="184.1" y="233.984" width="98.094" height="98.094" style="fill:rgb(176,176,176);"/>
    </g>
    <g transform="matrix(0.707107,-0.707107,0.707107,0.707107,-282.081,194.871)">
        <rect x="184.1" y="233.984" width="98.094" height="98.094" style="fill:rgb(176,176,176);"/>
    </g>
    <g transform="matrix(0.707107,-0.707107,0.707107,0.707107,-212.718,-13.2176)">
        <rect x="184.1" y="233.984" width="98.094" height="98.094" style="fill:rgb(176,176,176);fill-opacity:0.5;"/>
    </g>
    <g transform="matrix(0.707107,-0.707107,0.707107,0.707107,-351.444,125.508)">
        <rect x="184.1" y="233.984" width="98.094" height="98.094" style="fill:rgb(176,176,176);fill-opacity:0.5;"/>
    </g>
    <g transform="matrix(0.707107,-0.707107,0.707107,0.707107,-212.718,264.234)">
        <rect x="184.1" y="233.984" width="98.094" height="98.094" style="fill:rgb(176,176,176);fill-opacity:0.5;"/>
    </g>
    <g transform="matrix(0.707107,-0.707107,0.707107,0.707107,-351.444,264.234)">
        <rect x="184.1" y="233.984" width="98.094" height="98.094" style="fill:rgb(176,176,176);fill-opacity:0.5;"/>
    </g>
    <g transform="matrix(0.707107,-0.707107,0.707107,0.707107,-351.444,-13.2176)">
        <rect x="184.1" y="233.984" width="98.094" height="98.094" style="fill:rgb(176,176,176);fill-opacity:0.5;"/>
    </g>
    <g transform="matrix(0.707107,-0.707107,0.707107,0.707107,-143.355,56.1452)">
        <rect x="184.1" y="233.984" width="98.094" height="98.094" style="fill:rgb(80,178,223);"/>
    </g>
    <g transform="matrix(0.707107,-0.707107,0.707107,0.707107,-143.355,194.871)">
        <rect x="184.1" y="233.984" width="98.094" height="98.094" style="fill:rgb(80,178,223);"/>
    </g>
    <g transform="matrix(0.707107,-0.707107,0.707107,0.707107,-73.9922,125.508)">
        <rect x="184.1" y="233.984" width="98.094" height="98.094" style="fill:rgb(2,161,215);"/>
    </g>
    <path d="M152.291,211.378L0,59.087L0,77.869L152.275,230.144L152.291,230.128L152.307,230.144L221.85,160.601L291.394,230.144L300.785,220.753L222.062,142.031L221.85,142.243L221.638,142.031L152.291,211.378Z" style="fill:rgb(255,209,62);"/>
    <path d="M513.01 162.95L545.63 236L517.99 236L497.58 184.83L478.64 236L451 236L483.62 161.78L453.44 93.23L480.20 93.23L499.05 140.20L515.36 93.23L543.19 93.23L513.01 162.95Z" fill="#FFFFFF"/><path d="M638.21 236L609.20 236L582.05 114.42L580.98 114.42Q582.84 128.48 582.84 140.20L582.84 140.20L582.84 236L558.23 236L558.23 93.23L599.05 93.23L623.46 205.43L624.24 205.43L648.46 93.23L689.87 93.23L689.87 236L664.67 236L664.67 139.22Q664.67 127.21 666.04 114.61L666.04 114.61L665.26 114.61L638.21 236Z" fill="#FFFFFF"/><path d="M778.44 236L715.06 236L715.06 93.23L741.63 93.23L741.63 212.76L778.44 212.76L778.44 236Z" fill="#FFFFFF"/><path d="M866.63 212.37L866.63 236L790.06 236L790.06 216.18L815.45 180.24Q825.90 165.39 829.81 158.22Q833.71 151.04 835.57 144.45Q837.43 137.86 837.43 130.82L837.43 130.82Q837.43 122.62 833.76 118.52Q830.10 114.42 824.24 114.42L824.24 114.42Q819.07 114.42 814.57 117.15Q810.08 119.89 803.64 127.02L803.64 127.02L788.79 111.39Q799.05 99.77 807.84 95.47Q816.63 91.18 826.88 91.18L826.88 91.18Q844.16 91.18 853.88 101.33Q863.60 111.49 863.60 129.55L863.60 129.55Q863.60 137.76 861.84 145.08Q860.08 152.41 856.52 159.78Q852.95 167.15 847.58 175.11Q842.21 183.07 819.85 211.59L819.85 211.59L819.85 212.37L866.63 212.37Z" fill="#FFFFFF"/><path d="M924.05 180.43L914.57 180.43L914.57 236L888.01 236L888.01 93.23L922.78 93.23Q944.85 93.23 955.35 103.68Q965.84 114.13 965.84 135.61L965.84 135.61Q965.84 162.66 947.58 173.40L947.58 173.40L975.02 236L946.61 236L924.05 180.43ZM914.57 116.18L914.57 157.58L921.41 157.58Q930.79 157.58 934.89 152.26Q938.99 146.94 938.99 136.39L938.99 136.39Q938.99 125.45 934.64 120.81Q930.30 116.18 921.21 116.18L921.21 116.18L914.57 116.18Z" fill="#FFFFFF"/><path d="M1014.38 178.77L1014.38 236L988.01 236L988.01 93.23L1051.98 93.23L1051.98 116.18L1014.38 116.18L1014.38 155.82L1049.44 155.82L1049.44 178.77L1014.38 178.77Z" fill="#FFFFFF"/><path d="M1117.21 114.42L1117.21 114.42Q1105.79 114.42 1099.19 127.80Q1092.60 141.18 1092.60 165.00L1092.60 165.00Q1092.60 214.61 1118.48 214.61L1118.48 214.61Q1129.81 214.61 1142.21 207.39L1142.21 207.39L1142.21 231.02Q1131.76 237.95 1115.45 237.95L1115.45 237.95Q1091.33 237.95 1078.39 218.76Q1065.45 199.57 1065.45 164.81L1065.45 164.81Q1065.45 130.04 1078.78 110.61Q1092.11 91.18 1115.84 91.18L1115.84 91.18Q1123.66 91.18 1130.83 93.32Q1138.01 95.47 1146.21 100.84L1146.21 100.84L1137.43 122.43Q1133.03 119.40 1128.05 116.91Q1123.07 114.42 1117.21 114.42Z" fill="#FFFFFF"/><path d="M512.01 161.95L544.63 235L516.99 235L496.58 183.83L477.64 235L450 235L482.62 160.78L452.44 92.23L479.20 92.23L498.05 139.20L514.36 92.23L542.19 92.23L512.01 161.95Z" fill="url(#TextGradient)"/><path d="M637.21 235L608.20 235L581.05 113.42L579.98 113.42Q581.84 127.48 581.84 139.20L581.84 139.20L581.84 235L557.23 235L557.23 92.23L598.05 92.23L622.46 204.43L623.24 204.43L647.46 92.23L688.87 92.23L688.87 235L663.67 235L663.67 138.22Q663.67 126.21 665.04 113.61L665.04 113.61L664.26 113.61L637.21 235Z" fill="url(#TextGradient)"/><path d="M777.44 235L714.06 235L714.06 92.23L740.63 92.23L740.63 211.76L777.44 211.76L777.44 235Z" fill="url(#TextGradient)"/><path d="M865.63 211.37L865.63 235L789.06 235L789.06 215.18L814.45 179.24Q824.90 164.39 828.81 157.22Q832.71 150.04 834.57 143.45Q836.43 136.86 836.43 129.82L836.43 129.82Q836.43 121.62 832.76 117.52Q829.10 113.42 823.24 113.42L823.24 113.42Q818.07 113.42 813.57 116.15Q809.08 118.89 802.64 126.02L802.64 126.02L787.79 110.39Q798.05 98.77 806.84 94.47Q815.63 90.18 825.88 90.18L825.88 90.18Q843.16 90.18 852.88 100.33Q862.60 110.49 862.60 128.55L862.60 128.55Q862.60 136.76 860.84 144.08Q859.08 151.41 855.52 158.78Q851.95 166.15 846.58 174.11Q841.21 182.07 818.85 210.59L818.85 210.59L818.85 211.37L865.63 211.37Z" fill="url(#TextGradient)"/><path d="M923.05 179.43L913.57 179.43L913.57 235L887.01 235L887.01 92.23L921.78 92.23Q943.85 92.23 954.35 102.68Q964.84 113.13 964.84 134.61L964.84 134.61Q964.84 161.66 946.58 172.40L946.58 172.40L974.02 235L945.61 235L923.05 179.43ZM913.57 115.18L913.57 156.58L920.41 156.58Q929.79 156.58 933.89 151.26Q937.99 145.94 937.99 135.39L937.99 135.39Q937.99 124.45 933.64 119.81Q929.30 115.18 920.21 115.18L920.21 115.18L913.57 115.18Z" fill="url(#TextGradient)"/><path d="M1013.38 177.77L1013.38 235L987.01 235L987.01 92.23L1050.98 92.23L1050.98 115.18L1013.38 115.18L1013.38 154.82L1048.44 154.82L1048.44 177.77L1013.38 177.77Z" fill="url(#TextGradient)"/><path d="M1116.21 113.42L1116.21 113.42Q1104.79 113.42 1098.19 126.80Q1091.60 140.18 1091.60 164.00L1091.60 164.00Q1091.60 213.61 1117.48 213.61L1117.48 213.61Q1128.81 213.61 1141.21 206.39L1141.21 206.39L1141.21 230.02Q1130.76 236.95 1114.45 236.95L1114.45 236.95Q1090.33 236.95 1077.39 217.76Q1064.45 198.57 1064.45 163.81L1064.45 163.81Q1064.45 129.04 1077.78 109.61Q1091.11 90.18 1114.84 90.18L1114.84 90.18Q1122.66 90.18 1129.83 92.32Q1137.01 94.47 1145.21 99.84L1145.21 99.84L1136.43 121.43Q1132.03 118.40 1127.05 115.91Q1122.07 113.42 1116.21 113.42Z" fill="url(#TextGradient)"/>
    <defs>
        <linearGradient id="TextGradient" x1="0" y1="0" x2="0" y2="1">
            <stop offset="0" style="stop-color:rgb(2,161,215);stop-opacity:1"/>
            <stop offset="1" style="stop-color:rgb(6,72,101);stop-opacity:1"/>
        </linearGradient>
    </defs>
</svg>
